<?xml version="1.0" encoding="UTF-8"?>
<!DOCTYPE xmeml>
<xmeml version="4">
    <sequence TL.SQAudioVisibleBase="0" TL.SQVideoVisibleBase="0" TL.SQVisibleBaseTime="4688689668533" TL.SQAVDividerPosition="0.518388807774" TL.SQHideShyTracks="0" TL.SQHeaderWidth="236" Monitor.ProgramZoomOut="16511040000000" Monitor.ProgramZoomIn="0" TL.SQTimePerPixel="0.015492098377796014" AM.TrackVScrollPosition="0" AM.TrackScrollPosition="0" MZ.EditLine="10516262400000" MZ.Sequence.PreviewFrameSizeHeight="1080" MZ.Sequence.PreviewFrameSizeWidth="1920" MZ.Sequence.AudioTimeDisplayFormat="200" MZ.Sequence.PreviewRenderingClassID="1297106761" MZ.Sequence.PreviewRenderingPresetCodec="1297107278" MZ.Sequence.PreviewRenderingPresetPath="EncoderPresets/SequencePreview/cc7991f5-c236-4db1-957e-2c71f924e81c/I-Frame Only MPEG.epr" MZ.Sequence.PreviewUseMaxRenderQuality="false" MZ.Sequence.PreviewUseMaxBitDepth="false" MZ.Sequence.EditingModeGUID="cc7991f5-c236-4db1-957e-2c71f924e81c" MZ.Sequence.VideoTimeDisplayFormat="101" MZ.WorkOutPoint="12274053120000" MZ.WorkInPoint="4694215680000" explodedTracks="true">
        <uuid>51ef83b5-aaaa-4ab1-8265-b34e8a6e7f11</uuid>
        <duration>3298</duration>
        <rate>
            <timebase>25</timebase>
            <ntsc>FALSE</ntsc>
        </rate>
        <name/>
        <media>
            <video>
                <format>
                    <samplecharacteristics>
                        <rate>
                            <timebase>25</timebase>
                            <ntsc>FALSE</ntsc>
                        </rate>
                        <codec>
                            <name>Apple ProRes 422</name>
                            <appspecificdata>
                                <appname>Final Cut Pro</appname>
                                <appmanufacturer>Apple Inc.</appmanufacturer>
                                <appversion>7.0</appversion>
                                <data>
                                    <qtcodec>
                                        <codecname>Apple ProRes 422</codecname>
                                        <codectypename>Apple ProRes 422</codectypename>
                                        <codectypecode>apcn</codectypecode>
                                        <codecvendorcode>appl</codecvendorcode>
                                        <spatialquality>1024</spatialquality>
                                        <temporalquality>0</temporalquality>
                                        <keyframerate>0</keyframerate>
                                        <datarate>0</datarate>
                                    </qtcodec>
                                </data>
                            </appspecificdata>
                        </codec>
                        <width>1920</width>
                        <height>1080</height>
                        <anamorphic>FALSE</anamorphic>
                        <pixelaspectratio>square</pixelaspectratio>
                        <fielddominance>none</fielddominance>
                        <colordepth>24</colordepth>
                    </samplecharacteristics>
                </format>
                <track TL.SQTrackShy="0" TL.SQTrackExpandedHeight="25" TL.SQTrackExpanded="0" MZ.TrackTargeted="1">
                    <clipitem id="my-clip0">
                        <masterclipid>my-clip0</masterclipid>
                        <name>A005C002_190618_K1TL.mov</name>
                        <enabled>TRUE</enabled>
                        <duration>5272</duration>
                        <rate>
                            <timebase>25</timebase>
                            <ntsc>FALSE</ntsc>
                        </rate>
                        <start>0</start>
                        <end>103</end>
                        <in>2414</in>
                        <out>2517</out>
                        <file id="file-1">
                            <name>A005C002_190618_K1TL.mov</name>
                            <pathurl>file://localhost/Volumes/PIGSTORE/Projects/rema_smartboat_0299_jun_2019/editorial/proxies/A005C002_190618_K1TL.mov</pathurl>
                            <rate>
                                <timebase>25</timebase>
                                <ntsc>FALSE</ntsc>
                            </rate>
                            <duration>5272</duration>
                            <timecode>
                                <rate>
                                    <timebase>25</timebase>
                                    <ntsc>FALSE</ntsc>
                                </rate>
                                <string>01:06:08:21</string>
                                <frame>99221</frame>
                                <displayformat>NDF</displayformat>
                            </timecode>
                            <media>
                                <video>
                                    <samplecharacteristics>
                                        <rate>
                                            <timebase>25</timebase>
                                            <ntsc>FALSE</ntsc>
                                        </rate>
                                        <width>1920</width>
                                        <height>1080</height>
                                        <anamorphic>FALSE</anamorphic>
                                        <pixelaspectratio>square</pixelaspectratio>
                                        <fielddominance>none</fielddominance>
                                    </samplecharacteristics>
                                </video>
                                <audio>
                                    <samplecharacteristics>
                                        <depth>16</depth>
                                        <samplerate>48000</samplerate>
                                    </samplecharacteristics>
                                    <channelcount>1</channelcount>
                                    <audiochannel>
                                        <sourcechannel>1</sourcechannel>
                                    </audiochannel>
                                </audio>
                                <audio>
                                    <samplecharacteristics>
                                        <depth>16</depth>
                                        <samplerate>48000</samplerate>
                                    </samplecharacteristics>
                                    <channelcount>1</channelcount>
                                    <audiochannel>
                                        <sourcechannel>2</sourcechannel>
                                    </audiochannel>
                                </audio>
                                <audio>
                                    <samplecharacteristics>
                                        <depth>16</depth>
                                        <samplerate>48000</samplerate>
                                    </samplecharacteristics>
                                    <channelcount>1</channelcount>
                                    <audiochannel>
                                        <sourcechannel>3</sourcechannel>
                                    </audiochannel>
                                </audio>
                                <audio>
                                    <samplecharacteristics>
                                        <depth>16</depth>
                                        <samplerate>48000</samplerate>
                                    </samplecharacteristics>
                                    <channelcount>1</channelcount>
                                    <audiochannel>
                                        <sourcechannel>4</sourcechannel>
                                    </audiochannel>
                                </audio>
                                <audio>
                                    <samplecharacteristics>
                                        <depth>16</depth>
                                        <samplerate>48000</samplerate>
                                    </samplecharacteristics>
                                    <channelcount>1</channelcount>
                                    <audiochannel>
                                        <sourcechannel>5</sourcechannel>
                                    </audiochannel>
                                </audio>
                            </media>
                        </file>
                        <filter/>
                        <labels>
                            <label2>VFX</label2>
                        </labels>
                    </clipitem>
                    <clipitem id="my-clip1">
                        <masterclipid>my-clip1</masterclipid>
                        <name>A005C002_190618_K1TL.mov</name>
                        <enabled>TRUE</enabled>
                        <duration>5272</duration>
                        <rate>
                            <timebase>25</timebase>
                            <ntsc>FALSE</ntsc>
                        </rate>
                        <start>103</start>
                        <end>206</end>
                        <in>2414</in>
                        <out>2517</out>
                        <file id="file-1">
                            <name>A005C002_190618_K1TL.mov</name>
                            <pathurl>file://localhost/Volumes/PIGSTORE/Projects/rema_smartboat_0299_jun_2019/editorial/proxies/A005C002_190618_K1TL.mov</pathurl>
                            <rate>
                                <timebase>25</timebase>
                                <ntsc>FALSE</ntsc>
                            </rate>
                            <duration>5272</duration>
                            <timecode>
                                <rate>
                                    <timebase>25</timebase>
                                    <ntsc>FALSE</ntsc>
                                </rate>
                                <string>01:06:08:21</string>
                                <frame>99221</frame>
                                <displayformat>NDF</displayformat>
                            </timecode>
                            <media>
                                <video>
                                    <samplecharacteristics>
                                        <rate>
                                            <timebase>25</timebase>
                                            <ntsc>FALSE</ntsc>
                                        </rate>
                                        <width>1920</width>
                                        <height>1080</height>
                                        <anamorphic>FALSE</anamorphic>
                                        <pixelaspectratio>square</pixelaspectratio>
                                        <fielddominance>none</fielddominance>
                                    </samplecharacteristics>
                                </video>
                                <audio>
                                    <samplecharacteristics>
                                        <depth>16</depth>
                                        <samplerate>48000</samplerate>
                                    </samplecharacteristics>
                                    <channelcount>1</channelcount>
                                    <audiochannel>
                                        <sourcechannel>1</sourcechannel>
                                    </audiochannel>
                                </audio>
                                <audio>
                                    <samplecharacteristics>
                                        <depth>16</depth>
                                        <samplerate>48000</samplerate>
                                    </samplecharacteristics>
                                    <channelcount>1</channelcount>
                                    <audiochannel>
                                        <sourcechannel>2</sourcechannel>
                                    </audiochannel>
                                </audio>
                                <audio>
                                    <samplecharacteristics>
                                        <depth>16</depth>
                                        <samplerate>48000</samplerate>
                                    </samplecharacteristics>
                                    <channelcount>1</channelcount>
                                    <audiochannel>
                                        <sourcechannel>3</sourcechannel>
                                    </audiochannel>
                                </audio>
                                <audio>
                                    <samplecharacteristics>
                                        <depth>16</depth>
                                        <samplerate>48000</samplerate>
                                    </samplecharacteristics>
                                    <channelcount>1</channelcount>
                                    <audiochannel>
                                        <sourcechannel>4</sourcechannel>
                                    </audiochannel>
                                </audio>
                                <audio>
                                    <samplecharacteristics>
                                        <depth>16</depth>
                                        <samplerate>48000</samplerate>
                                    </samplecharacteristics>
                                    <channelcount>1</channelcount>
                                    <audiochannel>
                                        <sourcechannel>5</sourcechannel>
                                    </audiochannel>
                                </audio>
                            </media>
                        </file>
                        <filter/>
                        <labels>
                            <label2>VFX</label2>
                        </labels>
                    </clipitem>
                    <clipitem id="my-clip2">
                        <masterclipid>my-clip2</masterclipid>
                        <name>B001C029_190617_K136.mov</name>
                        <enabled>TRUE</enabled>
                        <duration>2582</duration>
                        <rate>
                            <timebase>25</timebase>
                            <ntsc>FALSE</ntsc>
                        </rate>
                        <start>206</start>
                        <end>235</end>
                        <in>819</in>
                        <out>848</out>
                        <file id="file-2">
                            <name>B001C029_190617_K136.mov</name>
                            <pathurl>file://localhost/Volumes/PIGSTORE/Projects/rema_smartboat_0299_jun_2019/editorial/proxies/B001C029_190617_K136.mov</pathurl>
                            <rate>
                                <timebase>25</timebase>
                                <ntsc>FALSE</ntsc>
                            </rate>
                            <duration>2582</duration>
                            <timecode>
                                <rate>
                                    <timebase>25</timebase>
                                    <ntsc>FALSE</ntsc>
                                </rate>
                                <string>19:36:01:22</string>
                                <frame>1764047</frame>
                                <displayformat>NDF</displayformat>
                            </timecode>
                            <media>
                                <video>
                                    <samplecharacteristics>
                                        <rate>
                                            <timebase>25</timebase>
                                            <ntsc>FALSE</ntsc>
                                        </rate>
                                        <width>1920</width>
                                        <height>1080</height>
                                        <anamorphic>FALSE</anamorphic>
                                        <pixelaspectratio>square</pixelaspectratio>
                                        <fielddominance>none</fielddominance>
                                    </samplecharacteristics>
                                </video>
                                <audio>
                                    <samplecharacteristics>
                                        <depth>16</depth>
                                        <samplerate>48000</samplerate>
                                    </samplecharacteristics>
                                    <channelcount>1</channelcount>
                                    <audiochannel>
                                        <sourcechannel>1</sourcechannel>
                                    </audiochannel>
                                </audio>
                            </media>
                        </file>
                        <filter/>
                        <labels>
                            <label2>VFX</label2>
                        </labels>
                    </clipitem>
                    <clipitem id="my-clip3">
                        <masterclipid>my-clip3</masterclipid>
                        <name>B001C029_190617_K136.mov</name>
                        <enabled>TRUE</enabled>
                        <duration>2582</duration>
                        <rate>
                            <timebase>25</timebase>
                            <ntsc>FALSE</ntsc>
                        </rate>
                        <start>235</start>
                        <end>264</end>
                        <in>819</in>
                        <out>848</out>
                        <file id="file-2">
                            <name>B001C029_190617_K136.mov</name>
                            <pathurl>file://localhost/Volumes/PIGSTORE/Projects/rema_smartboat_0299_jun_2019/editorial/proxies/B001C029_190617_K136.mov</pathurl>
                            <rate>
                                <timebase>25</timebase>
                                <ntsc>FALSE</ntsc>
                            </rate>
                            <duration>2582</duration>
                            <timecode>
                                <rate>
                                    <timebase>25</timebase>
                                    <ntsc>FALSE</ntsc>
                                </rate>
                                <string>19:36:01:22</string>
                                <frame>1764047</frame>
                                <displayformat>NDF</displayformat>
                            </timecode>
                            <media>
                                <video>
                                    <samplecharacteristics>
                                        <rate>
                                            <timebase>25</timebase>
                                            <ntsc>FALSE</ntsc>
                                        </rate>
                                        <width>1920</width>
                                        <height>1080</height>
                                        <anamorphic>FALSE</anamorphic>
                                        <pixelaspectratio>square</pixelaspectratio>
                                        <fielddominance>none</fielddominance>
                                    </samplecharacteristics>
                                </video>
                                <audio>
                                    <samplecharacteristics>
                                        <depth>16</depth>
                                        <samplerate>48000</samplerate>
                                    </samplecharacteristics>
                                    <channelcount>1</channelcount>
                                    <audiochannel>
                                        <sourcechannel>1</sourcechannel>
                                    </audiochannel>
                                </audio>
                            </media>
                        </file>
                        <filter/>
                        <labels>
                            <label2>VFX</label2>
                        </labels>
                    </clipitem>
                    <clipitem id="my-clip4">
                        <masterclipid>my-clip4</masterclipid>
                        <name>B001C022_190617_K136.mov</name>
                        <enabled>TRUE</enabled>
                        <duration>1334</duration>
                        <rate>
                            <timebase>25</timebase>
                            <ntsc>FALSE</ntsc>
                        </rate>
                        <start>264</start>
                        <end>288</end>
                        <in>898</in>
                        <out>922</out>
                        <file id="file-3">
                            <name>B001C022_190617_K136.mov</name>
                            <pathurl>file://localhost/Volumes/PIGSTORE/Projects/rema_smartboat_0299_jun_2019/editorial/proxies/B001C022_190617_K136.mov</pathurl>
                            <rate>
                                <timebase>25</timebase>
                                <ntsc>FALSE</ntsc>
                            </rate>
                            <duration>1334</duration>
                            <timecode>
                                <rate>
                                    <timebase>25</timebase>
                                    <ntsc>FALSE</ntsc>
                                </rate>
                                <string>18:54:55:03</string>
                                <frame>1702378</frame>
                                <displayformat>NDF</displayformat>
                            </timecode>
                            <media>
                                <video>
                                    <samplecharacteristics>
                                        <rate>
                                            <timebase>25</timebase>
                                            <ntsc>FALSE</ntsc>
                                        </rate>
                                        <width>1920</width>
                                        <height>1080</height>
                                        <anamorphic>FALSE</anamorphic>
                                        <pixelaspectratio>square</pixelaspectratio>
                                        <fielddominance>none</fielddominance>
                                    </samplecharacteristics>
                                </video>
                                <audio>
                                    <samplecharacteristics>
                                        <depth>16</depth>
                                        <samplerate>48000</samplerate>
                                    </samplecharacteristics>
                                    <channelcount>1</channelcount>
                                    <audiochannel>
                                        <sourcechannel>1</sourcechannel>
                                    </audiochannel>
                                </audio>
                            </media>
                        </file>
                        <filter/>
                        <labels>
                            <label2>VFX</label2>
                        </labels>
                    </clipitem>
                    <clipitem id="my-clip5">
                        <masterclipid>my-clip5</masterclipid>
                        <name>B001C022_190617_K136.mov</name>
                        <enabled>TRUE</enabled>
                        <duration>1334</duration>
                        <rate>
                            <timebase>25</timebase>
                            <ntsc>FALSE</ntsc>
                        </rate>
                        <start>288</start>
                        <end>312</end>
                        <in>898</in>
                        <out>922</out>
                        <file id="file-3">
                            <name>B001C022_190617_K136.mov</name>
                            <pathurl>file://localhost/Volumes/PIGSTORE/Projects/rema_smartboat_0299_jun_2019/editorial/proxies/B001C022_190617_K136.mov</pathurl>
                            <rate>
                                <timebase>25</timebase>
                                <ntsc>FALSE</ntsc>
                            </rate>
                            <duration>1334</duration>
                            <timecode>
                                <rate>
                                    <timebase>25</timebase>
                                    <ntsc>FALSE</ntsc>
                                </rate>
                                <string>18:54:55:03</string>
                                <frame>1702378</frame>
                                <displayformat>NDF</displayformat>
                            </timecode>
                            <media>
                                <video>
                                    <samplecharacteristics>
                                        <rate>
                                            <timebase>25</timebase>
                                            <ntsc>FALSE</ntsc>
                                        </rate>
                                        <width>1920</width>
                                        <height>1080</height>
                                        <anamorphic>FALSE</anamorphic>
                                        <pixelaspectratio>square</pixelaspectratio>
                                        <fielddominance>none</fielddominance>
                                    </samplecharacteristics>
                                </video>
                                <audio>
                                    <samplecharacteristics>
                                        <depth>16</depth>
                                        <samplerate>48000</samplerate>
                                    </samplecharacteristics>
                                    <channelcount>1</channelcount>
                                    <audiochannel>
                                        <sourcechannel>1</sourcechannel>
                                    </audiochannel>
                                </audio>
                            </media>
                        </file>
                        <filter/>
                        <labels>
                            <label2>VFX</label2>
                        </labels>
                    </clipitem>
                    <clipitem id="my-clip6">
                        <masterclipid>my-clip6</masterclipid>
                        <name>A007C010_190619_K1TL.mov</name>
                        <enabled>TRUE</enabled>
                        <duration>725</duration>
                        <rate>
                            <timebase>25</timebase>
                            <ntsc>FALSE</ntsc>
                        </rate>
                        <start>312</start>
                        <end>336</end>
                        <in>510</in>
                        <out>534</out>
                        <file id="file-4">
                            <name>A007C010_190619_K1TL.mov</name>
                            <pathurl>file://localhost/Volumes/PIGSTORE/Projects/rema_smartboat_0299_jun_2019/editorial/proxies/A007C010_190619_K1TL.mov</pathurl>
                            <rate>
                                <timebase>25</timebase>
                                <ntsc>FALSE</ntsc>
                            </rate>
                            <duration>725</duration>
                            <timecode>
                                <rate>
                                    <timebase>25</timebase>
                                    <ntsc>FALSE</ntsc>
                                </rate>
                                <string>13:18:18:10</string>
                                <frame>1197460</frame>
                                <displayformat>NDF</displayformat>
                            </timecode>
                            <media>
                                <video>
                                    <samplecharacteristics>
                                        <rate>
                                            <timebase>25</timebase>
                                            <ntsc>FALSE</ntsc>
                                        </rate>
                                        <width>1920</width>
                                        <height>1080</height>
                                        <anamorphic>FALSE</anamorphic>
                                        <pixelaspectratio>square</pixelaspectratio>
                                        <fielddominance>none</fielddominance>
                                    </samplecharacteristics>
                                </video>
                                <audio>
                                    <samplecharacteristics>
                                        <depth>16</depth>
                                        <samplerate>48000</samplerate>
                                    </samplecharacteristics>
                                    <channelcount>1</channelcount>
                                    <audiochannel>
                                        <sourcechannel>1</sourcechannel>
                                    </audiochannel>
                                </audio>
                                <audio>
                                    <samplecharacteristics>
                                        <depth>16</depth>
                                        <samplerate>48000</samplerate>
                                    </samplecharacteristics>
                                    <channelcount>1</channelcount>
                                    <audiochannel>
                                        <sourcechannel>2</sourcechannel>
                                    </audiochannel>
                                </audio>
                                <audio>
                                    <samplecharacteristics>
                                        <depth>16</depth>
                                        <samplerate>48000</samplerate>
                                    </samplecharacteristics>
                                    <channelcount>1</channelcount>
                                    <audiochannel>
                                        <sourcechannel>3</sourcechannel>
                                    </audiochannel>
                                </audio>
                                <audio>
                                    <samplecharacteristics>
                                        <depth>16</depth>
                                        <samplerate>48000</samplerate>
                                    </samplecharacteristics>
                                    <channelcount>1</channelcount>
                                    <audiochannel>
                                        <sourcechannel>4</sourcechannel>
                                    </audiochannel>
                                </audio>
                                <audio>
                                    <samplecharacteristics>
                                        <depth>16</depth>
                                        <samplerate>48000</samplerate>
                                    </samplecharacteristics>
                                    <channelcount>1</channelcount>
                                    <audiochannel>
                                        <sourcechannel>5</sourcechannel>
                                    </audiochannel>
                                </audio>
                            </media>
                        </file>
                        <filter/>
                        <labels>
                            <label2>VFX</label2>
                        </labels>
                    </clipitem>
                    <clipitem id="my-clip7">
                        <masterclipid>my-clip7</masterclipid>
                        <name>A007C010_190619_K1TL.mov</name>
                        <enabled>TRUE</enabled>
                        <duration>725</duration>
                        <rate>
                            <timebase>25</timebase>
                            <ntsc>FALSE</ntsc>
                        </rate>
                        <start>336</start>
                        <end>360</end>
                        <in>510</in>
                        <out>534</out>
                        <file id="file-4">
                            <name>A007C010_190619_K1TL.mov</name>
                            <pathurl>file://localhost/Volumes/PIGSTORE/Projects/rema_smartboat_0299_jun_2019/editorial/proxies/A007C010_190619_K1TL.mov</pathurl>
                            <rate>
                                <timebase>25</timebase>
                                <ntsc>FALSE</ntsc>
                            </rate>
                            <duration>725</duration>
                            <timecode>
                                <rate>
                                    <timebase>25</timebase>
                                    <ntsc>FALSE</ntsc>
                                </rate>
                                <string>13:18:18:10</string>
                                <frame>1197460</frame>
                                <displayformat>NDF</displayformat>
                            </timecode>
                            <media>
                                <video>
                                    <samplecharacteristics>
                                        <rate>
                                            <timebase>25</timebase>
                                            <ntsc>FALSE</ntsc>
                                        </rate>
                                        <width>1920</width>
                                        <height>1080</height>
                                        <anamorphic>FALSE</anamorphic>
                                        <pixelaspectratio>square</pixelaspectratio>
                                        <fielddominance>none</fielddominance>
                                    </samplecharacteristics>
                                </video>
                                <audio>
                                    <samplecharacteristics>
                                        <depth>16</depth>
                                        <samplerate>48000</samplerate>
                                    </samplecharacteristics>
                                    <channelcount>1</channelcount>
                                    <audiochannel>
                                        <sourcechannel>1</sourcechannel>
                                    </audiochannel>
                                </audio>
                                <audio>
                                    <samplecharacteristics>
                                        <depth>16</depth>
                                        <samplerate>48000</samplerate>
                                    </samplecharacteristics>
                                    <channelcount>1</channelcount>
                                    <audiochannel>
                                        <sourcechannel>2</sourcechannel>
                                    </audiochannel>
                                </audio>
                                <audio>
                                    <samplecharacteristics>
                                        <depth>16</depth>
                                        <samplerate>48000</samplerate>
                                    </samplecharacteristics>
                                    <channelcount>1</channelcount>
                                    <audiochannel>
                                        <sourcechannel>3</sourcechannel>
                                    </audiochannel>
                                </audio>
                                <audio>
                                    <samplecharacteristics>
                                        <depth>16</depth>
                                        <samplerate>48000</samplerate>
                                    </samplecharacteristics>
                                    <channelcount>1</channelcount>
                                    <audiochannel>
                                        <sourcechannel>4</sourcechannel>
                                    </audiochannel>
                                </audio>
                                <audio>
                                    <samplecharacteristics>
                                        <depth>16</depth>
                                        <samplerate>48000</samplerate>
                                    </samplecharacteristics>
                                    <channelcount>1</channelcount>
                                    <audiochannel>
                                        <sourcechannel>5</sourcechannel>
                                    </audiochannel>
                                </audio>
                            </media>
                        </file>
                        <filter/>
                        <labels>
                            <label2>VFX</label2>
                        </labels>
                    </clipitem>
                    <clipitem id="my-clip8">
                        <masterclipid>my-clip8</masterclipid>
                        <name>B001C021_190617_K136.mov</name>
                        <enabled>TRUE</enabled>
                        <duration>1277</duration>
                        <rate>
                            <timebase>25</timebase>
                            <ntsc>FALSE</ntsc>
                        </rate>
                        <start>360</start>
                        <end>391</end>
                        <in>762</in>
                        <out>793</out>
                        <file id="file-5">
                            <name>B001C021_190617_K136.mov</name>
                            <pathurl>file://localhost/Volumes/PIGSTORE/Projects/rema_smartboat_0299_jun_2019/editorial/proxies/B001C021_190617_K136.mov</pathurl>
                            <rate>
                                <timebase>25</timebase>
                                <ntsc>FALSE</ntsc>
                            </rate>
                            <duration>1277</duration>
                            <timecode>
                                <rate>
                                    <timebase>25</timebase>
                                    <ntsc>FALSE</ntsc>
                                </rate>
                                <string>18:39:41:23</string>
                                <frame>1679548</frame>
                                <displayformat>NDF</displayformat>
                            </timecode>
                            <media>
                                <video>
                                    <samplecharacteristics>
                                        <rate>
                                            <timebase>25</timebase>
                                            <ntsc>FALSE</ntsc>
                                        </rate>
                                        <width>1920</width>
                                        <height>1080</height>
                                        <anamorphic>FALSE</anamorphic>
                                        <pixelaspectratio>square</pixelaspectratio>
                                        <fielddominance>none</fielddominance>
                                    </samplecharacteristics>
                                </video>
                                <audio>
                                    <samplecharacteristics>
                                        <depth>16</depth>
                                        <samplerate>48000</samplerate>
                                    </samplecharacteristics>
                                    <channelcount>1</channelcount>
                                    <audiochannel>
                                        <sourcechannel>1</sourcechannel>
                                    </audiochannel>
                                </audio>
                            </media>
                        </file>
                        <filter/>
                        <labels>
                            <label2>VFX</label2>
                        </labels>
                    </clipitem>
                    <clipitem id="my-clip9">
                        <masterclipid>my-clip9</masterclipid>
                        <name>B001C021_190617_K136.mov</name>
                        <enabled>TRUE</enabled>
                        <duration>1277</duration>
                        <rate>
                            <timebase>25</timebase>
                            <ntsc>FALSE</ntsc>
                        </rate>
                        <start>391</start>
                        <end>422</end>
                        <in>762</in>
                        <out>793</out>
                        <file id="file-5">
                            <name>B001C021_190617_K136.mov</name>
                            <pathurl>file://localhost/Volumes/PIGSTORE/Projects/rema_smartboat_0299_jun_2019/editorial/proxies/B001C021_190617_K136.mov</pathurl>
                            <rate>
                                <timebase>25</timebase>
                                <ntsc>FALSE</ntsc>
                            </rate>
                            <duration>1277</duration>
                            <timecode>
                                <rate>
                                    <timebase>25</timebase>
                                    <ntsc>FALSE</ntsc>
                                </rate>
                                <string>18:39:41:23</string>
                                <frame>1679548</frame>
                                <displayformat>NDF</displayformat>
                            </timecode>
                            <media>
                                <video>
                                    <samplecharacteristics>
                                        <rate>
                                            <timebase>25</timebase>
                                            <ntsc>FALSE</ntsc>
                                        </rate>
                                        <width>1920</width>
                                        <height>1080</height>
                                        <anamorphic>FALSE</anamorphic>
                                        <pixelaspectratio>square</pixelaspectratio>
                                        <fielddominance>none</fielddominance>
                                    </samplecharacteristics>
                                </video>
                                <audio>
                                    <samplecharacteristics>
                                        <depth>16</depth>
                                        <samplerate>48000</samplerate>
                                    </samplecharacteristics>
                                    <channelcount>1</channelcount>
                                    <audiochannel>
                                        <sourcechannel>1</sourcechannel>
                                    </audiochannel>
                                </audio>
                            </media>
                        </file>
                        <filter/>
                        <labels>
                            <label2>VFX</label2>
                        </labels>
                    </clipitem>
                    <clipitem id="my-clip10">
                        <masterclipid>my-clip10</masterclipid>
                        <name>B001C020_190617_K136.mov</name>
                        <enabled>TRUE</enabled>
                        <duration>1272</duration>
                        <rate>
                            <timebase>25</timebase>
                            <ntsc>FALSE</ntsc>
                        </rate>
                        <start>422</start>
                        <end>464</end>
                        <in>944</in>
                        <out>986</out>
                        <file id="file-6">
                            <name>B001C020_190617_K136.mov</name>
                            <pathurl>file://localhost/Volumes/PIGSTORE/Projects/rema_smartboat_0299_jun_2019/editorial/proxies/B001C020_190617_K136.mov</pathurl>
                            <rate>
                                <timebase>25</timebase>
                                <ntsc>FALSE</ntsc>
                            </rate>
                            <duration>1272</duration>
                            <timecode>
                                <rate>
                                    <timebase>25</timebase>
                                    <ntsc>FALSE</ntsc>
                                </rate>
                                <string>18:37:02:21</string>
                                <frame>1675571</frame>
                                <displayformat>NDF</displayformat>
                            </timecode>
                            <media>
                                <video>
                                    <samplecharacteristics>
                                        <rate>
                                            <timebase>25</timebase>
                                            <ntsc>FALSE</ntsc>
                                        </rate>
                                        <width>1920</width>
                                        <height>1080</height>
                                        <anamorphic>FALSE</anamorphic>
                                        <pixelaspectratio>square</pixelaspectratio>
                                        <fielddominance>none</fielddominance>
                                    </samplecharacteristics>
                                </video>
                                <audio>
                                    <samplecharacteristics>
                                        <depth>16</depth>
                                        <samplerate>48000</samplerate>
                                    </samplecharacteristics>
                                    <channelcount>1</channelcount>
                                    <audiochannel>
                                        <sourcechannel>1</sourcechannel>
                                    </audiochannel>
                                </audio>
                            </media>
                        </file>
                        <filter/>
                        <labels>
                            <label2>VFX</label2>
                        </labels>
                    </clipitem>
                    <clipitem id="my-clip11">
                        <masterclipid>my-clip11</masterclipid>
                        <name>B001C020_190617_K136.mov</name>
                        <enabled>TRUE</enabled>
                        <duration>1272</duration>
                        <rate>
                            <timebase>25</timebase>
                            <ntsc>FALSE</ntsc>
                        </rate>
                        <start>464</start>
                        <end>506</end>
                        <in>944</in>
                        <out>986</out>
                        <file id="file-6">
                            <name>B001C020_190617_K136.mov</name>
                            <pathurl>file://localhost/Volumes/PIGSTORE/Projects/rema_smartboat_0299_jun_2019/editorial/proxies/B001C020_190617_K136.mov</pathurl>
                            <rate>
                                <timebase>25</timebase>
                                <ntsc>FALSE</ntsc>
                            </rate>
                            <duration>1272</duration>
                            <timecode>
                                <rate>
                                    <timebase>25</timebase>
                                    <ntsc>FALSE</ntsc>
                                </rate>
                                <string>18:37:02:21</string>
                                <frame>1675571</frame>
                                <displayformat>NDF</displayformat>
                            </timecode>
                            <media>
                                <video>
                                    <samplecharacteristics>
                                        <rate>
                                            <timebase>25</timebase>
                                            <ntsc>FALSE</ntsc>
                                        </rate>
                                        <width>1920</width>
                                        <height>1080</height>
                                        <anamorphic>FALSE</anamorphic>
                                        <pixelaspectratio>square</pixelaspectratio>
                                        <fielddominance>none</fielddominance>
                                    </samplecharacteristics>
                                </video>
                                <audio>
                                    <samplecharacteristics>
                                        <depth>16</depth>
                                        <samplerate>48000</samplerate>
                                    </samplecharacteristics>
                                    <channelcount>1</channelcount>
                                    <audiochannel>
                                        <sourcechannel>1</sourcechannel>
                                    </audiochannel>
                                </audio>
                            </media>
                        </file>
                        <filter/>
                        <labels>
                            <label2>VFX</label2>
                        </labels>
                    </clipitem>
                    <clipitem id="my-clip12">
                        <masterclipid>my-clip12</masterclipid>
                        <name>A001C002_190617_K1TL.mov</name>
                        <enabled>TRUE</enabled>
                        <duration>1336</duration>
                        <rate>
                            <timebase>25</timebase>
                            <ntsc>FALSE</ntsc>
                        </rate>
                        <start>506</start>
                        <end>564</end>
                        <in>1078</in>
                        <out>1136</out>
                        <file id="file-7">
                            <name>A001C002_190617_K1TL.mov</name>
                            <pathurl>file://localhost/Volumes/PIGSTORE/Projects/rema_smartboat_0299_jun_2019/editorial/proxies/A001C002_190617_K1TL.mov</pathurl>
                            <rate>
                                <timebase>25</timebase>
                                <ntsc>FALSE</ntsc>
                            </rate>
                            <duration>1336</duration>
                            <timecode>
                                <rate>
                                    <timebase>25</timebase>
                                    <ntsc>FALSE</ntsc>
                                </rate>
                                <string>09:16:47:02</string>
                                <frame>835177</frame>
                                <displayformat>NDF</displayformat>
                            </timecode>
                            <media>
                                <video>
                                    <samplecharacteristics>
                                        <rate>
                                            <timebase>25</timebase>
                                            <ntsc>FALSE</ntsc>
                                        </rate>
                                        <width>1920</width>
                                        <height>1080</height>
                                        <anamorphic>FALSE</anamorphic>
                                        <pixelaspectratio>square</pixelaspectratio>
                                        <fielddominance>none</fielddominance>
                                    </samplecharacteristics>
                                </video>
                                <audio>
                                    <samplecharacteristics>
                                        <depth>16</depth>
                                        <samplerate>48000</samplerate>
                                    </samplecharacteristics>
                                    <channelcount>1</channelcount>
                                    <audiochannel>
                                        <sourcechannel>1</sourcechannel>
                                    </audiochannel>
                                </audio>
                            </media>
                        </file>
                        <filter/>
                        <labels>
                            <label2>VFX</label2>
                        </labels>
                    </clipitem>
                    <clipitem id="my-clip13">
                        <masterclipid>my-clip13</masterclipid>
                        <name>A001C002_190617_K1TL.mov</name>
                        <enabled>TRUE</enabled>
                        <duration>1336</duration>
                        <rate>
                            <timebase>25</timebase>
                            <ntsc>FALSE</ntsc>
                        </rate>
                        <start>564</start>
                        <end>622</end>
                        <in>1078</in>
                        <out>1136</out>
                        <file id="file-7">
                            <name>A001C002_190617_K1TL.mov</name>
                            <pathurl>file://localhost/Volumes/PIGSTORE/Projects/rema_smartboat_0299_jun_2019/editorial/proxies/A001C002_190617_K1TL.mov</pathurl>
                            <rate>
                                <timebase>25</timebase>
                                <ntsc>FALSE</ntsc>
                            </rate>
                            <duration>1336</duration>
                            <timecode>
                                <rate>
                                    <timebase>25</timebase>
                                    <ntsc>FALSE</ntsc>
                                </rate>
                                <string>09:16:47:02</string>
                                <frame>835177</frame>
                                <displayformat>NDF</displayformat>
                            </timecode>
                            <media>
                                <video>
                                    <samplecharacteristics>
                                        <rate>
                                            <timebase>25</timebase>
                                            <ntsc>FALSE</ntsc>
                                        </rate>
                                        <width>1920</width>
                                        <height>1080</height>
                                        <anamorphic>FALSE</anamorphic>
                                        <pixelaspectratio>square</pixelaspectratio>
                                        <fielddominance>none</fielddominance>
                                    </samplecharacteristics>
                                </video>
                                <audio>
                                    <samplecharacteristics>
                                        <depth>16</depth>
                                        <samplerate>48000</samplerate>
                                    </samplecharacteristics>
                                    <channelcount>1</channelcount>
                                    <audiochannel>
                                        <sourcechannel>1</sourcechannel>
                                    </audiochannel>
                                </audio>
                            </media>
                        </file>
                        <filter/>
                        <labels>
                            <label2>VFX</label2>
                        </labels>
                    </clipitem>
                    <clipitem id="my-clip14">
                        <masterclipid>my-clip14</masterclipid>
                        <name>A001C014_190617_K1TL.mov</name>
                        <enabled>TRUE</enabled>
                        <duration>766</duration>
                        <rate>
                            <timebase>25</timebase>
                            <ntsc>FALSE</ntsc>
                        </rate>
                        <start>622</start>
                        <end>646</end>
                        <in>318</in>
                        <out>342</out>
                        <file id="file-8">
                            <name>A001C014_190617_K1TL.mov</name>
                            <pathurl>file://localhost/Volumes/PIGSTORE/Projects/rema_smartboat_0299_jun_2019/editorial/proxies/A001C014_190617_K1TL.mov</pathurl>
                            <rate>
                                <timebase>25</timebase>
                                <ntsc>FALSE</ntsc>
                            </rate>
                            <duration>766</duration>
                            <timecode>
                                <rate>
                                    <timebase>25</timebase>
                                    <ntsc>FALSE</ntsc>
                                </rate>
                                <string>11:25:53:16</string>
                                <frame>1028841</frame>
                                <displayformat>NDF</displayformat>
                            </timecode>
                            <media>
                                <video>
                                    <samplecharacteristics>
                                        <rate>
                                            <timebase>25</timebase>
                                            <ntsc>FALSE</ntsc>
                                        </rate>
                                        <width>1920</width>
                                        <height>1080</height>
                                        <anamorphic>FALSE</anamorphic>
                                        <pixelaspectratio>square</pixelaspectratio>
                                        <fielddominance>none</fielddominance>
                                    </samplecharacteristics>
                                </video>
                                <audio>
                                    <samplecharacteristics>
                                        <depth>16</depth>
                                        <samplerate>48000</samplerate>
                                    </samplecharacteristics>
                                    <channelcount>1</channelcount>
                                    <audiochannel>
                                        <sourcechannel>1</sourcechannel>
                                    </audiochannel>
                                </audio>
                            </media>
                        </file>
                        <filter/>
                        <labels>
                            <label2>VFX</label2>
                        </labels>
                    </clipitem>
                    <clipitem id="my-clip15">
                        <masterclipid>my-clip15</masterclipid>
                        <name>A001C014_190617_K1TL.mov</name>
                        <enabled>TRUE</enabled>
                        <duration>766</duration>
                        <rate>
                            <timebase>25</timebase>
                            <ntsc>FALSE</ntsc>
                        </rate>
                        <start>646</start>
                        <end>670</end>
                        <in>318</in>
                        <out>342</out>
                        <file id="file-8">
                            <name>A001C014_190617_K1TL.mov</name>
                            <pathurl>file://localhost/Volumes/PIGSTORE/Projects/rema_smartboat_0299_jun_2019/editorial/proxies/A001C014_190617_K1TL.mov</pathurl>
                            <rate>
                                <timebase>25</timebase>
                                <ntsc>FALSE</ntsc>
                            </rate>
                            <duration>766</duration>
                            <timecode>
                                <rate>
                                    <timebase>25</timebase>
                                    <ntsc>FALSE</ntsc>
                                </rate>
                                <string>11:25:53:16</string>
                                <frame>1028841</frame>
                                <displayformat>NDF</displayformat>
                            </timecode>
                            <media>
                                <video>
                                    <samplecharacteristics>
                                        <rate>
                                            <timebase>25</timebase>
                                            <ntsc>FALSE</ntsc>
                                        </rate>
                                        <width>1920</width>
                                        <height>1080</height>
                                        <anamorphic>FALSE</anamorphic>
                                        <pixelaspectratio>square</pixelaspectratio>
                                        <fielddominance>none</fielddominance>
                                    </samplecharacteristics>
                                </video>
                                <audio>
                                    <samplecharacteristics>
                                        <depth>16</depth>
                                        <samplerate>48000</samplerate>
                                    </samplecharacteristics>
                                    <channelcount>1</channelcount>
                                    <audiochannel>
                                        <sourcechannel>1</sourcechannel>
                                    </audiochannel>
                                </audio>
                            </media>
                        </file>
                        <filter/>
                        <labels>
                            <label2>VFX</label2>
                        </labels>
                    </clipitem>
                    <clipitem id="my-clip16">
                        <masterclipid>my-clip16</masterclipid>
                        <name>A001C005_190617_K1TL.mov</name>
                        <enabled>TRUE</enabled>
                        <duration>4285</duration>
                        <rate>
                            <timebase>25</timebase>
                            <ntsc>FALSE</ntsc>
                        </rate>
                        <start>670</start>
                        <end>737</end>
                        <in>832</in>
                        <out>899</out>
                        <file id="file-9">
                            <name>A001C005_190617_K1TL.mov</name>
                            <pathurl>file://localhost/Volumes/PIGSTORE/Projects/rema_smartboat_0299_jun_2019/editorial/proxies/A001C005_190617_K1TL.mov</pathurl>
                            <rate>
                                <timebase>25</timebase>
                                <ntsc>FALSE</ntsc>
                            </rate>
                            <duration>4285</duration>
                            <timecode>
                                <rate>
                                    <timebase>25</timebase>
                                    <ntsc>FALSE</ntsc>
                                </rate>
                                <string>10:11:43:24</string>
                                <frame>917599</frame>
                                <displayformat>NDF</displayformat>
                            </timecode>
                            <media>
                                <video>
                                    <samplecharacteristics>
                                        <rate>
                                            <timebase>25</timebase>
                                            <ntsc>FALSE</ntsc>
                                        </rate>
                                        <width>1920</width>
                                        <height>1080</height>
                                        <anamorphic>FALSE</anamorphic>
                                        <pixelaspectratio>square</pixelaspectratio>
                                        <fielddominance>none</fielddominance>
                                    </samplecharacteristics>
                                </video>
                                <audio>
                                    <samplecharacteristics>
                                        <depth>16</depth>
                                        <samplerate>48000</samplerate>
                                    </samplecharacteristics>
                                    <channelcount>1</channelcount>
                                    <audiochannel>
                                        <sourcechannel>1</sourcechannel>
                                    </audiochannel>
                                </audio>
                            </media>
                        </file>
                        <filter/>
                        <labels>
                            <label2>VFX</label2>
                        </labels>
                    </clipitem>
                    <clipitem id="my-clip17">
                        <masterclipid>my-clip17</masterclipid>
                        <name>A001C005_190617_K1TL.mov</name>
                        <enabled>TRUE</enabled>
                        <duration>4285</duration>
                        <rate>
                            <timebase>25</timebase>
                            <ntsc>FALSE</ntsc>
                        </rate>
                        <start>737</start>
                        <end>804</end>
                        <in>832</in>
                        <out>899</out>
                        <file id="file-9">
                            <name>A001C005_190617_K1TL.mov</name>
                            <pathurl>file://localhost/Volumes/PIGSTORE/Projects/rema_smartboat_0299_jun_2019/editorial/proxies/A001C005_190617_K1TL.mov</pathurl>
                            <rate>
                                <timebase>25</timebase>
                                <ntsc>FALSE</ntsc>
                            </rate>
                            <duration>4285</duration>
                            <timecode>
                                <rate>
                                    <timebase>25</timebase>
                                    <ntsc>FALSE</ntsc>
                                </rate>
                                <string>10:11:43:24</string>
                                <frame>917599</frame>
                                <displayformat>NDF</displayformat>
                            </timecode>
                            <media>
                                <video>
                                    <samplecharacteristics>
                                        <rate>
                                            <timebase>25</timebase>
                                            <ntsc>FALSE</ntsc>
                                        </rate>
                                        <width>1920</width>
                                        <height>1080</height>
                                        <anamorphic>FALSE</anamorphic>
                                        <pixelaspectratio>square</pixelaspectratio>
                                        <fielddominance>none</fielddominance>
                                    </samplecharacteristics>
                                </video>
                                <audio>
                                    <samplecharacteristics>
                                        <depth>16</depth>
                                        <samplerate>48000</samplerate>
                                    </samplecharacteristics>
                                    <channelcount>1</channelcount>
                                    <audiochannel>
                                        <sourcechannel>1</sourcechannel>
                                    </audiochannel>
                                </audio>
                            </media>
                        </file>
                        <filter/>
                        <labels>
                            <label2>VFX</label2>
                        </labels>
                    </clipitem>
                    <clipitem id="my-clip18">
                        <masterclipid>my-clip18</masterclipid>
                        <name>A001C007_190617_K1TL.mov</name>
                        <enabled>TRUE</enabled>
                        <duration>2950</duration>
                        <rate>
                            <timebase>25</timebase>
                            <ntsc>FALSE</ntsc>
                        </rate>
                        <start>804</start>
                        <end>841</end>
                        <in>2525</in>
                        <out>2562</out>
                        <file id="file-10">
                            <name>A001C007_190617_K1TL.mov</name>
                            <pathurl>file://localhost/Volumes/PIGSTORE/Projects/rema_smartboat_0299_jun_2019/editorial/proxies/A001C007_190617_K1TL.mov</pathurl>
                            <rate>
                                <timebase>25</timebase>
                                <ntsc>FALSE</ntsc>
                            </rate>
                            <duration>2950</duration>
                            <timecode>
                                <rate>
                                    <timebase>25</timebase>
                                    <ntsc>FALSE</ntsc>
                                </rate>
                                <string>10:26:22:16</string>
                                <frame>939566</frame>
                                <displayformat>NDF</displayformat>
                            </timecode>
                            <media>
                                <video>
                                    <samplecharacteristics>
                                        <rate>
                                            <timebase>25</timebase>
                                            <ntsc>FALSE</ntsc>
                                        </rate>
                                        <width>1920</width>
                                        <height>1080</height>
                                        <anamorphic>FALSE</anamorphic>
                                        <pixelaspectratio>square</pixelaspectratio>
                                        <fielddominance>none</fielddominance>
                                    </samplecharacteristics>
                                </video>
                                <audio>
                                    <samplecharacteristics>
                                        <depth>16</depth>
                                        <samplerate>48000</samplerate>
                                    </samplecharacteristics>
                                    <channelcount>1</channelcount>
                                    <audiochannel>
                                        <sourcechannel>1</sourcechannel>
                                    </audiochannel>
                                </audio>
                            </media>
                        </file>
                        <filter/>
                        <labels>
                            <label2>VFX</label2>
                        </labels>
                    </clipitem>
                    <clipitem id="my-clip19">
                        <masterclipid>my-clip19</masterclipid>
                        <name>A001C007_190617_K1TL.mov</name>
                        <enabled>TRUE</enabled>
                        <duration>2950</duration>
                        <rate>
                            <timebase>25</timebase>
                            <ntsc>FALSE</ntsc>
                        </rate>
                        <start>841</start>
                        <end>878</end>
                        <in>2525</in>
                        <out>2562</out>
                        <file id="file-10">
                            <name>A001C007_190617_K1TL.mov</name>
                            <pathurl>file://localhost/Volumes/PIGSTORE/Projects/rema_smartboat_0299_jun_2019/editorial/proxies/A001C007_190617_K1TL.mov</pathurl>
                            <rate>
                                <timebase>25</timebase>
                                <ntsc>FALSE</ntsc>
                            </rate>
                            <duration>2950</duration>
                            <timecode>
                                <rate>
                                    <timebase>25</timebase>
                                    <ntsc>FALSE</ntsc>
                                </rate>
                                <string>10:26:22:16</string>
                                <frame>939566</frame>
                                <displayformat>NDF</displayformat>
                            </timecode>
                            <media>
                                <video>
                                    <samplecharacteristics>
                                        <rate>
                                            <timebase>25</timebase>
                                            <ntsc>FALSE</ntsc>
                                        </rate>
                                        <width>1920</width>
                                        <height>1080</height>
                                        <anamorphic>FALSE</anamorphic>
                                        <pixelaspectratio>square</pixelaspectratio>
                                        <fielddominance>none</fielddominance>
                                    </samplecharacteristics>
                                </video>
                                <audio>
                                    <samplecharacteristics>
                                        <depth>16</depth>
                                        <samplerate>48000</samplerate>
                                    </samplecharacteristics>
                                    <channelcount>1</channelcount>
                                    <audiochannel>
                                        <sourcechannel>1</sourcechannel>
                                    </audiochannel>
                                </audio>
                            </media>
                        </file>
                        <filter/>
                        <labels>
                            <label2>VFX</label2>
                        </labels>
                    </clipitem>
                    <clipitem id="my-clip20">
                        <masterclipid>my-clip20</masterclipid>
                        <name>B001C003_190617_K136.mov</name>
                        <enabled>TRUE</enabled>
                        <duration>1598</duration>
                        <rate>
                            <timebase>25</timebase>
                            <ntsc>FALSE</ntsc>
                        </rate>
                        <start>878</start>
                        <end>917</end>
                        <in>1329</in>
                        <out>1368</out>
                        <file id="file-11">
                            <name>B001C003_190617_K136.mov</name>
                            <pathurl>file://localhost/Volumes/PIGSTORE/Projects/rema_smartboat_0299_jun_2019/editorial/proxies/B001C003_190617_K136.mov</pathurl>
                            <rate>
                                <timebase>25</timebase>
                                <ntsc>FALSE</ntsc>
                            </rate>
                            <duration>1598</duration>
                            <timecode>
                                <rate>
                                    <timebase>25</timebase>
                                    <ntsc>FALSE</ntsc>
                                </rate>
                                <string>13:03:21:00</string>
                                <frame>1175025</frame>
                                <displayformat>NDF</displayformat>
                            </timecode>
                            <media>
                                <video>
                                    <samplecharacteristics>
                                        <rate>
                                            <timebase>25</timebase>
                                            <ntsc>FALSE</ntsc>
                                        </rate>
                                        <width>1920</width>
                                        <height>1080</height>
                                        <anamorphic>FALSE</anamorphic>
                                        <pixelaspectratio>square</pixelaspectratio>
                                        <fielddominance>none</fielddominance>
                                    </samplecharacteristics>
                                </video>
                                <audio>
                                    <samplecharacteristics>
                                        <depth>16</depth>
                                        <samplerate>48000</samplerate>
                                    </samplecharacteristics>
                                    <channelcount>1</channelcount>
                                    <audiochannel>
                                        <sourcechannel>1</sourcechannel>
                                    </audiochannel>
                                </audio>
                            </media>
                        </file>
                        <filter/>
                        <labels>
                            <label2>VFX</label2>
                        </labels>
                    </clipitem>
                    <clipitem id="my-clip21">
                        <masterclipid>my-clip21</masterclipid>
                        <name>B001C003_190617_K136.mov</name>
                        <enabled>TRUE</enabled>
                        <duration>1598</duration>
                        <rate>
                            <timebase>25</timebase>
                            <ntsc>FALSE</ntsc>
                        </rate>
                        <start>917</start>
                        <end>956</end>
                        <in>1329</in>
                        <out>1368</out>
                        <file id="file-11">
                            <name>B001C003_190617_K136.mov</name>
                            <pathurl>file://localhost/Volumes/PIGSTORE/Projects/rema_smartboat_0299_jun_2019/editorial/proxies/B001C003_190617_K136.mov</pathurl>
                            <rate>
                                <timebase>25</timebase>
                                <ntsc>FALSE</ntsc>
                            </rate>
                            <duration>1598</duration>
                            <timecode>
                                <rate>
                                    <timebase>25</timebase>
                                    <ntsc>FALSE</ntsc>
                                </rate>
                                <string>13:03:21:00</string>
                                <frame>1175025</frame>
                                <displayformat>NDF</displayformat>
                            </timecode>
                            <media>
                                <video>
                                    <samplecharacteristics>
                                        <rate>
                                            <timebase>25</timebase>
                                            <ntsc>FALSE</ntsc>
                                        </rate>
                                        <width>1920</width>
                                        <height>1080</height>
                                        <anamorphic>FALSE</anamorphic>
                                        <pixelaspectratio>square</pixelaspectratio>
                                        <fielddominance>none</fielddominance>
                                    </samplecharacteristics>
                                </video>
                                <audio>
                                    <samplecharacteristics>
                                        <depth>16</depth>
                                        <samplerate>48000</samplerate>
                                    </samplecharacteristics>
                                    <channelcount>1</channelcount>
                                    <audiochannel>
                                        <sourcechannel>1</sourcechannel>
                                    </audiochannel>
                                </audio>
                            </media>
                        </file>
                        <filter/>
                        <labels>
                            <label2>VFX</label2>
                        </labels>
                    </clipitem>
                    <clipitem id="my-clip22">
                        <masterclipid>my-clip22</masterclipid>
                        <name>B002C010_190618_K136.mov</name>
                        <enabled>TRUE</enabled>
                        <duration>82</duration>
                        <rate>
                            <timebase>25</timebase>
                            <ntsc>FALSE</ntsc>
                        </rate>
                        <start>956</start>
                        <end>963</end>
                        <in>33</in>
                        <out>40</out>
                        <file id="file-12">
                            <name>B002C010_190618_K136.mov</name>
                            <pathurl>file://localhost/Volumes/PIGSTORE/Projects/rema_smartboat_0299_jun_2019/editorial/proxies/B002C010_190618_K136.mov</pathurl>
                            <rate>
                                <timebase>25</timebase>
                                <ntsc>FALSE</ntsc>
                            </rate>
                            <duration>825</duration>
                            <timecode>
                                <rate>
                                    <timebase>25</timebase>
                                    <ntsc>FALSE</ntsc>
                                </rate>
                                <string>11:23:37:05</string>
                                <frame>1025430</frame>
                                <displayformat>NDF</displayformat>
                            </timecode>
                            <media>
                                <video>
                                    <samplecharacteristics>
                                        <rate>
                                            <timebase>25</timebase>
                                            <ntsc>FALSE</ntsc>
                                        </rate>
                                        <width>1920</width>
                                        <height>1080</height>
                                        <anamorphic>FALSE</anamorphic>
                                        <pixelaspectratio>square</pixelaspectratio>
                                        <fielddominance>none</fielddominance>
                                    </samplecharacteristics>
                                </video>
                                <audio>
                                    <samplecharacteristics>
                                        <depth>16</depth>
                                        <samplerate>48000</samplerate>
                                    </samplecharacteristics>
                                    <channelcount>1</channelcount>
                                    <audiochannel>
                                        <sourcechannel>1</sourcechannel>
                                    </audiochannel>
                                </audio>
                            </media>
                        </file>
                        <filter/>
                        <labels>
                            <label2>VFX</label2>
                        </labels>
                    </clipitem>
                    <clipitem id="my-clip23">
                        <masterclipid>my-clip23</masterclipid>
                        <name>B002C010_190618_K136.mov</name>
                        <enabled>TRUE</enabled>
                        <duration>82</duration>
                        <rate>
                            <timebase>25</timebase>
                            <ntsc>FALSE</ntsc>
                        </rate>
                        <start>963</start>
                        <end>970</end>
                        <in>33</in>
                        <out>40</out>
                        <file id="file-12">
                            <name>B002C010_190618_K136.mov</name>
                            <pathurl>file://localhost/Volumes/PIGSTORE/Projects/rema_smartboat_0299_jun_2019/editorial/proxies/B002C010_190618_K136.mov</pathurl>
                            <rate>
                                <timebase>25</timebase>
                                <ntsc>FALSE</ntsc>
                            </rate>
                            <duration>825</duration>
                            <timecode>
                                <rate>
                                    <timebase>25</timebase>
                                    <ntsc>FALSE</ntsc>
                                </rate>
                                <string>11:23:37:05</string>
                                <frame>1025430</frame>
                                <displayformat>NDF</displayformat>
                            </timecode>
                            <media>
                                <video>
                                    <samplecharacteristics>
                                        <rate>
                                            <timebase>25</timebase>
                                            <ntsc>FALSE</ntsc>
                                        </rate>
                                        <width>1920</width>
                                        <height>1080</height>
                                        <anamorphic>FALSE</anamorphic>
                                        <pixelaspectratio>square</pixelaspectratio>
                                        <fielddominance>none</fielddominance>
                                    </samplecharacteristics>
                                </video>
                                <audio>
                                    <samplecharacteristics>
                                        <depth>16</depth>
                                        <samplerate>48000</samplerate>
                                    </samplecharacteristics>
                                    <channelcount>1</channelcount>
                                    <audiochannel>
                                        <sourcechannel>1</sourcechannel>
                                    </audiochannel>
                                </audio>
                            </media>
                        </file>
                        <filter/>
                        <labels>
                            <label2>VFX</label2>
                        </labels>
                    </clipitem>
                    <clipitem id="my-clip24">
                        <masterclipid>my-clip24</masterclipid>
                        <name>B003C001_190618_K136.mov</name>
                        <enabled>TRUE</enabled>
                        <duration>2164</duration>
                        <rate>
                            <timebase>25</timebase>
                            <ntsc>FALSE</ntsc>
                        </rate>
                        <start>970</start>
                        <end>989</end>
                        <in>570</in>
                        <out>589</out>
                        <file id="file-13">
                            <name>B003C001_190618_K136.mov</name>
                            <pathurl>file://localhost/Volumes/PIGSTORE/Projects/rema_smartboat_0299_jun_2019/editorial/proxies/B003C001_190618_K136.mov</pathurl>
                            <rate>
                                <timebase>25</timebase>
                                <ntsc>FALSE</ntsc>
                            </rate>
                            <duration>2164</duration>
                            <timecode>
                                <rate>
                                    <timebase>25</timebase>
                                    <ntsc>FALSE</ntsc>
                                </rate>
                                <string>14:06:03:19</string>
                                <frame>1269094</frame>
                                <displayformat>NDF</displayformat>
                            </timecode>
                            <media>
                                <video>
                                    <samplecharacteristics>
                                        <rate>
                                            <timebase>25</timebase>
                                            <ntsc>FALSE</ntsc>
                                        </rate>
                                        <width>1920</width>
                                        <height>1080</height>
                                        <anamorphic>FALSE</anamorphic>
                                        <pixelaspectratio>square</pixelaspectratio>
                                        <fielddominance>none</fielddominance>
                                    </samplecharacteristics>
                                </video>
                                <audio>
                                    <samplecharacteristics>
                                        <depth>16</depth>
                                        <samplerate>48000</samplerate>
                                    </samplecharacteristics>
                                    <channelcount>1</channelcount>
                                    <audiochannel>
                                        <sourcechannel>1</sourcechannel>
                                    </audiochannel>
                                </audio>
                            </media>
                        </file>
                        <filter/>
                        <labels>
                            <label2>VFX</label2>
                        </labels>
                    </clipitem>
                    <clipitem id="my-clip25">
                        <masterclipid>my-clip25</masterclipid>
                        <name>B003C001_190618_K136.mov</name>
                        <enabled>TRUE</enabled>
                        <duration>2164</duration>
                        <rate>
                            <timebase>25</timebase>
                            <ntsc>FALSE</ntsc>
                        </rate>
                        <start>989</start>
                        <end>1008</end>
                        <in>570</in>
                        <out>589</out>
                        <file id="file-13">
                            <name>B003C001_190618_K136.mov</name>
                            <pathurl>file://localhost/Volumes/PIGSTORE/Projects/rema_smartboat_0299_jun_2019/editorial/proxies/B003C001_190618_K136.mov</pathurl>
                            <rate>
                                <timebase>25</timebase>
                                <ntsc>FALSE</ntsc>
                            </rate>
                            <duration>2164</duration>
                            <timecode>
                                <rate>
                                    <timebase>25</timebase>
                                    <ntsc>FALSE</ntsc>
                                </rate>
                                <string>14:06:03:19</string>
                                <frame>1269094</frame>
                                <displayformat>NDF</displayformat>
                            </timecode>
                            <media>
                                <video>
                                    <samplecharacteristics>
                                        <rate>
                                            <timebase>25</timebase>
                                            <ntsc>FALSE</ntsc>
                                        </rate>
                                        <width>1920</width>
                                        <height>1080</height>
                                        <anamorphic>FALSE</anamorphic>
                                        <pixelaspectratio>square</pixelaspectratio>
                                        <fielddominance>none</fielddominance>
                                    </samplecharacteristics>
                                </video>
                                <audio>
                                    <samplecharacteristics>
                                        <depth>16</depth>
                                        <samplerate>48000</samplerate>
                                    </samplecharacteristics>
                                    <channelcount>1</channelcount>
                                    <audiochannel>
                                        <sourcechannel>1</sourcechannel>
                                    </audiochannel>
                                </audio>
                            </media>
                        </file>
                        <filter/>
                        <labels>
                            <label2>VFX</label2>
                        </labels>
                    </clipitem>
                    <clipitem id="my-clip26">
                        <masterclipid>my-clip26</masterclipid>
                        <name>A003C007_190617_K1TL.mov</name>
                        <enabled>TRUE</enabled>
                        <duration>1492</duration>
                        <rate>
                            <timebase>25</timebase>
                            <ntsc>FALSE</ntsc>
                        </rate>
                        <start>1008</start>
                        <end>1042</end>
                        <in>1155</in>
                        <out>1189</out>
                        <file id="file-14">
                            <name>A003C007_190617_K1TL.mov</name>
                            <pathurl>file://localhost/Volumes/PIGSTORE/Projects/rema_smartboat_0299_jun_2019/editorial/proxies/A003C007_190617_K1TL.mov</pathurl>
                            <rate>
                                <timebase>25</timebase>
                                <ntsc>FALSE</ntsc>
                            </rate>
                            <duration>1492</duration>
                            <timecode>
                                <rate>
                                    <timebase>25</timebase>
                                    <ntsc>FALSE</ntsc>
                                </rate>
                                <string>15:59:20:07</string>
                                <frame>1439007</frame>
                                <displayformat>NDF</displayformat>
                            </timecode>
                            <media>
                                <video>
                                    <samplecharacteristics>
                                        <rate>
                                            <timebase>25</timebase>
                                            <ntsc>FALSE</ntsc>
                                        </rate>
                                        <width>1920</width>
                                        <height>1080</height>
                                        <anamorphic>FALSE</anamorphic>
                                        <pixelaspectratio>square</pixelaspectratio>
                                        <fielddominance>none</fielddominance>
                                    </samplecharacteristics>
                                </video>
                                <audio>
                                    <samplecharacteristics>
                                        <depth>16</depth>
                                        <samplerate>48000</samplerate>
                                    </samplecharacteristics>
                                    <channelcount>1</channelcount>
                                    <audiochannel>
                                        <sourcechannel>1</sourcechannel>
                                    </audiochannel>
                                </audio>
                            </media>
                        </file>
                        <filter/>
                        <labels>
                            <label2>VFX</label2>
                        </labels>
                    </clipitem>
                    <clipitem id="my-clip27">
                        <masterclipid>my-clip27</masterclipid>
                        <name>A003C007_190617_K1TL.mov</name>
                        <enabled>TRUE</enabled>
                        <duration>1492</duration>
                        <rate>
                            <timebase>25</timebase>
                            <ntsc>FALSE</ntsc>
                        </rate>
                        <start>1042</start>
                        <end>1076</end>
                        <in>1155</in>
                        <out>1189</out>
                        <file id="file-14">
                            <name>A003C007_190617_K1TL.mov</name>
                            <pathurl>file://localhost/Volumes/PIGSTORE/Projects/rema_smartboat_0299_jun_2019/editorial/proxies/A003C007_190617_K1TL.mov</pathurl>
                            <rate>
                                <timebase>25</timebase>
                                <ntsc>FALSE</ntsc>
                            </rate>
                            <duration>1492</duration>
                            <timecode>
                                <rate>
                                    <timebase>25</timebase>
                                    <ntsc>FALSE</ntsc>
                                </rate>
                                <string>15:59:20:07</string>
                                <frame>1439007</frame>
                                <displayformat>NDF</displayformat>
                            </timecode>
                            <media>
                                <video>
                                    <samplecharacteristics>
                                        <rate>
                                            <timebase>25</timebase>
                                            <ntsc>FALSE</ntsc>
                                        </rate>
                                        <width>1920</width>
                                        <height>1080</height>
                                        <anamorphic>FALSE</anamorphic>
                                        <pixelaspectratio>square</pixelaspectratio>
                                        <fielddominance>none</fielddominance>
                                    </samplecharacteristics>
                                </video>
                                <audio>
                                    <samplecharacteristics>
                                        <depth>16</depth>
                                        <samplerate>48000</samplerate>
                                    </samplecharacteristics>
                                    <channelcount>1</channelcount>
                                    <audiochannel>
                                        <sourcechannel>1</sourcechannel>
                                    </audiochannel>
                                </audio>
                            </media>
                        </file>
                        <filter/>
                        <labels>
                            <label2>VFX</label2>
                        </labels>
                    </clipitem>
                    <clipitem id="my-clip28">
                        <masterclipid>my-clip28</masterclipid>
                        <name>B002C030_190618_K136.mov</name>
                        <enabled>TRUE</enabled>
                        <duration>173</duration>
                        <rate>
                            <timebase>25</timebase>
                            <ntsc>FALSE</ntsc>
                        </rate>
                        <start>1076</start>
                        <end>1115</end>
                        <in>59</in>
                        <out>98</out>
                        <file id="file-15">
                            <name>B002C030_190618_K136.mov</name>
                            <pathurl>file://localhost/Volumes/PIGSTORE/Projects/rema_smartboat_0299_jun_2019/editorial/proxies/B002C030_190618_K136.mov</pathurl>
                            <rate>
                                <timebase>25</timebase>
                                <ntsc>FALSE</ntsc>
                            </rate>
                            <duration>695</duration>
                            <timecode>
                                <rate>
                                    <timebase>25</timebase>
                                    <ntsc>FALSE</ntsc>
                                </rate>
                                <string>12:46:11:22</string>
                                <frame>1149297</frame>
                                <displayformat>NDF</displayformat>
                            </timecode>
                            <media>
                                <video>
                                    <samplecharacteristics>
                                        <rate>
                                            <timebase>25</timebase>
                                            <ntsc>FALSE</ntsc>
                                        </rate>
                                        <width>1920</width>
                                        <height>1080</height>
                                        <anamorphic>FALSE</anamorphic>
                                        <pixelaspectratio>square</pixelaspectratio>
                                        <fielddominance>none</fielddominance>
                                    </samplecharacteristics>
                                </video>
                                <audio>
                                    <samplecharacteristics>
                                        <depth>16</depth>
                                        <samplerate>48000</samplerate>
                                    </samplecharacteristics>
                                    <channelcount>1</channelcount>
                                    <audiochannel>
                                        <sourcechannel>1</sourcechannel>
                                    </audiochannel>
                                </audio>
                            </media>
                        </file>
                        <filter/>
                        <labels>
                            <label2>VFX</label2>
                        </labels>
                    </clipitem>
                    <clipitem id="my-clip29">
                        <masterclipid>my-clip29</masterclipid>
                        <name>B002C030_190618_K136.mov</name>
                        <enabled>TRUE</enabled>
                        <duration>173</duration>
                        <rate>
                            <timebase>25</timebase>
                            <ntsc>FALSE</ntsc>
                        </rate>
                        <start>1115</start>
                        <end>1154</end>
                        <in>59</in>
                        <out>98</out>
                        <file id="file-15">
                            <name>B002C030_190618_K136.mov</name>
                            <pathurl>file://localhost/Volumes/PIGSTORE/Projects/rema_smartboat_0299_jun_2019/editorial/proxies/B002C030_190618_K136.mov</pathurl>
                            <rate>
                                <timebase>25</timebase>
                                <ntsc>FALSE</ntsc>
                            </rate>
                            <duration>695</duration>
                            <timecode>
                                <rate>
                                    <timebase>25</timebase>
                                    <ntsc>FALSE</ntsc>
                                </rate>
                                <string>12:46:11:22</string>
                                <frame>1149297</frame>
                                <displayformat>NDF</displayformat>
                            </timecode>
                            <media>
                                <video>
                                    <samplecharacteristics>
                                        <rate>
                                            <timebase>25</timebase>
                                            <ntsc>FALSE</ntsc>
                                        </rate>
                                        <width>1920</width>
                                        <height>1080</height>
                                        <anamorphic>FALSE</anamorphic>
                                        <pixelaspectratio>square</pixelaspectratio>
                                        <fielddominance>none</fielddominance>
                                    </samplecharacteristics>
                                </video>
                                <audio>
                                    <samplecharacteristics>
                                        <depth>16</depth>
                                        <samplerate>48000</samplerate>
                                    </samplecharacteristics>
                                    <channelcount>1</channelcount>
                                    <audiochannel>
                                        <sourcechannel>1</sourcechannel>
                                    </audiochannel>
                                </audio>
                            </media>
                        </file>
                        <filter/>
                        <labels>
                            <label2>VFX</label2>
                        </labels>
                    </clipitem>
                    <clipitem id="my-clip30">
                        <masterclipid>my-clip30</masterclipid>
                        <name>B002C030_190618_K136.mov</name>
                        <enabled>TRUE</enabled>
                        <duration>173</duration>
                        <rate>
                            <timebase>25</timebase>
                            <ntsc>FALSE</ntsc>
                        </rate>
                        <start>1154</start>
                        <end>1193</end>
                        <in>59</in>
                        <out>98</out>
                        <file id="file-15">
                            <name>B002C030_190618_K136.mov</name>
                            <pathurl>file://localhost/Volumes/PIGSTORE/Projects/rema_smartboat_0299_jun_2019/editorial/proxies/B002C030_190618_K136.mov</pathurl>
                            <rate>
                                <timebase>25</timebase>
                                <ntsc>FALSE</ntsc>
                            </rate>
                            <duration>695</duration>
                            <timecode>
                                <rate>
                                    <timebase>25</timebase>
                                    <ntsc>FALSE</ntsc>
                                </rate>
                                <string>12:46:11:22</string>
                                <frame>1149297</frame>
                                <displayformat>NDF</displayformat>
                            </timecode>
                            <media>
                                <video>
                                    <samplecharacteristics>
                                        <rate>
                                            <timebase>25</timebase>
                                            <ntsc>FALSE</ntsc>
                                        </rate>
                                        <width>1920</width>
                                        <height>1080</height>
                                        <anamorphic>FALSE</anamorphic>
                                        <pixelaspectratio>square</pixelaspectratio>
                                        <fielddominance>none</fielddominance>
                                    </samplecharacteristics>
                                </video>
                                <audio>
                                    <samplecharacteristics>
                                        <depth>16</depth>
                                        <samplerate>48000</samplerate>
                                    </samplecharacteristics>
                                    <channelcount>1</channelcount>
                                    <audiochannel>
                                        <sourcechannel>1</sourcechannel>
                                    </audiochannel>
                                </audio>
                            </media>
                        </file>
                        <filter/>
                        <labels>
                            <label2>VFX</label2>
                        </labels>
                    </clipitem>
                    <clipitem id="my-clip31">
                        <masterclipid>my-clip31</masterclipid>
                        <name>B002C030_190618_K136.mov</name>
                        <enabled>TRUE</enabled>
                        <duration>173</duration>
                        <rate>
                            <timebase>25</timebase>
                            <ntsc>FALSE</ntsc>
                        </rate>
                        <start>1193</start>
                        <end>1232</end>
                        <in>59</in>
                        <out>98</out>
                        <file id="file-15">
                            <name>B002C030_190618_K136.mov</name>
                            <pathurl>file://localhost/Volumes/PIGSTORE/Projects/rema_smartboat_0299_jun_2019/editorial/proxies/B002C030_190618_K136.mov</pathurl>
                            <rate>
                                <timebase>25</timebase>
                                <ntsc>FALSE</ntsc>
                            </rate>
                            <duration>695</duration>
                            <timecode>
                                <rate>
                                    <timebase>25</timebase>
                                    <ntsc>FALSE</ntsc>
                                </rate>
                                <string>12:46:11:22</string>
                                <frame>1149297</frame>
                                <displayformat>NDF</displayformat>
                            </timecode>
                            <media>
                                <video>
                                    <samplecharacteristics>
                                        <rate>
                                            <timebase>25</timebase>
                                            <ntsc>FALSE</ntsc>
                                        </rate>
                                        <width>1920</width>
                                        <height>1080</height>
                                        <anamorphic>FALSE</anamorphic>
                                        <pixelaspectratio>square</pixelaspectratio>
                                        <fielddominance>none</fielddominance>
                                    </samplecharacteristics>
                                </video>
                                <audio>
                                    <samplecharacteristics>
                                        <depth>16</depth>
                                        <samplerate>48000</samplerate>
                                    </samplecharacteristics>
                                    <channelcount>1</channelcount>
                                    <audiochannel>
                                        <sourcechannel>1</sourcechannel>
                                    </audiochannel>
                                </audio>
                            </media>
                        </file>
                        <filter/>
                        <labels>
                            <label2>VFX</label2>
                        </labels>
                    </clipitem>
                    <clipitem id="my-clip32">
                        <masterclipid>my-clip32</masterclipid>
                        <name>A001C010_190628_K136.mov</name>
                        <enabled>TRUE</enabled>
                        <duration>7449</duration>
                        <rate>
                            <timebase>25</timebase>
                            <ntsc>FALSE</ntsc>
                        </rate>
                        <start>1232</start>
                        <end>1256</end>
                        <in>3238</in>
                        <out>3262</out>
                        <file id="file-16">
                            <name>A001C010_190628_K136.mov</name>
                            <pathurl>file://localhost/Volumes/PIGSTORE/Projects/rema_smartboat_0299_jun_2019/editorial/proxies/A001C010_190628_K136.mov</pathurl>
                            <rate>
                                <timebase>25</timebase>
                                <ntsc>FALSE</ntsc>
                            </rate>
                            <duration>7449</duration>
                            <timecode>
                                <rate>
                                    <timebase>25</timebase>
                                    <ntsc>FALSE</ntsc>
                                </rate>
                                <string>04:46:44:19</string>
                                <frame>430119</frame>
                                <displayformat>NDF</displayformat>
                            </timecode>
                            <media>
                                <video>
                                    <samplecharacteristics>
                                        <rate>
                                            <timebase>25</timebase>
                                            <ntsc>FALSE</ntsc>
                                        </rate>
                                        <width>1920</width>
                                        <height>1080</height>
                                        <anamorphic>FALSE</anamorphic>
                                        <pixelaspectratio>square</pixelaspectratio>
                                        <fielddominance>none</fielddominance>
                                    </samplecharacteristics>
                                </video>
                            </media>
                        </file>
                        <filter/>
                        <labels>
                            <label2>VFX</label2>
                        </labels>
                    </clipitem>
                    <clipitem id="my-clip33">
                        <masterclipid>my-clip33</masterclipid>
                        <name>A001C010_190628_K136.mov</name>
                        <enabled>TRUE</enabled>
                        <duration>7449</duration>
                        <rate>
                            <timebase>25</timebase>
                            <ntsc>FALSE</ntsc>
                        </rate>
                        <start>1256</start>
                        <end>1280</end>
                        <in>3238</in>
                        <out>3262</out>
                        <file id="file-16">
                            <name>A001C010_190628_K136.mov</name>
                            <pathurl>file://localhost/Volumes/PIGSTORE/Projects/rema_smartboat_0299_jun_2019/editorial/proxies/A001C010_190628_K136.mov</pathurl>
                            <rate>
                                <timebase>25</timebase>
                                <ntsc>FALSE</ntsc>
                            </rate>
                            <duration>7449</duration>
                            <timecode>
                                <rate>
                                    <timebase>25</timebase>
                                    <ntsc>FALSE</ntsc>
                                </rate>
                                <string>04:46:44:19</string>
                                <frame>430119</frame>
                                <displayformat>NDF</displayformat>
                            </timecode>
                            <media>
                                <video>
                                    <samplecharacteristics>
                                        <rate>
                                            <timebase>25</timebase>
                                            <ntsc>FALSE</ntsc>
                                        </rate>
                                        <width>1920</width>
                                        <height>1080</height>
                                        <anamorphic>FALSE</anamorphic>
                                        <pixelaspectratio>square</pixelaspectratio>
                                        <fielddominance>none</fielddominance>
                                    </samplecharacteristics>
                                </video>
                            </media>
                        </file>
                        <filter/>
                        <labels>
                            <label2>VFX</label2>
                        </labels>
                    </clipitem>
                    <clipitem id="my-clip34">
                        <masterclipid>my-clip34</masterclipid>
                        <name>A002C001_190617_K1TL.mov</name>
                        <enabled>TRUE</enabled>
                        <duration>1119</duration>
                        <rate>
                            <timebase>25</timebase>
                            <ntsc>FALSE</ntsc>
                        </rate>
                        <start>1280</start>
                        <end>1351</end>
                        <in>613</in>
                        <out>684</out>
                        <file id="file-17">
                            <name>A002C001_190617_K1TL.mov</name>
                            <pathurl>file://localhost/Volumes/PIGSTORE/Projects/rema_smartboat_0299_jun_2019/editorial/proxies/A002C001_190617_K1TL.mov</pathurl>
                            <rate>
                                <timebase>25</timebase>
                                <ntsc>FALSE</ntsc>
                            </rate>
                            <duration>1119</duration>
                            <timecode>
                                <rate>
                                    <timebase>25</timebase>
                                    <ntsc>FALSE</ntsc>
                                </rate>
                                <string>13:44:59:22</string>
                                <frame>1237497</frame>
                                <displayformat>NDF</displayformat>
                            </timecode>
                            <media>
                                <video>
                                    <samplecharacteristics>
                                        <rate>
                                            <timebase>25</timebase>
                                            <ntsc>FALSE</ntsc>
                                        </rate>
                                        <width>1920</width>
                                        <height>1080</height>
                                        <anamorphic>FALSE</anamorphic>
                                        <pixelaspectratio>square</pixelaspectratio>
                                        <fielddominance>none</fielddominance>
                                    </samplecharacteristics>
                                </video>
                                <audio>
                                    <samplecharacteristics>
                                        <depth>16</depth>
                                        <samplerate>48000</samplerate>
                                    </samplecharacteristics>
                                    <channelcount>1</channelcount>
                                    <audiochannel>
                                        <sourcechannel>1</sourcechannel>
                                    </audiochannel>
                                </audio>
                            </media>
                        </file>
                        <filter/>
                        <labels>
                            <label2>VFX</label2>
                        </labels>
                    </clipitem>
                    <clipitem id="my-clip35">
                        <masterclipid>my-clip35</masterclipid>
                        <name>A002C001_190617_K1TL.mov</name>
                        <enabled>TRUE</enabled>
                        <duration>1119</duration>
                        <rate>
                            <timebase>25</timebase>
                            <ntsc>FALSE</ntsc>
                        </rate>
                        <start>1351</start>
                        <end>1422</end>
                        <in>613</in>
                        <out>684</out>
                        <file id="file-17">
                            <name>A002C001_190617_K1TL.mov</name>
                            <pathurl>file://localhost/Volumes/PIGSTORE/Projects/rema_smartboat_0299_jun_2019/editorial/proxies/A002C001_190617_K1TL.mov</pathurl>
                            <rate>
                                <timebase>25</timebase>
                                <ntsc>FALSE</ntsc>
                            </rate>
                            <duration>1119</duration>
                            <timecode>
                                <rate>
                                    <timebase>25</timebase>
                                    <ntsc>FALSE</ntsc>
                                </rate>
                                <string>13:44:59:22</string>
                                <frame>1237497</frame>
                                <displayformat>NDF</displayformat>
                            </timecode>
                            <media>
                                <video>
                                    <samplecharacteristics>
                                        <rate>
                                            <timebase>25</timebase>
                                            <ntsc>FALSE</ntsc>
                                        </rate>
                                        <width>1920</width>
                                        <height>1080</height>
                                        <anamorphic>FALSE</anamorphic>
                                        <pixelaspectratio>square</pixelaspectratio>
                                        <fielddominance>none</fielddominance>
                                    </samplecharacteristics>
                                </video>
                                <audio>
                                    <samplecharacteristics>
                                        <depth>16</depth>
                                        <samplerate>48000</samplerate>
                                    </samplecharacteristics>
                                    <channelcount>1</channelcount>
                                    <audiochannel>
                                        <sourcechannel>1</sourcechannel>
                                    </audiochannel>
                                </audio>
                            </media>
                        </file>
                        <filter/>
                        <labels>
                            <label2>VFX</label2>
                        </labels>
                    </clipitem>
                    <clipitem id="my-clip36">
                        <masterclipid>my-clip36</masterclipid>
                        <name>A002C001_190617_K1TL.mov</name>
                        <enabled>TRUE</enabled>
                        <duration>1119</duration>
                        <rate>
                            <timebase>25</timebase>
                            <ntsc>FALSE</ntsc>
                        </rate>
                        <start>1422</start>
                        <end>1493</end>
                        <in>613</in>
                        <out>684</out>
                        <file id="file-17">
                            <name>A002C001_190617_K1TL.mov</name>
                            <pathurl>file://localhost/Volumes/PIGSTORE/Projects/rema_smartboat_0299_jun_2019/editorial/proxies/A002C001_190617_K1TL.mov</pathurl>
                            <rate>
                                <timebase>25</timebase>
                                <ntsc>FALSE</ntsc>
                            </rate>
                            <duration>1119</duration>
                            <timecode>
                                <rate>
                                    <timebase>25</timebase>
                                    <ntsc>FALSE</ntsc>
                                </rate>
                                <string>13:44:59:22</string>
                                <frame>1237497</frame>
                                <displayformat>NDF</displayformat>
                            </timecode>
                            <media>
                                <video>
                                    <samplecharacteristics>
                                        <rate>
                                            <timebase>25</timebase>
                                            <ntsc>FALSE</ntsc>
                                        </rate>
                                        <width>1920</width>
                                        <height>1080</height>
                                        <anamorphic>FALSE</anamorphic>
                                        <pixelaspectratio>square</pixelaspectratio>
                                        <fielddominance>none</fielddominance>
                                    </samplecharacteristics>
                                </video>
                                <audio>
                                    <samplecharacteristics>
                                        <depth>16</depth>
                                        <samplerate>48000</samplerate>
                                    </samplecharacteristics>
                                    <channelcount>1</channelcount>
                                    <audiochannel>
                                        <sourcechannel>1</sourcechannel>
                                    </audiochannel>
                                </audio>
                            </media>
                        </file>
                        <filter/>
                        <labels>
                            <label2>VFX</label2>
                        </labels>
                    </clipitem>
                    <clipitem id="my-clip37">
                        <masterclipid>my-clip37</masterclipid>
                        <name>A003C003_190617_K1TL.mov</name>
                        <enabled>TRUE</enabled>
                        <duration>3053</duration>
                        <rate>
                            <timebase>25</timebase>
                            <ntsc>FALSE</ntsc>
                        </rate>
                        <start>1493</start>
                        <end>1551</end>
                        <in>2455</in>
                        <out>2513</out>
                        <file id="file-18">
                            <name>A003C003_190617_K1TL.mov</name>
                            <pathurl>file://localhost/Volumes/PIGSTORE/Projects/rema_smartboat_0299_jun_2019/editorial/proxies/A003C003_190617_K1TL.mov</pathurl>
                            <rate>
                                <timebase>25</timebase>
                                <ntsc>FALSE</ntsc>
                            </rate>
                            <duration>3053</duration>
                            <timecode>
                                <rate>
                                    <timebase>25</timebase>
                                    <ntsc>FALSE</ntsc>
                                </rate>
                                <string>15:41:21:02</string>
                                <frame>1412027</frame>
                                <displayformat>NDF</displayformat>
                            </timecode>
                            <media>
                                <video>
                                    <samplecharacteristics>
                                        <rate>
                                            <timebase>25</timebase>
                                            <ntsc>FALSE</ntsc>
                                        </rate>
                                        <width>1920</width>
                                        <height>1080</height>
                                        <anamorphic>FALSE</anamorphic>
                                        <pixelaspectratio>square</pixelaspectratio>
                                        <fielddominance>none</fielddominance>
                                    </samplecharacteristics>
                                </video>
                                <audio>
                                    <samplecharacteristics>
                                        <depth>16</depth>
                                        <samplerate>48000</samplerate>
                                    </samplecharacteristics>
                                    <channelcount>1</channelcount>
                                    <audiochannel>
                                        <sourcechannel>1</sourcechannel>
                                    </audiochannel>
                                </audio>
                            </media>
                        </file>
                        <filter/>
                        <labels>
                            <label2>VFX</label2>
                        </labels>
                    </clipitem>
                    <clipitem id="my-clip38">
                        <masterclipid>my-clip38</masterclipid>
                        <name>A003C003_190617_K1TL.mov</name>
                        <enabled>TRUE</enabled>
                        <duration>3053</duration>
                        <rate>
                            <timebase>25</timebase>
                            <ntsc>FALSE</ntsc>
                        </rate>
                        <start>1551</start>
                        <end>1609</end>
                        <in>2455</in>
                        <out>2513</out>
                        <file id="file-18">
                            <name>A003C003_190617_K1TL.mov</name>
                            <pathurl>file://localhost/Volumes/PIGSTORE/Projects/rema_smartboat_0299_jun_2019/editorial/proxies/A003C003_190617_K1TL.mov</pathurl>
                            <rate>
                                <timebase>25</timebase>
                                <ntsc>FALSE</ntsc>
                            </rate>
                            <duration>3053</duration>
                            <timecode>
                                <rate>
                                    <timebase>25</timebase>
                                    <ntsc>FALSE</ntsc>
                                </rate>
                                <string>15:41:21:02</string>
                                <frame>1412027</frame>
                                <displayformat>NDF</displayformat>
                            </timecode>
                            <media>
                                <video>
                                    <samplecharacteristics>
                                        <rate>
                                            <timebase>25</timebase>
                                            <ntsc>FALSE</ntsc>
                                        </rate>
                                        <width>1920</width>
                                        <height>1080</height>
                                        <anamorphic>FALSE</anamorphic>
                                        <pixelaspectratio>square</pixelaspectratio>
                                        <fielddominance>none</fielddominance>
                                    </samplecharacteristics>
                                </video>
                                <audio>
                                    <samplecharacteristics>
                                        <depth>16</depth>
                                        <samplerate>48000</samplerate>
                                    </samplecharacteristics>
                                    <channelcount>1</channelcount>
                                    <audiochannel>
                                        <sourcechannel>1</sourcechannel>
                                    </audiochannel>
                                </audio>
                            </media>
                        </file>
                        <filter/>
                        <labels>
                            <label2>VFX</label2>
                        </labels>
                    </clipitem>
                    <clipitem id="my-clip39">
                        <masterclipid>my-clip39</masterclipid>
                        <name>B001C009_190617_K136.mov</name>
                        <enabled>TRUE</enabled>
                        <duration>1217</duration>
                        <rate>
                            <timebase>25</timebase>
                            <ntsc>FALSE</ntsc>
                        </rate>
                        <start>1609</start>
                        <end>1658</end>
                        <in>370</in>
                        <out>419</out>
                        <file id="file-19">
                            <name>B001C009_190617_K136.mov</name>
                            <pathurl>file://localhost/Volumes/PIGSTORE/Projects/rema_smartboat_0299_jun_2019/editorial/proxies/B001C009_190617_K136.mov</pathurl>
                            <rate>
                                <timebase>25</timebase>
                                <ntsc>FALSE</ntsc>
                            </rate>
                            <duration>1217</duration>
                            <timecode>
                                <rate>
                                    <timebase>25</timebase>
                                    <ntsc>FALSE</ntsc>
                                </rate>
                                <string>17:49:25:23</string>
                                <frame>1604148</frame>
                                <displayformat>NDF</displayformat>
                            </timecode>
                            <media>
                                <video>
                                    <samplecharacteristics>
                                        <rate>
                                            <timebase>25</timebase>
                                            <ntsc>FALSE</ntsc>
                                        </rate>
                                        <width>1920</width>
                                        <height>1080</height>
                                        <anamorphic>FALSE</anamorphic>
                                        <pixelaspectratio>square</pixelaspectratio>
                                        <fielddominance>none</fielddominance>
                                    </samplecharacteristics>
                                </video>
                                <audio>
                                    <samplecharacteristics>
                                        <depth>16</depth>
                                        <samplerate>48000</samplerate>
                                    </samplecharacteristics>
                                    <channelcount>1</channelcount>
                                    <audiochannel>
                                        <sourcechannel>1</sourcechannel>
                                    </audiochannel>
                                </audio>
                            </media>
                        </file>
                        <filter/>
                        <labels>
                            <label2>VFX</label2>
                        </labels>
                    </clipitem>
                    <clipitem id="my-clip40">
                        <masterclipid>my-clip40</masterclipid>
                        <name>B001C009_190617_K136.mov</name>
                        <enabled>TRUE</enabled>
                        <duration>1217</duration>
                        <rate>
                            <timebase>25</timebase>
                            <ntsc>FALSE</ntsc>
                        </rate>
                        <start>1658</start>
                        <end>1707</end>
                        <in>370</in>
                        <out>419</out>
                        <file id="file-19">
                            <name>B001C009_190617_K136.mov</name>
                            <pathurl>file://localhost/Volumes/PIGSTORE/Projects/rema_smartboat_0299_jun_2019/editorial/proxies/B001C009_190617_K136.mov</pathurl>
                            <rate>
                                <timebase>25</timebase>
                                <ntsc>FALSE</ntsc>
                            </rate>
                            <duration>1217</duration>
                            <timecode>
                                <rate>
                                    <timebase>25</timebase>
                                    <ntsc>FALSE</ntsc>
                                </rate>
                                <string>17:49:25:23</string>
                                <frame>1604148</frame>
                                <displayformat>NDF</displayformat>
                            </timecode>
                            <media>
                                <video>
                                    <samplecharacteristics>
                                        <rate>
                                            <timebase>25</timebase>
                                            <ntsc>FALSE</ntsc>
                                        </rate>
                                        <width>1920</width>
                                        <height>1080</height>
                                        <anamorphic>FALSE</anamorphic>
                                        <pixelaspectratio>square</pixelaspectratio>
                                        <fielddominance>none</fielddominance>
                                    </samplecharacteristics>
                                </video>
                                <audio>
                                    <samplecharacteristics>
                                        <depth>16</depth>
                                        <samplerate>48000</samplerate>
                                    </samplecharacteristics>
                                    <channelcount>1</channelcount>
                                    <audiochannel>
                                        <sourcechannel>1</sourcechannel>
                                    </audiochannel>
                                </audio>
                            </media>
                        </file>
                        <filter/>
                        <labels>
                            <label2>VFX</label2>
                        </labels>
                    </clipitem>
                    <clipitem id="my-clip41">
                        <masterclipid>my-clip41</masterclipid>
                        <name>B003C017_190618_K136.mov</name>
                        <enabled>TRUE</enabled>
                        <duration>1688</duration>
                        <rate>
                            <timebase>25</timebase>
                            <ntsc>FALSE</ntsc>
                        </rate>
                        <start>1707</start>
                        <end>1736</end>
                        <in>228</in>
                        <out>257</out>
                        <file id="file-20">
                            <name>B003C017_190618_K136.mov</name>
                            <pathurl>file://localhost/Volumes/PIGSTORE/Projects/rema_smartboat_0299_jun_2019/editorial/proxies/B003C017_190618_K136.mov</pathurl>
                            <rate>
                                <timebase>25</timebase>
                                <ntsc>FALSE</ntsc>
                            </rate>
                            <duration>1688</duration>
                            <timecode>
                                <rate>
                                    <timebase>25</timebase>
                                    <ntsc>FALSE</ntsc>
                                </rate>
                                <string>02:18:42:13</string>
                                <frame>208063</frame>
                                <displayformat>NDF</displayformat>
                            </timecode>
                            <media>
                                <video>
                                    <samplecharacteristics>
                                        <rate>
                                            <timebase>25</timebase>
                                            <ntsc>FALSE</ntsc>
                                        </rate>
                                        <width>1920</width>
                                        <height>1080</height>
                                        <anamorphic>FALSE</anamorphic>
                                        <pixelaspectratio>square</pixelaspectratio>
                                        <fielddominance>none</fielddominance>
                                    </samplecharacteristics>
                                </video>
                                <audio>
                                    <samplecharacteristics>
                                        <depth>16</depth>
                                        <samplerate>48000</samplerate>
                                    </samplecharacteristics>
                                    <channelcount>1</channelcount>
                                    <audiochannel>
                                        <sourcechannel>1</sourcechannel>
                                    </audiochannel>
                                </audio>
                                <audio>
                                    <samplecharacteristics>
                                        <depth>16</depth>
                                        <samplerate>48000</samplerate>
                                    </samplecharacteristics>
                                    <channelcount>1</channelcount>
                                    <audiochannel>
                                        <sourcechannel>2</sourcechannel>
                                    </audiochannel>
                                </audio>
                                <audio>
                                    <samplecharacteristics>
                                        <depth>16</depth>
                                        <samplerate>48000</samplerate>
                                    </samplecharacteristics>
                                    <channelcount>1</channelcount>
                                    <audiochannel>
                                        <sourcechannel>3</sourcechannel>
                                    </audiochannel>
                                </audio>
                                <audio>
                                    <samplecharacteristics>
                                        <depth>16</depth>
                                        <samplerate>48000</samplerate>
                                    </samplecharacteristics>
                                    <channelcount>1</channelcount>
                                    <audiochannel>
                                        <sourcechannel>4</sourcechannel>
                                    </audiochannel>
                                </audio>
                                <audio>
                                    <samplecharacteristics>
                                        <depth>16</depth>
                                        <samplerate>48000</samplerate>
                                    </samplecharacteristics>
                                    <channelcount>1</channelcount>
                                    <audiochannel>
                                        <sourcechannel>5</sourcechannel>
                                    </audiochannel>
                                </audio>
                            </media>
                        </file>
                        <filter/>
                        <labels>
                            <label2>VFX</label2>
                        </labels>
                    </clipitem>
                    <clipitem id="my-clip42">
                        <masterclipid>my-clip42</masterclipid>
                        <name>B003C017_190618_K136.mov</name>
                        <enabled>TRUE</enabled>
                        <duration>1688</duration>
                        <rate>
                            <timebase>25</timebase>
                            <ntsc>FALSE</ntsc>
                        </rate>
                        <start>1736</start>
                        <end>1765</end>
                        <in>228</in>
                        <out>257</out>
                        <file id="file-20">
                            <name>B003C017_190618_K136.mov</name>
                            <pathurl>file://localhost/Volumes/PIGSTORE/Projects/rema_smartboat_0299_jun_2019/editorial/proxies/B003C017_190618_K136.mov</pathurl>
                            <rate>
                                <timebase>25</timebase>
                                <ntsc>FALSE</ntsc>
                            </rate>
                            <duration>1688</duration>
                            <timecode>
                                <rate>
                                    <timebase>25</timebase>
                                    <ntsc>FALSE</ntsc>
                                </rate>
                                <string>02:18:42:13</string>
                                <frame>208063</frame>
                                <displayformat>NDF</displayformat>
                            </timecode>
                            <media>
                                <video>
                                    <samplecharacteristics>
                                        <rate>
                                            <timebase>25</timebase>
                                            <ntsc>FALSE</ntsc>
                                        </rate>
                                        <width>1920</width>
                                        <height>1080</height>
                                        <anamorphic>FALSE</anamorphic>
                                        <pixelaspectratio>square</pixelaspectratio>
                                        <fielddominance>none</fielddominance>
                                    </samplecharacteristics>
                                </video>
                                <audio>
                                    <samplecharacteristics>
                                        <depth>16</depth>
                                        <samplerate>48000</samplerate>
                                    </samplecharacteristics>
                                    <channelcount>1</channelcount>
                                    <audiochannel>
                                        <sourcechannel>1</sourcechannel>
                                    </audiochannel>
                                </audio>
                                <audio>
                                    <samplecharacteristics>
                                        <depth>16</depth>
                                        <samplerate>48000</samplerate>
                                    </samplecharacteristics>
                                    <channelcount>1</channelcount>
                                    <audiochannel>
                                        <sourcechannel>2</sourcechannel>
                                    </audiochannel>
                                </audio>
                                <audio>
                                    <samplecharacteristics>
                                        <depth>16</depth>
                                        <samplerate>48000</samplerate>
                                    </samplecharacteristics>
                                    <channelcount>1</channelcount>
                                    <audiochannel>
                                        <sourcechannel>3</sourcechannel>
                                    </audiochannel>
                                </audio>
                                <audio>
                                    <samplecharacteristics>
                                        <depth>16</depth>
                                        <samplerate>48000</samplerate>
                                    </samplecharacteristics>
                                    <channelcount>1</channelcount>
                                    <audiochannel>
                                        <sourcechannel>4</sourcechannel>
                                    </audiochannel>
                                </audio>
                                <audio>
                                    <samplecharacteristics>
                                        <depth>16</depth>
                                        <samplerate>48000</samplerate>
                                    </samplecharacteristics>
                                    <channelcount>1</channelcount>
                                    <audiochannel>
                                        <sourcechannel>5</sourcechannel>
                                    </audiochannel>
                                </audio>
                            </media>
                        </file>
                        <filter/>
                        <labels>
                            <label2>VFX</label2>
                        </labels>
                    </clipitem>
                    <clipitem id="my-clip43">
                        <masterclipid>my-clip43</masterclipid>
                        <name>A006C019_190619_K1TL.mov</name>
                        <enabled>TRUE</enabled>
                        <duration>628</duration>
                        <rate>
                            <timebase>25</timebase>
                            <ntsc>FALSE</ntsc>
                        </rate>
                        <start>1765</start>
                        <end>1793</end>
                        <in>151</in>
                        <out>179</out>
                        <file id="file-21">
                            <name>A006C019_190619_K1TL.mov</name>
                            <pathurl>file://localhost/Volumes/PIGSTORE/Projects/rema_smartboat_0299_jun_2019/editorial/proxies/A006C019_190619_K1TL.mov</pathurl>
                            <rate>
                                <timebase>25</timebase>
                                <ntsc>FALSE</ntsc>
                            </rate>
                            <duration>628</duration>
                            <timecode>
                                <rate>
                                    <timebase>25</timebase>
                                    <ntsc>FALSE</ntsc>
                                </rate>
                                <string>11:19:46:24</string>
                                <frame>1019674</frame>
                                <displayformat>NDF</displayformat>
                            </timecode>
                            <media>
                                <video>
                                    <samplecharacteristics>
                                        <rate>
                                            <timebase>25</timebase>
                                            <ntsc>FALSE</ntsc>
                                        </rate>
                                        <width>1920</width>
                                        <height>1080</height>
                                        <anamorphic>FALSE</anamorphic>
                                        <pixelaspectratio>square</pixelaspectratio>
                                        <fielddominance>none</fielddominance>
                                    </samplecharacteristics>
                                </video>
                                <audio>
                                    <samplecharacteristics>
                                        <depth>16</depth>
                                        <samplerate>48000</samplerate>
                                    </samplecharacteristics>
                                    <channelcount>1</channelcount>
                                    <audiochannel>
                                        <sourcechannel>1</sourcechannel>
                                    </audiochannel>
                                </audio>
                                <audio>
                                    <samplecharacteristics>
                                        <depth>16</depth>
                                        <samplerate>48000</samplerate>
                                    </samplecharacteristics>
                                    <channelcount>1</channelcount>
                                    <audiochannel>
                                        <sourcechannel>2</sourcechannel>
                                    </audiochannel>
                                </audio>
                                <audio>
                                    <samplecharacteristics>
                                        <depth>16</depth>
                                        <samplerate>48000</samplerate>
                                    </samplecharacteristics>
                                    <channelcount>1</channelcount>
                                    <audiochannel>
                                        <sourcechannel>3</sourcechannel>
                                    </audiochannel>
                                </audio>
                                <audio>
                                    <samplecharacteristics>
                                        <depth>16</depth>
                                        <samplerate>48000</samplerate>
                                    </samplecharacteristics>
                                    <channelcount>1</channelcount>
                                    <audiochannel>
                                        <sourcechannel>4</sourcechannel>
                                    </audiochannel>
                                </audio>
                            </media>
                        </file>
                        <filter/>
                        <labels>
                            <label2>VFX</label2>
                        </labels>
                    </clipitem>
                    <clipitem id="my-clip44">
                        <masterclipid>my-clip44</masterclipid>
                        <name>A006C019_190619_K1TL.mov</name>
                        <enabled>TRUE</enabled>
                        <duration>628</duration>
                        <rate>
                            <timebase>25</timebase>
                            <ntsc>FALSE</ntsc>
                        </rate>
                        <start>1793</start>
                        <end>1821</end>
                        <in>151</in>
                        <out>179</out>
                        <file id="file-21">
                            <name>A006C019_190619_K1TL.mov</name>
                            <pathurl>file://localhost/Volumes/PIGSTORE/Projects/rema_smartboat_0299_jun_2019/editorial/proxies/A006C019_190619_K1TL.mov</pathurl>
                            <rate>
                                <timebase>25</timebase>
                                <ntsc>FALSE</ntsc>
                            </rate>
                            <duration>628</duration>
                            <timecode>
                                <rate>
                                    <timebase>25</timebase>
                                    <ntsc>FALSE</ntsc>
                                </rate>
                                <string>11:19:46:24</string>
                                <frame>1019674</frame>
                                <displayformat>NDF</displayformat>
                            </timecode>
                            <media>
                                <video>
                                    <samplecharacteristics>
                                        <rate>
                                            <timebase>25</timebase>
                                            <ntsc>FALSE</ntsc>
                                        </rate>
                                        <width>1920</width>
                                        <height>1080</height>
                                        <anamorphic>FALSE</anamorphic>
                                        <pixelaspectratio>square</pixelaspectratio>
                                        <fielddominance>none</fielddominance>
                                    </samplecharacteristics>
                                </video>
                                <audio>
                                    <samplecharacteristics>
                                        <depth>16</depth>
                                        <samplerate>48000</samplerate>
                                    </samplecharacteristics>
                                    <channelcount>1</channelcount>
                                    <audiochannel>
                                        <sourcechannel>1</sourcechannel>
                                    </audiochannel>
                                </audio>
                                <audio>
                                    <samplecharacteristics>
                                        <depth>16</depth>
                                        <samplerate>48000</samplerate>
                                    </samplecharacteristics>
                                    <channelcount>1</channelcount>
                                    <audiochannel>
                                        <sourcechannel>2</sourcechannel>
                                    </audiochannel>
                                </audio>
                                <audio>
                                    <samplecharacteristics>
                                        <depth>16</depth>
                                        <samplerate>48000</samplerate>
                                    </samplecharacteristics>
                                    <channelcount>1</channelcount>
                                    <audiochannel>
                                        <sourcechannel>3</sourcechannel>
                                    </audiochannel>
                                </audio>
                                <audio>
                                    <samplecharacteristics>
                                        <depth>16</depth>
                                        <samplerate>48000</samplerate>
                                    </samplecharacteristics>
                                    <channelcount>1</channelcount>
                                    <audiochannel>
                                        <sourcechannel>4</sourcechannel>
                                    </audiochannel>
                                </audio>
                            </media>
                        </file>
                        <filter/>
                        <labels>
                            <label2>VFX</label2>
                        </labels>
                    </clipitem>
                    <clipitem id="my-clip45">
                        <masterclipid>my-clip45</masterclipid>
                        <name>A006C009_190619_K1TL.mov</name>
                        <enabled>TRUE</enabled>
                        <duration>2052</duration>
                        <rate>
                            <timebase>25</timebase>
                            <ntsc>FALSE</ntsc>
                        </rate>
                        <start>1821</start>
                        <end>1842</end>
                        <in>1801</in>
                        <out>1822</out>
                        <file id="file-22">
                            <name>A006C009_190619_K1TL.mov</name>
                            <pathurl>file://localhost/Volumes/PIGSTORE/Projects/rema_smartboat_0299_jun_2019/editorial/proxies/A006C009_190619_K1TL.mov</pathurl>
                            <rate>
                                <timebase>25</timebase>
                                <ntsc>FALSE</ntsc>
                            </rate>
                            <duration>2052</duration>
                            <timecode>
                                <rate>
                                    <timebase>25</timebase>
                                    <ntsc>FALSE</ntsc>
                                </rate>
                                <string>10:28:25:10</string>
                                <frame>942635</frame>
                                <displayformat>NDF</displayformat>
                            </timecode>
                            <media>
                                <video>
                                    <samplecharacteristics>
                                        <rate>
                                            <timebase>25</timebase>
                                            <ntsc>FALSE</ntsc>
                                        </rate>
                                        <width>1920</width>
                                        <height>1080</height>
                                        <anamorphic>FALSE</anamorphic>
                                        <pixelaspectratio>square</pixelaspectratio>
                                        <fielddominance>none</fielddominance>
                                    </samplecharacteristics>
                                </video>
                                <audio>
                                    <samplecharacteristics>
                                        <depth>16</depth>
                                        <samplerate>48000</samplerate>
                                    </samplecharacteristics>
                                    <channelcount>1</channelcount>
                                    <audiochannel>
                                        <sourcechannel>1</sourcechannel>
                                    </audiochannel>
                                </audio>
                                <audio>
                                    <samplecharacteristics>
                                        <depth>16</depth>
                                        <samplerate>48000</samplerate>
                                    </samplecharacteristics>
                                    <channelcount>1</channelcount>
                                    <audiochannel>
                                        <sourcechannel>2</sourcechannel>
                                    </audiochannel>
                                </audio>
                                <audio>
                                    <samplecharacteristics>
                                        <depth>16</depth>
                                        <samplerate>48000</samplerate>
                                    </samplecharacteristics>
                                    <channelcount>1</channelcount>
                                    <audiochannel>
                                        <sourcechannel>3</sourcechannel>
                                    </audiochannel>
                                </audio>
                                <audio>
                                    <samplecharacteristics>
                                        <depth>16</depth>
                                        <samplerate>48000</samplerate>
                                    </samplecharacteristics>
                                    <channelcount>1</channelcount>
                                    <audiochannel>
                                        <sourcechannel>4</sourcechannel>
                                    </audiochannel>
                                </audio>
                            </media>
                        </file>
                        <filter/>
                        <labels>
                            <label2>VFX</label2>
                        </labels>
                    </clipitem>
                    <clipitem id="my-clip46">
                        <masterclipid>my-clip46</masterclipid>
                        <name>A006C009_190619_K1TL.mov</name>
                        <enabled>TRUE</enabled>
                        <duration>2052</duration>
                        <rate>
                            <timebase>25</timebase>
                            <ntsc>FALSE</ntsc>
                        </rate>
                        <start>1842</start>
                        <end>1863</end>
                        <in>1801</in>
                        <out>1822</out>
                        <file id="file-22">
                            <name>A006C009_190619_K1TL.mov</name>
                            <pathurl>file://localhost/Volumes/PIGSTORE/Projects/rema_smartboat_0299_jun_2019/editorial/proxies/A006C009_190619_K1TL.mov</pathurl>
                            <rate>
                                <timebase>25</timebase>
                                <ntsc>FALSE</ntsc>
                            </rate>
                            <duration>2052</duration>
                            <timecode>
                                <rate>
                                    <timebase>25</timebase>
                                    <ntsc>FALSE</ntsc>
                                </rate>
                                <string>10:28:25:10</string>
                                <frame>942635</frame>
                                <displayformat>NDF</displayformat>
                            </timecode>
                            <media>
                                <video>
                                    <samplecharacteristics>
                                        <rate>
                                            <timebase>25</timebase>
                                            <ntsc>FALSE</ntsc>
                                        </rate>
                                        <width>1920</width>
                                        <height>1080</height>
                                        <anamorphic>FALSE</anamorphic>
                                        <pixelaspectratio>square</pixelaspectratio>
                                        <fielddominance>none</fielddominance>
                                    </samplecharacteristics>
                                </video>
                                <audio>
                                    <samplecharacteristics>
                                        <depth>16</depth>
                                        <samplerate>48000</samplerate>
                                    </samplecharacteristics>
                                    <channelcount>1</channelcount>
                                    <audiochannel>
                                        <sourcechannel>1</sourcechannel>
                                    </audiochannel>
                                </audio>
                                <audio>
                                    <samplecharacteristics>
                                        <depth>16</depth>
                                        <samplerate>48000</samplerate>
                                    </samplecharacteristics>
                                    <channelcount>1</channelcount>
                                    <audiochannel>
                                        <sourcechannel>2</sourcechannel>
                                    </audiochannel>
                                </audio>
                                <audio>
                                    <samplecharacteristics>
                                        <depth>16</depth>
                                        <samplerate>48000</samplerate>
                                    </samplecharacteristics>
                                    <channelcount>1</channelcount>
                                    <audiochannel>
                                        <sourcechannel>3</sourcechannel>
                                    </audiochannel>
                                </audio>
                                <audio>
                                    <samplecharacteristics>
                                        <depth>16</depth>
                                        <samplerate>48000</samplerate>
                                    </samplecharacteristics>
                                    <channelcount>1</channelcount>
                                    <audiochannel>
                                        <sourcechannel>4</sourcechannel>
                                    </audiochannel>
                                </audio>
                            </media>
                        </file>
                        <filter/>
                        <labels>
                            <label2>VFX</label2>
                        </labels>
                    </clipitem>
                    <clipitem id="my-clip47">
                        <masterclipid>my-clip47</masterclipid>
                        <name>A002C003_190617_K1TL.mov</name>
                        <enabled>TRUE</enabled>
                        <duration>1575</duration>
                        <rate>
                            <timebase>25</timebase>
                            <ntsc>FALSE</ntsc>
                        </rate>
                        <start>1863</start>
                        <end>1913</end>
                        <in>1317</in>
                        <out>1367</out>
                        <file id="file-23">
                            <name>A002C003_190617_K1TL.mov</name>
                            <pathurl>file://localhost/Volumes/PIGSTORE/Projects/rema_smartboat_0299_jun_2019/editorial/proxies/A002C003_190617_K1TL.mov</pathurl>
                            <rate>
                                <timebase>25</timebase>
                                <ntsc>FALSE</ntsc>
                            </rate>
                            <duration>1575</duration>
                            <timecode>
                                <rate>
                                    <timebase>25</timebase>
                                    <ntsc>FALSE</ntsc>
                                </rate>
                                <string>13:48:10:20</string>
                                <frame>1242270</frame>
                                <displayformat>NDF</displayformat>
                            </timecode>
                            <media>
                                <video>
                                    <samplecharacteristics>
                                        <rate>
                                            <timebase>25</timebase>
                                            <ntsc>FALSE</ntsc>
                                        </rate>
                                        <width>1920</width>
                                        <height>1080</height>
                                        <anamorphic>FALSE</anamorphic>
                                        <pixelaspectratio>square</pixelaspectratio>
                                        <fielddominance>none</fielddominance>
                                    </samplecharacteristics>
                                </video>
                                <audio>
                                    <samplecharacteristics>
                                        <depth>16</depth>
                                        <samplerate>48000</samplerate>
                                    </samplecharacteristics>
                                    <channelcount>1</channelcount>
                                    <audiochannel>
                                        <sourcechannel>1</sourcechannel>
                                    </audiochannel>
                                </audio>
                            </media>
                        </file>
                        <filter/>
                        <labels>
                            <label2>VFX</label2>
                        </labels>
                    </clipitem>
                    <clipitem id="my-clip48">
                        <masterclipid>my-clip48</masterclipid>
                        <name>A002C003_190617_K1TL.mov</name>
                        <enabled>TRUE</enabled>
                        <duration>1575</duration>
                        <rate>
                            <timebase>25</timebase>
                            <ntsc>FALSE</ntsc>
                        </rate>
                        <start>1913</start>
                        <end>1963</end>
                        <in>1317</in>
                        <out>1367</out>
                        <file id="file-23">
                            <name>A002C003_190617_K1TL.mov</name>
                            <pathurl>file://localhost/Volumes/PIGSTORE/Projects/rema_smartboat_0299_jun_2019/editorial/proxies/A002C003_190617_K1TL.mov</pathurl>
                            <rate>
                                <timebase>25</timebase>
                                <ntsc>FALSE</ntsc>
                            </rate>
                            <duration>1575</duration>
                            <timecode>
                                <rate>
                                    <timebase>25</timebase>
                                    <ntsc>FALSE</ntsc>
                                </rate>
                                <string>13:48:10:20</string>
                                <frame>1242270</frame>
                                <displayformat>NDF</displayformat>
                            </timecode>
                            <media>
                                <video>
                                    <samplecharacteristics>
                                        <rate>
                                            <timebase>25</timebase>
                                            <ntsc>FALSE</ntsc>
                                        </rate>
                                        <width>1920</width>
                                        <height>1080</height>
                                        <anamorphic>FALSE</anamorphic>
                                        <pixelaspectratio>square</pixelaspectratio>
                                        <fielddominance>none</fielddominance>
                                    </samplecharacteristics>
                                </video>
                                <audio>
                                    <samplecharacteristics>
                                        <depth>16</depth>
                                        <samplerate>48000</samplerate>
                                    </samplecharacteristics>
                                    <channelcount>1</channelcount>
                                    <audiochannel>
                                        <sourcechannel>1</sourcechannel>
                                    </audiochannel>
                                </audio>
                            </media>
                        </file>
                        <filter/>
                        <labels>
                            <label2>VFX</label2>
                        </labels>
                    </clipitem>
                    <clipitem id="my-clip49">
                        <masterclipid>my-clip49</masterclipid>
                        <name>A006C011_190619_K1TL.mov</name>
                        <enabled>TRUE</enabled>
                        <duration>621</duration>
                        <rate>
                            <timebase>25</timebase>
                            <ntsc>FALSE</ntsc>
                        </rate>
                        <start>1963</start>
                        <end>1981</end>
                        <in>407</in>
                        <out>425</out>
                        <file id="file-24">
                            <name>A006C011_190619_K1TL.mov</name>
                            <pathurl>file://localhost/Volumes/PIGSTORE/Projects/rema_smartboat_0299_jun_2019/editorial/proxies/A006C011_190619_K1TL.mov</pathurl>
                            <rate>
                                <timebase>25</timebase>
                                <ntsc>FALSE</ntsc>
                            </rate>
                            <duration>621</duration>
                            <timecode>
                                <rate>
                                    <timebase>25</timebase>
                                    <ntsc>FALSE</ntsc>
                                </rate>
                                <string>10:38:13:06</string>
                                <frame>957331</frame>
                                <displayformat>NDF</displayformat>
                            </timecode>
                            <media>
                                <video>
                                    <samplecharacteristics>
                                        <rate>
                                            <timebase>25</timebase>
                                            <ntsc>FALSE</ntsc>
                                        </rate>
                                        <width>1920</width>
                                        <height>1080</height>
                                        <anamorphic>FALSE</anamorphic>
                                        <pixelaspectratio>square</pixelaspectratio>
                                        <fielddominance>none</fielddominance>
                                    </samplecharacteristics>
                                </video>
                                <audio>
                                    <samplecharacteristics>
                                        <depth>16</depth>
                                        <samplerate>48000</samplerate>
                                    </samplecharacteristics>
                                    <channelcount>1</channelcount>
                                    <audiochannel>
                                        <sourcechannel>1</sourcechannel>
                                    </audiochannel>
                                </audio>
                                <audio>
                                    <samplecharacteristics>
                                        <depth>16</depth>
                                        <samplerate>48000</samplerate>
                                    </samplecharacteristics>
                                    <channelcount>1</channelcount>
                                    <audiochannel>
                                        <sourcechannel>2</sourcechannel>
                                    </audiochannel>
                                </audio>
                                <audio>
                                    <samplecharacteristics>
                                        <depth>16</depth>
                                        <samplerate>48000</samplerate>
                                    </samplecharacteristics>
                                    <channelcount>1</channelcount>
                                    <audiochannel>
                                        <sourcechannel>3</sourcechannel>
                                    </audiochannel>
                                </audio>
                                <audio>
                                    <samplecharacteristics>
                                        <depth>16</depth>
                                        <samplerate>48000</samplerate>
                                    </samplecharacteristics>
                                    <channelcount>1</channelcount>
                                    <audiochannel>
                                        <sourcechannel>4</sourcechannel>
                                    </audiochannel>
                                </audio>
                            </media>
                        </file>
                        <filter/>
                        <labels>
                            <label2>VFX</label2>
                        </labels>
                    </clipitem>
                    <clipitem id="my-clip50">
                        <masterclipid>my-clip50</masterclipid>
                        <name>A006C011_190619_K1TL.mov</name>
                        <enabled>TRUE</enabled>
                        <duration>621</duration>
                        <rate>
                            <timebase>25</timebase>
                            <ntsc>FALSE</ntsc>
                        </rate>
                        <start>1981</start>
                        <end>1999</end>
                        <in>407</in>
                        <out>425</out>
                        <file id="file-24">
                            <name>A006C011_190619_K1TL.mov</name>
                            <pathurl>file://localhost/Volumes/PIGSTORE/Projects/rema_smartboat_0299_jun_2019/editorial/proxies/A006C011_190619_K1TL.mov</pathurl>
                            <rate>
                                <timebase>25</timebase>
                                <ntsc>FALSE</ntsc>
                            </rate>
                            <duration>621</duration>
                            <timecode>
                                <rate>
                                    <timebase>25</timebase>
                                    <ntsc>FALSE</ntsc>
                                </rate>
                                <string>10:38:13:06</string>
                                <frame>957331</frame>
                                <displayformat>NDF</displayformat>
                            </timecode>
                            <media>
                                <video>
                                    <samplecharacteristics>
                                        <rate>
                                            <timebase>25</timebase>
                                            <ntsc>FALSE</ntsc>
                                        </rate>
                                        <width>1920</width>
                                        <height>1080</height>
                                        <anamorphic>FALSE</anamorphic>
                                        <pixelaspectratio>square</pixelaspectratio>
                                        <fielddominance>none</fielddominance>
                                    </samplecharacteristics>
                                </video>
                                <audio>
                                    <samplecharacteristics>
                                        <depth>16</depth>
                                        <samplerate>48000</samplerate>
                                    </samplecharacteristics>
                                    <channelcount>1</channelcount>
                                    <audiochannel>
                                        <sourcechannel>1</sourcechannel>
                                    </audiochannel>
                                </audio>
                                <audio>
                                    <samplecharacteristics>
                                        <depth>16</depth>
                                        <samplerate>48000</samplerate>
                                    </samplecharacteristics>
                                    <channelcount>1</channelcount>
                                    <audiochannel>
                                        <sourcechannel>2</sourcechannel>
                                    </audiochannel>
                                </audio>
                                <audio>
                                    <samplecharacteristics>
                                        <depth>16</depth>
                                        <samplerate>48000</samplerate>
                                    </samplecharacteristics>
                                    <channelcount>1</channelcount>
                                    <audiochannel>
                                        <sourcechannel>3</sourcechannel>
                                    </audiochannel>
                                </audio>
                                <audio>
                                    <samplecharacteristics>
                                        <depth>16</depth>
                                        <samplerate>48000</samplerate>
                                    </samplecharacteristics>
                                    <channelcount>1</channelcount>
                                    <audiochannel>
                                        <sourcechannel>4</sourcechannel>
                                    </audiochannel>
                                </audio>
                            </media>
                        </file>
                        <filter/>
                        <labels>
                            <label2>VFX</label2>
                        </labels>
                    </clipitem>
                    <clipitem id="my-clip51">
                        <masterclipid>my-clip51</masterclipid>
                        <name>B002C009_190618_K136.mov</name>
                        <enabled>TRUE</enabled>
                        <duration>1305</duration>
                        <rate>
                            <timebase>25</timebase>
                            <ntsc>FALSE</ntsc>
                        </rate>
                        <start>1999</start>
                        <end>2028</end>
                        <in>569</in>
                        <out>598</out>
                        <file id="file-25">
                            <name>B002C009_190618_K136.mov</name>
                            <pathurl>file://localhost/Volumes/PIGSTORE/Projects/rema_smartboat_0299_jun_2019/editorial/proxies/B002C009_190618_K136.mov</pathurl>
                            <rate>
                                <timebase>25</timebase>
                                <ntsc>FALSE</ntsc>
                            </rate>
                            <duration>1305</duration>
                            <timecode>
                                <rate>
                                    <timebase>25</timebase>
                                    <ntsc>FALSE</ntsc>
                                </rate>
                                <string>10:47:58:14</string>
                                <frame>971964</frame>
                                <displayformat>NDF</displayformat>
                            </timecode>
                            <media>
                                <video>
                                    <samplecharacteristics>
                                        <rate>
                                            <timebase>25</timebase>
                                            <ntsc>FALSE</ntsc>
                                        </rate>
                                        <width>1920</width>
                                        <height>1080</height>
                                        <anamorphic>FALSE</anamorphic>
                                        <pixelaspectratio>square</pixelaspectratio>
                                        <fielddominance>none</fielddominance>
                                    </samplecharacteristics>
                                </video>
                                <audio>
                                    <samplecharacteristics>
                                        <depth>16</depth>
                                        <samplerate>48000</samplerate>
                                    </samplecharacteristics>
                                    <channelcount>1</channelcount>
                                    <audiochannel>
                                        <sourcechannel>1</sourcechannel>
                                    </audiochannel>
                                </audio>
                            </media>
                        </file>
                        <filter/>
                        <labels>
                            <label2>VFX</label2>
                        </labels>
                    </clipitem>
                    <clipitem id="my-clip52">
                        <masterclipid>my-clip52</masterclipid>
                        <name>B002C009_190618_K136.mov</name>
                        <enabled>TRUE</enabled>
                        <duration>1305</duration>
                        <rate>
                            <timebase>25</timebase>
                            <ntsc>FALSE</ntsc>
                        </rate>
                        <start>2028</start>
                        <end>2057</end>
                        <in>569</in>
                        <out>598</out>
                        <file id="file-25">
                            <name>B002C009_190618_K136.mov</name>
                            <pathurl>file://localhost/Volumes/PIGSTORE/Projects/rema_smartboat_0299_jun_2019/editorial/proxies/B002C009_190618_K136.mov</pathurl>
                            <rate>
                                <timebase>25</timebase>
                                <ntsc>FALSE</ntsc>
                            </rate>
                            <duration>1305</duration>
                            <timecode>
                                <rate>
                                    <timebase>25</timebase>
                                    <ntsc>FALSE</ntsc>
                                </rate>
                                <string>10:47:58:14</string>
                                <frame>971964</frame>
                                <displayformat>NDF</displayformat>
                            </timecode>
                            <media>
                                <video>
                                    <samplecharacteristics>
                                        <rate>
                                            <timebase>25</timebase>
                                            <ntsc>FALSE</ntsc>
                                        </rate>
                                        <width>1920</width>
                                        <height>1080</height>
                                        <anamorphic>FALSE</anamorphic>
                                        <pixelaspectratio>square</pixelaspectratio>
                                        <fielddominance>none</fielddominance>
                                    </samplecharacteristics>
                                </video>
                                <audio>
                                    <samplecharacteristics>
                                        <depth>16</depth>
                                        <samplerate>48000</samplerate>
                                    </samplecharacteristics>
                                    <channelcount>1</channelcount>
                                    <audiochannel>
                                        <sourcechannel>1</sourcechannel>
                                    </audiochannel>
                                </audio>
                            </media>
                        </file>
                        <filter/>
                        <labels>
                            <label2>VFX</label2>
                        </labels>
                    </clipitem>
                    <clipitem id="my-clip53">
                        <masterclipid>my-clip53</masterclipid>
                        <name>B002C002_190618_K136.mov</name>
                        <enabled>TRUE</enabled>
                        <duration>1776</duration>
                        <rate>
                            <timebase>25</timebase>
                            <ntsc>FALSE</ntsc>
                        </rate>
                        <start>2057</start>
                        <end>2070</end>
                        <in>1627</in>
                        <out>1640</out>
                        <file id="file-26">
                            <name>B002C002_190618_K136.mov</name>
                            <pathurl>file://localhost/Volumes/PIGSTORE/Projects/rema_smartboat_0299_jun_2019/editorial/proxies/B002C002_190618_K136.mov</pathurl>
                            <rate>
                                <timebase>25</timebase>
                                <ntsc>FALSE</ntsc>
                            </rate>
                            <duration>1776</duration>
                            <timecode>
                                <rate>
                                    <timebase>25</timebase>
                                    <ntsc>FALSE</ntsc>
                                </rate>
                                <string>09:52:15:01</string>
                                <frame>888376</frame>
                                <displayformat>NDF</displayformat>
                            </timecode>
                            <media>
                                <video>
                                    <samplecharacteristics>
                                        <rate>
                                            <timebase>25</timebase>
                                            <ntsc>FALSE</ntsc>
                                        </rate>
                                        <width>1920</width>
                                        <height>1080</height>
                                        <anamorphic>FALSE</anamorphic>
                                        <pixelaspectratio>square</pixelaspectratio>
                                        <fielddominance>none</fielddominance>
                                    </samplecharacteristics>
                                </video>
                                <audio>
                                    <samplecharacteristics>
                                        <depth>16</depth>
                                        <samplerate>48000</samplerate>
                                    </samplecharacteristics>
                                    <channelcount>1</channelcount>
                                    <audiochannel>
                                        <sourcechannel>1</sourcechannel>
                                    </audiochannel>
                                </audio>
                            </media>
                        </file>
                        <filter/>
                        <labels>
                            <label2>VFX</label2>
                        </labels>
                    </clipitem>
                    <clipitem id="my-clip54">
                        <masterclipid>my-clip54</masterclipid>
                        <name>B002C002_190618_K136.mov</name>
                        <enabled>TRUE</enabled>
                        <duration>1776</duration>
                        <rate>
                            <timebase>25</timebase>
                            <ntsc>FALSE</ntsc>
                        </rate>
                        <start>2070</start>
                        <end>2083</end>
                        <in>1627</in>
                        <out>1640</out>
                        <file id="file-26">
                            <name>B002C002_190618_K136.mov</name>
                            <pathurl>file://localhost/Volumes/PIGSTORE/Projects/rema_smartboat_0299_jun_2019/editorial/proxies/B002C002_190618_K136.mov</pathurl>
                            <rate>
                                <timebase>25</timebase>
                                <ntsc>FALSE</ntsc>
                            </rate>
                            <duration>1776</duration>
                            <timecode>
                                <rate>
                                    <timebase>25</timebase>
                                    <ntsc>FALSE</ntsc>
                                </rate>
                                <string>09:52:15:01</string>
                                <frame>888376</frame>
                                <displayformat>NDF</displayformat>
                            </timecode>
                            <media>
                                <video>
                                    <samplecharacteristics>
                                        <rate>
                                            <timebase>25</timebase>
                                            <ntsc>FALSE</ntsc>
                                        </rate>
                                        <width>1920</width>
                                        <height>1080</height>
                                        <anamorphic>FALSE</anamorphic>
                                        <pixelaspectratio>square</pixelaspectratio>
                                        <fielddominance>none</fielddominance>
                                    </samplecharacteristics>
                                </video>
                                <audio>
                                    <samplecharacteristics>
                                        <depth>16</depth>
                                        <samplerate>48000</samplerate>
                                    </samplecharacteristics>
                                    <channelcount>1</channelcount>
                                    <audiochannel>
                                        <sourcechannel>1</sourcechannel>
                                    </audiochannel>
                                </audio>
                            </media>
                        </file>
                        <filter/>
                        <labels>
                            <label2>VFX</label2>
                        </labels>
                    </clipitem>
                    <clipitem id="my-clip55">
                        <masterclipid>my-clip55</masterclipid>
                        <name>B002C004_190618_K136.mov</name>
                        <enabled>TRUE</enabled>
                        <duration>958</duration>
                        <rate>
                            <timebase>25</timebase>
                            <ntsc>FALSE</ntsc>
                        </rate>
                        <start>2083</start>
                        <end>2110</end>
                        <in>626</in>
                        <out>653</out>
                        <file id="file-27">
                            <name>B002C004_190618_K136.mov</name>
                            <pathurl>file://localhost/Volumes/PIGSTORE/Projects/rema_smartboat_0299_jun_2019/editorial/proxies/B002C004_190618_K136.mov</pathurl>
                            <rate>
                                <timebase>25</timebase>
                                <ntsc>FALSE</ntsc>
                            </rate>
                            <duration>958</duration>
                            <timecode>
                                <rate>
                                    <timebase>25</timebase>
                                    <ntsc>FALSE</ntsc>
                                </rate>
                                <string>10:17:38:05</string>
                                <frame>926455</frame>
                                <displayformat>NDF</displayformat>
                            </timecode>
                            <media>
                                <video>
                                    <samplecharacteristics>
                                        <rate>
                                            <timebase>25</timebase>
                                            <ntsc>FALSE</ntsc>
                                        </rate>
                                        <width>1920</width>
                                        <height>1080</height>
                                        <anamorphic>FALSE</anamorphic>
                                        <pixelaspectratio>square</pixelaspectratio>
                                        <fielddominance>none</fielddominance>
                                    </samplecharacteristics>
                                </video>
                                <audio>
                                    <samplecharacteristics>
                                        <depth>16</depth>
                                        <samplerate>48000</samplerate>
                                    </samplecharacteristics>
                                    <channelcount>1</channelcount>
                                    <audiochannel>
                                        <sourcechannel>1</sourcechannel>
                                    </audiochannel>
                                </audio>
                            </media>
                        </file>
                        <filter/>
                        <labels>
                            <label2>VFX</label2>
                        </labels>
                    </clipitem>
                    <clipitem id="my-clip56">
                        <masterclipid>my-clip56</masterclipid>
                        <name>B002C004_190618_K136.mov</name>
                        <enabled>TRUE</enabled>
                        <duration>958</duration>
                        <rate>
                            <timebase>25</timebase>
                            <ntsc>FALSE</ntsc>
                        </rate>
                        <start>2110</start>
                        <end>2137</end>
                        <in>626</in>
                        <out>653</out>
                        <file id="file-27">
                            <name>B002C004_190618_K136.mov</name>
                            <pathurl>file://localhost/Volumes/PIGSTORE/Projects/rema_smartboat_0299_jun_2019/editorial/proxies/B002C004_190618_K136.mov</pathurl>
                            <rate>
                                <timebase>25</timebase>
                                <ntsc>FALSE</ntsc>
                            </rate>
                            <duration>958</duration>
                            <timecode>
                                <rate>
                                    <timebase>25</timebase>
                                    <ntsc>FALSE</ntsc>
                                </rate>
                                <string>10:17:38:05</string>
                                <frame>926455</frame>
                                <displayformat>NDF</displayformat>
                            </timecode>
                            <media>
                                <video>
                                    <samplecharacteristics>
                                        <rate>
                                            <timebase>25</timebase>
                                            <ntsc>FALSE</ntsc>
                                        </rate>
                                        <width>1920</width>
                                        <height>1080</height>
                                        <anamorphic>FALSE</anamorphic>
                                        <pixelaspectratio>square</pixelaspectratio>
                                        <fielddominance>none</fielddominance>
                                    </samplecharacteristics>
                                </video>
                                <audio>
                                    <samplecharacteristics>
                                        <depth>16</depth>
                                        <samplerate>48000</samplerate>
                                    </samplecharacteristics>
                                    <channelcount>1</channelcount>
                                    <audiochannel>
                                        <sourcechannel>1</sourcechannel>
                                    </audiochannel>
                                </audio>
                            </media>
                        </file>
                        <filter/>
                        <labels>
                            <label2>VFX</label2>
                        </labels>
                    </clipitem>
                    <clipitem id="my-clip57">
                        <masterclipid>my-clip57</masterclipid>
                        <name>B001C035_190617_K136.mov</name>
                        <enabled>TRUE</enabled>
                        <duration>1487</duration>
                        <rate>
                            <timebase>25</timebase>
                            <ntsc>FALSE</ntsc>
                        </rate>
                        <start>2137</start>
                        <end>2223</end>
                        <in>852</in>
                        <out>938</out>
                        <file id="file-28">
                            <name>B001C035_190617_K136.mov</name>
                            <pathurl>file://localhost/Volumes/PIGSTORE/Projects/rema_smartboat_0299_jun_2019/editorial/proxies/B001C035_190617_K136.mov</pathurl>
                            <rate>
                                <timebase>25</timebase>
                                <ntsc>FALSE</ntsc>
                            </rate>
                            <duration>1487</duration>
                            <timecode>
                                <rate>
                                    <timebase>25</timebase>
                                    <ntsc>FALSE</ntsc>
                                </rate>
                                <string>20:07:48:11</string>
                                <frame>1811711</frame>
                                <displayformat>NDF</displayformat>
                            </timecode>
                            <media>
                                <video>
                                    <samplecharacteristics>
                                        <rate>
                                            <timebase>25</timebase>
                                            <ntsc>FALSE</ntsc>
                                        </rate>
                                        <width>1920</width>
                                        <height>1080</height>
                                        <anamorphic>FALSE</anamorphic>
                                        <pixelaspectratio>square</pixelaspectratio>
                                        <fielddominance>none</fielddominance>
                                    </samplecharacteristics>
                                </video>
                                <audio>
                                    <samplecharacteristics>
                                        <depth>16</depth>
                                        <samplerate>48000</samplerate>
                                    </samplecharacteristics>
                                    <channelcount>1</channelcount>
                                    <audiochannel>
                                        <sourcechannel>1</sourcechannel>
                                    </audiochannel>
                                </audio>
                            </media>
                        </file>
                        <filter/>
                        <labels>
                            <label2>VFX</label2>
                        </labels>
                    </clipitem>
                    <clipitem id="my-clip58">
                        <masterclipid>my-clip58</masterclipid>
                        <name>B001C035_190617_K136.mov</name>
                        <enabled>TRUE</enabled>
                        <duration>1487</duration>
                        <rate>
                            <timebase>25</timebase>
                            <ntsc>FALSE</ntsc>
                        </rate>
                        <start>2223</start>
                        <end>2309</end>
                        <in>852</in>
                        <out>938</out>
                        <file id="file-28">
                            <name>B001C035_190617_K136.mov</name>
                            <pathurl>file://localhost/Volumes/PIGSTORE/Projects/rema_smartboat_0299_jun_2019/editorial/proxies/B001C035_190617_K136.mov</pathurl>
                            <rate>
                                <timebase>25</timebase>
                                <ntsc>FALSE</ntsc>
                            </rate>
                            <duration>1487</duration>
                            <timecode>
                                <rate>
                                    <timebase>25</timebase>
                                    <ntsc>FALSE</ntsc>
                                </rate>
                                <string>20:07:48:11</string>
                                <frame>1811711</frame>
                                <displayformat>NDF</displayformat>
                            </timecode>
                            <media>
                                <video>
                                    <samplecharacteristics>
                                        <rate>
                                            <timebase>25</timebase>
                                            <ntsc>FALSE</ntsc>
                                        </rate>
                                        <width>1920</width>
                                        <height>1080</height>
                                        <anamorphic>FALSE</anamorphic>
                                        <pixelaspectratio>square</pixelaspectratio>
                                        <fielddominance>none</fielddominance>
                                    </samplecharacteristics>
                                </video>
                                <audio>
                                    <samplecharacteristics>
                                        <depth>16</depth>
                                        <samplerate>48000</samplerate>
                                    </samplecharacteristics>
                                    <channelcount>1</channelcount>
                                    <audiochannel>
                                        <sourcechannel>1</sourcechannel>
                                    </audiochannel>
                                </audio>
                            </media>
                        </file>
                        <filter/>
                        <labels>
                            <label2>VFX</label2>
                        </labels>
                    </clipitem>
                    <clipitem id="my-clip59">
                        <masterclipid>my-clip59</masterclipid>
                        <name>B001C014_190617_K136.mov</name>
                        <enabled>TRUE</enabled>
                        <duration>2339</duration>
                        <rate>
                            <timebase>25</timebase>
                            <ntsc>FALSE</ntsc>
                        </rate>
                        <start>2309</start>
                        <end>2368</end>
                        <in>1811</in>
                        <out>1870</out>
                        <file id="file-29">
                            <name>B001C014_190617_K136.mov</name>
                            <pathurl>file://localhost/Volumes/PIGSTORE/Projects/rema_smartboat_0299_jun_2019/editorial/proxies/B001C014_190617_K136.mov</pathurl>
                            <rate>
                                <timebase>25</timebase>
                                <ntsc>FALSE</ntsc>
                            </rate>
                            <duration>2339</duration>
                            <timecode>
                                <rate>
                                    <timebase>25</timebase>
                                    <ntsc>FALSE</ntsc>
                                </rate>
                                <string>18:01:38:15</string>
                                <frame>1622465</frame>
                                <displayformat>NDF</displayformat>
                            </timecode>
                            <media>
                                <video>
                                    <samplecharacteristics>
                                        <rate>
                                            <timebase>25</timebase>
                                            <ntsc>FALSE</ntsc>
                                        </rate>
                                        <width>1920</width>
                                        <height>1080</height>
                                        <anamorphic>FALSE</anamorphic>
                                        <pixelaspectratio>square</pixelaspectratio>
                                        <fielddominance>none</fielddominance>
                                    </samplecharacteristics>
                                </video>
                                <audio>
                                    <samplecharacteristics>
                                        <depth>16</depth>
                                        <samplerate>48000</samplerate>
                                    </samplecharacteristics>
                                    <channelcount>1</channelcount>
                                    <audiochannel>
                                        <sourcechannel>1</sourcechannel>
                                    </audiochannel>
                                </audio>
                            </media>
                        </file>
                        <filter/>
                        <labels>
                            <label2>VFX</label2>
                        </labels>
                    </clipitem>
                    <clipitem id="my-clip60">
                        <masterclipid>my-clip60</masterclipid>
                        <name>B001C014_190617_K136.mov</name>
                        <enabled>TRUE</enabled>
                        <duration>2339</duration>
                        <rate>
                            <timebase>25</timebase>
                            <ntsc>FALSE</ntsc>
                        </rate>
                        <start>2368</start>
                        <end>2427</end>
                        <in>1811</in>
                        <out>1870</out>
                        <file id="file-29">
                            <name>B001C014_190617_K136.mov</name>
                            <pathurl>file://localhost/Volumes/PIGSTORE/Projects/rema_smartboat_0299_jun_2019/editorial/proxies/B001C014_190617_K136.mov</pathurl>
                            <rate>
                                <timebase>25</timebase>
                                <ntsc>FALSE</ntsc>
                            </rate>
                            <duration>2339</duration>
                            <timecode>
                                <rate>
                                    <timebase>25</timebase>
                                    <ntsc>FALSE</ntsc>
                                </rate>
                                <string>18:01:38:15</string>
                                <frame>1622465</frame>
                                <displayformat>NDF</displayformat>
                            </timecode>
                            <media>
                                <video>
                                    <samplecharacteristics>
                                        <rate>
                                            <timebase>25</timebase>
                                            <ntsc>FALSE</ntsc>
                                        </rate>
                                        <width>1920</width>
                                        <height>1080</height>
                                        <anamorphic>FALSE</anamorphic>
                                        <pixelaspectratio>square</pixelaspectratio>
                                        <fielddominance>none</fielddominance>
                                    </samplecharacteristics>
                                </video>
                                <audio>
                                    <samplecharacteristics>
                                        <depth>16</depth>
                                        <samplerate>48000</samplerate>
                                    </samplecharacteristics>
                                    <channelcount>1</channelcount>
                                    <audiochannel>
                                        <sourcechannel>1</sourcechannel>
                                    </audiochannel>
                                </audio>
                            </media>
                        </file>
                        <filter/>
                        <labels>
                            <label2>VFX</label2>
                        </labels>
                    </clipitem>
                    <clipitem id="my-clip61">
                        <masterclipid>my-clip61</masterclipid>
                        <name>B001C014_190617_K136.mov</name>
                        <enabled>TRUE</enabled>
                        <duration>2339</duration>
                        <rate>
                            <timebase>25</timebase>
                            <ntsc>FALSE</ntsc>
                        </rate>
                        <start>2427</start>
                        <end>2486</end>
                        <in>1811</in>
                        <out>1870</out>
                        <file id="file-29">
                            <name>B001C014_190617_K136.mov</name>
                            <pathurl>file://localhost/Volumes/PIGSTORE/Projects/rema_smartboat_0299_jun_2019/editorial/proxies/B001C014_190617_K136.mov</pathurl>
                            <rate>
                                <timebase>25</timebase>
                                <ntsc>FALSE</ntsc>
                            </rate>
                            <duration>2339</duration>
                            <timecode>
                                <rate>
                                    <timebase>25</timebase>
                                    <ntsc>FALSE</ntsc>
                                </rate>
                                <string>18:01:38:15</string>
                                <frame>1622465</frame>
                                <displayformat>NDF</displayformat>
                            </timecode>
                            <media>
                                <video>
                                    <samplecharacteristics>
                                        <rate>
                                            <timebase>25</timebase>
                                            <ntsc>FALSE</ntsc>
                                        </rate>
                                        <width>1920</width>
                                        <height>1080</height>
                                        <anamorphic>FALSE</anamorphic>
                                        <pixelaspectratio>square</pixelaspectratio>
                                        <fielddominance>none</fielddominance>
                                    </samplecharacteristics>
                                </video>
                                <audio>
                                    <samplecharacteristics>
                                        <depth>16</depth>
                                        <samplerate>48000</samplerate>
                                    </samplecharacteristics>
                                    <channelcount>1</channelcount>
                                    <audiochannel>
                                        <sourcechannel>1</sourcechannel>
                                    </audiochannel>
                                </audio>
                            </media>
                        </file>
                        <filter/>
                        <labels>
                            <label2>VFX</label2>
                        </labels>
                    </clipitem>
                    <clipitem id="my-clip62">
                        <masterclipid>my-clip62</masterclipid>
                        <name>B001C039_190617_K136.mov</name>
                        <enabled>TRUE</enabled>
                        <duration>1600</duration>
                        <rate>
                            <timebase>25</timebase>
                            <ntsc>FALSE</ntsc>
                        </rate>
                        <start>2486</start>
                        <end>2569</end>
                        <in>928</in>
                        <out>1011</out>
                        <file id="file-30">
                            <name>B001C039_190617_K136.mov</name>
                            <pathurl>file://localhost/Volumes/PIGSTORE/Projects/rema_smartboat_0299_jun_2019/editorial/proxies/B001C039_190617_K136.mov</pathurl>
                            <rate>
                                <timebase>25</timebase>
                                <ntsc>FALSE</ntsc>
                            </rate>
                            <duration>1600</duration>
                            <timecode>
                                <rate>
                                    <timebase>25</timebase>
                                    <ntsc>FALSE</ntsc>
                                </rate>
                                <string>20:17:33:24</string>
                                <frame>1826349</frame>
                                <displayformat>NDF</displayformat>
                            </timecode>
                            <media>
                                <video>
                                    <samplecharacteristics>
                                        <rate>
                                            <timebase>25</timebase>
                                            <ntsc>FALSE</ntsc>
                                        </rate>
                                        <width>1920</width>
                                        <height>1080</height>
                                        <anamorphic>FALSE</anamorphic>
                                        <pixelaspectratio>square</pixelaspectratio>
                                        <fielddominance>none</fielddominance>
                                    </samplecharacteristics>
                                </video>
                                <audio>
                                    <samplecharacteristics>
                                        <depth>16</depth>
                                        <samplerate>48000</samplerate>
                                    </samplecharacteristics>
                                    <channelcount>1</channelcount>
                                    <audiochannel>
                                        <sourcechannel>1</sourcechannel>
                                    </audiochannel>
                                </audio>
                            </media>
                        </file>
                        <filter/>
                        <labels>
                            <label2>VFX</label2>
                        </labels>
                    </clipitem>
                    <clipitem id="my-clip63">
                        <masterclipid>my-clip63</masterclipid>
                        <name>B001C039_190617_K136.mov</name>
                        <enabled>TRUE</enabled>
                        <duration>1600</duration>
                        <rate>
                            <timebase>25</timebase>
                            <ntsc>FALSE</ntsc>
                        </rate>
                        <start>2569</start>
                        <end>2652</end>
                        <in>928</in>
                        <out>1011</out>
                        <file id="file-30">
                            <name>B001C039_190617_K136.mov</name>
                            <pathurl>file://localhost/Volumes/PIGSTORE/Projects/rema_smartboat_0299_jun_2019/editorial/proxies/B001C039_190617_K136.mov</pathurl>
                            <rate>
                                <timebase>25</timebase>
                                <ntsc>FALSE</ntsc>
                            </rate>
                            <duration>1600</duration>
                            <timecode>
                                <rate>
                                    <timebase>25</timebase>
                                    <ntsc>FALSE</ntsc>
                                </rate>
                                <string>20:17:33:24</string>
                                <frame>1826349</frame>
                                <displayformat>NDF</displayformat>
                            </timecode>
                            <media>
                                <video>
                                    <samplecharacteristics>
                                        <rate>
                                            <timebase>25</timebase>
                                            <ntsc>FALSE</ntsc>
                                        </rate>
                                        <width>1920</width>
                                        <height>1080</height>
                                        <anamorphic>FALSE</anamorphic>
                                        <pixelaspectratio>square</pixelaspectratio>
                                        <fielddominance>none</fielddominance>
                                    </samplecharacteristics>
                                </video>
                                <audio>
                                    <samplecharacteristics>
                                        <depth>16</depth>
                                        <samplerate>48000</samplerate>
                                    </samplecharacteristics>
                                    <channelcount>1</channelcount>
                                    <audiochannel>
                                        <sourcechannel>1</sourcechannel>
                                    </audiochannel>
                                </audio>
                            </media>
                        </file>
                        <filter/>
                        <labels>
                            <label2>VFX</label2>
                        </labels>
                    </clipitem>
                    <clipitem id="my-clip64">
                        <masterclipid>my-clip64</masterclipid>
                        <name>B001C042_190617_K136.mov</name>
                        <enabled>TRUE</enabled>
                        <duration>1658</duration>
                        <rate>
                            <timebase>25</timebase>
                            <ntsc>FALSE</ntsc>
                        </rate>
                        <start>2652</start>
                        <end>2771</end>
                        <in>703</in>
                        <out>822</out>
                        <file id="file-31">
                            <name>B001C042_190617_K136.mov</name>
                            <pathurl>file://localhost/Volumes/PIGSTORE/Projects/rema_smartboat_0299_jun_2019/editorial/proxies/B001C042_190617_K136.mov</pathurl>
                            <rate>
                                <timebase>25</timebase>
                                <ntsc>FALSE</ntsc>
                            </rate>
                            <duration>1658</duration>
                            <timecode>
                                <rate>
                                    <timebase>25</timebase>
                                    <ntsc>FALSE</ntsc>
                                </rate>
                                <string>20:31:03:20</string>
                                <frame>1846595</frame>
                                <displayformat>NDF</displayformat>
                            </timecode>
                            <media>
                                <video>
                                    <samplecharacteristics>
                                        <rate>
                                            <timebase>25</timebase>
                                            <ntsc>FALSE</ntsc>
                                        </rate>
                                        <width>1920</width>
                                        <height>1080</height>
                                        <anamorphic>FALSE</anamorphic>
                                        <pixelaspectratio>square</pixelaspectratio>
                                        <fielddominance>none</fielddominance>
                                    </samplecharacteristics>
                                </video>
                                <audio>
                                    <samplecharacteristics>
                                        <depth>16</depth>
                                        <samplerate>48000</samplerate>
                                    </samplecharacteristics>
                                    <channelcount>1</channelcount>
                                    <audiochannel>
                                        <sourcechannel>1</sourcechannel>
                                    </audiochannel>
                                </audio>
                            </media>
                        </file>
                        <filter/>
                        <labels>
                            <label2>VFX</label2>
                        </labels>
                    </clipitem>
                    <clipitem id="my-clip65">
                        <masterclipid>my-clip65</masterclipid>
                        <name>B001C042_190617_K136.mov</name>
                        <enabled>TRUE</enabled>
                        <duration>1658</duration>
                        <rate>
                            <timebase>25</timebase>
                            <ntsc>FALSE</ntsc>
                        </rate>
                        <start>2771</start>
                        <end>2890</end>
                        <in>703</in>
                        <out>822</out>
                        <file id="file-31">
                            <name>B001C042_190617_K136.mov</name>
                            <pathurl>file://localhost/Volumes/PIGSTORE/Projects/rema_smartboat_0299_jun_2019/editorial/proxies/B001C042_190617_K136.mov</pathurl>
                            <rate>
                                <timebase>25</timebase>
                                <ntsc>FALSE</ntsc>
                            </rate>
                            <duration>1658</duration>
                            <timecode>
                                <rate>
                                    <timebase>25</timebase>
                                    <ntsc>FALSE</ntsc>
                                </rate>
                                <string>20:31:03:20</string>
                                <frame>1846595</frame>
                                <displayformat>NDF</displayformat>
                            </timecode>
                            <media>
                                <video>
                                    <samplecharacteristics>
                                        <rate>
                                            <timebase>25</timebase>
                                            <ntsc>FALSE</ntsc>
                                        </rate>
                                        <width>1920</width>
                                        <height>1080</height>
                                        <anamorphic>FALSE</anamorphic>
                                        <pixelaspectratio>square</pixelaspectratio>
                                        <fielddominance>none</fielddominance>
                                    </samplecharacteristics>
                                </video>
                                <audio>
                                    <samplecharacteristics>
                                        <depth>16</depth>
                                        <samplerate>48000</samplerate>
                                    </samplecharacteristics>
                                    <channelcount>1</channelcount>
                                    <audiochannel>
                                        <sourcechannel>1</sourcechannel>
                                    </audiochannel>
                                </audio>
                            </media>
                        </file>
                        <filter/>
                        <labels>
                            <label2>VFX</label2>
                        </labels>
                    </clipitem>
                    <clipitem id="my-clip66">
                        <masterclipid>my-clip66</masterclipid>
                        <name>REMA_SMARTBOAT_TEASER.mp4</name>
                        <enabled>TRUE</enabled>
                        <duration>684</duration>
                        <rate>
                            <timebase>25</timebase>
                            <ntsc>FALSE</ntsc>
                        </rate>
                        <start>2890</start>
                        <end>2914</end>
                        <in>137</in>
                        <out>161</out>
                        <file id="file-32">
                            <name>REMA_SMARTBOAT_TEASER.mp4</name>
                            <pathurl>file://localhost/Volumes/PIGSTORE/Projects/rema_smartboat_0299_jun_2019/editorial/project/premiere/BEN/ASSETS/VFX/REMA_SMARTBOAT_TEASER.mp4</pathurl>
                            <rate>
                                <timebase>25</timebase>
                                <ntsc>FALSE</ntsc>
                            </rate>
                            <duration>684</duration>
                            <timecode>
                                <rate>
                                    <timebase>25</timebase>
                                    <ntsc>FALSE</ntsc>
                                </rate>
                                <string>00:00:00:20</string>
                                <frame>20</frame>
                                <displayformat>NDF</displayformat>
                            </timecode>
                            <media>
                                <video>
                                    <samplecharacteristics>
                                        <rate>
                                            <timebase>25</timebase>
                                            <ntsc>FALSE</ntsc>
                                        </rate>
                                        <width>1920</width>
                                        <height>1080</height>
                                        <anamorphic>FALSE</anamorphic>
                                        <pixelaspectratio>square</pixelaspectratio>
                                        <fielddominance>none</fielddominance>
                                    </samplecharacteristics>
                                </video>
                                <audio>
                                    <samplecharacteristics>
                                        <depth>16</depth>
                                        <samplerate>48000</samplerate>
                                    </samplecharacteristics>
                                    <channelcount>2</channelcount>
                                </audio>
                            </media>
                        </file>
                        <filter/>
                        <labels>
                            <label2>VFX</label2>
                        </labels>
                    </clipitem>
                    <clipitem id="my-clip67">
                        <masterclipid>my-clip67</masterclipid>
                        <name>REMA_SMARTBOAT_TEASER.mp4</name>
                        <enabled>TRUE</enabled>
                        <duration>684</duration>
                        <rate>
                            <timebase>25</timebase>
                            <ntsc>FALSE</ntsc>
                        </rate>
                        <start>2914</start>
                        <end>2938</end>
                        <in>137</in>
                        <out>161</out>
                        <file id="file-32">
                            <name>REMA_SMARTBOAT_TEASER.mp4</name>
                            <pathurl>file://localhost/Volumes/PIGSTORE/Projects/rema_smartboat_0299_jun_2019/editorial/project/premiere/BEN/ASSETS/VFX/REMA_SMARTBOAT_TEASER.mp4</pathurl>
                            <rate>
                                <timebase>25</timebase>
                                <ntsc>FALSE</ntsc>
                            </rate>
                            <duration>684</duration>
                            <timecode>
                                <rate>
                                    <timebase>25</timebase>
                                    <ntsc>FALSE</ntsc>
                                </rate>
                                <string>00:00:00:20</string>
                                <frame>20</frame>
                                <displayformat>NDF</displayformat>
                            </timecode>
                            <media>
                                <video>
                                    <samplecharacteristics>
                                        <rate>
                                            <timebase>25</timebase>
                                            <ntsc>FALSE</ntsc>
                                        </rate>
                                        <width>1920</width>
                                        <height>1080</height>
                                        <anamorphic>FALSE</anamorphic>
                                        <pixelaspectratio>square</pixelaspectratio>
                                        <fielddominance>none</fielddominance>
                                    </samplecharacteristics>
                                </video>
                                <audio>
                                    <samplecharacteristics>
                                        <depth>16</depth>
                                        <samplerate>48000</samplerate>
                                    </samplecharacteristics>
                                    <channelcount>2</channelcount>
                                </audio>
                            </media>
                        </file>
                        <filter/>
                        <labels>
                            <label2>VFX</label2>
                        </labels>
                    </clipitem>
                    <clipitem id="my-clip68">
                        <masterclipid>my-clip68</masterclipid>
                        <name>A001C001_190628_K136.mov</name>
                        <enabled>TRUE</enabled>
                        <duration>7910</duration>
                        <rate>
                            <timebase>25</timebase>
                            <ntsc>FALSE</ntsc>
                        </rate>
                        <start>2938</start>
                        <end>2987</end>
                        <in>2547</in>
                        <out>2596</out>
                        <file id="file-33">
                            <name>A001C001_190628_K136.mov</name>
                            <pathurl>file://localhost/Volumes/PIGSTORE/Projects/rema_smartboat_0299_jun_2019/editorial/proxies/A001C001_190628_K136.mov</pathurl>
                            <rate>
                                <timebase>25</timebase>
                                <ntsc>FALSE</ntsc>
                            </rate>
                            <duration>7910</duration>
                            <timecode>
                                <rate>
                                    <timebase>25</timebase>
                                    <ntsc>FALSE</ntsc>
                                </rate>
                                <string>03:13:51:01</string>
                                <frame>290776</frame>
                                <displayformat>NDF</displayformat>
                            </timecode>
                            <media>
                                <video>
                                    <samplecharacteristics>
                                        <rate>
                                            <timebase>25</timebase>
                                            <ntsc>FALSE</ntsc>
                                        </rate>
                                        <width>1920</width>
                                        <height>1080</height>
                                        <anamorphic>FALSE</anamorphic>
                                        <pixelaspectratio>square</pixelaspectratio>
                                        <fielddominance>none</fielddominance>
                                    </samplecharacteristics>
                                </video>
                            </media>
                        </file>
                        <filter/>
                        <labels>
                            <label2>VFX</label2>
                        </labels>
                    </clipitem>
                    <clipitem id="my-clip69">
                        <masterclipid>my-clip69</masterclipid>
                        <name>A001C001_190628_K136.mov</name>
                        <enabled>TRUE</enabled>
                        <duration>7910</duration>
                        <rate>
                            <timebase>25</timebase>
                            <ntsc>FALSE</ntsc>
                        </rate>
                        <start>2987</start>
                        <end>3036</end>
                        <in>2547</in>
                        <out>2596</out>
                        <file id="file-33">
                            <name>A001C001_190628_K136.mov</name>
                            <pathurl>file://localhost/Volumes/PIGSTORE/Projects/rema_smartboat_0299_jun_2019/editorial/proxies/A001C001_190628_K136.mov</pathurl>
                            <rate>
                                <timebase>25</timebase>
                                <ntsc>FALSE</ntsc>
                            </rate>
                            <duration>7910</duration>
                            <timecode>
                                <rate>
                                    <timebase>25</timebase>
                                    <ntsc>FALSE</ntsc>
                                </rate>
                                <string>03:13:51:01</string>
                                <frame>290776</frame>
                                <displayformat>NDF</displayformat>
                            </timecode>
                            <media>
                                <video>
                                    <samplecharacteristics>
                                        <rate>
                                            <timebase>25</timebase>
                                            <ntsc>FALSE</ntsc>
                                        </rate>
                                        <width>1920</width>
                                        <height>1080</height>
                                        <anamorphic>FALSE</anamorphic>
                                        <pixelaspectratio>square</pixelaspectratio>
                                        <fielddominance>none</fielddominance>
                                    </samplecharacteristics>
                                </video>
                            </media>
                        </file>
                        <filter/>
                        <labels>
                            <label2>VFX</label2>
                        </labels>
                    </clipitem>
                    <clipitem id="my-clip70">
                        <masterclipid>my-clip70</masterclipid>
                        <name>118357680_main_xl.mp4</name>
                        <enabled>TRUE</enabled>
                        <duration>250</duration>
                        <rate>
                            <timebase>25</timebase>
                            <ntsc>FALSE</ntsc>
                        </rate>
                        <start>3036</start>
                        <end>3064</end>
                        <in>88</in>
                        <out>116</out>
                        <file id="file-34">
                            <name>118357680_main_xl.mp4</name>
                            <pathurl>file://localhost/Volumes/PIGSTORE/Projects/rema_smartboat_0299_jun_2019/editorial/project/premiere/BEN/ASSETS/STOCK/temp/118357680_main_xl.mp4</pathurl>
                            <rate>
                                <timebase>25</timebase>
                                <ntsc>FALSE</ntsc>
                            </rate>
                            <duration>250</duration>
                            <timecode>
                                <rate>
                                    <timebase>25</timebase>
                                    <ntsc>FALSE</ntsc>
                                </rate>
                                <string>00:00:00:00</string>
                                <frame>0</frame>
                                <displayformat>NDF</displayformat>
                            </timecode>
                            <media>
                                <video>
                                    <samplecharacteristics>
                                        <rate>
                                            <timebase>25</timebase>
                                            <ntsc>FALSE</ntsc>
                                        </rate>
                                        <width>640</width>
                                        <height>360</height>
                                        <anamorphic>FALSE</anamorphic>
                                        <pixelaspectratio>square</pixelaspectratio>
                                        <fielddominance>none</fielddominance>
                                    </samplecharacteristics>
                                </video>
                            </media>
                        </file>
                        <filter/>
                        <labels>
                            <label2>VFX</label2>
                        </labels>
                    </clipitem>
                    <clipitem id="my-clip71">
                        <masterclipid>my-clip71</masterclipid>
                        <name>118357680_main_xl.mp4</name>
                        <enabled>TRUE</enabled>
                        <duration>250</duration>
                        <rate>
                            <timebase>25</timebase>
                            <ntsc>FALSE</ntsc>
                        </rate>
                        <start>3064</start>
                        <end>3092</end>
                        <in>88</in>
                        <out>116</out>
                        <file id="file-34">
                            <name>118357680_main_xl.mp4</name>
                            <pathurl>file://localhost/Volumes/PIGSTORE/Projects/rema_smartboat_0299_jun_2019/editorial/project/premiere/BEN/ASSETS/STOCK/temp/118357680_main_xl.mp4</pathurl>
                            <rate>
                                <timebase>25</timebase>
                                <ntsc>FALSE</ntsc>
                            </rate>
                            <duration>250</duration>
                            <timecode>
                                <rate>
                                    <timebase>25</timebase>
                                    <ntsc>FALSE</ntsc>
                                </rate>
                                <string>00:00:00:00</string>
                                <frame>0</frame>
                                <displayformat>NDF</displayformat>
                            </timecode>
                            <media>
                                <video>
                                    <samplecharacteristics>
                                        <rate>
                                            <timebase>25</timebase>
                                            <ntsc>FALSE</ntsc>
                                        </rate>
                                        <width>640</width>
                                        <height>360</height>
                                        <anamorphic>FALSE</anamorphic>
                                        <pixelaspectratio>square</pixelaspectratio>
                                        <fielddominance>none</fielddominance>
                                    </samplecharacteristics>
                                </video>
                            </media>
                        </file>
                        <filter/>
                        <labels>
                            <label2>VFX</label2>
                        </labels>
                    </clipitem>
                    <clipitem id="my-clip72">
                        <masterclipid>my-clip72</masterclipid>
                        <name>092451167_main_xl.mp4</name>
                        <enabled>TRUE</enabled>
                        <duration>1038</duration>
                        <rate>
                            <timebase>25</timebase>
                            <ntsc>FALSE</ntsc>
                        </rate>
                        <start>3092</start>
                        <end>3112</end>
                        <in>215</in>
                        <out>235</out>
                        <file id="file-35">
                            <name>092451167_main_xl.mp4</name>
                            <pathurl>file://localhost/Volumes/PIGSTORE/Projects/rema_smartboat_0299_jun_2019/editorial/project/premiere/BEN/ASSETS/STOCK/temp/092451167_main_xl.mp4</pathurl>
                            <rate>
                                <timebase>25</timebase>
                                <ntsc>FALSE</ntsc>
                            </rate>
                            <duration>1038</duration>
                            <timecode>
                                <rate>
                                    <timebase>25</timebase>
                                    <ntsc>FALSE</ntsc>
                                </rate>
                                <string>00:00:00:00</string>
                                <frame>0</frame>
                                <displayformat>NDF</displayformat>
                            </timecode>
                            <media>
                                <video>
                                    <samplecharacteristics>
                                        <rate>
                                            <timebase>25</timebase>
                                            <ntsc>FALSE</ntsc>
                                        </rate>
                                        <width>640</width>
                                        <height>360</height>
                                        <anamorphic>FALSE</anamorphic>
                                        <pixelaspectratio>square</pixelaspectratio>
                                        <fielddominance>none</fielddominance>
                                    </samplecharacteristics>
                                </video>
                            </media>
                        </file>
                        <filter/>
                        <labels>
                            <label2>VFX</label2>
                        </labels>
                    </clipitem>
                    <clipitem id="my-clip73">
                        <masterclipid>my-clip73</masterclipid>
                        <name>092451167_main_xl.mp4</name>
                        <enabled>TRUE</enabled>
                        <duration>1038</duration>
                        <rate>
                            <timebase>25</timebase>
                            <ntsc>FALSE</ntsc>
                        </rate>
                        <start>3112</start>
                        <end>3132</end>
                        <in>215</in>
                        <out>235</out>
                        <file id="file-35">
                            <name>092451167_main_xl.mp4</name>
                            <pathurl>file://localhost/Volumes/PIGSTORE/Projects/rema_smartboat_0299_jun_2019/editorial/project/premiere/BEN/ASSETS/STOCK/temp/092451167_main_xl.mp4</pathurl>
                            <rate>
                                <timebase>25</timebase>
                                <ntsc>FALSE</ntsc>
                            </rate>
                            <duration>1038</duration>
                            <timecode>
                                <rate>
                                    <timebase>25</timebase>
                                    <ntsc>FALSE</ntsc>
                                </rate>
                                <string>00:00:00:00</string>
                                <frame>0</frame>
                                <displayformat>NDF</displayformat>
                            </timecode>
                            <media>
                                <video>
                                    <samplecharacteristics>
                                        <rate>
                                            <timebase>25</timebase>
                                            <ntsc>FALSE</ntsc>
                                        </rate>
                                        <width>640</width>
                                        <height>360</height>
                                        <anamorphic>FALSE</anamorphic>
                                        <pixelaspectratio>square</pixelaspectratio>
                                        <fielddominance>none</fielddominance>
                                    </samplecharacteristics>
                                </video>
                            </media>
                        </file>
                        <filter/>
                        <labels>
                            <label2>VFX</label2>
                        </labels>
                    </clipitem>
                    <clipitem id="my-clip74">
                        <masterclipid>my-clip74</masterclipid>
                        <name>B003C004_190618_K136.mov</name>
                        <enabled>TRUE</enabled>
                        <duration>591</duration>
                        <rate>
                            <timebase>25</timebase>
                            <ntsc>FALSE</ntsc>
                        </rate>
                        <start>3132</start>
                        <end>3139</end>
                        <in>157</in>
                        <out>164</out>
                        <file id="file-36">
                            <name>B003C004_190618_K136.mov</name>
                            <pathurl>file://localhost/Volumes/PIGSTORE/Projects/rema_smartboat_0299_jun_2019/editorial/proxies/B003C004_190618_K136.mov</pathurl>
                            <rate>
                                <timebase>25</timebase>
                                <ntsc>FALSE</ntsc>
                            </rate>
                            <duration>591</duration>
                            <timecode>
                                <rate>
                                    <timebase>25</timebase>
                                    <ntsc>FALSE</ntsc>
                                </rate>
                                <string>14:08:42:04</string>
                                <frame>1273054</frame>
                                <displayformat>NDF</displayformat>
                            </timecode>
                            <media>
                                <video>
                                    <samplecharacteristics>
                                        <rate>
                                            <timebase>25</timebase>
                                            <ntsc>FALSE</ntsc>
                                        </rate>
                                        <width>1920</width>
                                        <height>1080</height>
                                        <anamorphic>FALSE</anamorphic>
                                        <pixelaspectratio>square</pixelaspectratio>
                                        <fielddominance>none</fielddominance>
                                    </samplecharacteristics>
                                </video>
                                <audio>
                                    <samplecharacteristics>
                                        <depth>16</depth>
                                        <samplerate>48000</samplerate>
                                    </samplecharacteristics>
                                    <channelcount>1</channelcount>
                                    <audiochannel>
                                        <sourcechannel>1</sourcechannel>
                                    </audiochannel>
                                </audio>
                            </media>
                        </file>
                        <filter/>
                        <labels>
                            <label2>VFX</label2>
                        </labels>
                    </clipitem>
                    <clipitem id="my-clip75">
                        <masterclipid>my-clip75</masterclipid>
                        <name>B003C004_190618_K136.mov</name>
                        <enabled>TRUE</enabled>
                        <duration>591</duration>
                        <rate>
                            <timebase>25</timebase>
                            <ntsc>FALSE</ntsc>
                        </rate>
                        <start>3139</start>
                        <end>3146</end>
                        <in>157</in>
                        <out>164</out>
                        <file id="file-36">
                            <name>B003C004_190618_K136.mov</name>
                            <pathurl>file://localhost/Volumes/PIGSTORE/Projects/rema_smartboat_0299_jun_2019/editorial/proxies/B003C004_190618_K136.mov</pathurl>
                            <rate>
                                <timebase>25</timebase>
                                <ntsc>FALSE</ntsc>
                            </rate>
                            <duration>591</duration>
                            <timecode>
                                <rate>
                                    <timebase>25</timebase>
                                    <ntsc>FALSE</ntsc>
                                </rate>
                                <string>14:08:42:04</string>
                                <frame>1273054</frame>
                                <displayformat>NDF</displayformat>
                            </timecode>
                            <media>
                                <video>
                                    <samplecharacteristics>
                                        <rate>
                                            <timebase>25</timebase>
                                            <ntsc>FALSE</ntsc>
                                        </rate>
                                        <width>1920</width>
                                        <height>1080</height>
                                        <anamorphic>FALSE</anamorphic>
                                        <pixelaspectratio>square</pixelaspectratio>
                                        <fielddominance>none</fielddominance>
                                    </samplecharacteristics>
                                </video>
                                <audio>
                                    <samplecharacteristics>
                                        <depth>16</depth>
                                        <samplerate>48000</samplerate>
                                    </samplecharacteristics>
                                    <channelcount>1</channelcount>
                                    <audiochannel>
                                        <sourcechannel>1</sourcechannel>
                                    </audiochannel>
                                </audio>
                            </media>
                        </file>
                        <filter/>
                        <labels>
                            <label2>VFX</label2>
                        </labels>
                    </clipitem>
                    <clipitem id="my-clip76">
                        <masterclipid>my-clip76</masterclipid>
                        <name>PRAWNS</name>
                        <enabled>TRUE</enabled>
                        <duration>75</duration>
                        <rate>
                            <timebase>25</timebase>
                            <ntsc>FALSE</ntsc>
                        </rate>
                        <start>3146</start>
                        <end>3184</end>
                        <in>8</in>
                        <out>46</out>
                        <filter/>
                        <labels>
                            <label2>VFX</label2>
                        </labels>
                    </clipitem>
                    <clipitem id="my-clip77">
                        <masterclipid>my-clip77</masterclipid>
                        <name>PRAWNS</name>
                        <enabled>TRUE</enabled>
                        <duration>75</duration>
                        <rate>
                            <timebase>25</timebase>
                            <ntsc>FALSE</ntsc>
                        </rate>
                        <start>3184</start>
                        <end>3222</end>
                        <in>8</in>
                        <out>46</out>
                        <filter/>
                        <labels>
                            <label2>VFX</label2>
                        </labels>
                    </clipitem>
                    <clipitem id="my-clip78">
                        <masterclipid>my-clip78</masterclipid>
                        <name>PRAWNS</name>
                        <enabled>TRUE</enabled>
                        <duration>75</duration>
                        <rate>
                            <timebase>25</timebase>
                            <ntsc>FALSE</ntsc>
                        </rate>
                        <start>3222</start>
                        <end>3260</end>
                        <in>8</in>
                        <out>46</out>
                        <filter/>
                        <labels>
                            <label2>VFX</label2>
                        </labels>
                    </clipitem>
                    <clipitem id="my-clip79">
                        <masterclipid>my-clip79</masterclipid>
                        <name>PRAWNS</name>
                        <enabled>TRUE</enabled>
                        <duration>75</duration>
                        <rate>
                            <timebase>25</timebase>
                            <ntsc>FALSE</ntsc>
                        </rate>
                        <start>3260</start>
                        <end>3298</end>
                        <in>8</in>
                        <out>46</out>
                        <filter/>
                        <labels>
                            <label2>VFX</label2>
                        </labels>
                    </clipitem>
                    <enabled>TRUE</enabled>
                    <locked>FALSE</locked>
                </track>
            </video>
            <audio>
                <numOutputChannels>2</numOutputChannels>
                <format>
                    <samplecharacteristics>
                        <depth>16</depth>
                        <samplerate>48000</samplerate>
                    </samplecharacteristics>
                </format>
                <outputs>
                    <group>
                        <index>1</index>
                        <numchannels>1</numchannels>
                        <downmix>0</downmix>
                        <channel>
                            <index>1</index>
                        </channel>
                    </group>
                    <group>
                        <index>2</index>
                        <numchannels>1</numchannels>
                        <downmix>0</downmix>
                        <channel>
                            <index>2</index>
                        </channel>
                    </group>
                </outputs>
                <track TL.SQTrackAudioKeyframeStyle="0" TL.SQTrackShy="0" TL.SQTrackExpandedHeight="15" TL.SQTrackExpanded="0" MZ.TrackTargeted="1" PannerCurrentValue="0.5" PannerIsInverted="true" PannerStartKeyframe="-91445760000000000,0.5,0,0,0,0,0,0" PannerName="Balance" currentExplodedTrackIndex="0" totalExplodedTrackCount="2" premiereTrackType="Stereo">
                    <enabled>TRUE</enabled>
                    <locked>FALSE</locked>
                    <outputchannelindex>1</outputchannelindex>
                </track>
                <track TL.SQTrackAudioKeyframeStyle="0" TL.SQTrackShy="0" TL.SQTrackExpandedHeight="15" TL.SQTrackExpanded="0" MZ.TrackTargeted="1" PannerCurrentValue="0.5" PannerIsInverted="true" PannerStartKeyframe="-91445760000000000,0.5,0,0,0,0,0,0" PannerName="Balance" currentExplodedTrackIndex="1" totalExplodedTrackCount="2" premiereTrackType="Stereo">
                    <enabled>TRUE</enabled>
                    <locked>FALSE</locked>
                    <outputchannelindex>2</outputchannelindex>
                </track>
            </audio>
        </media>
        <timecode>
            <rate>
                <timebase>25</timebase>
                <ntsc>FALSE</ntsc>
            </rate>
            <string>00:00:00:00</string>
            <frame>0</frame>
            <displayformat>NDF</displayformat>
        </timecode>
        <labels>
            <label2>Forest</label2>
        </labels>
        <logginginfo>
            <description/>
            <scene/>
            <shottake/>
            <lognote/>
            <good/>
            <originalvideofilename/>
            <originalaudiofilename/>
        </logginginfo>
        <filter>
            <effect/>
        </filter>
    </sequence>
</xmeml>