<?xml version="1.0" encoding="UTF-8"?>
<!DOCTYPE xmeml>
<xmeml version="4">
    <sequence id="Peter" TL.SQAudioVisibleBase="0" TL.SQVideoVisibleBase="0" TL.SQVisibleBaseTime="4688689668533" TL.SQAVDividerPosition="0.518388807774" TL.SQHideShyTracks="0" TL.SQHeaderWidth="236" Monitor.ProgramZoomOut="16511040000000" Monitor.ProgramZoomIn="0" TL.SQTimePerPixel="0.015492098377796014" AM.TrackVScrollPosition="0" AM.TrackScrollPosition="0" MZ.EditLine="10516262400000" MZ.Sequence.PreviewFrameSizeHeight="1080" MZ.Sequence.PreviewFrameSizeWidth="1920" MZ.Sequence.AudioTimeDisplayFormat="200" MZ.Sequence.PreviewRenderingClassID="1297106761" MZ.Sequence.PreviewRenderingPresetCodec="1297107278" MZ.Sequence.PreviewRenderingPresetPath="EncoderPresets/SequencePreview/cc7991f5-c236-4db1-957e-2c71f924e81c/I-Frame Only MPEG.epr" MZ.Sequence.PreviewUseMaxRenderQuality="false" MZ.Sequence.PreviewUseMaxBitDepth="false" MZ.Sequence.EditingModeGUID="cc7991f5-c236-4db1-957e-2c71f924e81c" MZ.Sequence.VideoTimeDisplayFormat="101" MZ.WorkOutPoint="12274053120000" MZ.WorkInPoint="4694215680000" explodedTracks="true">
        <uuid>51ef83b5-aaaa-4ab1-8265-b34e8a6e7f11</uuid>
        <duration>5273</duration>
        <rate>
            <timebase>25</timebase>
            <ntsc>FALSE</ntsc>
        </rate>
        <name>Peter</name>
        <media>
            <video>
                <format>
                    <samplecharacteristics>
                        <rate>
                            <timebase>25</timebase>
                            <ntsc>FALSE</ntsc>
                        </rate>
                        <codec>
                            <name>Apple ProRes 422</name>
                            <appspecificdata>
                                <appname>Final Cut Pro</appname>
                                <appmanufacturer>Apple Inc.</appmanufacturer>
                                <appversion>7.0</appversion>
                                <data>
                                    <qtcodec>
                                        <codecname>Apple ProRes 422</codecname>
                                        <codectypename>Apple ProRes 422</codectypename>
                                        <codectypecode>apcn</codectypecode>
                                        <codecvendorcode>appl</codecvendorcode>
                                        <spatialquality>1024</spatialquality>
                                        <temporalquality>0</temporalquality>
                                        <keyframerate>0</keyframerate>
                                        <datarate>0</datarate>
                                    </qtcodec>
                                </data>
                            </appspecificdata>
                        </codec>
                        <width>1920</width>
                        <height>1080</height>
                        <anamorphic>FALSE</anamorphic>
                        <pixelaspectratio>square</pixelaspectratio>
                        <fielddominance>none</fielddominance>
                        <colordepth>24</colordepth>
                    </samplecharacteristics>
                </format>
                <track TL.SQTrackShy="0" TL.SQTrackExpandedHeight="25" TL.SQTrackExpanded="0" MZ.TrackTargeted="1">
                    <clipitem id="shot_0000">
                        <masterclipid>shot_0000</masterclipid>
                        <name>A005C002_190618_K1TL.mov</name>
                        <enabled>TRUE</enabled>
                        <duration>5272</duration>
                        <rate>
                            <timebase>25</timebase>
                            <ntsc>FALSE</ntsc>
                        </rate>
                        <start>0</start>
                        <end>103</end>
                        <in>2414</in>
                        <out>2517</out>
                        <file id="file-1">
                            <name>A005C002_190618_K1TL.mov</name>
                            <pathurl>file://localhost/Volumes/PIGSTORE/Projects/rema_smartboat_0299_jun_2019/editorial/proxies/A005C002_190618_K1TL.mov</pathurl>
                            <rate>
                                <timebase>25</timebase>
                                <ntsc>FALSE</ntsc>
                            </rate>
                            <duration>5272</duration>
                            <timecode>
                                <rate>
                                    <timebase>25</timebase>
                                    <ntsc>FALSE</ntsc>
                                </rate>
                                <string>01:06:08:21</string>
                                <frame>99221</frame>
                                <displayformat>NDF</displayformat>
                            </timecode>
                            <media>
                                <video>
                                    <samplecharacteristics>
                                        <rate>
                                            <timebase>25</timebase>
                                            <ntsc>FALSE</ntsc>
                                        </rate>
                                        <width>1920</width>
                                        <height>1080</height>
                                        <anamorphic>FALSE</anamorphic>
                                        <pixelaspectratio>square</pixelaspectratio>
                                        <fielddominance>none</fielddominance>
                                    </samplecharacteristics>
                                </video>
                                <audio>
                                    <samplecharacteristics>
                                        <depth>16</depth>
                                        <samplerate>48000</samplerate>
                                    </samplecharacteristics>
                                    <channelcount>1</channelcount>
                                    <audiochannel>
                                        <sourcechannel>1</sourcechannel>
                                    </audiochannel>
                                </audio>
                                <audio>
                                    <samplecharacteristics>
                                        <depth>16</depth>
                                        <samplerate>48000</samplerate>
                                    </samplecharacteristics>
                                    <channelcount>1</channelcount>
                                    <audiochannel>
                                        <sourcechannel>2</sourcechannel>
                                    </audiochannel>
                                </audio>
                                <audio>
                                    <samplecharacteristics>
                                        <depth>16</depth>
                                        <samplerate>48000</samplerate>
                                    </samplecharacteristics>
                                    <channelcount>1</channelcount>
                                    <audiochannel>
                                        <sourcechannel>3</sourcechannel>
                                    </audiochannel>
                                </audio>
                                <audio>
                                    <samplecharacteristics>
                                        <depth>16</depth>
                                        <samplerate>48000</samplerate>
                                    </samplecharacteristics>
                                    <channelcount>1</channelcount>
                                    <audiochannel>
                                        <sourcechannel>4</sourcechannel>
                                    </audiochannel>
                                </audio>
                                <audio>
                                    <samplecharacteristics>
                                        <depth>16</depth>
                                        <samplerate>48000</samplerate>
                                    </samplecharacteristics>
                                    <channelcount>1</channelcount>
                                    <audiochannel>
                                        <sourcechannel>5</sourcechannel>
                                    </audiochannel>
                                </audio>
                            </media>
                        </file>
                        <filter/>
                        <labels>
                            <label2>VFX</label2>
                        </labels>
                    </clipitem>
                    <clipitem id="shot_0001">
                        <masterclipid>shot_0001</masterclipid>
                        <name>A005C002_190618_K1TL.mov</name>
                        <enabled>TRUE</enabled>
                        <duration>5272</duration>
                        <rate>
                            <timebase>25</timebase>
                            <ntsc>FALSE</ntsc>
                        </rate>
                        <start>128</start>
                        <end>231</end>
                        <in>2414</in>
                        <out>2517</out>
                        <file id="file-1">
                            <name>A005C002_190618_K1TL.mov</name>
                            <pathurl>file://localhost/Volumes/PIGSTORE/Projects/rema_smartboat_0299_jun_2019/editorial/proxies/A005C002_190618_K1TL.mov</pathurl>
                            <rate>
                                <timebase>25</timebase>
                                <ntsc>FALSE</ntsc>
                            </rate>
                            <duration>5272</duration>
                            <timecode>
                                <rate>
                                    <timebase>25</timebase>
                                    <ntsc>FALSE</ntsc>
                                </rate>
                                <string>01:06:08:21</string>
                                <frame>99221</frame>
                                <displayformat>NDF</displayformat>
                            </timecode>
                            <media>
                                <video>
                                    <samplecharacteristics>
                                        <rate>
                                            <timebase>25</timebase>
                                            <ntsc>FALSE</ntsc>
                                        </rate>
                                        <width>1920</width>
                                        <height>1080</height>
                                        <anamorphic>FALSE</anamorphic>
                                        <pixelaspectratio>square</pixelaspectratio>
                                        <fielddominance>none</fielddominance>
                                    </samplecharacteristics>
                                </video>
                                <audio>
                                    <samplecharacteristics>
                                        <depth>16</depth>
                                        <samplerate>48000</samplerate>
                                    </samplecharacteristics>
                                    <channelcount>1</channelcount>
                                    <audiochannel>
                                        <sourcechannel>1</sourcechannel>
                                    </audiochannel>
                                </audio>
                                <audio>
                                    <samplecharacteristics>
                                        <depth>16</depth>
                                        <samplerate>48000</samplerate>
                                    </samplecharacteristics>
                                    <channelcount>1</channelcount>
                                    <audiochannel>
                                        <sourcechannel>2</sourcechannel>
                                    </audiochannel>
                                </audio>
                                <audio>
                                    <samplecharacteristics>
                                        <depth>16</depth>
                                        <samplerate>48000</samplerate>
                                    </samplecharacteristics>
                                    <channelcount>1</channelcount>
                                    <audiochannel>
                                        <sourcechannel>3</sourcechannel>
                                    </audiochannel>
                                </audio>
                                <audio>
                                    <samplecharacteristics>
                                        <depth>16</depth>
                                        <samplerate>48000</samplerate>
                                    </samplecharacteristics>
                                    <channelcount>1</channelcount>
                                    <audiochannel>
                                        <sourcechannel>4</sourcechannel>
                                    </audiochannel>
                                </audio>
                                <audio>
                                    <samplecharacteristics>
                                        <depth>16</depth>
                                        <samplerate>48000</samplerate>
                                    </samplecharacteristics>
                                    <channelcount>1</channelcount>
                                    <audiochannel>
                                        <sourcechannel>5</sourcechannel>
                                    </audiochannel>
                                </audio>
                            </media>
                        </file>
                        <filter/>
                        <labels>
                            <label2>VFX</label2>
                        </labels>
                    </clipitem>
                    <clipitem id="shot_0002">
                        <masterclipid>shot_0002</masterclipid>
                        <name>B001C029_190617_K136.mov</name>
                        <enabled>TRUE</enabled>
                        <duration>2582</duration>
                        <rate>
                            <timebase>25</timebase>
                            <ntsc>FALSE</ntsc>
                        </rate>
                        <start>256</start>
                        <end>285</end>
                        <in>819</in>
                        <out>848</out>
                        <file id="file-2">
                            <name>B001C029_190617_K136.mov</name>
                            <pathurl>file://localhost/Volumes/PIGSTORE/Projects/rema_smartboat_0299_jun_2019/editorial/proxies/B001C029_190617_K136.mov</pathurl>
                            <rate>
                                <timebase>25</timebase>
                                <ntsc>FALSE</ntsc>
                            </rate>
                            <duration>2582</duration>
                            <timecode>
                                <rate>
                                    <timebase>25</timebase>
                                    <ntsc>FALSE</ntsc>
                                </rate>
                                <string>19:36:01:22</string>
                                <frame>1764047</frame>
                                <displayformat>NDF</displayformat>
                            </timecode>
                            <media>
                                <video>
                                    <samplecharacteristics>
                                        <rate>
                                            <timebase>25</timebase>
                                            <ntsc>FALSE</ntsc>
                                        </rate>
                                        <width>1920</width>
                                        <height>1080</height>
                                        <anamorphic>FALSE</anamorphic>
                                        <pixelaspectratio>square</pixelaspectratio>
                                        <fielddominance>none</fielddominance>
                                    </samplecharacteristics>
                                </video>
                                <audio>
                                    <samplecharacteristics>
                                        <depth>16</depth>
                                        <samplerate>48000</samplerate>
                                    </samplecharacteristics>
                                    <channelcount>1</channelcount>
                                    <audiochannel>
                                        <sourcechannel>1</sourcechannel>
                                    </audiochannel>
                                </audio>
                            </media>
                        </file>
                        <filter/>
                        <labels>
                            <label2>VFX</label2>
                        </labels>
                    </clipitem>
                    <clipitem id="shot_0003">
                        <masterclipid>shot_0003</masterclipid>
                        <name>B001C029_190617_K136.mov</name>
                        <enabled>TRUE</enabled>
                        <duration>2582</duration>
                        <rate>
                            <timebase>25</timebase>
                            <ntsc>FALSE</ntsc>
                        </rate>
                        <start>310</start>
                        <end>339</end>
                        <in>819</in>
                        <out>848</out>
                        <file id="file-2">
                            <name>B001C029_190617_K136.mov</name>
                            <pathurl>file://localhost/Volumes/PIGSTORE/Projects/rema_smartboat_0299_jun_2019/editorial/proxies/B001C029_190617_K136.mov</pathurl>
                            <rate>
                                <timebase>25</timebase>
                                <ntsc>FALSE</ntsc>
                            </rate>
                            <duration>2582</duration>
                            <timecode>
                                <rate>
                                    <timebase>25</timebase>
                                    <ntsc>FALSE</ntsc>
                                </rate>
                                <string>19:36:01:22</string>
                                <frame>1764047</frame>
                                <displayformat>NDF</displayformat>
                            </timecode>
                            <media>
                                <video>
                                    <samplecharacteristics>
                                        <rate>
                                            <timebase>25</timebase>
                                            <ntsc>FALSE</ntsc>
                                        </rate>
                                        <width>1920</width>
                                        <height>1080</height>
                                        <anamorphic>FALSE</anamorphic>
                                        <pixelaspectratio>square</pixelaspectratio>
                                        <fielddominance>none</fielddominance>
                                    </samplecharacteristics>
                                </video>
                                <audio>
                                    <samplecharacteristics>
                                        <depth>16</depth>
                                        <samplerate>48000</samplerate>
                                    </samplecharacteristics>
                                    <channelcount>1</channelcount>
                                    <audiochannel>
                                        <sourcechannel>1</sourcechannel>
                                    </audiochannel>
                                </audio>
                            </media>
                        </file>
                        <filter/>
                        <labels>
                            <label2>VFX</label2>
                        </labels>
                    </clipitem>
                    <clipitem id="shot_0004">
                        <masterclipid>shot_0004</masterclipid>
                        <name>B001C022_190617_K136.mov</name>
                        <enabled>TRUE</enabled>
                        <duration>1334</duration>
                        <rate>
                            <timebase>25</timebase>
                            <ntsc>FALSE</ntsc>
                        </rate>
                        <start>364</start>
                        <end>388</end>
                        <in>898</in>
                        <out>922</out>
                        <file id="file-3">
                            <name>B001C022_190617_K136.mov</name>
                            <pathurl>file://localhost/Volumes/PIGSTORE/Projects/rema_smartboat_0299_jun_2019/editorial/proxies/B001C022_190617_K136.mov</pathurl>
                            <rate>
                                <timebase>25</timebase>
                                <ntsc>FALSE</ntsc>
                            </rate>
                            <duration>1334</duration>
                            <timecode>
                                <rate>
                                    <timebase>25</timebase>
                                    <ntsc>FALSE</ntsc>
                                </rate>
                                <string>18:54:55:03</string>
                                <frame>1702378</frame>
                                <displayformat>NDF</displayformat>
                            </timecode>
                            <media>
                                <video>
                                    <samplecharacteristics>
                                        <rate>
                                            <timebase>25</timebase>
                                            <ntsc>FALSE</ntsc>
                                        </rate>
                                        <width>1920</width>
                                        <height>1080</height>
                                        <anamorphic>FALSE</anamorphic>
                                        <pixelaspectratio>square</pixelaspectratio>
                                        <fielddominance>none</fielddominance>
                                    </samplecharacteristics>
                                </video>
                                <audio>
                                    <samplecharacteristics>
                                        <depth>16</depth>
                                        <samplerate>48000</samplerate>
                                    </samplecharacteristics>
                                    <channelcount>1</channelcount>
                                    <audiochannel>
                                        <sourcechannel>1</sourcechannel>
                                    </audiochannel>
                                </audio>
                            </media>
                        </file>
                        <filter/>
                        <labels>
                            <label2>VFX</label2>
                        </labels>
                    </clipitem>
                    <clipitem id="shot_0005">
                        <masterclipid>shot_0005</masterclipid>
                        <name>B001C022_190617_K136.mov</name>
                        <enabled>TRUE</enabled>
                        <duration>1334</duration>
                        <rate>
                            <timebase>25</timebase>
                            <ntsc>FALSE</ntsc>
                        </rate>
                        <start>413</start>
                        <end>437</end>
                        <in>898</in>
                        <out>922</out>
                        <file id="file-3">
                            <name>B001C022_190617_K136.mov</name>
                            <pathurl>file://localhost/Volumes/PIGSTORE/Projects/rema_smartboat_0299_jun_2019/editorial/proxies/B001C022_190617_K136.mov</pathurl>
                            <rate>
                                <timebase>25</timebase>
                                <ntsc>FALSE</ntsc>
                            </rate>
                            <duration>1334</duration>
                            <timecode>
                                <rate>
                                    <timebase>25</timebase>
                                    <ntsc>FALSE</ntsc>
                                </rate>
                                <string>18:54:55:03</string>
                                <frame>1702378</frame>
                                <displayformat>NDF</displayformat>
                            </timecode>
                            <media>
                                <video>
                                    <samplecharacteristics>
                                        <rate>
                                            <timebase>25</timebase>
                                            <ntsc>FALSE</ntsc>
                                        </rate>
                                        <width>1920</width>
                                        <height>1080</height>
                                        <anamorphic>FALSE</anamorphic>
                                        <pixelaspectratio>square</pixelaspectratio>
                                        <fielddominance>none</fielddominance>
                                    </samplecharacteristics>
                                </video>
                                <audio>
                                    <samplecharacteristics>
                                        <depth>16</depth>
                                        <samplerate>48000</samplerate>
                                    </samplecharacteristics>
                                    <channelcount>1</channelcount>
                                    <audiochannel>
                                        <sourcechannel>1</sourcechannel>
                                    </audiochannel>
                                </audio>
                            </media>
                        </file>
                        <filter/>
                        <labels>
                            <label2>VFX</label2>
                        </labels>
                    </clipitem>
                    <clipitem id="shot_0006">
                        <masterclipid>shot_0006</masterclipid>
                        <name>A007C010_190619_K1TL.mov</name>
                        <enabled>TRUE</enabled>
                        <duration>725</duration>
                        <rate>
                            <timebase>25</timebase>
                            <ntsc>FALSE</ntsc>
                        </rate>
                        <start>462</start>
                        <end>486</end>
                        <in>510</in>
                        <out>534</out>
                        <file id="file-4">
                            <name>A007C010_190619_K1TL.mov</name>
                            <pathurl>file://localhost/Volumes/PIGSTORE/Projects/rema_smartboat_0299_jun_2019/editorial/proxies/A007C010_190619_K1TL.mov</pathurl>
                            <rate>
                                <timebase>25</timebase>
                                <ntsc>FALSE</ntsc>
                            </rate>
                            <duration>725</duration>
                            <timecode>
                                <rate>
                                    <timebase>25</timebase>
                                    <ntsc>FALSE</ntsc>
                                </rate>
                                <string>13:18:18:10</string>
                                <frame>1197460</frame>
                                <displayformat>NDF</displayformat>
                            </timecode>
                            <media>
                                <video>
                                    <samplecharacteristics>
                                        <rate>
                                            <timebase>25</timebase>
                                            <ntsc>FALSE</ntsc>
                                        </rate>
                                        <width>1920</width>
                                        <height>1080</height>
                                        <anamorphic>FALSE</anamorphic>
                                        <pixelaspectratio>square</pixelaspectratio>
                                        <fielddominance>none</fielddominance>
                                    </samplecharacteristics>
                                </video>
                                <audio>
                                    <samplecharacteristics>
                                        <depth>16</depth>
                                        <samplerate>48000</samplerate>
                                    </samplecharacteristics>
                                    <channelcount>1</channelcount>
                                    <audiochannel>
                                        <sourcechannel>1</sourcechannel>
                                    </audiochannel>
                                </audio>
                                <audio>
                                    <samplecharacteristics>
                                        <depth>16</depth>
                                        <samplerate>48000</samplerate>
                                    </samplecharacteristics>
                                    <channelcount>1</channelcount>
                                    <audiochannel>
                                        <sourcechannel>2</sourcechannel>
                                    </audiochannel>
                                </audio>
                                <audio>
                                    <samplecharacteristics>
                                        <depth>16</depth>
                                        <samplerate>48000</samplerate>
                                    </samplecharacteristics>
                                    <channelcount>1</channelcount>
                                    <audiochannel>
                                        <sourcechannel>3</sourcechannel>
                                    </audiochannel>
                                </audio>
                                <audio>
                                    <samplecharacteristics>
                                        <depth>16</depth>
                                        <samplerate>48000</samplerate>
                                    </samplecharacteristics>
                                    <channelcount>1</channelcount>
                                    <audiochannel>
                                        <sourcechannel>4</sourcechannel>
                                    </audiochannel>
                                </audio>
                                <audio>
                                    <samplecharacteristics>
                                        <depth>16</depth>
                                        <samplerate>48000</samplerate>
                                    </samplecharacteristics>
                                    <channelcount>1</channelcount>
                                    <audiochannel>
                                        <sourcechannel>5</sourcechannel>
                                    </audiochannel>
                                </audio>
                            </media>
                        </file>
                        <filter/>
                        <labels>
                            <label2>VFX</label2>
                        </labels>
                    </clipitem>
                    <clipitem id="shot_0007">
                        <masterclipid>shot_0007</masterclipid>
                        <name>A007C010_190619_K1TL.mov</name>
                        <enabled>TRUE</enabled>
                        <duration>725</duration>
                        <rate>
                            <timebase>25</timebase>
                            <ntsc>FALSE</ntsc>
                        </rate>
                        <start>511</start>
                        <end>535</end>
                        <in>510</in>
                        <out>534</out>
                        <file id="file-4">
                            <name>A007C010_190619_K1TL.mov</name>
                            <pathurl>file://localhost/Volumes/PIGSTORE/Projects/rema_smartboat_0299_jun_2019/editorial/proxies/A007C010_190619_K1TL.mov</pathurl>
                            <rate>
                                <timebase>25</timebase>
                                <ntsc>FALSE</ntsc>
                            </rate>
                            <duration>725</duration>
                            <timecode>
                                <rate>
                                    <timebase>25</timebase>
                                    <ntsc>FALSE</ntsc>
                                </rate>
                                <string>13:18:18:10</string>
                                <frame>1197460</frame>
                                <displayformat>NDF</displayformat>
                            </timecode>
                            <media>
                                <video>
                                    <samplecharacteristics>
                                        <rate>
                                            <timebase>25</timebase>
                                            <ntsc>FALSE</ntsc>
                                        </rate>
                                        <width>1920</width>
                                        <height>1080</height>
                                        <anamorphic>FALSE</anamorphic>
                                        <pixelaspectratio>square</pixelaspectratio>
                                        <fielddominance>none</fielddominance>
                                    </samplecharacteristics>
                                </video>
                                <audio>
                                    <samplecharacteristics>
                                        <depth>16</depth>
                                        <samplerate>48000</samplerate>
                                    </samplecharacteristics>
                                    <channelcount>1</channelcount>
                                    <audiochannel>
                                        <sourcechannel>1</sourcechannel>
                                    </audiochannel>
                                </audio>
                                <audio>
                                    <samplecharacteristics>
                                        <depth>16</depth>
                                        <samplerate>48000</samplerate>
                                    </samplecharacteristics>
                                    <channelcount>1</channelcount>
                                    <audiochannel>
                                        <sourcechannel>2</sourcechannel>
                                    </audiochannel>
                                </audio>
                                <audio>
                                    <samplecharacteristics>
                                        <depth>16</depth>
                                        <samplerate>48000</samplerate>
                                    </samplecharacteristics>
                                    <channelcount>1</channelcount>
                                    <audiochannel>
                                        <sourcechannel>3</sourcechannel>
                                    </audiochannel>
                                </audio>
                                <audio>
                                    <samplecharacteristics>
                                        <depth>16</depth>
                                        <samplerate>48000</samplerate>
                                    </samplecharacteristics>
                                    <channelcount>1</channelcount>
                                    <audiochannel>
                                        <sourcechannel>4</sourcechannel>
                                    </audiochannel>
                                </audio>
                                <audio>
                                    <samplecharacteristics>
                                        <depth>16</depth>
                                        <samplerate>48000</samplerate>
                                    </samplecharacteristics>
                                    <channelcount>1</channelcount>
                                    <audiochannel>
                                        <sourcechannel>5</sourcechannel>
                                    </audiochannel>
                                </audio>
                            </media>
                        </file>
                        <filter/>
                        <labels>
                            <label2>VFX</label2>
                        </labels>
                    </clipitem>
                    <clipitem id="shot_0008">
                        <masterclipid>shot_0008</masterclipid>
                        <name>B001C021_190617_K136.mov</name>
                        <enabled>TRUE</enabled>
                        <duration>1277</duration>
                        <rate>
                            <timebase>25</timebase>
                            <ntsc>FALSE</ntsc>
                        </rate>
                        <start>560</start>
                        <end>591</end>
                        <in>762</in>
                        <out>793</out>
                        <file id="file-5">
                            <name>B001C021_190617_K136.mov</name>
                            <pathurl>file://localhost/Volumes/PIGSTORE/Projects/rema_smartboat_0299_jun_2019/editorial/proxies/B001C021_190617_K136.mov</pathurl>
                            <rate>
                                <timebase>25</timebase>
                                <ntsc>FALSE</ntsc>
                            </rate>
                            <duration>1277</duration>
                            <timecode>
                                <rate>
                                    <timebase>25</timebase>
                                    <ntsc>FALSE</ntsc>
                                </rate>
                                <string>18:39:41:23</string>
                                <frame>1679548</frame>
                                <displayformat>NDF</displayformat>
                            </timecode>
                            <media>
                                <video>
                                    <samplecharacteristics>
                                        <rate>
                                            <timebase>25</timebase>
                                            <ntsc>FALSE</ntsc>
                                        </rate>
                                        <width>1920</width>
                                        <height>1080</height>
                                        <anamorphic>FALSE</anamorphic>
                                        <pixelaspectratio>square</pixelaspectratio>
                                        <fielddominance>none</fielddominance>
                                    </samplecharacteristics>
                                </video>
                                <audio>
                                    <samplecharacteristics>
                                        <depth>16</depth>
                                        <samplerate>48000</samplerate>
                                    </samplecharacteristics>
                                    <channelcount>1</channelcount>
                                    <audiochannel>
                                        <sourcechannel>1</sourcechannel>
                                    </audiochannel>
                                </audio>
                            </media>
                        </file>
                        <filter/>
                        <labels>
                            <label2>VFX</label2>
                        </labels>
                    </clipitem>
                    <clipitem id="shot_0009">
                        <masterclipid>shot_0009</masterclipid>
                        <name>B001C021_190617_K136.mov</name>
                        <enabled>TRUE</enabled>
                        <duration>1277</duration>
                        <rate>
                            <timebase>25</timebase>
                            <ntsc>FALSE</ntsc>
                        </rate>
                        <start>616</start>
                        <end>647</end>
                        <in>762</in>
                        <out>793</out>
                        <file id="file-5">
                            <name>B001C021_190617_K136.mov</name>
                            <pathurl>file://localhost/Volumes/PIGSTORE/Projects/rema_smartboat_0299_jun_2019/editorial/proxies/B001C021_190617_K136.mov</pathurl>
                            <rate>
                                <timebase>25</timebase>
                                <ntsc>FALSE</ntsc>
                            </rate>
                            <duration>1277</duration>
                            <timecode>
                                <rate>
                                    <timebase>25</timebase>
                                    <ntsc>FALSE</ntsc>
                                </rate>
                                <string>18:39:41:23</string>
                                <frame>1679548</frame>
                                <displayformat>NDF</displayformat>
                            </timecode>
                            <media>
                                <video>
                                    <samplecharacteristics>
                                        <rate>
                                            <timebase>25</timebase>
                                            <ntsc>FALSE</ntsc>
                                        </rate>
                                        <width>1920</width>
                                        <height>1080</height>
                                        <anamorphic>FALSE</anamorphic>
                                        <pixelaspectratio>square</pixelaspectratio>
                                        <fielddominance>none</fielddominance>
                                    </samplecharacteristics>
                                </video>
                                <audio>
                                    <samplecharacteristics>
                                        <depth>16</depth>
                                        <samplerate>48000</samplerate>
                                    </samplecharacteristics>
                                    <channelcount>1</channelcount>
                                    <audiochannel>
                                        <sourcechannel>1</sourcechannel>
                                    </audiochannel>
                                </audio>
                            </media>
                        </file>
                        <filter/>
                        <labels>
                            <label2>VFX</label2>
                        </labels>
                    </clipitem>
                    <clipitem id="shot_0010">
                        <masterclipid>shot_0010</masterclipid>
                        <name>B001C020_190617_K136.mov</name>
                        <enabled>TRUE</enabled>
                        <duration>1272</duration>
                        <rate>
                            <timebase>25</timebase>
                            <ntsc>FALSE</ntsc>
                        </rate>
                        <start>672</start>
                        <end>714</end>
                        <in>944</in>
                        <out>986</out>
                        <file id="file-6">
                            <name>B001C020_190617_K136.mov</name>
                            <pathurl>file://localhost/Volumes/PIGSTORE/Projects/rema_smartboat_0299_jun_2019/editorial/proxies/B001C020_190617_K136.mov</pathurl>
                            <rate>
                                <timebase>25</timebase>
                                <ntsc>FALSE</ntsc>
                            </rate>
                            <duration>1272</duration>
                            <timecode>
                                <rate>
                                    <timebase>25</timebase>
                                    <ntsc>FALSE</ntsc>
                                </rate>
                                <string>18:37:02:21</string>
                                <frame>1675571</frame>
                                <displayformat>NDF</displayformat>
                            </timecode>
                            <media>
                                <video>
                                    <samplecharacteristics>
                                        <rate>
                                            <timebase>25</timebase>
                                            <ntsc>FALSE</ntsc>
                                        </rate>
                                        <width>1920</width>
                                        <height>1080</height>
                                        <anamorphic>FALSE</anamorphic>
                                        <pixelaspectratio>square</pixelaspectratio>
                                        <fielddominance>none</fielddominance>
                                    </samplecharacteristics>
                                </video>
                                <audio>
                                    <samplecharacteristics>
                                        <depth>16</depth>
                                        <samplerate>48000</samplerate>
                                    </samplecharacteristics>
                                    <channelcount>1</channelcount>
                                    <audiochannel>
                                        <sourcechannel>1</sourcechannel>
                                    </audiochannel>
                                </audio>
                            </media>
                        </file>
                        <filter/>
                        <labels>
                            <label2>VFX</label2>
                        </labels>
                    </clipitem>
                    <clipitem id="shot_0011">
                        <masterclipid>shot_0011</masterclipid>
                        <name>B001C020_190617_K136.mov</name>
                        <enabled>TRUE</enabled>
                        <duration>1272</duration>
                        <rate>
                            <timebase>25</timebase>
                            <ntsc>FALSE</ntsc>
                        </rate>
                        <start>739</start>
                        <end>781</end>
                        <in>944</in>
                        <out>986</out>
                        <file id="file-6">
                            <name>B001C020_190617_K136.mov</name>
                            <pathurl>file://localhost/Volumes/PIGSTORE/Projects/rema_smartboat_0299_jun_2019/editorial/proxies/B001C020_190617_K136.mov</pathurl>
                            <rate>
                                <timebase>25</timebase>
                                <ntsc>FALSE</ntsc>
                            </rate>
                            <duration>1272</duration>
                            <timecode>
                                <rate>
                                    <timebase>25</timebase>
                                    <ntsc>FALSE</ntsc>
                                </rate>
                                <string>18:37:02:21</string>
                                <frame>1675571</frame>
                                <displayformat>NDF</displayformat>
                            </timecode>
                            <media>
                                <video>
                                    <samplecharacteristics>
                                        <rate>
                                            <timebase>25</timebase>
                                            <ntsc>FALSE</ntsc>
                                        </rate>
                                        <width>1920</width>
                                        <height>1080</height>
                                        <anamorphic>FALSE</anamorphic>
                                        <pixelaspectratio>square</pixelaspectratio>
                                        <fielddominance>none</fielddominance>
                                    </samplecharacteristics>
                                </video>
                                <audio>
                                    <samplecharacteristics>
                                        <depth>16</depth>
                                        <samplerate>48000</samplerate>
                                    </samplecharacteristics>
                                    <channelcount>1</channelcount>
                                    <audiochannel>
                                        <sourcechannel>1</sourcechannel>
                                    </audiochannel>
                                </audio>
                            </media>
                        </file>
                        <filter/>
                        <labels>
                            <label2>VFX</label2>
                        </labels>
                    </clipitem>
                    <clipitem id="shot_0012">
                        <masterclipid>shot_0012</masterclipid>
                        <name>A001C002_190617_K1TL.mov</name>
                        <enabled>TRUE</enabled>
                        <duration>1336</duration>
                        <rate>
                            <timebase>25</timebase>
                            <ntsc>FALSE</ntsc>
                        </rate>
                        <start>806</start>
                        <end>864</end>
                        <in>1078</in>
                        <out>1136</out>
                        <file id="file-7">
                            <name>A001C002_190617_K1TL.mov</name>
                            <pathurl>file://localhost/Volumes/PIGSTORE/Projects/rema_smartboat_0299_jun_2019/editorial/proxies/A001C002_190617_K1TL.mov</pathurl>
                            <rate>
                                <timebase>25</timebase>
                                <ntsc>FALSE</ntsc>
                            </rate>
                            <duration>1336</duration>
                            <timecode>
                                <rate>
                                    <timebase>25</timebase>
                                    <ntsc>FALSE</ntsc>
                                </rate>
                                <string>09:16:47:02</string>
                                <frame>835177</frame>
                                <displayformat>NDF</displayformat>
                            </timecode>
                            <media>
                                <video>
                                    <samplecharacteristics>
                                        <rate>
                                            <timebase>25</timebase>
                                            <ntsc>FALSE</ntsc>
                                        </rate>
                                        <width>1920</width>
                                        <height>1080</height>
                                        <anamorphic>FALSE</anamorphic>
                                        <pixelaspectratio>square</pixelaspectratio>
                                        <fielddominance>none</fielddominance>
                                    </samplecharacteristics>
                                </video>
                                <audio>
                                    <samplecharacteristics>
                                        <depth>16</depth>
                                        <samplerate>48000</samplerate>
                                    </samplecharacteristics>
                                    <channelcount>1</channelcount>
                                    <audiochannel>
                                        <sourcechannel>1</sourcechannel>
                                    </audiochannel>
                                </audio>
                            </media>
                        </file>
                        <filter/>
                        <labels>
                            <label2>VFX</label2>
                        </labels>
                    </clipitem>
                    <clipitem id="shot_0013">
                        <masterclipid>shot_0013</masterclipid>
                        <name>A001C002_190617_K1TL.mov</name>
                        <enabled>TRUE</enabled>
                        <duration>1336</duration>
                        <rate>
                            <timebase>25</timebase>
                            <ntsc>FALSE</ntsc>
                        </rate>
                        <start>889</start>
                        <end>947</end>
                        <in>1078</in>
                        <out>1136</out>
                        <file id="file-7">
                            <name>A001C002_190617_K1TL.mov</name>
                            <pathurl>file://localhost/Volumes/PIGSTORE/Projects/rema_smartboat_0299_jun_2019/editorial/proxies/A001C002_190617_K1TL.mov</pathurl>
                            <rate>
                                <timebase>25</timebase>
                                <ntsc>FALSE</ntsc>
                            </rate>
                            <duration>1336</duration>
                            <timecode>
                                <rate>
                                    <timebase>25</timebase>
                                    <ntsc>FALSE</ntsc>
                                </rate>
                                <string>09:16:47:02</string>
                                <frame>835177</frame>
                                <displayformat>NDF</displayformat>
                            </timecode>
                            <media>
                                <video>
                                    <samplecharacteristics>
                                        <rate>
                                            <timebase>25</timebase>
                                            <ntsc>FALSE</ntsc>
                                        </rate>
                                        <width>1920</width>
                                        <height>1080</height>
                                        <anamorphic>FALSE</anamorphic>
                                        <pixelaspectratio>square</pixelaspectratio>
                                        <fielddominance>none</fielddominance>
                                    </samplecharacteristics>
                                </video>
                                <audio>
                                    <samplecharacteristics>
                                        <depth>16</depth>
                                        <samplerate>48000</samplerate>
                                    </samplecharacteristics>
                                    <channelcount>1</channelcount>
                                    <audiochannel>
                                        <sourcechannel>1</sourcechannel>
                                    </audiochannel>
                                </audio>
                            </media>
                        </file>
                        <filter/>
                        <labels>
                            <label2>VFX</label2>
                        </labels>
                    </clipitem>
                    <clipitem id="shot_0014">
                        <masterclipid>shot_0014</masterclipid>
                        <name>A001C014_190617_K1TL.mov</name>
                        <enabled>TRUE</enabled>
                        <duration>766</duration>
                        <rate>
                            <timebase>25</timebase>
                            <ntsc>FALSE</ntsc>
                        </rate>
                        <start>972</start>
                        <end>996</end>
                        <in>318</in>
                        <out>342</out>
                        <file id="file-8">
                            <name>A001C014_190617_K1TL.mov</name>
                            <pathurl>file://localhost/Volumes/PIGSTORE/Projects/rema_smartboat_0299_jun_2019/editorial/proxies/A001C014_190617_K1TL.mov</pathurl>
                            <rate>
                                <timebase>25</timebase>
                                <ntsc>FALSE</ntsc>
                            </rate>
                            <duration>766</duration>
                            <timecode>
                                <rate>
                                    <timebase>25</timebase>
                                    <ntsc>FALSE</ntsc>
                                </rate>
                                <string>11:25:53:16</string>
                                <frame>1028841</frame>
                                <displayformat>NDF</displayformat>
                            </timecode>
                            <media>
                                <video>
                                    <samplecharacteristics>
                                        <rate>
                                            <timebase>25</timebase>
                                            <ntsc>FALSE</ntsc>
                                        </rate>
                                        <width>1920</width>
                                        <height>1080</height>
                                        <anamorphic>FALSE</anamorphic>
                                        <pixelaspectratio>square</pixelaspectratio>
                                        <fielddominance>none</fielddominance>
                                    </samplecharacteristics>
                                </video>
                                <audio>
                                    <samplecharacteristics>
                                        <depth>16</depth>
                                        <samplerate>48000</samplerate>
                                    </samplecharacteristics>
                                    <channelcount>1</channelcount>
                                    <audiochannel>
                                        <sourcechannel>1</sourcechannel>
                                    </audiochannel>
                                </audio>
                            </media>
                        </file>
                        <filter/>
                        <labels>
                            <label2>VFX</label2>
                        </labels>
                    </clipitem>
                    <clipitem id="shot_0015">
                        <masterclipid>shot_0015</masterclipid>
                        <name>A001C014_190617_K1TL.mov</name>
                        <enabled>TRUE</enabled>
                        <duration>766</duration>
                        <rate>
                            <timebase>25</timebase>
                            <ntsc>FALSE</ntsc>
                        </rate>
                        <start>1021</start>
                        <end>1045</end>
                        <in>318</in>
                        <out>342</out>
                        <file id="file-8">
                            <name>A001C014_190617_K1TL.mov</name>
                            <pathurl>file://localhost/Volumes/PIGSTORE/Projects/rema_smartboat_0299_jun_2019/editorial/proxies/A001C014_190617_K1TL.mov</pathurl>
                            <rate>
                                <timebase>25</timebase>
                                <ntsc>FALSE</ntsc>
                            </rate>
                            <duration>766</duration>
                            <timecode>
                                <rate>
                                    <timebase>25</timebase>
                                    <ntsc>FALSE</ntsc>
                                </rate>
                                <string>11:25:53:16</string>
                                <frame>1028841</frame>
                                <displayformat>NDF</displayformat>
                            </timecode>
                            <media>
                                <video>
                                    <samplecharacteristics>
                                        <rate>
                                            <timebase>25</timebase>
                                            <ntsc>FALSE</ntsc>
                                        </rate>
                                        <width>1920</width>
                                        <height>1080</height>
                                        <anamorphic>FALSE</anamorphic>
                                        <pixelaspectratio>square</pixelaspectratio>
                                        <fielddominance>none</fielddominance>
                                    </samplecharacteristics>
                                </video>
                                <audio>
                                    <samplecharacteristics>
                                        <depth>16</depth>
                                        <samplerate>48000</samplerate>
                                    </samplecharacteristics>
                                    <channelcount>1</channelcount>
                                    <audiochannel>
                                        <sourcechannel>1</sourcechannel>
                                    </audiochannel>
                                </audio>
                            </media>
                        </file>
                        <filter/>
                        <labels>
                            <label2>VFX</label2>
                        </labels>
                    </clipitem>
                    <clipitem id="shot_0016">
                        <masterclipid>shot_0016</masterclipid>
                        <name>A001C005_190617_K1TL.mov</name>
                        <enabled>TRUE</enabled>
                        <duration>4285</duration>
                        <rate>
                            <timebase>25</timebase>
                            <ntsc>FALSE</ntsc>
                        </rate>
                        <start>1070</start>
                        <end>1137</end>
                        <in>832</in>
                        <out>899</out>
                        <file id="file-9">
                            <name>A001C005_190617_K1TL.mov</name>
                            <pathurl>file://localhost/Volumes/PIGSTORE/Projects/rema_smartboat_0299_jun_2019/editorial/proxies/A001C005_190617_K1TL.mov</pathurl>
                            <rate>
                                <timebase>25</timebase>
                                <ntsc>FALSE</ntsc>
                            </rate>
                            <duration>4285</duration>
                            <timecode>
                                <rate>
                                    <timebase>25</timebase>
                                    <ntsc>FALSE</ntsc>
                                </rate>
                                <string>10:11:43:24</string>
                                <frame>917599</frame>
                                <displayformat>NDF</displayformat>
                            </timecode>
                            <media>
                                <video>
                                    <samplecharacteristics>
                                        <rate>
                                            <timebase>25</timebase>
                                            <ntsc>FALSE</ntsc>
                                        </rate>
                                        <width>1920</width>
                                        <height>1080</height>
                                        <anamorphic>FALSE</anamorphic>
                                        <pixelaspectratio>square</pixelaspectratio>
                                        <fielddominance>none</fielddominance>
                                    </samplecharacteristics>
                                </video>
                                <audio>
                                    <samplecharacteristics>
                                        <depth>16</depth>
                                        <samplerate>48000</samplerate>
                                    </samplecharacteristics>
                                    <channelcount>1</channelcount>
                                    <audiochannel>
                                        <sourcechannel>1</sourcechannel>
                                    </audiochannel>
                                </audio>
                            </media>
                        </file>
                        <filter/>
                        <labels>
                            <label2>VFX</label2>
                        </labels>
                    </clipitem>
                    <clipitem id="shot_0017">
                        <masterclipid>shot_0017</masterclipid>
                        <name>A001C005_190617_K1TL.mov</name>
                        <enabled>TRUE</enabled>
                        <duration>4285</duration>
                        <rate>
                            <timebase>25</timebase>
                            <ntsc>FALSE</ntsc>
                        </rate>
                        <start>1162</start>
                        <end>1229</end>
                        <in>832</in>
                        <out>899</out>
                        <file id="file-9">
                            <name>A001C005_190617_K1TL.mov</name>
                            <pathurl>file://localhost/Volumes/PIGSTORE/Projects/rema_smartboat_0299_jun_2019/editorial/proxies/A001C005_190617_K1TL.mov</pathurl>
                            <rate>
                                <timebase>25</timebase>
                                <ntsc>FALSE</ntsc>
                            </rate>
                            <duration>4285</duration>
                            <timecode>
                                <rate>
                                    <timebase>25</timebase>
                                    <ntsc>FALSE</ntsc>
                                </rate>
                                <string>10:11:43:24</string>
                                <frame>917599</frame>
                                <displayformat>NDF</displayformat>
                            </timecode>
                            <media>
                                <video>
                                    <samplecharacteristics>
                                        <rate>
                                            <timebase>25</timebase>
                                            <ntsc>FALSE</ntsc>
                                        </rate>
                                        <width>1920</width>
                                        <height>1080</height>
                                        <anamorphic>FALSE</anamorphic>
                                        <pixelaspectratio>square</pixelaspectratio>
                                        <fielddominance>none</fielddominance>
                                    </samplecharacteristics>
                                </video>
                                <audio>
                                    <samplecharacteristics>
                                        <depth>16</depth>
                                        <samplerate>48000</samplerate>
                                    </samplecharacteristics>
                                    <channelcount>1</channelcount>
                                    <audiochannel>
                                        <sourcechannel>1</sourcechannel>
                                    </audiochannel>
                                </audio>
                            </media>
                        </file>
                        <filter/>
                        <labels>
                            <label2>VFX</label2>
                        </labels>
                    </clipitem>
                    <clipitem id="shot_0018">
                        <masterclipid>shot_0018</masterclipid>
                        <name>A001C007_190617_K1TL.mov</name>
                        <enabled>TRUE</enabled>
                        <duration>2950</duration>
                        <rate>
                            <timebase>25</timebase>
                            <ntsc>FALSE</ntsc>
                        </rate>
                        <start>1254</start>
                        <end>1291</end>
                        <in>2525</in>
                        <out>2562</out>
                        <file id="file-10">
                            <name>A001C007_190617_K1TL.mov</name>
                            <pathurl>file://localhost/Volumes/PIGSTORE/Projects/rema_smartboat_0299_jun_2019/editorial/proxies/A001C007_190617_K1TL.mov</pathurl>
                            <rate>
                                <timebase>25</timebase>
                                <ntsc>FALSE</ntsc>
                            </rate>
                            <duration>2950</duration>
                            <timecode>
                                <rate>
                                    <timebase>25</timebase>
                                    <ntsc>FALSE</ntsc>
                                </rate>
                                <string>10:26:22:16</string>
                                <frame>939566</frame>
                                <displayformat>NDF</displayformat>
                            </timecode>
                            <media>
                                <video>
                                    <samplecharacteristics>
                                        <rate>
                                            <timebase>25</timebase>
                                            <ntsc>FALSE</ntsc>
                                        </rate>
                                        <width>1920</width>
                                        <height>1080</height>
                                        <anamorphic>FALSE</anamorphic>
                                        <pixelaspectratio>square</pixelaspectratio>
                                        <fielddominance>none</fielddominance>
                                    </samplecharacteristics>
                                </video>
                                <audio>
                                    <samplecharacteristics>
                                        <depth>16</depth>
                                        <samplerate>48000</samplerate>
                                    </samplecharacteristics>
                                    <channelcount>1</channelcount>
                                    <audiochannel>
                                        <sourcechannel>1</sourcechannel>
                                    </audiochannel>
                                </audio>
                            </media>
                        </file>
                        <filter/>
                        <labels>
                            <label2>VFX</label2>
                        </labels>
                    </clipitem>
                    <clipitem id="shot_0019">
                        <masterclipid>shot_0019</masterclipid>
                        <name>A001C007_190617_K1TL.mov</name>
                        <enabled>TRUE</enabled>
                        <duration>2950</duration>
                        <rate>
                            <timebase>25</timebase>
                            <ntsc>FALSE</ntsc>
                        </rate>
                        <start>1316</start>
                        <end>1353</end>
                        <in>2525</in>
                        <out>2562</out>
                        <file id="file-10">
                            <name>A001C007_190617_K1TL.mov</name>
                            <pathurl>file://localhost/Volumes/PIGSTORE/Projects/rema_smartboat_0299_jun_2019/editorial/proxies/A001C007_190617_K1TL.mov</pathurl>
                            <rate>
                                <timebase>25</timebase>
                                <ntsc>FALSE</ntsc>
                            </rate>
                            <duration>2950</duration>
                            <timecode>
                                <rate>
                                    <timebase>25</timebase>
                                    <ntsc>FALSE</ntsc>
                                </rate>
                                <string>10:26:22:16</string>
                                <frame>939566</frame>
                                <displayformat>NDF</displayformat>
                            </timecode>
                            <media>
                                <video>
                                    <samplecharacteristics>
                                        <rate>
                                            <timebase>25</timebase>
                                            <ntsc>FALSE</ntsc>
                                        </rate>
                                        <width>1920</width>
                                        <height>1080</height>
                                        <anamorphic>FALSE</anamorphic>
                                        <pixelaspectratio>square</pixelaspectratio>
                                        <fielddominance>none</fielddominance>
                                    </samplecharacteristics>
                                </video>
                                <audio>
                                    <samplecharacteristics>
                                        <depth>16</depth>
                                        <samplerate>48000</samplerate>
                                    </samplecharacteristics>
                                    <channelcount>1</channelcount>
                                    <audiochannel>
                                        <sourcechannel>1</sourcechannel>
                                    </audiochannel>
                                </audio>
                            </media>
                        </file>
                        <filter/>
                        <labels>
                            <label2>VFX</label2>
                        </labels>
                    </clipitem>
                    <clipitem id="shot_0020">
                        <masterclipid>shot_0020</masterclipid>
                        <name>B001C003_190617_K136.mov</name>
                        <enabled>TRUE</enabled>
                        <duration>1598</duration>
                        <rate>
                            <timebase>25</timebase>
                            <ntsc>FALSE</ntsc>
                        </rate>
                        <start>1378</start>
                        <end>1417</end>
                        <in>1329</in>
                        <out>1368</out>
                        <file id="file-11">
                            <name>B001C003_190617_K136.mov</name>
                            <pathurl>file://localhost/Volumes/PIGSTORE/Projects/rema_smartboat_0299_jun_2019/editorial/proxies/B001C003_190617_K136.mov</pathurl>
                            <rate>
                                <timebase>25</timebase>
                                <ntsc>FALSE</ntsc>
                            </rate>
                            <duration>1598</duration>
                            <timecode>
                                <rate>
                                    <timebase>25</timebase>
                                    <ntsc>FALSE</ntsc>
                                </rate>
                                <string>13:03:21:00</string>
                                <frame>1175025</frame>
                                <displayformat>NDF</displayformat>
                            </timecode>
                            <media>
                                <video>
                                    <samplecharacteristics>
                                        <rate>
                                            <timebase>25</timebase>
                                            <ntsc>FALSE</ntsc>
                                        </rate>
                                        <width>1920</width>
                                        <height>1080</height>
                                        <anamorphic>FALSE</anamorphic>
                                        <pixelaspectratio>square</pixelaspectratio>
                                        <fielddominance>none</fielddominance>
                                    </samplecharacteristics>
                                </video>
                                <audio>
                                    <samplecharacteristics>
                                        <depth>16</depth>
                                        <samplerate>48000</samplerate>
                                    </samplecharacteristics>
                                    <channelcount>1</channelcount>
                                    <audiochannel>
                                        <sourcechannel>1</sourcechannel>
                                    </audiochannel>
                                </audio>
                            </media>
                        </file>
                        <filter/>
                        <labels>
                            <label2>VFX</label2>
                        </labels>
                    </clipitem>
                    <clipitem id="shot_0021">
                        <masterclipid>shot_0021</masterclipid>
                        <name>B001C003_190617_K136.mov</name>
                        <enabled>TRUE</enabled>
                        <duration>1598</duration>
                        <rate>
                            <timebase>25</timebase>
                            <ntsc>FALSE</ntsc>
                        </rate>
                        <start>1442</start>
                        <end>1481</end>
                        <in>1329</in>
                        <out>1368</out>
                        <file id="file-11">
                            <name>B001C003_190617_K136.mov</name>
                            <pathurl>file://localhost/Volumes/PIGSTORE/Projects/rema_smartboat_0299_jun_2019/editorial/proxies/B001C003_190617_K136.mov</pathurl>
                            <rate>
                                <timebase>25</timebase>
                                <ntsc>FALSE</ntsc>
                            </rate>
                            <duration>1598</duration>
                            <timecode>
                                <rate>
                                    <timebase>25</timebase>
                                    <ntsc>FALSE</ntsc>
                                </rate>
                                <string>13:03:21:00</string>
                                <frame>1175025</frame>
                                <displayformat>NDF</displayformat>
                            </timecode>
                            <media>
                                <video>
                                    <samplecharacteristics>
                                        <rate>
                                            <timebase>25</timebase>
                                            <ntsc>FALSE</ntsc>
                                        </rate>
                                        <width>1920</width>
                                        <height>1080</height>
                                        <anamorphic>FALSE</anamorphic>
                                        <pixelaspectratio>square</pixelaspectratio>
                                        <fielddominance>none</fielddominance>
                                    </samplecharacteristics>
                                </video>
                                <audio>
                                    <samplecharacteristics>
                                        <depth>16</depth>
                                        <samplerate>48000</samplerate>
                                    </samplecharacteristics>
                                    <channelcount>1</channelcount>
                                    <audiochannel>
                                        <sourcechannel>1</sourcechannel>
                                    </audiochannel>
                                </audio>
                            </media>
                        </file>
                        <filter/>
                        <labels>
                            <label2>VFX</label2>
                        </labels>
                    </clipitem>
                    <clipitem id="shot_0022">
                        <masterclipid>shot_0022</masterclipid>
                        <name>B002C010_190618_K136.mov</name>
                        <enabled>TRUE</enabled>
                        <duration>82</duration>
                        <rate>
                            <timebase>25</timebase>
                            <ntsc>FALSE</ntsc>
                        </rate>
                        <start>1506</start>
                        <end>1513</end>
                        <in>33</in>
                        <out>40</out>
                        <file id="file-12">
                            <name>B002C010_190618_K136.mov</name>
                            <pathurl>file://localhost/Volumes/PIGSTORE/Projects/rema_smartboat_0299_jun_2019/editorial/proxies/B002C010_190618_K136.mov</pathurl>
                            <rate>
                                <timebase>25</timebase>
                                <ntsc>FALSE</ntsc>
                            </rate>
                            <duration>825</duration>
                            <timecode>
                                <rate>
                                    <timebase>25</timebase>
                                    <ntsc>FALSE</ntsc>
                                </rate>
                                <string>11:23:37:05</string>
                                <frame>1025430</frame>
                                <displayformat>NDF</displayformat>
                            </timecode>
                            <media>
                                <video>
                                    <samplecharacteristics>
                                        <rate>
                                            <timebase>25</timebase>
                                            <ntsc>FALSE</ntsc>
                                        </rate>
                                        <width>1920</width>
                                        <height>1080</height>
                                        <anamorphic>FALSE</anamorphic>
                                        <pixelaspectratio>square</pixelaspectratio>
                                        <fielddominance>none</fielddominance>
                                    </samplecharacteristics>
                                </video>
                                <audio>
                                    <samplecharacteristics>
                                        <depth>16</depth>
                                        <samplerate>48000</samplerate>
                                    </samplecharacteristics>
                                    <channelcount>1</channelcount>
                                    <audiochannel>
                                        <sourcechannel>1</sourcechannel>
                                    </audiochannel>
                                </audio>
                            </media>
                        </file>
                        <filter/>
                        <labels>
                            <label2>VFX</label2>
                        </labels>
                    </clipitem>
                    <clipitem id="shot_0023">
                        <masterclipid>shot_0023</masterclipid>
                        <name>B002C010_190618_K136.mov</name>
                        <enabled>TRUE</enabled>
                        <duration>82</duration>
                        <rate>
                            <timebase>25</timebase>
                            <ntsc>FALSE</ntsc>
                        </rate>
                        <start>1538</start>
                        <end>1545</end>
                        <in>33</in>
                        <out>40</out>
                        <file id="file-12">
                            <name>B002C010_190618_K136.mov</name>
                            <pathurl>file://localhost/Volumes/PIGSTORE/Projects/rema_smartboat_0299_jun_2019/editorial/proxies/B002C010_190618_K136.mov</pathurl>
                            <rate>
                                <timebase>25</timebase>
                                <ntsc>FALSE</ntsc>
                            </rate>
                            <duration>825</duration>
                            <timecode>
                                <rate>
                                    <timebase>25</timebase>
                                    <ntsc>FALSE</ntsc>
                                </rate>
                                <string>11:23:37:05</string>
                                <frame>1025430</frame>
                                <displayformat>NDF</displayformat>
                            </timecode>
                            <media>
                                <video>
                                    <samplecharacteristics>
                                        <rate>
                                            <timebase>25</timebase>
                                            <ntsc>FALSE</ntsc>
                                        </rate>
                                        <width>1920</width>
                                        <height>1080</height>
                                        <anamorphic>FALSE</anamorphic>
                                        <pixelaspectratio>square</pixelaspectratio>
                                        <fielddominance>none</fielddominance>
                                    </samplecharacteristics>
                                </video>
                                <audio>
                                    <samplecharacteristics>
                                        <depth>16</depth>
                                        <samplerate>48000</samplerate>
                                    </samplecharacteristics>
                                    <channelcount>1</channelcount>
                                    <audiochannel>
                                        <sourcechannel>1</sourcechannel>
                                    </audiochannel>
                                </audio>
                            </media>
                        </file>
                        <filter/>
                        <labels>
                            <label2>VFX</label2>
                        </labels>
                    </clipitem>
                    <clipitem id="shot_0024">
                        <masterclipid>shot_0024</masterclipid>
                        <name>B003C001_190618_K136.mov</name>
                        <enabled>TRUE</enabled>
                        <duration>2164</duration>
                        <rate>
                            <timebase>25</timebase>
                            <ntsc>FALSE</ntsc>
                        </rate>
                        <start>1570</start>
                        <end>1589</end>
                        <in>570</in>
                        <out>589</out>
                        <file id="file-13">
                            <name>B003C001_190618_K136.mov</name>
                            <pathurl>file://localhost/Volumes/PIGSTORE/Projects/rema_smartboat_0299_jun_2019/editorial/proxies/B003C001_190618_K136.mov</pathurl>
                            <rate>
                                <timebase>25</timebase>
                                <ntsc>FALSE</ntsc>
                            </rate>
                            <duration>2164</duration>
                            <timecode>
                                <rate>
                                    <timebase>25</timebase>
                                    <ntsc>FALSE</ntsc>
                                </rate>
                                <string>14:06:03:19</string>
                                <frame>1269094</frame>
                                <displayformat>NDF</displayformat>
                            </timecode>
                            <media>
                                <video>
                                    <samplecharacteristics>
                                        <rate>
                                            <timebase>25</timebase>
                                            <ntsc>FALSE</ntsc>
                                        </rate>
                                        <width>1920</width>
                                        <height>1080</height>
                                        <anamorphic>FALSE</anamorphic>
                                        <pixelaspectratio>square</pixelaspectratio>
                                        <fielddominance>none</fielddominance>
                                    </samplecharacteristics>
                                </video>
                                <audio>
                                    <samplecharacteristics>
                                        <depth>16</depth>
                                        <samplerate>48000</samplerate>
                                    </samplecharacteristics>
                                    <channelcount>1</channelcount>
                                    <audiochannel>
                                        <sourcechannel>1</sourcechannel>
                                    </audiochannel>
                                </audio>
                            </media>
                        </file>
                        <filter/>
                        <labels>
                            <label2>VFX</label2>
                        </labels>
                    </clipitem>
                    <clipitem id="shot_0025">
                        <masterclipid>shot_0025</masterclipid>
                        <name>B003C001_190618_K136.mov</name>
                        <enabled>TRUE</enabled>
                        <duration>2164</duration>
                        <rate>
                            <timebase>25</timebase>
                            <ntsc>FALSE</ntsc>
                        </rate>
                        <start>1614</start>
                        <end>1633</end>
                        <in>570</in>
                        <out>589</out>
                        <file id="file-13">
                            <name>B003C001_190618_K136.mov</name>
                            <pathurl>file://localhost/Volumes/PIGSTORE/Projects/rema_smartboat_0299_jun_2019/editorial/proxies/B003C001_190618_K136.mov</pathurl>
                            <rate>
                                <timebase>25</timebase>
                                <ntsc>FALSE</ntsc>
                            </rate>
                            <duration>2164</duration>
                            <timecode>
                                <rate>
                                    <timebase>25</timebase>
                                    <ntsc>FALSE</ntsc>
                                </rate>
                                <string>14:06:03:19</string>
                                <frame>1269094</frame>
                                <displayformat>NDF</displayformat>
                            </timecode>
                            <media>
                                <video>
                                    <samplecharacteristics>
                                        <rate>
                                            <timebase>25</timebase>
                                            <ntsc>FALSE</ntsc>
                                        </rate>
                                        <width>1920</width>
                                        <height>1080</height>
                                        <anamorphic>FALSE</anamorphic>
                                        <pixelaspectratio>square</pixelaspectratio>
                                        <fielddominance>none</fielddominance>
                                    </samplecharacteristics>
                                </video>
                                <audio>
                                    <samplecharacteristics>
                                        <depth>16</depth>
                                        <samplerate>48000</samplerate>
                                    </samplecharacteristics>
                                    <channelcount>1</channelcount>
                                    <audiochannel>
                                        <sourcechannel>1</sourcechannel>
                                    </audiochannel>
                                </audio>
                            </media>
                        </file>
                        <filter/>
                        <labels>
                            <label2>VFX</label2>
                        </labels>
                    </clipitem>
                    <clipitem id="shot_0026">
                        <masterclipid>shot_0026</masterclipid>
                        <name>A003C007_190617_K1TL.mov</name>
                        <enabled>TRUE</enabled>
                        <duration>1492</duration>
                        <rate>
                            <timebase>25</timebase>
                            <ntsc>FALSE</ntsc>
                        </rate>
                        <start>1658</start>
                        <end>1692</end>
                        <in>1155</in>
                        <out>1189</out>
                        <file id="file-14">
                            <name>A003C007_190617_K1TL.mov</name>
                            <pathurl>file://localhost/Volumes/PIGSTORE/Projects/rema_smartboat_0299_jun_2019/editorial/proxies/A003C007_190617_K1TL.mov</pathurl>
                            <rate>
                                <timebase>25</timebase>
                                <ntsc>FALSE</ntsc>
                            </rate>
                            <duration>1492</duration>
                            <timecode>
                                <rate>
                                    <timebase>25</timebase>
                                    <ntsc>FALSE</ntsc>
                                </rate>
                                <string>15:59:20:07</string>
                                <frame>1439007</frame>
                                <displayformat>NDF</displayformat>
                            </timecode>
                            <media>
                                <video>
                                    <samplecharacteristics>
                                        <rate>
                                            <timebase>25</timebase>
                                            <ntsc>FALSE</ntsc>
                                        </rate>
                                        <width>1920</width>
                                        <height>1080</height>
                                        <anamorphic>FALSE</anamorphic>
                                        <pixelaspectratio>square</pixelaspectratio>
                                        <fielddominance>none</fielddominance>
                                    </samplecharacteristics>
                                </video>
                                <audio>
                                    <samplecharacteristics>
                                        <depth>16</depth>
                                        <samplerate>48000</samplerate>
                                    </samplecharacteristics>
                                    <channelcount>1</channelcount>
                                    <audiochannel>
                                        <sourcechannel>1</sourcechannel>
                                    </audiochannel>
                                </audio>
                            </media>
                        </file>
                        <filter/>
                        <labels>
                            <label2>VFX</label2>
                        </labels>
                    </clipitem>
                    <clipitem id="shot_0027">
                        <masterclipid>shot_0027</masterclipid>
                        <name>A003C007_190617_K1TL.mov</name>
                        <enabled>TRUE</enabled>
                        <duration>1492</duration>
                        <rate>
                            <timebase>25</timebase>
                            <ntsc>FALSE</ntsc>
                        </rate>
                        <start>1717</start>
                        <end>1751</end>
                        <in>1155</in>
                        <out>1189</out>
                        <file id="file-14">
                            <name>A003C007_190617_K1TL.mov</name>
                            <pathurl>file://localhost/Volumes/PIGSTORE/Projects/rema_smartboat_0299_jun_2019/editorial/proxies/A003C007_190617_K1TL.mov</pathurl>
                            <rate>
                                <timebase>25</timebase>
                                <ntsc>FALSE</ntsc>
                            </rate>
                            <duration>1492</duration>
                            <timecode>
                                <rate>
                                    <timebase>25</timebase>
                                    <ntsc>FALSE</ntsc>
                                </rate>
                                <string>15:59:20:07</string>
                                <frame>1439007</frame>
                                <displayformat>NDF</displayformat>
                            </timecode>
                            <media>
                                <video>
                                    <samplecharacteristics>
                                        <rate>
                                            <timebase>25</timebase>
                                            <ntsc>FALSE</ntsc>
                                        </rate>
                                        <width>1920</width>
                                        <height>1080</height>
                                        <anamorphic>FALSE</anamorphic>
                                        <pixelaspectratio>square</pixelaspectratio>
                                        <fielddominance>none</fielddominance>
                                    </samplecharacteristics>
                                </video>
                                <audio>
                                    <samplecharacteristics>
                                        <depth>16</depth>
                                        <samplerate>48000</samplerate>
                                    </samplecharacteristics>
                                    <channelcount>1</channelcount>
                                    <audiochannel>
                                        <sourcechannel>1</sourcechannel>
                                    </audiochannel>
                                </audio>
                            </media>
                        </file>
                        <filter/>
                        <labels>
                            <label2>VFX</label2>
                        </labels>
                    </clipitem>
                    <clipitem id="shot_0028">
                        <masterclipid>shot_0028</masterclipid>
                        <name>B002C030_190618_K136.mov</name>
                        <enabled>TRUE</enabled>
                        <duration>173</duration>
                        <rate>
                            <timebase>25</timebase>
                            <ntsc>FALSE</ntsc>
                        </rate>
                        <start>1776</start>
                        <end>1815</end>
                        <in>59</in>
                        <out>98</out>
                        <file id="file-15">
                            <name>B002C030_190618_K136.mov</name>
                            <pathurl>file://localhost/Volumes/PIGSTORE/Projects/rema_smartboat_0299_jun_2019/editorial/proxies/B002C030_190618_K136.mov</pathurl>
                            <rate>
                                <timebase>25</timebase>
                                <ntsc>FALSE</ntsc>
                            </rate>
                            <duration>695</duration>
                            <timecode>
                                <rate>
                                    <timebase>25</timebase>
                                    <ntsc>FALSE</ntsc>
                                </rate>
                                <string>12:46:11:22</string>
                                <frame>1149297</frame>
                                <displayformat>NDF</displayformat>
                            </timecode>
                            <media>
                                <video>
                                    <samplecharacteristics>
                                        <rate>
                                            <timebase>25</timebase>
                                            <ntsc>FALSE</ntsc>
                                        </rate>
                                        <width>1920</width>
                                        <height>1080</height>
                                        <anamorphic>FALSE</anamorphic>
                                        <pixelaspectratio>square</pixelaspectratio>
                                        <fielddominance>none</fielddominance>
                                    </samplecharacteristics>
                                </video>
                                <audio>
                                    <samplecharacteristics>
                                        <depth>16</depth>
                                        <samplerate>48000</samplerate>
                                    </samplecharacteristics>
                                    <channelcount>1</channelcount>
                                    <audiochannel>
                                        <sourcechannel>1</sourcechannel>
                                    </audiochannel>
                                </audio>
                            </media>
                        </file>
                        <filter/>
                        <labels>
                            <label2>VFX</label2>
                        </labels>
                    </clipitem>
                    <clipitem id="shot_0029">
                        <masterclipid>shot_0029</masterclipid>
                        <name>B002C030_190618_K136.mov</name>
                        <enabled>TRUE</enabled>
                        <duration>173</duration>
                        <rate>
                            <timebase>25</timebase>
                            <ntsc>FALSE</ntsc>
                        </rate>
                        <start>1840</start>
                        <end>1879</end>
                        <in>59</in>
                        <out>98</out>
                        <file id="file-15">
                            <name>B002C030_190618_K136.mov</name>
                            <pathurl>file://localhost/Volumes/PIGSTORE/Projects/rema_smartboat_0299_jun_2019/editorial/proxies/B002C030_190618_K136.mov</pathurl>
                            <rate>
                                <timebase>25</timebase>
                                <ntsc>FALSE</ntsc>
                            </rate>
                            <duration>695</duration>
                            <timecode>
                                <rate>
                                    <timebase>25</timebase>
                                    <ntsc>FALSE</ntsc>
                                </rate>
                                <string>12:46:11:22</string>
                                <frame>1149297</frame>
                                <displayformat>NDF</displayformat>
                            </timecode>
                            <media>
                                <video>
                                    <samplecharacteristics>
                                        <rate>
                                            <timebase>25</timebase>
                                            <ntsc>FALSE</ntsc>
                                        </rate>
                                        <width>1920</width>
                                        <height>1080</height>
                                        <anamorphic>FALSE</anamorphic>
                                        <pixelaspectratio>square</pixelaspectratio>
                                        <fielddominance>none</fielddominance>
                                    </samplecharacteristics>
                                </video>
                                <audio>
                                    <samplecharacteristics>
                                        <depth>16</depth>
                                        <samplerate>48000</samplerate>
                                    </samplecharacteristics>
                                    <channelcount>1</channelcount>
                                    <audiochannel>
                                        <sourcechannel>1</sourcechannel>
                                    </audiochannel>
                                </audio>
                            </media>
                        </file>
                        <filter/>
                        <labels>
                            <label2>VFX</label2>
                        </labels>
                    </clipitem>
                    <clipitem id="shot_0030">
                        <masterclipid>shot_0030</masterclipid>
                        <name>B002C030_190618_K136.mov</name>
                        <enabled>TRUE</enabled>
                        <duration>173</duration>
                        <rate>
                            <timebase>25</timebase>
                            <ntsc>FALSE</ntsc>
                        </rate>
                        <start>1904</start>
                        <end>1943</end>
                        <in>59</in>
                        <out>98</out>
                        <file id="file-15">
                            <name>B002C030_190618_K136.mov</name>
                            <pathurl>file://localhost/Volumes/PIGSTORE/Projects/rema_smartboat_0299_jun_2019/editorial/proxies/B002C030_190618_K136.mov</pathurl>
                            <rate>
                                <timebase>25</timebase>
                                <ntsc>FALSE</ntsc>
                            </rate>
                            <duration>695</duration>
                            <timecode>
                                <rate>
                                    <timebase>25</timebase>
                                    <ntsc>FALSE</ntsc>
                                </rate>
                                <string>12:46:11:22</string>
                                <frame>1149297</frame>
                                <displayformat>NDF</displayformat>
                            </timecode>
                            <media>
                                <video>
                                    <samplecharacteristics>
                                        <rate>
                                            <timebase>25</timebase>
                                            <ntsc>FALSE</ntsc>
                                        </rate>
                                        <width>1920</width>
                                        <height>1080</height>
                                        <anamorphic>FALSE</anamorphic>
                                        <pixelaspectratio>square</pixelaspectratio>
                                        <fielddominance>none</fielddominance>
                                    </samplecharacteristics>
                                </video>
                                <audio>
                                    <samplecharacteristics>
                                        <depth>16</depth>
                                        <samplerate>48000</samplerate>
                                    </samplecharacteristics>
                                    <channelcount>1</channelcount>
                                    <audiochannel>
                                        <sourcechannel>1</sourcechannel>
                                    </audiochannel>
                                </audio>
                            </media>
                        </file>
                        <filter/>
                        <labels>
                            <label2>VFX</label2>
                        </labels>
                    </clipitem>
                    <clipitem id="shot_0031">
                        <masterclipid>shot_0031</masterclipid>
                        <name>B002C030_190618_K136.mov</name>
                        <enabled>TRUE</enabled>
                        <duration>173</duration>
                        <rate>
                            <timebase>25</timebase>
                            <ntsc>FALSE</ntsc>
                        </rate>
                        <start>1968</start>
                        <end>2007</end>
                        <in>59</in>
                        <out>98</out>
                        <file id="file-15">
                            <name>B002C030_190618_K136.mov</name>
                            <pathurl>file://localhost/Volumes/PIGSTORE/Projects/rema_smartboat_0299_jun_2019/editorial/proxies/B002C030_190618_K136.mov</pathurl>
                            <rate>
                                <timebase>25</timebase>
                                <ntsc>FALSE</ntsc>
                            </rate>
                            <duration>695</duration>
                            <timecode>
                                <rate>
                                    <timebase>25</timebase>
                                    <ntsc>FALSE</ntsc>
                                </rate>
                                <string>12:46:11:22</string>
                                <frame>1149297</frame>
                                <displayformat>NDF</displayformat>
                            </timecode>
                            <media>
                                <video>
                                    <samplecharacteristics>
                                        <rate>
                                            <timebase>25</timebase>
                                            <ntsc>FALSE</ntsc>
                                        </rate>
                                        <width>1920</width>
                                        <height>1080</height>
                                        <anamorphic>FALSE</anamorphic>
                                        <pixelaspectratio>square</pixelaspectratio>
                                        <fielddominance>none</fielddominance>
                                    </samplecharacteristics>
                                </video>
                                <audio>
                                    <samplecharacteristics>
                                        <depth>16</depth>
                                        <samplerate>48000</samplerate>
                                    </samplecharacteristics>
                                    <channelcount>1</channelcount>
                                    <audiochannel>
                                        <sourcechannel>1</sourcechannel>
                                    </audiochannel>
                                </audio>
                            </media>
                        </file>
                        <filter/>
                        <labels>
                            <label2>VFX</label2>
                        </labels>
                    </clipitem>
                    <clipitem id="shot_0032">
                        <masterclipid>shot_0032</masterclipid>
                        <name>A001C010_190628_K136.mov</name>
                        <enabled>TRUE</enabled>
                        <duration>7449</duration>
                        <rate>
                            <timebase>25</timebase>
                            <ntsc>FALSE</ntsc>
                        </rate>
                        <start>2032</start>
                        <end>2056</end>
                        <in>3238</in>
                        <out>3262</out>
                        <file id="file-16">
                            <name>A001C010_190628_K136.mov</name>
                            <pathurl>file://localhost/Volumes/PIGSTORE/Projects/rema_smartboat_0299_jun_2019/editorial/proxies/A001C010_190628_K136.mov</pathurl>
                            <rate>
                                <timebase>25</timebase>
                                <ntsc>FALSE</ntsc>
                            </rate>
                            <duration>7449</duration>
                            <timecode>
                                <rate>
                                    <timebase>25</timebase>
                                    <ntsc>FALSE</ntsc>
                                </rate>
                                <string>04:46:44:19</string>
                                <frame>430119</frame>
                                <displayformat>NDF</displayformat>
                            </timecode>
                            <media>
                                <video>
                                    <samplecharacteristics>
                                        <rate>
                                            <timebase>25</timebase>
                                            <ntsc>FALSE</ntsc>
                                        </rate>
                                        <width>1920</width>
                                        <height>1080</height>
                                        <anamorphic>FALSE</anamorphic>
                                        <pixelaspectratio>square</pixelaspectratio>
                                        <fielddominance>none</fielddominance>
                                    </samplecharacteristics>
                                </video>
                            </media>
                        </file>
                        <filter/>
                        <labels>
                            <label2>VFX</label2>
                        </labels>
                    </clipitem>
                    <clipitem id="shot_0033">
                        <masterclipid>shot_0033</masterclipid>
                        <name>A001C010_190628_K136.mov</name>
                        <enabled>TRUE</enabled>
                        <duration>7449</duration>
                        <rate>
                            <timebase>25</timebase>
                            <ntsc>FALSE</ntsc>
                        </rate>
                        <start>2081</start>
                        <end>2105</end>
                        <in>3238</in>
                        <out>3262</out>
                        <file id="file-16">
                            <name>A001C010_190628_K136.mov</name>
                            <pathurl>file://localhost/Volumes/PIGSTORE/Projects/rema_smartboat_0299_jun_2019/editorial/proxies/A001C010_190628_K136.mov</pathurl>
                            <rate>
                                <timebase>25</timebase>
                                <ntsc>FALSE</ntsc>
                            </rate>
                            <duration>7449</duration>
                            <timecode>
                                <rate>
                                    <timebase>25</timebase>
                                    <ntsc>FALSE</ntsc>
                                </rate>
                                <string>04:46:44:19</string>
                                <frame>430119</frame>
                                <displayformat>NDF</displayformat>
                            </timecode>
                            <media>
                                <video>
                                    <samplecharacteristics>
                                        <rate>
                                            <timebase>25</timebase>
                                            <ntsc>FALSE</ntsc>
                                        </rate>
                                        <width>1920</width>
                                        <height>1080</height>
                                        <anamorphic>FALSE</anamorphic>
                                        <pixelaspectratio>square</pixelaspectratio>
                                        <fielddominance>none</fielddominance>
                                    </samplecharacteristics>
                                </video>
                            </media>
                        </file>
                        <filter/>
                        <labels>
                            <label2>VFX</label2>
                        </labels>
                    </clipitem>
                    <clipitem id="shot_0034">
                        <masterclipid>shot_0034</masterclipid>
                        <name>A002C001_190617_K1TL.mov</name>
                        <enabled>TRUE</enabled>
                        <duration>1119</duration>
                        <rate>
                            <timebase>25</timebase>
                            <ntsc>FALSE</ntsc>
                        </rate>
                        <start>2130</start>
                        <end>2201</end>
                        <in>613</in>
                        <out>684</out>
                        <file id="file-17">
                            <name>A002C001_190617_K1TL.mov</name>
                            <pathurl>file://localhost/Volumes/PIGSTORE/Projects/rema_smartboat_0299_jun_2019/editorial/proxies/A002C001_190617_K1TL.mov</pathurl>
                            <rate>
                                <timebase>25</timebase>
                                <ntsc>FALSE</ntsc>
                            </rate>
                            <duration>1119</duration>
                            <timecode>
                                <rate>
                                    <timebase>25</timebase>
                                    <ntsc>FALSE</ntsc>
                                </rate>
                                <string>13:44:59:22</string>
                                <frame>1237497</frame>
                                <displayformat>NDF</displayformat>
                            </timecode>
                            <media>
                                <video>
                                    <samplecharacteristics>
                                        <rate>
                                            <timebase>25</timebase>
                                            <ntsc>FALSE</ntsc>
                                        </rate>
                                        <width>1920</width>
                                        <height>1080</height>
                                        <anamorphic>FALSE</anamorphic>
                                        <pixelaspectratio>square</pixelaspectratio>
                                        <fielddominance>none</fielddominance>
                                    </samplecharacteristics>
                                </video>
                                <audio>
                                    <samplecharacteristics>
                                        <depth>16</depth>
                                        <samplerate>48000</samplerate>
                                    </samplecharacteristics>
                                    <channelcount>1</channelcount>
                                    <audiochannel>
                                        <sourcechannel>1</sourcechannel>
                                    </audiochannel>
                                </audio>
                            </media>
                        </file>
                        <filter/>
                        <labels>
                            <label2>VFX</label2>
                        </labels>
                    </clipitem>
                    <clipitem id="shot_0035">
                        <masterclipid>shot_0035</masterclipid>
                        <name>A002C001_190617_K1TL.mov</name>
                        <enabled>TRUE</enabled>
                        <duration>1119</duration>
                        <rate>
                            <timebase>25</timebase>
                            <ntsc>FALSE</ntsc>
                        </rate>
                        <start>2226</start>
                        <end>2297</end>
                        <in>613</in>
                        <out>684</out>
                        <file id="file-17">
                            <name>A002C001_190617_K1TL.mov</name>
                            <pathurl>file://localhost/Volumes/PIGSTORE/Projects/rema_smartboat_0299_jun_2019/editorial/proxies/A002C001_190617_K1TL.mov</pathurl>
                            <rate>
                                <timebase>25</timebase>
                                <ntsc>FALSE</ntsc>
                            </rate>
                            <duration>1119</duration>
                            <timecode>
                                <rate>
                                    <timebase>25</timebase>
                                    <ntsc>FALSE</ntsc>
                                </rate>
                                <string>13:44:59:22</string>
                                <frame>1237497</frame>
                                <displayformat>NDF</displayformat>
                            </timecode>
                            <media>
                                <video>
                                    <samplecharacteristics>
                                        <rate>
                                            <timebase>25</timebase>
                                            <ntsc>FALSE</ntsc>
                                        </rate>
                                        <width>1920</width>
                                        <height>1080</height>
                                        <anamorphic>FALSE</anamorphic>
                                        <pixelaspectratio>square</pixelaspectratio>
                                        <fielddominance>none</fielddominance>
                                    </samplecharacteristics>
                                </video>
                                <audio>
                                    <samplecharacteristics>
                                        <depth>16</depth>
                                        <samplerate>48000</samplerate>
                                    </samplecharacteristics>
                                    <channelcount>1</channelcount>
                                    <audiochannel>
                                        <sourcechannel>1</sourcechannel>
                                    </audiochannel>
                                </audio>
                            </media>
                        </file>
                        <filter/>
                        <labels>
                            <label2>VFX</label2>
                        </labels>
                    </clipitem>
                    <clipitem id="shot_0036">
                        <masterclipid>shot_0036</masterclipid>
                        <name>A002C001_190617_K1TL.mov</name>
                        <enabled>TRUE</enabled>
                        <duration>1119</duration>
                        <rate>
                            <timebase>25</timebase>
                            <ntsc>FALSE</ntsc>
                        </rate>
                        <start>2322</start>
                        <end>2393</end>
                        <in>613</in>
                        <out>684</out>
                        <file id="file-17">
                            <name>A002C001_190617_K1TL.mov</name>
                            <pathurl>file://localhost/Volumes/PIGSTORE/Projects/rema_smartboat_0299_jun_2019/editorial/proxies/A002C001_190617_K1TL.mov</pathurl>
                            <rate>
                                <timebase>25</timebase>
                                <ntsc>FALSE</ntsc>
                            </rate>
                            <duration>1119</duration>
                            <timecode>
                                <rate>
                                    <timebase>25</timebase>
                                    <ntsc>FALSE</ntsc>
                                </rate>
                                <string>13:44:59:22</string>
                                <frame>1237497</frame>
                                <displayformat>NDF</displayformat>
                            </timecode>
                            <media>
                                <video>
                                    <samplecharacteristics>
                                        <rate>
                                            <timebase>25</timebase>
                                            <ntsc>FALSE</ntsc>
                                        </rate>
                                        <width>1920</width>
                                        <height>1080</height>
                                        <anamorphic>FALSE</anamorphic>
                                        <pixelaspectratio>square</pixelaspectratio>
                                        <fielddominance>none</fielddominance>
                                    </samplecharacteristics>
                                </video>
                                <audio>
                                    <samplecharacteristics>
                                        <depth>16</depth>
                                        <samplerate>48000</samplerate>
                                    </samplecharacteristics>
                                    <channelcount>1</channelcount>
                                    <audiochannel>
                                        <sourcechannel>1</sourcechannel>
                                    </audiochannel>
                                </audio>
                            </media>
                        </file>
                        <filter/>
                        <labels>
                            <label2>VFX</label2>
                        </labels>
                    </clipitem>
                    <clipitem id="shot_0037">
                        <masterclipid>shot_0037</masterclipid>
                        <name>A003C003_190617_K1TL.mov</name>
                        <enabled>TRUE</enabled>
                        <duration>3053</duration>
                        <rate>
                            <timebase>25</timebase>
                            <ntsc>FALSE</ntsc>
                        </rate>
                        <start>2418</start>
                        <end>2476</end>
                        <in>2455</in>
                        <out>2513</out>
                        <file id="file-18">
                            <name>A003C003_190617_K1TL.mov</name>
                            <pathurl>file://localhost/Volumes/PIGSTORE/Projects/rema_smartboat_0299_jun_2019/editorial/proxies/A003C003_190617_K1TL.mov</pathurl>
                            <rate>
                                <timebase>25</timebase>
                                <ntsc>FALSE</ntsc>
                            </rate>
                            <duration>3053</duration>
                            <timecode>
                                <rate>
                                    <timebase>25</timebase>
                                    <ntsc>FALSE</ntsc>
                                </rate>
                                <string>15:41:21:02</string>
                                <frame>1412027</frame>
                                <displayformat>NDF</displayformat>
                            </timecode>
                            <media>
                                <video>
                                    <samplecharacteristics>
                                        <rate>
                                            <timebase>25</timebase>
                                            <ntsc>FALSE</ntsc>
                                        </rate>
                                        <width>1920</width>
                                        <height>1080</height>
                                        <anamorphic>FALSE</anamorphic>
                                        <pixelaspectratio>square</pixelaspectratio>
                                        <fielddominance>none</fielddominance>
                                    </samplecharacteristics>
                                </video>
                                <audio>
                                    <samplecharacteristics>
                                        <depth>16</depth>
                                        <samplerate>48000</samplerate>
                                    </samplecharacteristics>
                                    <channelcount>1</channelcount>
                                    <audiochannel>
                                        <sourcechannel>1</sourcechannel>
                                    </audiochannel>
                                </audio>
                            </media>
                        </file>
                        <filter/>
                        <labels>
                            <label2>VFX</label2>
                        </labels>
                    </clipitem>
                    <clipitem id="shot_0038">
                        <masterclipid>shot_0038</masterclipid>
                        <name>A003C003_190617_K1TL.mov</name>
                        <enabled>TRUE</enabled>
                        <duration>3053</duration>
                        <rate>
                            <timebase>25</timebase>
                            <ntsc>FALSE</ntsc>
                        </rate>
                        <start>2501</start>
                        <end>2559</end>
                        <in>2455</in>
                        <out>2513</out>
                        <file id="file-18">
                            <name>A003C003_190617_K1TL.mov</name>
                            <pathurl>file://localhost/Volumes/PIGSTORE/Projects/rema_smartboat_0299_jun_2019/editorial/proxies/A003C003_190617_K1TL.mov</pathurl>
                            <rate>
                                <timebase>25</timebase>
                                <ntsc>FALSE</ntsc>
                            </rate>
                            <duration>3053</duration>
                            <timecode>
                                <rate>
                                    <timebase>25</timebase>
                                    <ntsc>FALSE</ntsc>
                                </rate>
                                <string>15:41:21:02</string>
                                <frame>1412027</frame>
                                <displayformat>NDF</displayformat>
                            </timecode>
                            <media>
                                <video>
                                    <samplecharacteristics>
                                        <rate>
                                            <timebase>25</timebase>
                                            <ntsc>FALSE</ntsc>
                                        </rate>
                                        <width>1920</width>
                                        <height>1080</height>
                                        <anamorphic>FALSE</anamorphic>
                                        <pixelaspectratio>square</pixelaspectratio>
                                        <fielddominance>none</fielddominance>
                                    </samplecharacteristics>
                                </video>
                                <audio>
                                    <samplecharacteristics>
                                        <depth>16</depth>
                                        <samplerate>48000</samplerate>
                                    </samplecharacteristics>
                                    <channelcount>1</channelcount>
                                    <audiochannel>
                                        <sourcechannel>1</sourcechannel>
                                    </audiochannel>
                                </audio>
                            </media>
                        </file>
                        <filter/>
                        <labels>
                            <label2>VFX</label2>
                        </labels>
                    </clipitem>
                    <clipitem id="shot_0039">
                        <masterclipid>shot_0039</masterclipid>
                        <name>B001C009_190617_K136.mov</name>
                        <enabled>TRUE</enabled>
                        <duration>1217</duration>
                        <rate>
                            <timebase>25</timebase>
                            <ntsc>FALSE</ntsc>
                        </rate>
                        <start>2584</start>
                        <end>2633</end>
                        <in>370</in>
                        <out>419</out>
                        <file id="file-19">
                            <name>B001C009_190617_K136.mov</name>
                            <pathurl>file://localhost/Volumes/PIGSTORE/Projects/rema_smartboat_0299_jun_2019/editorial/proxies/B001C009_190617_K136.mov</pathurl>
                            <rate>
                                <timebase>25</timebase>
                                <ntsc>FALSE</ntsc>
                            </rate>
                            <duration>1217</duration>
                            <timecode>
                                <rate>
                                    <timebase>25</timebase>
                                    <ntsc>FALSE</ntsc>
                                </rate>
                                <string>17:49:25:23</string>
                                <frame>1604148</frame>
                                <displayformat>NDF</displayformat>
                            </timecode>
                            <media>
                                <video>
                                    <samplecharacteristics>
                                        <rate>
                                            <timebase>25</timebase>
                                            <ntsc>FALSE</ntsc>
                                        </rate>
                                        <width>1920</width>
                                        <height>1080</height>
                                        <anamorphic>FALSE</anamorphic>
                                        <pixelaspectratio>square</pixelaspectratio>
                                        <fielddominance>none</fielddominance>
                                    </samplecharacteristics>
                                </video>
                                <audio>
                                    <samplecharacteristics>
                                        <depth>16</depth>
                                        <samplerate>48000</samplerate>
                                    </samplecharacteristics>
                                    <channelcount>1</channelcount>
                                    <audiochannel>
                                        <sourcechannel>1</sourcechannel>
                                    </audiochannel>
                                </audio>
                            </media>
                        </file>
                        <filter/>
                        <labels>
                            <label2>VFX</label2>
                        </labels>
                    </clipitem>
                    <clipitem id="shot_0040">
                        <masterclipid>shot_0040</masterclipid>
                        <name>B001C009_190617_K136.mov</name>
                        <enabled>TRUE</enabled>
                        <duration>1217</duration>
                        <rate>
                            <timebase>25</timebase>
                            <ntsc>FALSE</ntsc>
                        </rate>
                        <start>2658</start>
                        <end>2707</end>
                        <in>370</in>
                        <out>419</out>
                        <file id="file-19">
                            <name>B001C009_190617_K136.mov</name>
                            <pathurl>file://localhost/Volumes/PIGSTORE/Projects/rema_smartboat_0299_jun_2019/editorial/proxies/B001C009_190617_K136.mov</pathurl>
                            <rate>
                                <timebase>25</timebase>
                                <ntsc>FALSE</ntsc>
                            </rate>
                            <duration>1217</duration>
                            <timecode>
                                <rate>
                                    <timebase>25</timebase>
                                    <ntsc>FALSE</ntsc>
                                </rate>
                                <string>17:49:25:23</string>
                                <frame>1604148</frame>
                                <displayformat>NDF</displayformat>
                            </timecode>
                            <media>
                                <video>
                                    <samplecharacteristics>
                                        <rate>
                                            <timebase>25</timebase>
                                            <ntsc>FALSE</ntsc>
                                        </rate>
                                        <width>1920</width>
                                        <height>1080</height>
                                        <anamorphic>FALSE</anamorphic>
                                        <pixelaspectratio>square</pixelaspectratio>
                                        <fielddominance>none</fielddominance>
                                    </samplecharacteristics>
                                </video>
                                <audio>
                                    <samplecharacteristics>
                                        <depth>16</depth>
                                        <samplerate>48000</samplerate>
                                    </samplecharacteristics>
                                    <channelcount>1</channelcount>
                                    <audiochannel>
                                        <sourcechannel>1</sourcechannel>
                                    </audiochannel>
                                </audio>
                            </media>
                        </file>
                        <filter/>
                        <labels>
                            <label2>VFX</label2>
                        </labels>
                    </clipitem>
                    <clipitem id="shot_0041">
                        <masterclipid>shot_0041</masterclipid>
                        <name>B003C017_190618_K136.mov</name>
                        <enabled>TRUE</enabled>
                        <duration>1688</duration>
                        <rate>
                            <timebase>25</timebase>
                            <ntsc>FALSE</ntsc>
                        </rate>
                        <start>2732</start>
                        <end>2761</end>
                        <in>228</in>
                        <out>257</out>
                        <file id="file-20">
                            <name>B003C017_190618_K136.mov</name>
                            <pathurl>file://localhost/Volumes/PIGSTORE/Projects/rema_smartboat_0299_jun_2019/editorial/proxies/B003C017_190618_K136.mov</pathurl>
                            <rate>
                                <timebase>25</timebase>
                                <ntsc>FALSE</ntsc>
                            </rate>
                            <duration>1688</duration>
                            <timecode>
                                <rate>
                                    <timebase>25</timebase>
                                    <ntsc>FALSE</ntsc>
                                </rate>
                                <string>02:18:42:13</string>
                                <frame>208063</frame>
                                <displayformat>NDF</displayformat>
                            </timecode>
                            <media>
                                <video>
                                    <samplecharacteristics>
                                        <rate>
                                            <timebase>25</timebase>
                                            <ntsc>FALSE</ntsc>
                                        </rate>
                                        <width>1920</width>
                                        <height>1080</height>
                                        <anamorphic>FALSE</anamorphic>
                                        <pixelaspectratio>square</pixelaspectratio>
                                        <fielddominance>none</fielddominance>
                                    </samplecharacteristics>
                                </video>
                                <audio>
                                    <samplecharacteristics>
                                        <depth>16</depth>
                                        <samplerate>48000</samplerate>
                                    </samplecharacteristics>
                                    <channelcount>1</channelcount>
                                    <audiochannel>
                                        <sourcechannel>1</sourcechannel>
                                    </audiochannel>
                                </audio>
                                <audio>
                                    <samplecharacteristics>
                                        <depth>16</depth>
                                        <samplerate>48000</samplerate>
                                    </samplecharacteristics>
                                    <channelcount>1</channelcount>
                                    <audiochannel>
                                        <sourcechannel>2</sourcechannel>
                                    </audiochannel>
                                </audio>
                                <audio>
                                    <samplecharacteristics>
                                        <depth>16</depth>
                                        <samplerate>48000</samplerate>
                                    </samplecharacteristics>
                                    <channelcount>1</channelcount>
                                    <audiochannel>
                                        <sourcechannel>3</sourcechannel>
                                    </audiochannel>
                                </audio>
                                <audio>
                                    <samplecharacteristics>
                                        <depth>16</depth>
                                        <samplerate>48000</samplerate>
                                    </samplecharacteristics>
                                    <channelcount>1</channelcount>
                                    <audiochannel>
                                        <sourcechannel>4</sourcechannel>
                                    </audiochannel>
                                </audio>
                                <audio>
                                    <samplecharacteristics>
                                        <depth>16</depth>
                                        <samplerate>48000</samplerate>
                                    </samplecharacteristics>
                                    <channelcount>1</channelcount>
                                    <audiochannel>
                                        <sourcechannel>5</sourcechannel>
                                    </audiochannel>
                                </audio>
                            </media>
                        </file>
                        <filter/>
                        <labels>
                            <label2>VFX</label2>
                        </labels>
                    </clipitem>
                    <clipitem id="shot_0042">
                        <masterclipid>shot_0042</masterclipid>
                        <name>B003C017_190618_K136.mov</name>
                        <enabled>TRUE</enabled>
                        <duration>1688</duration>
                        <rate>
                            <timebase>25</timebase>
                            <ntsc>FALSE</ntsc>
                        </rate>
                        <start>2786</start>
                        <end>2815</end>
                        <in>228</in>
                        <out>257</out>
                        <file id="file-20">
                            <name>B003C017_190618_K136.mov</name>
                            <pathurl>file://localhost/Volumes/PIGSTORE/Projects/rema_smartboat_0299_jun_2019/editorial/proxies/B003C017_190618_K136.mov</pathurl>
                            <rate>
                                <timebase>25</timebase>
                                <ntsc>FALSE</ntsc>
                            </rate>
                            <duration>1688</duration>
                            <timecode>
                                <rate>
                                    <timebase>25</timebase>
                                    <ntsc>FALSE</ntsc>
                                </rate>
                                <string>02:18:42:13</string>
                                <frame>208063</frame>
                                <displayformat>NDF</displayformat>
                            </timecode>
                            <media>
                                <video>
                                    <samplecharacteristics>
                                        <rate>
                                            <timebase>25</timebase>
                                            <ntsc>FALSE</ntsc>
                                        </rate>
                                        <width>1920</width>
                                        <height>1080</height>
                                        <anamorphic>FALSE</anamorphic>
                                        <pixelaspectratio>square</pixelaspectratio>
                                        <fielddominance>none</fielddominance>
                                    </samplecharacteristics>
                                </video>
                                <audio>
                                    <samplecharacteristics>
                                        <depth>16</depth>
                                        <samplerate>48000</samplerate>
                                    </samplecharacteristics>
                                    <channelcount>1</channelcount>
                                    <audiochannel>
                                        <sourcechannel>1</sourcechannel>
                                    </audiochannel>
                                </audio>
                                <audio>
                                    <samplecharacteristics>
                                        <depth>16</depth>
                                        <samplerate>48000</samplerate>
                                    </samplecharacteristics>
                                    <channelcount>1</channelcount>
                                    <audiochannel>
                                        <sourcechannel>2</sourcechannel>
                                    </audiochannel>
                                </audio>
                                <audio>
                                    <samplecharacteristics>
                                        <depth>16</depth>
                                        <samplerate>48000</samplerate>
                                    </samplecharacteristics>
                                    <channelcount>1</channelcount>
                                    <audiochannel>
                                        <sourcechannel>3</sourcechannel>
                                    </audiochannel>
                                </audio>
                                <audio>
                                    <samplecharacteristics>
                                        <depth>16</depth>
                                        <samplerate>48000</samplerate>
                                    </samplecharacteristics>
                                    <channelcount>1</channelcount>
                                    <audiochannel>
                                        <sourcechannel>4</sourcechannel>
                                    </audiochannel>
                                </audio>
                                <audio>
                                    <samplecharacteristics>
                                        <depth>16</depth>
                                        <samplerate>48000</samplerate>
                                    </samplecharacteristics>
                                    <channelcount>1</channelcount>
                                    <audiochannel>
                                        <sourcechannel>5</sourcechannel>
                                    </audiochannel>
                                </audio>
                            </media>
                        </file>
                        <filter/>
                        <labels>
                            <label2>VFX</label2>
                        </labels>
                    </clipitem>
                    <clipitem id="shot_0043">
                        <masterclipid>shot_0043</masterclipid>
                        <name>A006C019_190619_K1TL.mov</name>
                        <enabled>TRUE</enabled>
                        <duration>628</duration>
                        <rate>
                            <timebase>25</timebase>
                            <ntsc>FALSE</ntsc>
                        </rate>
                        <start>2840</start>
                        <end>2868</end>
                        <in>151</in>
                        <out>179</out>
                        <file id="file-21">
                            <name>A006C019_190619_K1TL.mov</name>
                            <pathurl>file://localhost/Volumes/PIGSTORE/Projects/rema_smartboat_0299_jun_2019/editorial/proxies/A006C019_190619_K1TL.mov</pathurl>
                            <rate>
                                <timebase>25</timebase>
                                <ntsc>FALSE</ntsc>
                            </rate>
                            <duration>628</duration>
                            <timecode>
                                <rate>
                                    <timebase>25</timebase>
                                    <ntsc>FALSE</ntsc>
                                </rate>
                                <string>11:19:46:24</string>
                                <frame>1019674</frame>
                                <displayformat>NDF</displayformat>
                            </timecode>
                            <media>
                                <video>
                                    <samplecharacteristics>
                                        <rate>
                                            <timebase>25</timebase>
                                            <ntsc>FALSE</ntsc>
                                        </rate>
                                        <width>1920</width>
                                        <height>1080</height>
                                        <anamorphic>FALSE</anamorphic>
                                        <pixelaspectratio>square</pixelaspectratio>
                                        <fielddominance>none</fielddominance>
                                    </samplecharacteristics>
                                </video>
                                <audio>
                                    <samplecharacteristics>
                                        <depth>16</depth>
                                        <samplerate>48000</samplerate>
                                    </samplecharacteristics>
                                    <channelcount>1</channelcount>
                                    <audiochannel>
                                        <sourcechannel>1</sourcechannel>
                                    </audiochannel>
                                </audio>
                                <audio>
                                    <samplecharacteristics>
                                        <depth>16</depth>
                                        <samplerate>48000</samplerate>
                                    </samplecharacteristics>
                                    <channelcount>1</channelcount>
                                    <audiochannel>
                                        <sourcechannel>2</sourcechannel>
                                    </audiochannel>
                                </audio>
                                <audio>
                                    <samplecharacteristics>
                                        <depth>16</depth>
                                        <samplerate>48000</samplerate>
                                    </samplecharacteristics>
                                    <channelcount>1</channelcount>
                                    <audiochannel>
                                        <sourcechannel>3</sourcechannel>
                                    </audiochannel>
                                </audio>
                                <audio>
                                    <samplecharacteristics>
                                        <depth>16</depth>
                                        <samplerate>48000</samplerate>
                                    </samplecharacteristics>
                                    <channelcount>1</channelcount>
                                    <audiochannel>
                                        <sourcechannel>4</sourcechannel>
                                    </audiochannel>
                                </audio>
                            </media>
                        </file>
                        <filter/>
                        <labels>
                            <label2>VFX</label2>
                        </labels>
                    </clipitem>
                    <clipitem id="shot_0044">
                        <masterclipid>shot_0044</masterclipid>
                        <name>A006C019_190619_K1TL.mov</name>
                        <enabled>TRUE</enabled>
                        <duration>628</duration>
                        <rate>
                            <timebase>25</timebase>
                            <ntsc>FALSE</ntsc>
                        </rate>
                        <start>2893</start>
                        <end>2921</end>
                        <in>151</in>
                        <out>179</out>
                        <file id="file-21">
                            <name>A006C019_190619_K1TL.mov</name>
                            <pathurl>file://localhost/Volumes/PIGSTORE/Projects/rema_smartboat_0299_jun_2019/editorial/proxies/A006C019_190619_K1TL.mov</pathurl>
                            <rate>
                                <timebase>25</timebase>
                                <ntsc>FALSE</ntsc>
                            </rate>
                            <duration>628</duration>
                            <timecode>
                                <rate>
                                    <timebase>25</timebase>
                                    <ntsc>FALSE</ntsc>
                                </rate>
                                <string>11:19:46:24</string>
                                <frame>1019674</frame>
                                <displayformat>NDF</displayformat>
                            </timecode>
                            <media>
                                <video>
                                    <samplecharacteristics>
                                        <rate>
                                            <timebase>25</timebase>
                                            <ntsc>FALSE</ntsc>
                                        </rate>
                                        <width>1920</width>
                                        <height>1080</height>
                                        <anamorphic>FALSE</anamorphic>
                                        <pixelaspectratio>square</pixelaspectratio>
                                        <fielddominance>none</fielddominance>
                                    </samplecharacteristics>
                                </video>
                                <audio>
                                    <samplecharacteristics>
                                        <depth>16</depth>
                                        <samplerate>48000</samplerate>
                                    </samplecharacteristics>
                                    <channelcount>1</channelcount>
                                    <audiochannel>
                                        <sourcechannel>1</sourcechannel>
                                    </audiochannel>
                                </audio>
                                <audio>
                                    <samplecharacteristics>
                                        <depth>16</depth>
                                        <samplerate>48000</samplerate>
                                    </samplecharacteristics>
                                    <channelcount>1</channelcount>
                                    <audiochannel>
                                        <sourcechannel>2</sourcechannel>
                                    </audiochannel>
                                </audio>
                                <audio>
                                    <samplecharacteristics>
                                        <depth>16</depth>
                                        <samplerate>48000</samplerate>
                                    </samplecharacteristics>
                                    <channelcount>1</channelcount>
                                    <audiochannel>
                                        <sourcechannel>3</sourcechannel>
                                    </audiochannel>
                                </audio>
                                <audio>
                                    <samplecharacteristics>
                                        <depth>16</depth>
                                        <samplerate>48000</samplerate>
                                    </samplecharacteristics>
                                    <channelcount>1</channelcount>
                                    <audiochannel>
                                        <sourcechannel>4</sourcechannel>
                                    </audiochannel>
                                </audio>
                            </media>
                        </file>
                        <filter/>
                        <labels>
                            <label2>VFX</label2>
                        </labels>
                    </clipitem>
                    <clipitem id="shot_0045">
                        <masterclipid>shot_0045</masterclipid>
                        <name>A006C009_190619_K1TL.mov</name>
                        <enabled>TRUE</enabled>
                        <duration>2052</duration>
                        <rate>
                            <timebase>25</timebase>
                            <ntsc>FALSE</ntsc>
                        </rate>
                        <start>2946</start>
                        <end>2967</end>
                        <in>1801</in>
                        <out>1822</out>
                        <file id="file-22">
                            <name>A006C009_190619_K1TL.mov</name>
                            <pathurl>file://localhost/Volumes/PIGSTORE/Projects/rema_smartboat_0299_jun_2019/editorial/proxies/A006C009_190619_K1TL.mov</pathurl>
                            <rate>
                                <timebase>25</timebase>
                                <ntsc>FALSE</ntsc>
                            </rate>
                            <duration>2052</duration>
                            <timecode>
                                <rate>
                                    <timebase>25</timebase>
                                    <ntsc>FALSE</ntsc>
                                </rate>
                                <string>10:28:25:10</string>
                                <frame>942635</frame>
                                <displayformat>NDF</displayformat>
                            </timecode>
                            <media>
                                <video>
                                    <samplecharacteristics>
                                        <rate>
                                            <timebase>25</timebase>
                                            <ntsc>FALSE</ntsc>
                                        </rate>
                                        <width>1920</width>
                                        <height>1080</height>
                                        <anamorphic>FALSE</anamorphic>
                                        <pixelaspectratio>square</pixelaspectratio>
                                        <fielddominance>none</fielddominance>
                                    </samplecharacteristics>
                                </video>
                                <audio>
                                    <samplecharacteristics>
                                        <depth>16</depth>
                                        <samplerate>48000</samplerate>
                                    </samplecharacteristics>
                                    <channelcount>1</channelcount>
                                    <audiochannel>
                                        <sourcechannel>1</sourcechannel>
                                    </audiochannel>
                                </audio>
                                <audio>
                                    <samplecharacteristics>
                                        <depth>16</depth>
                                        <samplerate>48000</samplerate>
                                    </samplecharacteristics>
                                    <channelcount>1</channelcount>
                                    <audiochannel>
                                        <sourcechannel>2</sourcechannel>
                                    </audiochannel>
                                </audio>
                                <audio>
                                    <samplecharacteristics>
                                        <depth>16</depth>
                                        <samplerate>48000</samplerate>
                                    </samplecharacteristics>
                                    <channelcount>1</channelcount>
                                    <audiochannel>
                                        <sourcechannel>3</sourcechannel>
                                    </audiochannel>
                                </audio>
                                <audio>
                                    <samplecharacteristics>
                                        <depth>16</depth>
                                        <samplerate>48000</samplerate>
                                    </samplecharacteristics>
                                    <channelcount>1</channelcount>
                                    <audiochannel>
                                        <sourcechannel>4</sourcechannel>
                                    </audiochannel>
                                </audio>
                            </media>
                        </file>
                        <filter/>
                        <labels>
                            <label2>VFX</label2>
                        </labels>
                    </clipitem>
                    <clipitem id="shot_0046">
                        <masterclipid>shot_0046</masterclipid>
                        <name>A006C009_190619_K1TL.mov</name>
                        <enabled>TRUE</enabled>
                        <duration>2052</duration>
                        <rate>
                            <timebase>25</timebase>
                            <ntsc>FALSE</ntsc>
                        </rate>
                        <start>2992</start>
                        <end>3013</end>
                        <in>1801</in>
                        <out>1822</out>
                        <file id="file-22">
                            <name>A006C009_190619_K1TL.mov</name>
                            <pathurl>file://localhost/Volumes/PIGSTORE/Projects/rema_smartboat_0299_jun_2019/editorial/proxies/A006C009_190619_K1TL.mov</pathurl>
                            <rate>
                                <timebase>25</timebase>
                                <ntsc>FALSE</ntsc>
                            </rate>
                            <duration>2052</duration>
                            <timecode>
                                <rate>
                                    <timebase>25</timebase>
                                    <ntsc>FALSE</ntsc>
                                </rate>
                                <string>10:28:25:10</string>
                                <frame>942635</frame>
                                <displayformat>NDF</displayformat>
                            </timecode>
                            <media>
                                <video>
                                    <samplecharacteristics>
                                        <rate>
                                            <timebase>25</timebase>
                                            <ntsc>FALSE</ntsc>
                                        </rate>
                                        <width>1920</width>
                                        <height>1080</height>
                                        <anamorphic>FALSE</anamorphic>
                                        <pixelaspectratio>square</pixelaspectratio>
                                        <fielddominance>none</fielddominance>
                                    </samplecharacteristics>
                                </video>
                                <audio>
                                    <samplecharacteristics>
                                        <depth>16</depth>
                                        <samplerate>48000</samplerate>
                                    </samplecharacteristics>
                                    <channelcount>1</channelcount>
                                    <audiochannel>
                                        <sourcechannel>1</sourcechannel>
                                    </audiochannel>
                                </audio>
                                <audio>
                                    <samplecharacteristics>
                                        <depth>16</depth>
                                        <samplerate>48000</samplerate>
                                    </samplecharacteristics>
                                    <channelcount>1</channelcount>
                                    <audiochannel>
                                        <sourcechannel>2</sourcechannel>
                                    </audiochannel>
                                </audio>
                                <audio>
                                    <samplecharacteristics>
                                        <depth>16</depth>
                                        <samplerate>48000</samplerate>
                                    </samplecharacteristics>
                                    <channelcount>1</channelcount>
                                    <audiochannel>
                                        <sourcechannel>3</sourcechannel>
                                    </audiochannel>
                                </audio>
                                <audio>
                                    <samplecharacteristics>
                                        <depth>16</depth>
                                        <samplerate>48000</samplerate>
                                    </samplecharacteristics>
                                    <channelcount>1</channelcount>
                                    <audiochannel>
                                        <sourcechannel>4</sourcechannel>
                                    </audiochannel>
                                </audio>
                            </media>
                        </file>
                        <filter/>
                        <labels>
                            <label2>VFX</label2>
                        </labels>
                    </clipitem>
                    <clipitem id="shot_0047">
                        <masterclipid>shot_0047</masterclipid>
                        <name>A002C003_190617_K1TL.mov</name>
                        <enabled>TRUE</enabled>
                        <duration>1575</duration>
                        <rate>
                            <timebase>25</timebase>
                            <ntsc>FALSE</ntsc>
                        </rate>
                        <start>3038</start>
                        <end>3088</end>
                        <in>1317</in>
                        <out>1367</out>
                        <file id="file-23">
                            <name>A002C003_190617_K1TL.mov</name>
                            <pathurl>file://localhost/Volumes/PIGSTORE/Projects/rema_smartboat_0299_jun_2019/editorial/proxies/A002C003_190617_K1TL.mov</pathurl>
                            <rate>
                                <timebase>25</timebase>
                                <ntsc>FALSE</ntsc>
                            </rate>
                            <duration>1575</duration>
                            <timecode>
                                <rate>
                                    <timebase>25</timebase>
                                    <ntsc>FALSE</ntsc>
                                </rate>
                                <string>13:48:10:20</string>
                                <frame>1242270</frame>
                                <displayformat>NDF</displayformat>
                            </timecode>
                            <media>
                                <video>
                                    <samplecharacteristics>
                                        <rate>
                                            <timebase>25</timebase>
                                            <ntsc>FALSE</ntsc>
                                        </rate>
                                        <width>1920</width>
                                        <height>1080</height>
                                        <anamorphic>FALSE</anamorphic>
                                        <pixelaspectratio>square</pixelaspectratio>
                                        <fielddominance>none</fielddominance>
                                    </samplecharacteristics>
                                </video>
                                <audio>
                                    <samplecharacteristics>
                                        <depth>16</depth>
                                        <samplerate>48000</samplerate>
                                    </samplecharacteristics>
                                    <channelcount>1</channelcount>
                                    <audiochannel>
                                        <sourcechannel>1</sourcechannel>
                                    </audiochannel>
                                </audio>
                            </media>
                        </file>
                        <filter/>
                        <labels>
                            <label2>VFX</label2>
                        </labels>
                    </clipitem>
                    <clipitem id="shot_0048">
                        <masterclipid>shot_0048</masterclipid>
                        <name>A002C003_190617_K1TL.mov</name>
                        <enabled>TRUE</enabled>
                        <duration>1575</duration>
                        <rate>
                            <timebase>25</timebase>
                            <ntsc>FALSE</ntsc>
                        </rate>
                        <start>3113</start>
                        <end>3163</end>
                        <in>1317</in>
                        <out>1367</out>
                        <file id="file-23">
                            <name>A002C003_190617_K1TL.mov</name>
                            <pathurl>file://localhost/Volumes/PIGSTORE/Projects/rema_smartboat_0299_jun_2019/editorial/proxies/A002C003_190617_K1TL.mov</pathurl>
                            <rate>
                                <timebase>25</timebase>
                                <ntsc>FALSE</ntsc>
                            </rate>
                            <duration>1575</duration>
                            <timecode>
                                <rate>
                                    <timebase>25</timebase>
                                    <ntsc>FALSE</ntsc>
                                </rate>
                                <string>13:48:10:20</string>
                                <frame>1242270</frame>
                                <displayformat>NDF</displayformat>
                            </timecode>
                            <media>
                                <video>
                                    <samplecharacteristics>
                                        <rate>
                                            <timebase>25</timebase>
                                            <ntsc>FALSE</ntsc>
                                        </rate>
                                        <width>1920</width>
                                        <height>1080</height>
                                        <anamorphic>FALSE</anamorphic>
                                        <pixelaspectratio>square</pixelaspectratio>
                                        <fielddominance>none</fielddominance>
                                    </samplecharacteristics>
                                </video>
                                <audio>
                                    <samplecharacteristics>
                                        <depth>16</depth>
                                        <samplerate>48000</samplerate>
                                    </samplecharacteristics>
                                    <channelcount>1</channelcount>
                                    <audiochannel>
                                        <sourcechannel>1</sourcechannel>
                                    </audiochannel>
                                </audio>
                            </media>
                        </file>
                        <filter/>
                        <labels>
                            <label2>VFX</label2>
                        </labels>
                    </clipitem>
                    <clipitem id="shot_0049">
                        <masterclipid>shot_0049</masterclipid>
                        <name>A006C011_190619_K1TL.mov</name>
                        <enabled>TRUE</enabled>
                        <duration>621</duration>
                        <rate>
                            <timebase>25</timebase>
                            <ntsc>FALSE</ntsc>
                        </rate>
                        <start>3188</start>
                        <end>3206</end>
                        <in>407</in>
                        <out>425</out>
                        <file id="file-24">
                            <name>A006C011_190619_K1TL.mov</name>
                            <pathurl>file://localhost/Volumes/PIGSTORE/Projects/rema_smartboat_0299_jun_2019/editorial/proxies/A006C011_190619_K1TL.mov</pathurl>
                            <rate>
                                <timebase>25</timebase>
                                <ntsc>FALSE</ntsc>
                            </rate>
                            <duration>621</duration>
                            <timecode>
                                <rate>
                                    <timebase>25</timebase>
                                    <ntsc>FALSE</ntsc>
                                </rate>
                                <string>10:38:13:06</string>
                                <frame>957331</frame>
                                <displayformat>NDF</displayformat>
                            </timecode>
                            <media>
                                <video>
                                    <samplecharacteristics>
                                        <rate>
                                            <timebase>25</timebase>
                                            <ntsc>FALSE</ntsc>
                                        </rate>
                                        <width>1920</width>
                                        <height>1080</height>
                                        <anamorphic>FALSE</anamorphic>
                                        <pixelaspectratio>square</pixelaspectratio>
                                        <fielddominance>none</fielddominance>
                                    </samplecharacteristics>
                                </video>
                                <audio>
                                    <samplecharacteristics>
                                        <depth>16</depth>
                                        <samplerate>48000</samplerate>
                                    </samplecharacteristics>
                                    <channelcount>1</channelcount>
                                    <audiochannel>
                                        <sourcechannel>1</sourcechannel>
                                    </audiochannel>
                                </audio>
                                <audio>
                                    <samplecharacteristics>
                                        <depth>16</depth>
                                        <samplerate>48000</samplerate>
                                    </samplecharacteristics>
                                    <channelcount>1</channelcount>
                                    <audiochannel>
                                        <sourcechannel>2</sourcechannel>
                                    </audiochannel>
                                </audio>
                                <audio>
                                    <samplecharacteristics>
                                        <depth>16</depth>
                                        <samplerate>48000</samplerate>
                                    </samplecharacteristics>
                                    <channelcount>1</channelcount>
                                    <audiochannel>
                                        <sourcechannel>3</sourcechannel>
                                    </audiochannel>
                                </audio>
                                <audio>
                                    <samplecharacteristics>
                                        <depth>16</depth>
                                        <samplerate>48000</samplerate>
                                    </samplecharacteristics>
                                    <channelcount>1</channelcount>
                                    <audiochannel>
                                        <sourcechannel>4</sourcechannel>
                                    </audiochannel>
                                </audio>
                            </media>
                        </file>
                        <filter/>
                        <labels>
                            <label2>VFX</label2>
                        </labels>
                    </clipitem>
                    <clipitem id="shot_0050">
                        <masterclipid>shot_0050</masterclipid>
                        <name>A006C011_190619_K1TL.mov</name>
                        <enabled>TRUE</enabled>
                        <duration>621</duration>
                        <rate>
                            <timebase>25</timebase>
                            <ntsc>FALSE</ntsc>
                        </rate>
                        <start>3231</start>
                        <end>3249</end>
                        <in>407</in>
                        <out>425</out>
                        <file id="file-24">
                            <name>A006C011_190619_K1TL.mov</name>
                            <pathurl>file://localhost/Volumes/PIGSTORE/Projects/rema_smartboat_0299_jun_2019/editorial/proxies/A006C011_190619_K1TL.mov</pathurl>
                            <rate>
                                <timebase>25</timebase>
                                <ntsc>FALSE</ntsc>
                            </rate>
                            <duration>621</duration>
                            <timecode>
                                <rate>
                                    <timebase>25</timebase>
                                    <ntsc>FALSE</ntsc>
                                </rate>
                                <string>10:38:13:06</string>
                                <frame>957331</frame>
                                <displayformat>NDF</displayformat>
                            </timecode>
                            <media>
                                <video>
                                    <samplecharacteristics>
                                        <rate>
                                            <timebase>25</timebase>
                                            <ntsc>FALSE</ntsc>
                                        </rate>
                                        <width>1920</width>
                                        <height>1080</height>
                                        <anamorphic>FALSE</anamorphic>
                                        <pixelaspectratio>square</pixelaspectratio>
                                        <fielddominance>none</fielddominance>
                                    </samplecharacteristics>
                                </video>
                                <audio>
                                    <samplecharacteristics>
                                        <depth>16</depth>
                                        <samplerate>48000</samplerate>
                                    </samplecharacteristics>
                                    <channelcount>1</channelcount>
                                    <audiochannel>
                                        <sourcechannel>1</sourcechannel>
                                    </audiochannel>
                                </audio>
                                <audio>
                                    <samplecharacteristics>
                                        <depth>16</depth>
                                        <samplerate>48000</samplerate>
                                    </samplecharacteristics>
                                    <channelcount>1</channelcount>
                                    <audiochannel>
                                        <sourcechannel>2</sourcechannel>
                                    </audiochannel>
                                </audio>
                                <audio>
                                    <samplecharacteristics>
                                        <depth>16</depth>
                                        <samplerate>48000</samplerate>
                                    </samplecharacteristics>
                                    <channelcount>1</channelcount>
                                    <audiochannel>
                                        <sourcechannel>3</sourcechannel>
                                    </audiochannel>
                                </audio>
                                <audio>
                                    <samplecharacteristics>
                                        <depth>16</depth>
                                        <samplerate>48000</samplerate>
                                    </samplecharacteristics>
                                    <channelcount>1</channelcount>
                                    <audiochannel>
                                        <sourcechannel>4</sourcechannel>
                                    </audiochannel>
                                </audio>
                            </media>
                        </file>
                        <filter/>
                        <labels>
                            <label2>VFX</label2>
                        </labels>
                    </clipitem>
                    <clipitem id="shot_0051">
                        <masterclipid>shot_0051</masterclipid>
                        <name>B002C009_190618_K136.mov</name>
                        <enabled>TRUE</enabled>
                        <duration>1305</duration>
                        <rate>
                            <timebase>25</timebase>
                            <ntsc>FALSE</ntsc>
                        </rate>
                        <start>3274</start>
                        <end>3303</end>
                        <in>569</in>
                        <out>598</out>
                        <file id="file-25">
                            <name>B002C009_190618_K136.mov</name>
                            <pathurl>file://localhost/Volumes/PIGSTORE/Projects/rema_smartboat_0299_jun_2019/editorial/proxies/B002C009_190618_K136.mov</pathurl>
                            <rate>
                                <timebase>25</timebase>
                                <ntsc>FALSE</ntsc>
                            </rate>
                            <duration>1305</duration>
                            <timecode>
                                <rate>
                                    <timebase>25</timebase>
                                    <ntsc>FALSE</ntsc>
                                </rate>
                                <string>10:47:58:14</string>
                                <frame>971964</frame>
                                <displayformat>NDF</displayformat>
                            </timecode>
                            <media>
                                <video>
                                    <samplecharacteristics>
                                        <rate>
                                            <timebase>25</timebase>
                                            <ntsc>FALSE</ntsc>
                                        </rate>
                                        <width>1920</width>
                                        <height>1080</height>
                                        <anamorphic>FALSE</anamorphic>
                                        <pixelaspectratio>square</pixelaspectratio>
                                        <fielddominance>none</fielddominance>
                                    </samplecharacteristics>
                                </video>
                                <audio>
                                    <samplecharacteristics>
                                        <depth>16</depth>
                                        <samplerate>48000</samplerate>
                                    </samplecharacteristics>
                                    <channelcount>1</channelcount>
                                    <audiochannel>
                                        <sourcechannel>1</sourcechannel>
                                    </audiochannel>
                                </audio>
                            </media>
                        </file>
                        <filter/>
                        <labels>
                            <label2>VFX</label2>
                        </labels>
                    </clipitem>
                    <clipitem id="shot_0052">
                        <masterclipid>shot_0052</masterclipid>
                        <name>B002C009_190618_K136.mov</name>
                        <enabled>TRUE</enabled>
                        <duration>1305</duration>
                        <rate>
                            <timebase>25</timebase>
                            <ntsc>FALSE</ntsc>
                        </rate>
                        <start>3328</start>
                        <end>3357</end>
                        <in>569</in>
                        <out>598</out>
                        <file id="file-25">
                            <name>B002C009_190618_K136.mov</name>
                            <pathurl>file://localhost/Volumes/PIGSTORE/Projects/rema_smartboat_0299_jun_2019/editorial/proxies/B002C009_190618_K136.mov</pathurl>
                            <rate>
                                <timebase>25</timebase>
                                <ntsc>FALSE</ntsc>
                            </rate>
                            <duration>1305</duration>
                            <timecode>
                                <rate>
                                    <timebase>25</timebase>
                                    <ntsc>FALSE</ntsc>
                                </rate>
                                <string>10:47:58:14</string>
                                <frame>971964</frame>
                                <displayformat>NDF</displayformat>
                            </timecode>
                            <media>
                                <video>
                                    <samplecharacteristics>
                                        <rate>
                                            <timebase>25</timebase>
                                            <ntsc>FALSE</ntsc>
                                        </rate>
                                        <width>1920</width>
                                        <height>1080</height>
                                        <anamorphic>FALSE</anamorphic>
                                        <pixelaspectratio>square</pixelaspectratio>
                                        <fielddominance>none</fielddominance>
                                    </samplecharacteristics>
                                </video>
                                <audio>
                                    <samplecharacteristics>
                                        <depth>16</depth>
                                        <samplerate>48000</samplerate>
                                    </samplecharacteristics>
                                    <channelcount>1</channelcount>
                                    <audiochannel>
                                        <sourcechannel>1</sourcechannel>
                                    </audiochannel>
                                </audio>
                            </media>
                        </file>
                        <filter/>
                        <labels>
                            <label2>VFX</label2>
                        </labels>
                    </clipitem>
                    <clipitem id="shot_0053">
                        <masterclipid>shot_0053</masterclipid>
                        <name>B002C002_190618_K136.mov</name>
                        <enabled>TRUE</enabled>
                        <duration>1776</duration>
                        <rate>
                            <timebase>25</timebase>
                            <ntsc>FALSE</ntsc>
                        </rate>
                        <start>3382</start>
                        <end>3395</end>
                        <in>1627</in>
                        <out>1640</out>
                        <file id="file-26">
                            <name>B002C002_190618_K136.mov</name>
                            <pathurl>file://localhost/Volumes/PIGSTORE/Projects/rema_smartboat_0299_jun_2019/editorial/proxies/B002C002_190618_K136.mov</pathurl>
                            <rate>
                                <timebase>25</timebase>
                                <ntsc>FALSE</ntsc>
                            </rate>
                            <duration>1776</duration>
                            <timecode>
                                <rate>
                                    <timebase>25</timebase>
                                    <ntsc>FALSE</ntsc>
                                </rate>
                                <string>09:52:15:01</string>
                                <frame>888376</frame>
                                <displayformat>NDF</displayformat>
                            </timecode>
                            <media>
                                <video>
                                    <samplecharacteristics>
                                        <rate>
                                            <timebase>25</timebase>
                                            <ntsc>FALSE</ntsc>
                                        </rate>
                                        <width>1920</width>
                                        <height>1080</height>
                                        <anamorphic>FALSE</anamorphic>
                                        <pixelaspectratio>square</pixelaspectratio>
                                        <fielddominance>none</fielddominance>
                                    </samplecharacteristics>
                                </video>
                                <audio>
                                    <samplecharacteristics>
                                        <depth>16</depth>
                                        <samplerate>48000</samplerate>
                                    </samplecharacteristics>
                                    <channelcount>1</channelcount>
                                    <audiochannel>
                                        <sourcechannel>1</sourcechannel>
                                    </audiochannel>
                                </audio>
                            </media>
                        </file>
                        <filter/>
                        <labels>
                            <label2>VFX</label2>
                        </labels>
                    </clipitem>
                    <clipitem id="shot_0054">
                        <masterclipid>shot_0054</masterclipid>
                        <name>B002C002_190618_K136.mov</name>
                        <enabled>TRUE</enabled>
                        <duration>1776</duration>
                        <rate>
                            <timebase>25</timebase>
                            <ntsc>FALSE</ntsc>
                        </rate>
                        <start>3420</start>
                        <end>3433</end>
                        <in>1627</in>
                        <out>1640</out>
                        <file id="file-26">
                            <name>B002C002_190618_K136.mov</name>
                            <pathurl>file://localhost/Volumes/PIGSTORE/Projects/rema_smartboat_0299_jun_2019/editorial/proxies/B002C002_190618_K136.mov</pathurl>
                            <rate>
                                <timebase>25</timebase>
                                <ntsc>FALSE</ntsc>
                            </rate>
                            <duration>1776</duration>
                            <timecode>
                                <rate>
                                    <timebase>25</timebase>
                                    <ntsc>FALSE</ntsc>
                                </rate>
                                <string>09:52:15:01</string>
                                <frame>888376</frame>
                                <displayformat>NDF</displayformat>
                            </timecode>
                            <media>
                                <video>
                                    <samplecharacteristics>
                                        <rate>
                                            <timebase>25</timebase>
                                            <ntsc>FALSE</ntsc>
                                        </rate>
                                        <width>1920</width>
                                        <height>1080</height>
                                        <anamorphic>FALSE</anamorphic>
                                        <pixelaspectratio>square</pixelaspectratio>
                                        <fielddominance>none</fielddominance>
                                    </samplecharacteristics>
                                </video>
                                <audio>
                                    <samplecharacteristics>
                                        <depth>16</depth>
                                        <samplerate>48000</samplerate>
                                    </samplecharacteristics>
                                    <channelcount>1</channelcount>
                                    <audiochannel>
                                        <sourcechannel>1</sourcechannel>
                                    </audiochannel>
                                </audio>
                            </media>
                        </file>
                        <filter/>
                        <labels>
                            <label2>VFX</label2>
                        </labels>
                    </clipitem>
                    <clipitem id="shot_0055">
                        <masterclipid>shot_0055</masterclipid>
                        <name>B002C004_190618_K136.mov</name>
                        <enabled>TRUE</enabled>
                        <duration>958</duration>
                        <rate>
                            <timebase>25</timebase>
                            <ntsc>FALSE</ntsc>
                        </rate>
                        <start>3458</start>
                        <end>3485</end>
                        <in>626</in>
                        <out>653</out>
                        <file id="file-27">
                            <name>B002C004_190618_K136.mov</name>
                            <pathurl>file://localhost/Volumes/PIGSTORE/Projects/rema_smartboat_0299_jun_2019/editorial/proxies/B002C004_190618_K136.mov</pathurl>
                            <rate>
                                <timebase>25</timebase>
                                <ntsc>FALSE</ntsc>
                            </rate>
                            <duration>958</duration>
                            <timecode>
                                <rate>
                                    <timebase>25</timebase>
                                    <ntsc>FALSE</ntsc>
                                </rate>
                                <string>10:17:38:05</string>
                                <frame>926455</frame>
                                <displayformat>NDF</displayformat>
                            </timecode>
                            <media>
                                <video>
                                    <samplecharacteristics>
                                        <rate>
                                            <timebase>25</timebase>
                                            <ntsc>FALSE</ntsc>
                                        </rate>
                                        <width>1920</width>
                                        <height>1080</height>
                                        <anamorphic>FALSE</anamorphic>
                                        <pixelaspectratio>square</pixelaspectratio>
                                        <fielddominance>none</fielddominance>
                                    </samplecharacteristics>
                                </video>
                                <audio>
                                    <samplecharacteristics>
                                        <depth>16</depth>
                                        <samplerate>48000</samplerate>
                                    </samplecharacteristics>
                                    <channelcount>1</channelcount>
                                    <audiochannel>
                                        <sourcechannel>1</sourcechannel>
                                    </audiochannel>
                                </audio>
                            </media>
                        </file>
                        <filter/>
                        <labels>
                            <label2>VFX</label2>
                        </labels>
                    </clipitem>
                    <clipitem id="shot_0056">
                        <masterclipid>shot_0056</masterclipid>
                        <name>B002C004_190618_K136.mov</name>
                        <enabled>TRUE</enabled>
                        <duration>958</duration>
                        <rate>
                            <timebase>25</timebase>
                            <ntsc>FALSE</ntsc>
                        </rate>
                        <start>3510</start>
                        <end>3537</end>
                        <in>626</in>
                        <out>653</out>
                        <file id="file-27">
                            <name>B002C004_190618_K136.mov</name>
                            <pathurl>file://localhost/Volumes/PIGSTORE/Projects/rema_smartboat_0299_jun_2019/editorial/proxies/B002C004_190618_K136.mov</pathurl>
                            <rate>
                                <timebase>25</timebase>
                                <ntsc>FALSE</ntsc>
                            </rate>
                            <duration>958</duration>
                            <timecode>
                                <rate>
                                    <timebase>25</timebase>
                                    <ntsc>FALSE</ntsc>
                                </rate>
                                <string>10:17:38:05</string>
                                <frame>926455</frame>
                                <displayformat>NDF</displayformat>
                            </timecode>
                            <media>
                                <video>
                                    <samplecharacteristics>
                                        <rate>
                                            <timebase>25</timebase>
                                            <ntsc>FALSE</ntsc>
                                        </rate>
                                        <width>1920</width>
                                        <height>1080</height>
                                        <anamorphic>FALSE</anamorphic>
                                        <pixelaspectratio>square</pixelaspectratio>
                                        <fielddominance>none</fielddominance>
                                    </samplecharacteristics>
                                </video>
                                <audio>
                                    <samplecharacteristics>
                                        <depth>16</depth>
                                        <samplerate>48000</samplerate>
                                    </samplecharacteristics>
                                    <channelcount>1</channelcount>
                                    <audiochannel>
                                        <sourcechannel>1</sourcechannel>
                                    </audiochannel>
                                </audio>
                            </media>
                        </file>
                        <filter/>
                        <labels>
                            <label2>VFX</label2>
                        </labels>
                    </clipitem>
                    <clipitem id="shot_0057">
                        <masterclipid>shot_0057</masterclipid>
                        <name>B001C035_190617_K136.mov</name>
                        <enabled>TRUE</enabled>
                        <duration>1487</duration>
                        <rate>
                            <timebase>25</timebase>
                            <ntsc>FALSE</ntsc>
                        </rate>
                        <start>3562</start>
                        <end>3648</end>
                        <in>852</in>
                        <out>938</out>
                        <file id="file-28">
                            <name>B001C035_190617_K136.mov</name>
                            <pathurl>file://localhost/Volumes/PIGSTORE/Projects/rema_smartboat_0299_jun_2019/editorial/proxies/B001C035_190617_K136.mov</pathurl>
                            <rate>
                                <timebase>25</timebase>
                                <ntsc>FALSE</ntsc>
                            </rate>
                            <duration>1487</duration>
                            <timecode>
                                <rate>
                                    <timebase>25</timebase>
                                    <ntsc>FALSE</ntsc>
                                </rate>
                                <string>20:07:48:11</string>
                                <frame>1811711</frame>
                                <displayformat>NDF</displayformat>
                            </timecode>
                            <media>
                                <video>
                                    <samplecharacteristics>
                                        <rate>
                                            <timebase>25</timebase>
                                            <ntsc>FALSE</ntsc>
                                        </rate>
                                        <width>1920</width>
                                        <height>1080</height>
                                        <anamorphic>FALSE</anamorphic>
                                        <pixelaspectratio>square</pixelaspectratio>
                                        <fielddominance>none</fielddominance>
                                    </samplecharacteristics>
                                </video>
                                <audio>
                                    <samplecharacteristics>
                                        <depth>16</depth>
                                        <samplerate>48000</samplerate>
                                    </samplecharacteristics>
                                    <channelcount>1</channelcount>
                                    <audiochannel>
                                        <sourcechannel>1</sourcechannel>
                                    </audiochannel>
                                </audio>
                            </media>
                        </file>
                        <filter/>
                        <labels>
                            <label2>VFX</label2>
                        </labels>
                    </clipitem>
                    <clipitem id="shot_0058">
                        <masterclipid>shot_0058</masterclipid>
                        <name>B001C035_190617_K136.mov</name>
                        <enabled>TRUE</enabled>
                        <duration>1487</duration>
                        <rate>
                            <timebase>25</timebase>
                            <ntsc>FALSE</ntsc>
                        </rate>
                        <start>3673</start>
                        <end>3759</end>
                        <in>852</in>
                        <out>938</out>
                        <file id="file-28">
                            <name>B001C035_190617_K136.mov</name>
                            <pathurl>file://localhost/Volumes/PIGSTORE/Projects/rema_smartboat_0299_jun_2019/editorial/proxies/B001C035_190617_K136.mov</pathurl>
                            <rate>
                                <timebase>25</timebase>
                                <ntsc>FALSE</ntsc>
                            </rate>
                            <duration>1487</duration>
                            <timecode>
                                <rate>
                                    <timebase>25</timebase>
                                    <ntsc>FALSE</ntsc>
                                </rate>
                                <string>20:07:48:11</string>
                                <frame>1811711</frame>
                                <displayformat>NDF</displayformat>
                            </timecode>
                            <media>
                                <video>
                                    <samplecharacteristics>
                                        <rate>
                                            <timebase>25</timebase>
                                            <ntsc>FALSE</ntsc>
                                        </rate>
                                        <width>1920</width>
                                        <height>1080</height>
                                        <anamorphic>FALSE</anamorphic>
                                        <pixelaspectratio>square</pixelaspectratio>
                                        <fielddominance>none</fielddominance>
                                    </samplecharacteristics>
                                </video>
                                <audio>
                                    <samplecharacteristics>
                                        <depth>16</depth>
                                        <samplerate>48000</samplerate>
                                    </samplecharacteristics>
                                    <channelcount>1</channelcount>
                                    <audiochannel>
                                        <sourcechannel>1</sourcechannel>
                                    </audiochannel>
                                </audio>
                            </media>
                        </file>
                        <filter/>
                        <labels>
                            <label2>VFX</label2>
                        </labels>
                    </clipitem>
                    <clipitem id="shot_0059">
                        <masterclipid>shot_0059</masterclipid>
                        <name>B001C014_190617_K136.mov</name>
                        <enabled>TRUE</enabled>
                        <duration>2339</duration>
                        <rate>
                            <timebase>25</timebase>
                            <ntsc>FALSE</ntsc>
                        </rate>
                        <start>3784</start>
                        <end>3843</end>
                        <in>1811</in>
                        <out>1870</out>
                        <file id="file-29">
                            <name>B001C014_190617_K136.mov</name>
                            <pathurl>file://localhost/Volumes/PIGSTORE/Projects/rema_smartboat_0299_jun_2019/editorial/proxies/B001C014_190617_K136.mov</pathurl>
                            <rate>
                                <timebase>25</timebase>
                                <ntsc>FALSE</ntsc>
                            </rate>
                            <duration>2339</duration>
                            <timecode>
                                <rate>
                                    <timebase>25</timebase>
                                    <ntsc>FALSE</ntsc>
                                </rate>
                                <string>18:01:38:15</string>
                                <frame>1622465</frame>
                                <displayformat>NDF</displayformat>
                            </timecode>
                            <media>
                                <video>
                                    <samplecharacteristics>
                                        <rate>
                                            <timebase>25</timebase>
                                            <ntsc>FALSE</ntsc>
                                        </rate>
                                        <width>1920</width>
                                        <height>1080</height>
                                        <anamorphic>FALSE</anamorphic>
                                        <pixelaspectratio>square</pixelaspectratio>
                                        <fielddominance>none</fielddominance>
                                    </samplecharacteristics>
                                </video>
                                <audio>
                                    <samplecharacteristics>
                                        <depth>16</depth>
                                        <samplerate>48000</samplerate>
                                    </samplecharacteristics>
                                    <channelcount>1</channelcount>
                                    <audiochannel>
                                        <sourcechannel>1</sourcechannel>
                                    </audiochannel>
                                </audio>
                            </media>
                        </file>
                        <filter/>
                        <labels>
                            <label2>VFX</label2>
                        </labels>
                    </clipitem>
                    <clipitem id="shot_0060">
                        <masterclipid>shot_0060</masterclipid>
                        <name>B001C014_190617_K136.mov</name>
                        <enabled>TRUE</enabled>
                        <duration>2339</duration>
                        <rate>
                            <timebase>25</timebase>
                            <ntsc>FALSE</ntsc>
                        </rate>
                        <start>3868</start>
                        <end>3927</end>
                        <in>1811</in>
                        <out>1870</out>
                        <file id="file-29">
                            <name>B001C014_190617_K136.mov</name>
                            <pathurl>file://localhost/Volumes/PIGSTORE/Projects/rema_smartboat_0299_jun_2019/editorial/proxies/B001C014_190617_K136.mov</pathurl>
                            <rate>
                                <timebase>25</timebase>
                                <ntsc>FALSE</ntsc>
                            </rate>
                            <duration>2339</duration>
                            <timecode>
                                <rate>
                                    <timebase>25</timebase>
                                    <ntsc>FALSE</ntsc>
                                </rate>
                                <string>18:01:38:15</string>
                                <frame>1622465</frame>
                                <displayformat>NDF</displayformat>
                            </timecode>
                            <media>
                                <video>
                                    <samplecharacteristics>
                                        <rate>
                                            <timebase>25</timebase>
                                            <ntsc>FALSE</ntsc>
                                        </rate>
                                        <width>1920</width>
                                        <height>1080</height>
                                        <anamorphic>FALSE</anamorphic>
                                        <pixelaspectratio>square</pixelaspectratio>
                                        <fielddominance>none</fielddominance>
                                    </samplecharacteristics>
                                </video>
                                <audio>
                                    <samplecharacteristics>
                                        <depth>16</depth>
                                        <samplerate>48000</samplerate>
                                    </samplecharacteristics>
                                    <channelcount>1</channelcount>
                                    <audiochannel>
                                        <sourcechannel>1</sourcechannel>
                                    </audiochannel>
                                </audio>
                            </media>
                        </file>
                        <filter/>
                        <labels>
                            <label2>VFX</label2>
                        </labels>
                    </clipitem>
                    <clipitem id="shot_0061">
                        <masterclipid>shot_0061</masterclipid>
                        <name>B001C014_190617_K136.mov</name>
                        <enabled>TRUE</enabled>
                        <duration>2339</duration>
                        <rate>
                            <timebase>25</timebase>
                            <ntsc>FALSE</ntsc>
                        </rate>
                        <start>3952</start>
                        <end>4011</end>
                        <in>1811</in>
                        <out>1870</out>
                        <file id="file-29">
                            <name>B001C014_190617_K136.mov</name>
                            <pathurl>file://localhost/Volumes/PIGSTORE/Projects/rema_smartboat_0299_jun_2019/editorial/proxies/B001C014_190617_K136.mov</pathurl>
                            <rate>
                                <timebase>25</timebase>
                                <ntsc>FALSE</ntsc>
                            </rate>
                            <duration>2339</duration>
                            <timecode>
                                <rate>
                                    <timebase>25</timebase>
                                    <ntsc>FALSE</ntsc>
                                </rate>
                                <string>18:01:38:15</string>
                                <frame>1622465</frame>
                                <displayformat>NDF</displayformat>
                            </timecode>
                            <media>
                                <video>
                                    <samplecharacteristics>
                                        <rate>
                                            <timebase>25</timebase>
                                            <ntsc>FALSE</ntsc>
                                        </rate>
                                        <width>1920</width>
                                        <height>1080</height>
                                        <anamorphic>FALSE</anamorphic>
                                        <pixelaspectratio>square</pixelaspectratio>
                                        <fielddominance>none</fielddominance>
                                    </samplecharacteristics>
                                </video>
                                <audio>
                                    <samplecharacteristics>
                                        <depth>16</depth>
                                        <samplerate>48000</samplerate>
                                    </samplecharacteristics>
                                    <channelcount>1</channelcount>
                                    <audiochannel>
                                        <sourcechannel>1</sourcechannel>
                                    </audiochannel>
                                </audio>
                            </media>
                        </file>
                        <filter/>
                        <labels>
                            <label2>VFX</label2>
                        </labels>
                    </clipitem>
                    <clipitem id="shot_0062">
                        <masterclipid>shot_0062</masterclipid>
                        <name>B001C039_190617_K136.mov</name>
                        <enabled>TRUE</enabled>
                        <duration>1600</duration>
                        <rate>
                            <timebase>25</timebase>
                            <ntsc>FALSE</ntsc>
                        </rate>
                        <start>4036</start>
                        <end>4119</end>
                        <in>928</in>
                        <out>1011</out>
                        <file id="file-30">
                            <name>B001C039_190617_K136.mov</name>
                            <pathurl>file://localhost/Volumes/PIGSTORE/Projects/rema_smartboat_0299_jun_2019/editorial/proxies/B001C039_190617_K136.mov</pathurl>
                            <rate>
                                <timebase>25</timebase>
                                <ntsc>FALSE</ntsc>
                            </rate>
                            <duration>1600</duration>
                            <timecode>
                                <rate>
                                    <timebase>25</timebase>
                                    <ntsc>FALSE</ntsc>
                                </rate>
                                <string>20:17:33:24</string>
                                <frame>1826349</frame>
                                <displayformat>NDF</displayformat>
                            </timecode>
                            <media>
                                <video>
                                    <samplecharacteristics>
                                        <rate>
                                            <timebase>25</timebase>
                                            <ntsc>FALSE</ntsc>
                                        </rate>
                                        <width>1920</width>
                                        <height>1080</height>
                                        <anamorphic>FALSE</anamorphic>
                                        <pixelaspectratio>square</pixelaspectratio>
                                        <fielddominance>none</fielddominance>
                                    </samplecharacteristics>
                                </video>
                                <audio>
                                    <samplecharacteristics>
                                        <depth>16</depth>
                                        <samplerate>48000</samplerate>
                                    </samplecharacteristics>
                                    <channelcount>1</channelcount>
                                    <audiochannel>
                                        <sourcechannel>1</sourcechannel>
                                    </audiochannel>
                                </audio>
                            </media>
                        </file>
                        <filter/>
                        <labels>
                            <label2>VFX</label2>
                        </labels>
                    </clipitem>
                    <clipitem id="shot_0063">
                        <masterclipid>shot_0063</masterclipid>
                        <name>B001C039_190617_K136.mov</name>
                        <enabled>TRUE</enabled>
                        <duration>1600</duration>
                        <rate>
                            <timebase>25</timebase>
                            <ntsc>FALSE</ntsc>
                        </rate>
                        <start>4144</start>
                        <end>4227</end>
                        <in>928</in>
                        <out>1011</out>
                        <file id="file-30">
                            <name>B001C039_190617_K136.mov</name>
                            <pathurl>file://localhost/Volumes/PIGSTORE/Projects/rema_smartboat_0299_jun_2019/editorial/proxies/B001C039_190617_K136.mov</pathurl>
                            <rate>
                                <timebase>25</timebase>
                                <ntsc>FALSE</ntsc>
                            </rate>
                            <duration>1600</duration>
                            <timecode>
                                <rate>
                                    <timebase>25</timebase>
                                    <ntsc>FALSE</ntsc>
                                </rate>
                                <string>20:17:33:24</string>
                                <frame>1826349</frame>
                                <displayformat>NDF</displayformat>
                            </timecode>
                            <media>
                                <video>
                                    <samplecharacteristics>
                                        <rate>
                                            <timebase>25</timebase>
                                            <ntsc>FALSE</ntsc>
                                        </rate>
                                        <width>1920</width>
                                        <height>1080</height>
                                        <anamorphic>FALSE</anamorphic>
                                        <pixelaspectratio>square</pixelaspectratio>
                                        <fielddominance>none</fielddominance>
                                    </samplecharacteristics>
                                </video>
                                <audio>
                                    <samplecharacteristics>
                                        <depth>16</depth>
                                        <samplerate>48000</samplerate>
                                    </samplecharacteristics>
                                    <channelcount>1</channelcount>
                                    <audiochannel>
                                        <sourcechannel>1</sourcechannel>
                                    </audiochannel>
                                </audio>
                            </media>
                        </file>
                        <filter/>
                        <labels>
                            <label2>VFX</label2>
                        </labels>
                    </clipitem>
                    <clipitem id="shot_0064">
                        <masterclipid>shot_0064</masterclipid>
                        <name>B001C042_190617_K136.mov</name>
                        <enabled>TRUE</enabled>
                        <duration>1658</duration>
                        <rate>
                            <timebase>25</timebase>
                            <ntsc>FALSE</ntsc>
                        </rate>
                        <start>4252</start>
                        <end>4371</end>
                        <in>703</in>
                        <out>822</out>
                        <file id="file-31">
                            <name>B001C042_190617_K136.mov</name>
                            <pathurl>file://localhost/Volumes/PIGSTORE/Projects/rema_smartboat_0299_jun_2019/editorial/proxies/B001C042_190617_K136.mov</pathurl>
                            <rate>
                                <timebase>25</timebase>
                                <ntsc>FALSE</ntsc>
                            </rate>
                            <duration>1658</duration>
                            <timecode>
                                <rate>
                                    <timebase>25</timebase>
                                    <ntsc>FALSE</ntsc>
                                </rate>
                                <string>20:31:03:20</string>
                                <frame>1846595</frame>
                                <displayformat>NDF</displayformat>
                            </timecode>
                            <media>
                                <video>
                                    <samplecharacteristics>
                                        <rate>
                                            <timebase>25</timebase>
                                            <ntsc>FALSE</ntsc>
                                        </rate>
                                        <width>1920</width>
                                        <height>1080</height>
                                        <anamorphic>FALSE</anamorphic>
                                        <pixelaspectratio>square</pixelaspectratio>
                                        <fielddominance>none</fielddominance>
                                    </samplecharacteristics>
                                </video>
                                <audio>
                                    <samplecharacteristics>
                                        <depth>16</depth>
                                        <samplerate>48000</samplerate>
                                    </samplecharacteristics>
                                    <channelcount>1</channelcount>
                                    <audiochannel>
                                        <sourcechannel>1</sourcechannel>
                                    </audiochannel>
                                </audio>
                            </media>
                        </file>
                        <filter/>
                        <labels>
                            <label2>VFX</label2>
                        </labels>
                    </clipitem>
                    <clipitem id="shot_0065">
                        <masterclipid>shot_0065</masterclipid>
                        <name>B001C042_190617_K136.mov</name>
                        <enabled>TRUE</enabled>
                        <duration>1658</duration>
                        <rate>
                            <timebase>25</timebase>
                            <ntsc>FALSE</ntsc>
                        </rate>
                        <start>4396</start>
                        <end>4515</end>
                        <in>703</in>
                        <out>822</out>
                        <file id="file-31">
                            <name>B001C042_190617_K136.mov</name>
                            <pathurl>file://localhost/Volumes/PIGSTORE/Projects/rema_smartboat_0299_jun_2019/editorial/proxies/B001C042_190617_K136.mov</pathurl>
                            <rate>
                                <timebase>25</timebase>
                                <ntsc>FALSE</ntsc>
                            </rate>
                            <duration>1658</duration>
                            <timecode>
                                <rate>
                                    <timebase>25</timebase>
                                    <ntsc>FALSE</ntsc>
                                </rate>
                                <string>20:31:03:20</string>
                                <frame>1846595</frame>
                                <displayformat>NDF</displayformat>
                            </timecode>
                            <media>
                                <video>
                                    <samplecharacteristics>
                                        <rate>
                                            <timebase>25</timebase>
                                            <ntsc>FALSE</ntsc>
                                        </rate>
                                        <width>1920</width>
                                        <height>1080</height>
                                        <anamorphic>FALSE</anamorphic>
                                        <pixelaspectratio>square</pixelaspectratio>
                                        <fielddominance>none</fielddominance>
                                    </samplecharacteristics>
                                </video>
                                <audio>
                                    <samplecharacteristics>
                                        <depth>16</depth>
                                        <samplerate>48000</samplerate>
                                    </samplecharacteristics>
                                    <channelcount>1</channelcount>
                                    <audiochannel>
                                        <sourcechannel>1</sourcechannel>
                                    </audiochannel>
                                </audio>
                            </media>
                        </file>
                        <filter/>
                        <labels>
                            <label2>VFX</label2>
                        </labels>
                    </clipitem>
                    <clipitem id="shot_0066">
                        <masterclipid>shot_0066</masterclipid>
                        <name>REMA_SMARTBOAT_TEASER.mp4</name>
                        <enabled>TRUE</enabled>
                        <duration>684</duration>
                        <rate>
                            <timebase>25</timebase>
                            <ntsc>FALSE</ntsc>
                        </rate>
                        <start>4540</start>
                        <end>4564</end>
                        <in>137</in>
                        <out>161</out>
                        <file id="file-32">
                            <name>REMA_SMARTBOAT_TEASER.mp4</name>
                            <pathurl>file://localhost/Volumes/PIGSTORE/Projects/rema_smartboat_0299_jun_2019/editorial/project/premiere/BEN/ASSETS/VFX/REMA_SMARTBOAT_TEASER.mp4</pathurl>
                            <rate>
                                <timebase>25</timebase>
                                <ntsc>FALSE</ntsc>
                            </rate>
                            <duration>684</duration>
                            <timecode>
                                <rate>
                                    <timebase>25</timebase>
                                    <ntsc>FALSE</ntsc>
                                </rate>
                                <string>00:00:00:20</string>
                                <frame>20</frame>
                                <displayformat>NDF</displayformat>
                            </timecode>
                            <media>
                                <video>
                                    <samplecharacteristics>
                                        <rate>
                                            <timebase>25</timebase>
                                            <ntsc>FALSE</ntsc>
                                        </rate>
                                        <width>1920</width>
                                        <height>1080</height>
                                        <anamorphic>FALSE</anamorphic>
                                        <pixelaspectratio>square</pixelaspectratio>
                                        <fielddominance>none</fielddominance>
                                    </samplecharacteristics>
                                </video>
                                <audio>
                                    <samplecharacteristics>
                                        <depth>16</depth>
                                        <samplerate>48000</samplerate>
                                    </samplecharacteristics>
                                    <channelcount>2</channelcount>
                                </audio>
                            </media>
                        </file>
                        <filter/>
                        <labels>
                            <label2>VFX</label2>
                        </labels>
                    </clipitem>
                    <clipitem id="shot_0067">
                        <masterclipid>shot_0067</masterclipid>
                        <name>REMA_SMARTBOAT_TEASER.mp4</name>
                        <enabled>TRUE</enabled>
                        <duration>684</duration>
                        <rate>
                            <timebase>25</timebase>
                            <ntsc>FALSE</ntsc>
                        </rate>
                        <start>4589</start>
                        <end>4613</end>
                        <in>137</in>
                        <out>161</out>
                        <file id="file-32">
                            <name>REMA_SMARTBOAT_TEASER.mp4</name>
                            <pathurl>file://localhost/Volumes/PIGSTORE/Projects/rema_smartboat_0299_jun_2019/editorial/project/premiere/BEN/ASSETS/VFX/REMA_SMARTBOAT_TEASER.mp4</pathurl>
                            <rate>
                                <timebase>25</timebase>
                                <ntsc>FALSE</ntsc>
                            </rate>
                            <duration>684</duration>
                            <timecode>
                                <rate>
                                    <timebase>25</timebase>
                                    <ntsc>FALSE</ntsc>
                                </rate>
                                <string>00:00:00:20</string>
                                <frame>20</frame>
                                <displayformat>NDF</displayformat>
                            </timecode>
                            <media>
                                <video>
                                    <samplecharacteristics>
                                        <rate>
                                            <timebase>25</timebase>
                                            <ntsc>FALSE</ntsc>
                                        </rate>
                                        <width>1920</width>
                                        <height>1080</height>
                                        <anamorphic>FALSE</anamorphic>
                                        <pixelaspectratio>square</pixelaspectratio>
                                        <fielddominance>none</fielddominance>
                                    </samplecharacteristics>
                                </video>
                                <audio>
                                    <samplecharacteristics>
                                        <depth>16</depth>
                                        <samplerate>48000</samplerate>
                                    </samplecharacteristics>
                                    <channelcount>2</channelcount>
                                </audio>
                            </media>
                        </file>
                        <filter/>
                        <labels>
                            <label2>VFX</label2>
                        </labels>
                    </clipitem>
                    <clipitem id="shot_0068">
                        <masterclipid>shot_0068</masterclipid>
                        <name>A001C001_190628_K136.mov</name>
                        <enabled>TRUE</enabled>
                        <duration>7910</duration>
                        <rate>
                            <timebase>25</timebase>
                            <ntsc>FALSE</ntsc>
                        </rate>
                        <start>4638</start>
                        <end>4687</end>
                        <in>2547</in>
                        <out>2596</out>
                        <file id="file-33">
                            <name>A001C001_190628_K136.mov</name>
                            <pathurl>file://localhost/Volumes/PIGSTORE/Projects/rema_smartboat_0299_jun_2019/editorial/proxies/A001C001_190628_K136.mov</pathurl>
                            <rate>
                                <timebase>25</timebase>
                                <ntsc>FALSE</ntsc>
                            </rate>
                            <duration>7910</duration>
                            <timecode>
                                <rate>
                                    <timebase>25</timebase>
                                    <ntsc>FALSE</ntsc>
                                </rate>
                                <string>03:13:51:01</string>
                                <frame>290776</frame>
                                <displayformat>NDF</displayformat>
                            </timecode>
                            <media>
                                <video>
                                    <samplecharacteristics>
                                        <rate>
                                            <timebase>25</timebase>
                                            <ntsc>FALSE</ntsc>
                                        </rate>
                                        <width>1920</width>
                                        <height>1080</height>
                                        <anamorphic>FALSE</anamorphic>
                                        <pixelaspectratio>square</pixelaspectratio>
                                        <fielddominance>none</fielddominance>
                                    </samplecharacteristics>
                                </video>
                            </media>
                        </file>
                        <filter/>
                        <labels>
                            <label2>VFX</label2>
                        </labels>
                    </clipitem>
                    <clipitem id="shot_0069">
                        <masterclipid>shot_0069</masterclipid>
                        <name>A001C001_190628_K136.mov</name>
                        <enabled>TRUE</enabled>
                        <duration>7910</duration>
                        <rate>
                            <timebase>25</timebase>
                            <ntsc>FALSE</ntsc>
                        </rate>
                        <start>4712</start>
                        <end>4761</end>
                        <in>2547</in>
                        <out>2596</out>
                        <file id="file-33">
                            <name>A001C001_190628_K136.mov</name>
                            <pathurl>file://localhost/Volumes/PIGSTORE/Projects/rema_smartboat_0299_jun_2019/editorial/proxies/A001C001_190628_K136.mov</pathurl>
                            <rate>
                                <timebase>25</timebase>
                                <ntsc>FALSE</ntsc>
                            </rate>
                            <duration>7910</duration>
                            <timecode>
                                <rate>
                                    <timebase>25</timebase>
                                    <ntsc>FALSE</ntsc>
                                </rate>
                                <string>03:13:51:01</string>
                                <frame>290776</frame>
                                <displayformat>NDF</displayformat>
                            </timecode>
                            <media>
                                <video>
                                    <samplecharacteristics>
                                        <rate>
                                            <timebase>25</timebase>
                                            <ntsc>FALSE</ntsc>
                                        </rate>
                                        <width>1920</width>
                                        <height>1080</height>
                                        <anamorphic>FALSE</anamorphic>
                                        <pixelaspectratio>square</pixelaspectratio>
                                        <fielddominance>none</fielddominance>
                                    </samplecharacteristics>
                                </video>
                            </media>
                        </file>
                        <filter/>
                        <labels>
                            <label2>VFX</label2>
                        </labels>
                    </clipitem>
                    <clipitem id="shot_0070">
                        <masterclipid>shot_0070</masterclipid>
                        <name>118357680_main_xl.mp4</name>
                        <enabled>TRUE</enabled>
                        <duration>250</duration>
                        <rate>
                            <timebase>25</timebase>
                            <ntsc>FALSE</ntsc>
                        </rate>
                        <start>4786</start>
                        <end>4814</end>
                        <in>88</in>
                        <out>116</out>
                        <file id="file-34">
                            <name>118357680_main_xl.mp4</name>
                            <pathurl>file://localhost/Volumes/PIGSTORE/Projects/rema_smartboat_0299_jun_2019/editorial/project/premiere/BEN/ASSETS/STOCK/temp/118357680_main_xl.mp4</pathurl>
                            <rate>
                                <timebase>25</timebase>
                                <ntsc>FALSE</ntsc>
                            </rate>
                            <duration>250</duration>
                            <timecode>
                                <rate>
                                    <timebase>25</timebase>
                                    <ntsc>FALSE</ntsc>
                                </rate>
                                <string>00:00:00:00</string>
                                <frame>0</frame>
                                <displayformat>NDF</displayformat>
                            </timecode>
                            <media>
                                <video>
                                    <samplecharacteristics>
                                        <rate>
                                            <timebase>25</timebase>
                                            <ntsc>FALSE</ntsc>
                                        </rate>
                                        <width>640</width>
                                        <height>360</height>
                                        <anamorphic>FALSE</anamorphic>
                                        <pixelaspectratio>square</pixelaspectratio>
                                        <fielddominance>none</fielddominance>
                                    </samplecharacteristics>
                                </video>
                            </media>
                        </file>
                        <filter/>
                        <labels>
                            <label2>VFX</label2>
                        </labels>
                    </clipitem>
                    <clipitem id="shot_0071">
                        <masterclipid>shot_0071</masterclipid>
                        <name>118357680_main_xl.mp4</name>
                        <enabled>TRUE</enabled>
                        <duration>250</duration>
                        <rate>
                            <timebase>25</timebase>
                            <ntsc>FALSE</ntsc>
                        </rate>
                        <start>4839</start>
                        <end>4867</end>
                        <in>88</in>
                        <out>116</out>
                        <file id="file-34">
                            <name>118357680_main_xl.mp4</name>
                            <pathurl>file://localhost/Volumes/PIGSTORE/Projects/rema_smartboat_0299_jun_2019/editorial/project/premiere/BEN/ASSETS/STOCK/temp/118357680_main_xl.mp4</pathurl>
                            <rate>
                                <timebase>25</timebase>
                                <ntsc>FALSE</ntsc>
                            </rate>
                            <duration>250</duration>
                            <timecode>
                                <rate>
                                    <timebase>25</timebase>
                                    <ntsc>FALSE</ntsc>
                                </rate>
                                <string>00:00:00:00</string>
                                <frame>0</frame>
                                <displayformat>NDF</displayformat>
                            </timecode>
                            <media>
                                <video>
                                    <samplecharacteristics>
                                        <rate>
                                            <timebase>25</timebase>
                                            <ntsc>FALSE</ntsc>
                                        </rate>
                                        <width>640</width>
                                        <height>360</height>
                                        <anamorphic>FALSE</anamorphic>
                                        <pixelaspectratio>square</pixelaspectratio>
                                        <fielddominance>none</fielddominance>
                                    </samplecharacteristics>
                                </video>
                            </media>
                        </file>
                        <filter/>
                        <labels>
                            <label2>VFX</label2>
                        </labels>
                    </clipitem>
                    <clipitem id="shot_0072">
                        <masterclipid>shot_0072</masterclipid>
                        <name>092451167_main_xl.mp4</name>
                        <enabled>TRUE</enabled>
                        <duration>1038</duration>
                        <rate>
                            <timebase>25</timebase>
                            <ntsc>FALSE</ntsc>
                        </rate>
                        <start>4892</start>
                        <end>4912</end>
                        <in>215</in>
                        <out>235</out>
                        <file id="file-35">
                            <name>092451167_main_xl.mp4</name>
                            <pathurl>file://localhost/Volumes/PIGSTORE/Projects/rema_smartboat_0299_jun_2019/editorial/project/premiere/BEN/ASSETS/STOCK/temp/092451167_main_xl.mp4</pathurl>
                            <rate>
                                <timebase>25</timebase>
                                <ntsc>FALSE</ntsc>
                            </rate>
                            <duration>1038</duration>
                            <timecode>
                                <rate>
                                    <timebase>25</timebase>
                                    <ntsc>FALSE</ntsc>
                                </rate>
                                <string>00:00:00:00</string>
                                <frame>0</frame>
                                <displayformat>NDF</displayformat>
                            </timecode>
                            <media>
                                <video>
                                    <samplecharacteristics>
                                        <rate>
                                            <timebase>25</timebase>
                                            <ntsc>FALSE</ntsc>
                                        </rate>
                                        <width>640</width>
                                        <height>360</height>
                                        <anamorphic>FALSE</anamorphic>
                                        <pixelaspectratio>square</pixelaspectratio>
                                        <fielddominance>none</fielddominance>
                                    </samplecharacteristics>
                                </video>
                            </media>
                        </file>
                        <filter/>
                        <labels>
                            <label2>VFX</label2>
                        </labels>
                    </clipitem>
                    <clipitem id="shot_0073">
                        <masterclipid>shot_0073</masterclipid>
                        <name>092451167_main_xl.mp4</name>
                        <enabled>TRUE</enabled>
                        <duration>1038</duration>
                        <rate>
                            <timebase>25</timebase>
                            <ntsc>FALSE</ntsc>
                        </rate>
                        <start>4937</start>
                        <end>4957</end>
                        <in>215</in>
                        <out>235</out>
                        <file id="file-35">
                            <name>092451167_main_xl.mp4</name>
                            <pathurl>file://localhost/Volumes/PIGSTORE/Projects/rema_smartboat_0299_jun_2019/editorial/project/premiere/BEN/ASSETS/STOCK/temp/092451167_main_xl.mp4</pathurl>
                            <rate>
                                <timebase>25</timebase>
                                <ntsc>FALSE</ntsc>
                            </rate>
                            <duration>1038</duration>
                            <timecode>
                                <rate>
                                    <timebase>25</timebase>
                                    <ntsc>FALSE</ntsc>
                                </rate>
                                <string>00:00:00:00</string>
                                <frame>0</frame>
                                <displayformat>NDF</displayformat>
                            </timecode>
                            <media>
                                <video>
                                    <samplecharacteristics>
                                        <rate>
                                            <timebase>25</timebase>
                                            <ntsc>FALSE</ntsc>
                                        </rate>
                                        <width>640</width>
                                        <height>360</height>
                                        <anamorphic>FALSE</anamorphic>
                                        <pixelaspectratio>square</pixelaspectratio>
                                        <fielddominance>none</fielddominance>
                                    </samplecharacteristics>
                                </video>
                            </media>
                        </file>
                        <filter/>
                        <labels>
                            <label2>VFX</label2>
                        </labels>
                    </clipitem>
                    <clipitem id="shot_0074">
                        <masterclipid>shot_0074</masterclipid>
                        <name>B003C004_190618_K136.mov</name>
                        <enabled>TRUE</enabled>
                        <duration>591</duration>
                        <rate>
                            <timebase>25</timebase>
                            <ntsc>FALSE</ntsc>
                        </rate>
                        <start>4982</start>
                        <end>4989</end>
                        <in>157</in>
                        <out>164</out>
                        <file id="file-36">
                            <name>B003C004_190618_K136.mov</name>
                            <pathurl>file://localhost/Volumes/PIGSTORE/Projects/rema_smartboat_0299_jun_2019/editorial/proxies/B003C004_190618_K136.mov</pathurl>
                            <rate>
                                <timebase>25</timebase>
                                <ntsc>FALSE</ntsc>
                            </rate>
                            <duration>591</duration>
                            <timecode>
                                <rate>
                                    <timebase>25</timebase>
                                    <ntsc>FALSE</ntsc>
                                </rate>
                                <string>14:08:42:04</string>
                                <frame>1273054</frame>
                                <displayformat>NDF</displayformat>
                            </timecode>
                            <media>
                                <video>
                                    <samplecharacteristics>
                                        <rate>
                                            <timebase>25</timebase>
                                            <ntsc>FALSE</ntsc>
                                        </rate>
                                        <width>1920</width>
                                        <height>1080</height>
                                        <anamorphic>FALSE</anamorphic>
                                        <pixelaspectratio>square</pixelaspectratio>
                                        <fielddominance>none</fielddominance>
                                    </samplecharacteristics>
                                </video>
                                <audio>
                                    <samplecharacteristics>
                                        <depth>16</depth>
                                        <samplerate>48000</samplerate>
                                    </samplecharacteristics>
                                    <channelcount>1</channelcount>
                                    <audiochannel>
                                        <sourcechannel>1</sourcechannel>
                                    </audiochannel>
                                </audio>
                            </media>
                        </file>
                        <filter/>
                        <labels>
                            <label2>VFX</label2>
                        </labels>
                    </clipitem>
                    <clipitem id="shot_0075">
                        <masterclipid>shot_0075</masterclipid>
                        <name>B003C004_190618_K136.mov</name>
                        <enabled>TRUE</enabled>
                        <duration>591</duration>
                        <rate>
                            <timebase>25</timebase>
                            <ntsc>FALSE</ntsc>
                        </rate>
                        <start>5014</start>
                        <end>5021</end>
                        <in>157</in>
                        <out>164</out>
                        <file id="file-36">
                            <name>B003C004_190618_K136.mov</name>
                            <pathurl>file://localhost/Volumes/PIGSTORE/Projects/rema_smartboat_0299_jun_2019/editorial/proxies/B003C004_190618_K136.mov</pathurl>
                            <rate>
                                <timebase>25</timebase>
                                <ntsc>FALSE</ntsc>
                            </rate>
                            <duration>591</duration>
                            <timecode>
                                <rate>
                                    <timebase>25</timebase>
                                    <ntsc>FALSE</ntsc>
                                </rate>
                                <string>14:08:42:04</string>
                                <frame>1273054</frame>
                                <displayformat>NDF</displayformat>
                            </timecode>
                            <media>
                                <video>
                                    <samplecharacteristics>
                                        <rate>
                                            <timebase>25</timebase>
                                            <ntsc>FALSE</ntsc>
                                        </rate>
                                        <width>1920</width>
                                        <height>1080</height>
                                        <anamorphic>FALSE</anamorphic>
                                        <pixelaspectratio>square</pixelaspectratio>
                                        <fielddominance>none</fielddominance>
                                    </samplecharacteristics>
                                </video>
                                <audio>
                                    <samplecharacteristics>
                                        <depth>16</depth>
                                        <samplerate>48000</samplerate>
                                    </samplecharacteristics>
                                    <channelcount>1</channelcount>
                                    <audiochannel>
                                        <sourcechannel>1</sourcechannel>
                                    </audiochannel>
                                </audio>
                            </media>
                        </file>
                        <filter/>
                        <labels>
                            <label2>VFX</label2>
                        </labels>
                    </clipitem>
                    <clipitem id="shot_0076">
                        <masterclipid>shot_0076</masterclipid>
                        <name>PRAWNS</name>
                        <enabled>TRUE</enabled>
                        <duration>75</duration>
                        <rate>
                            <timebase>25</timebase>
                            <ntsc>FALSE</ntsc>
                        </rate>
                        <start>5046</start>
                        <end>5084</end>
                        <in>8</in>
                        <out>46</out>
                        <filter/>
                        <labels>
                            <label2>VFX</label2>
                        </labels>
                    </clipitem>
                    <clipitem id="shot_0077">
                        <masterclipid>shot_0077</masterclipid>
                        <name>PRAWNS</name>
                        <enabled>TRUE</enabled>
                        <duration>75</duration>
                        <rate>
                            <timebase>25</timebase>
                            <ntsc>FALSE</ntsc>
                        </rate>
                        <start>5109</start>
                        <end>5147</end>
                        <in>8</in>
                        <out>46</out>
                        <filter/>
                        <labels>
                            <label2>VFX</label2>
                        </labels>
                    </clipitem>
                    <clipitem id="shot_0078">
                        <masterclipid>shot_0078</masterclipid>
                        <name>PRAWNS</name>
                        <enabled>TRUE</enabled>
                        <duration>75</duration>
                        <rate>
                            <timebase>25</timebase>
                            <ntsc>FALSE</ntsc>
                        </rate>
                        <start>5172</start>
                        <end>5210</end>
                        <in>8</in>
                        <out>46</out>
                        <filter/>
                        <labels>
                            <label2>VFX</label2>
                        </labels>
                    </clipitem>
                    <clipitem id="shot_0079">
                        <masterclipid>shot_0079</masterclipid>
                        <name>PRAWNS</name>
                        <enabled>TRUE</enabled>
                        <duration>75</duration>
                        <rate>
                            <timebase>25</timebase>
                            <ntsc>FALSE</ntsc>
                        </rate>
                        <start>5235</start>
                        <end>5273</end>
                        <in>8</in>
                        <out>46</out>
                        <filter/>
                        <labels>
                            <label2>VFX</label2>
                        </labels>
                    </clipitem>
                    <enabled>TRUE</enabled>
                    <locked>FALSE</locked>
                </track>
            </video>
            <audio>
                <numOutputChannels>2</numOutputChannels>
                <format>
                    <samplecharacteristics>
                        <depth>16</depth>
                        <samplerate>48000</samplerate>
                    </samplecharacteristics>
                </format>
                <outputs>
                    <group>
                        <index>1</index>
                        <numchannels>1</numchannels>
                        <downmix>0</downmix>
                        <channel>
                            <index>1</index>
                        </channel>
                    </group>
                    <group>
                        <index>2</index>
                        <numchannels>1</numchannels>
                        <downmix>0</downmix>
                        <channel>
                            <index>2</index>
                        </channel>
                    </group>
                </outputs>
                <track TL.SQTrackAudioKeyframeStyle="0" TL.SQTrackShy="0" TL.SQTrackExpandedHeight="15" TL.SQTrackExpanded="0" MZ.TrackTargeted="1" PannerCurrentValue="0.5" PannerIsInverted="true" PannerStartKeyframe="-91445760000000000,0.5,0,0,0,0,0,0" PannerName="Balance" currentExplodedTrackIndex="0" totalExplodedTrackCount="2" premiereTrackType="Stereo">
                    <enabled>TRUE</enabled>
                    <locked>FALSE</locked>
                    <outputchannelindex>1</outputchannelindex>
                </track>
                <track TL.SQTrackAudioKeyframeStyle="0" TL.SQTrackShy="0" TL.SQTrackExpandedHeight="15" TL.SQTrackExpanded="0" MZ.TrackTargeted="1" PannerCurrentValue="0.5" PannerIsInverted="true" PannerStartKeyframe="-91445760000000000,0.5,0,0,0,0,0,0" PannerName="Balance" currentExplodedTrackIndex="1" totalExplodedTrackCount="2" premiereTrackType="Stereo">
                    <enabled>TRUE</enabled>
                    <locked>FALSE</locked>
                    <outputchannelindex>2</outputchannelindex>
                </track>
            </audio>
        </media>
        <timecode>
            <rate>
                <timebase>25</timebase>
                <ntsc>FALSE</ntsc>
            </rate>
            <string>00:00:00:00</string>
            <frame>0</frame>
            <displayformat>NDF</displayformat>
        </timecode>
        <labels>
            <label2>Forest</label2>
        </labels>
        <logginginfo>
            <description/>
            <scene/>
            <shottake/>
            <lognote/>
            <good/>
            <originalvideofilename/>
            <originalaudiofilename/>
        </logginginfo>
        <filter>
            <effect/>
        </filter>
    </sequence>
</xmeml>