<?xml version="1.0" encoding="UTF-8"?>
<!DOCTYPE xmeml>
<xmeml version="4">
    <sequence id="rema" TL.SQAudioVisibleBase="0" TL.SQVideoVisibleBase="0" TL.SQVisibleBaseTime="0" TL.SQAVDividerPosition="0.365348398685" TL.SQHideShyTracks="0" TL.SQHeaderWidth="236" Monitor.ProgramZoomOut="11430720000000" Monitor.ProgramZoomIn="0" TL.SQTimePerPixel="0.042559626451704712" AM.TrackVScrollPosition="0" AM.TrackScrollPosition="0" MZ.EditLine="6858432000000" MZ.Sequence.PreviewFrameSizeHeight="1080" MZ.Sequence.PreviewFrameSizeWidth="1920" MZ.Sequence.AudioTimeDisplayFormat="200" MZ.Sequence.PreviewRenderingClassID="1297106761" MZ.Sequence.PreviewRenderingPresetCodec="1297107278" MZ.Sequence.PreviewRenderingPresetPath="EncoderPresets/SequencePreview/cc7991f5-c236-4db1-957e-2c71f924e81c/I-Frame Only MPEG.epr" MZ.Sequence.PreviewUseMaxRenderQuality="false" MZ.Sequence.PreviewUseMaxBitDepth="false" MZ.Sequence.EditingModeGUID="cc7991f5-c236-4db1-957e-2c71f924e81c" MZ.Sequence.VideoTimeDisplayFormat="101" MZ.WorkOutPoint="19051200000000" MZ.WorkInPoint="0" explodedTracks="true">
        <uuid>51ef83b5-aaaa-4ab1-8265-b34e8a6e7f11</uuid>
        <duration>3623</duration>
        <rate>
            <timebase>25</timebase>
            <ntsc>FALSE</ntsc>
        </rate>
        <name>rema</name>
        <media>
            <video>
                <format>
                    <samplecharacteristics>
                        <rate>
                            <timebase>25</timebase>
                            <ntsc>FALSE</ntsc>
                        </rate>
                        <codec>
                            <name>Apple ProRes 422</name>
                            <appspecificdata>
                                <appname>Final Cut Pro</appname>
                                <appmanufacturer>Apple Inc.</appmanufacturer>
                                <appversion>7.0</appversion>
                                <data>
                                    <qtcodec>
                                        <codecname>Apple ProRes 422</codecname>
                                        <codectypename>Apple ProRes 422</codectypename>
                                        <codectypecode>apcn</codectypecode>
                                        <codecvendorcode>appl</codecvendorcode>
                                        <spatialquality>1024</spatialquality>
                                        <temporalquality>0</temporalquality>
                                        <keyframerate>0</keyframerate>
                                        <datarate>0</datarate>
                                    </qtcodec>
                                </data>
                            </appspecificdata>
                        </codec>
                        <width>1920</width>
                        <height>1080</height>
                        <anamorphic>FALSE</anamorphic>
                        <pixelaspectratio>square</pixelaspectratio>
                        <fielddominance>none</fielddominance>
                        <colordepth>24</colordepth>
                    </samplecharacteristics>
                </format>
                <track TL.SQTrackShy="0" TL.SQTrackExpandedHeight="25" TL.SQTrackExpanded="0" MZ.TrackTargeted="0">
                    <clipitem id="my-clip0">
                        <masterclipid>my-clip0</masterclipid>
                        <name>A001C002_190617_K1TL.mov</name>
                        <enabled>TRUE</enabled>
                        <duration>1336</duration>
                        <rate>
                            <timebase>25</timebase>
                            <ntsc>FALSE</ntsc>
                        </rate>
                        <start>0</start>
                        <end>64</end>
                        <in>1072</in>
                        <out>1136</out>
                        <file id="file-37">
                            <name>A001C002_190617_K1TL.mov</name>
                            <pathurl>file://localhost/Volumes/PIGSTORE/Projects/rema_smartboat_0299_jun_2019/editorial/proxies/A001C002_190617_K1TL.mov</pathurl>
                            <rate>
                                <timebase>25</timebase>
                                <ntsc>FALSE</ntsc>
                            </rate>
                            <duration>1336</duration>
                            <timecode>
                                <rate>
                                    <timebase>25</timebase>
                                    <ntsc>FALSE</ntsc>
                                </rate>
                                <string>09:16:47:02</string>
                                <frame>835177</frame>
                                <displayformat>NDF</displayformat>
                            </timecode>
                            <media>
                                <video>
                                    <samplecharacteristics>
                                        <rate>
                                            <timebase>25</timebase>
                                            <ntsc>FALSE</ntsc>
                                        </rate>
                                        <width>1920</width>
                                        <height>1080</height>
                                        <anamorphic>FALSE</anamorphic>
                                        <pixelaspectratio>square</pixelaspectratio>
                                        <fielddominance>none</fielddominance>
                                    </samplecharacteristics>
                                </video>
                                <audio>
                                    <samplecharacteristics>
                                        <depth>16</depth>
                                        <samplerate>48000</samplerate>
                                    </samplecharacteristics>
                                    <channelcount>1</channelcount>
                                    <audiochannel>
                                        <sourcechannel>1</sourcechannel>
                                    </audiochannel>
                                </audio>
                            </media>
                        </file>
                        <filter/>
                        <labels>
                            <label2>VFX</label2>
                        </labels>
                    </clipitem>
                    <clipitem id="my-clip1">
                        <masterclipid>my-clip1</masterclipid>
                        <name>A001C002_190617_K1TL.mov</name>
                        <enabled>TRUE</enabled>
                        <duration>1336</duration>
                        <rate>
                            <timebase>25</timebase>
                            <ntsc>FALSE</ntsc>
                        </rate>
                        <start>89</start>
                        <end>153</end>
                        <in>1072</in>
                        <out>1136</out>
                        <file id="file-37">
                            <name>A001C002_190617_K1TL.mov</name>
                            <pathurl>file://localhost/Volumes/PIGSTORE/Projects/rema_smartboat_0299_jun_2019/editorial/proxies/A001C002_190617_K1TL.mov</pathurl>
                            <rate>
                                <timebase>25</timebase>
                                <ntsc>FALSE</ntsc>
                            </rate>
                            <duration>1336</duration>
                            <timecode>
                                <rate>
                                    <timebase>25</timebase>
                                    <ntsc>FALSE</ntsc>
                                </rate>
                                <string>09:16:47:02</string>
                                <frame>835177</frame>
                                <displayformat>NDF</displayformat>
                            </timecode>
                            <media>
                                <video>
                                    <samplecharacteristics>
                                        <rate>
                                            <timebase>25</timebase>
                                            <ntsc>FALSE</ntsc>
                                        </rate>
                                        <width>1920</width>
                                        <height>1080</height>
                                        <anamorphic>FALSE</anamorphic>
                                        <pixelaspectratio>square</pixelaspectratio>
                                        <fielddominance>none</fielddominance>
                                    </samplecharacteristics>
                                </video>
                                <audio>
                                    <samplecharacteristics>
                                        <depth>16</depth>
                                        <samplerate>48000</samplerate>
                                    </samplecharacteristics>
                                    <channelcount>1</channelcount>
                                    <audiochannel>
                                        <sourcechannel>1</sourcechannel>
                                    </audiochannel>
                                </audio>
                            </media>
                        </file>
                        <filter/>
                        <labels>
                            <label2>VFX</label2>
                        </labels>
                    </clipitem>
                    <clipitem id="my-clip2">
                        <masterclipid>my-clip2</masterclipid>
                        <name>A001C014_190617_K1TL.mov</name>
                        <enabled>TRUE</enabled>
                        <duration>766</duration>
                        <rate>
                            <timebase>25</timebase>
                            <ntsc>FALSE</ntsc>
                        </rate>
                        <start>178</start>
                        <end>202</end>
                        <in>318</in>
                        <out>342</out>
                        <file id="file-38">
                            <name>A001C014_190617_K1TL.mov</name>
                            <pathurl>file://localhost/Volumes/PIGSTORE/Projects/rema_smartboat_0299_jun_2019/editorial/proxies/A001C014_190617_K1TL.mov</pathurl>
                            <rate>
                                <timebase>25</timebase>
                                <ntsc>FALSE</ntsc>
                            </rate>
                            <duration>766</duration>
                            <timecode>
                                <rate>
                                    <timebase>25</timebase>
                                    <ntsc>FALSE</ntsc>
                                </rate>
                                <string>11:25:53:16</string>
                                <frame>1028841</frame>
                                <displayformat>NDF</displayformat>
                            </timecode>
                            <media>
                                <video>
                                    <samplecharacteristics>
                                        <rate>
                                            <timebase>25</timebase>
                                            <ntsc>FALSE</ntsc>
                                        </rate>
                                        <width>1920</width>
                                        <height>1080</height>
                                        <anamorphic>FALSE</anamorphic>
                                        <pixelaspectratio>square</pixelaspectratio>
                                        <fielddominance>none</fielddominance>
                                    </samplecharacteristics>
                                </video>
                                <audio>
                                    <samplecharacteristics>
                                        <depth>16</depth>
                                        <samplerate>48000</samplerate>
                                    </samplecharacteristics>
                                    <channelcount>1</channelcount>
                                    <audiochannel>
                                        <sourcechannel>1</sourcechannel>
                                    </audiochannel>
                                </audio>
                            </media>
                        </file>
                        <filter/>
                        <labels>
                            <label2>VFX</label2>
                        </labels>
                    </clipitem>
                    <clipitem id="my-clip3">
                        <masterclipid>my-clip3</masterclipid>
                        <name>A001C014_190617_K1TL.mov</name>
                        <enabled>TRUE</enabled>
                        <duration>766</duration>
                        <rate>
                            <timebase>25</timebase>
                            <ntsc>FALSE</ntsc>
                        </rate>
                        <start>227</start>
                        <end>251</end>
                        <in>318</in>
                        <out>342</out>
                        <file id="file-38">
                            <name>A001C014_190617_K1TL.mov</name>
                            <pathurl>file://localhost/Volumes/PIGSTORE/Projects/rema_smartboat_0299_jun_2019/editorial/proxies/A001C014_190617_K1TL.mov</pathurl>
                            <rate>
                                <timebase>25</timebase>
                                <ntsc>FALSE</ntsc>
                            </rate>
                            <duration>766</duration>
                            <timecode>
                                <rate>
                                    <timebase>25</timebase>
                                    <ntsc>FALSE</ntsc>
                                </rate>
                                <string>11:25:53:16</string>
                                <frame>1028841</frame>
                                <displayformat>NDF</displayformat>
                            </timecode>
                            <media>
                                <video>
                                    <samplecharacteristics>
                                        <rate>
                                            <timebase>25</timebase>
                                            <ntsc>FALSE</ntsc>
                                        </rate>
                                        <width>1920</width>
                                        <height>1080</height>
                                        <anamorphic>FALSE</anamorphic>
                                        <pixelaspectratio>square</pixelaspectratio>
                                        <fielddominance>none</fielddominance>
                                    </samplecharacteristics>
                                </video>
                                <audio>
                                    <samplecharacteristics>
                                        <depth>16</depth>
                                        <samplerate>48000</samplerate>
                                    </samplecharacteristics>
                                    <channelcount>1</channelcount>
                                    <audiochannel>
                                        <sourcechannel>1</sourcechannel>
                                    </audiochannel>
                                </audio>
                            </media>
                        </file>
                        <filter/>
                        <labels>
                            <label2>VFX</label2>
                        </labels>
                    </clipitem>
                    <clipitem id="my-clip4">
                        <masterclipid>my-clip4</masterclipid>
                        <name>A001C005_190617_K1TL.mov</name>
                        <enabled>TRUE</enabled>
                        <duration>4285</duration>
                        <rate>
                            <timebase>25</timebase>
                            <ntsc>FALSE</ntsc>
                        </rate>
                        <start>276</start>
                        <end>343</end>
                        <in>832</in>
                        <out>899</out>
                        <file id="file-39">
                            <name>A001C005_190617_K1TL.mov</name>
                            <pathurl>file://localhost/Volumes/PIGSTORE/Projects/rema_smartboat_0299_jun_2019/editorial/proxies/A001C005_190617_K1TL.mov</pathurl>
                            <rate>
                                <timebase>25</timebase>
                                <ntsc>FALSE</ntsc>
                            </rate>
                            <duration>4285</duration>
                            <timecode>
                                <rate>
                                    <timebase>25</timebase>
                                    <ntsc>FALSE</ntsc>
                                </rate>
                                <string>10:11:43:24</string>
                                <frame>917599</frame>
                                <displayformat>NDF</displayformat>
                            </timecode>
                            <media>
                                <video>
                                    <samplecharacteristics>
                                        <rate>
                                            <timebase>25</timebase>
                                            <ntsc>FALSE</ntsc>
                                        </rate>
                                        <width>1920</width>
                                        <height>1080</height>
                                        <anamorphic>FALSE</anamorphic>
                                        <pixelaspectratio>square</pixelaspectratio>
                                        <fielddominance>none</fielddominance>
                                    </samplecharacteristics>
                                </video>
                                <audio>
                                    <samplecharacteristics>
                                        <depth>16</depth>
                                        <samplerate>48000</samplerate>
                                    </samplecharacteristics>
                                    <channelcount>1</channelcount>
                                    <audiochannel>
                                        <sourcechannel>1</sourcechannel>
                                    </audiochannel>
                                </audio>
                            </media>
                        </file>
                        <filter/>
                        <labels>
                            <label2>VFX</label2>
                        </labels>
                    </clipitem>
                    <clipitem id="my-clip5">
                        <masterclipid>my-clip5</masterclipid>
                        <name>A001C005_190617_K1TL.mov</name>
                        <enabled>TRUE</enabled>
                        <duration>4285</duration>
                        <rate>
                            <timebase>25</timebase>
                            <ntsc>FALSE</ntsc>
                        </rate>
                        <start>368</start>
                        <end>435</end>
                        <in>832</in>
                        <out>899</out>
                        <file id="file-39">
                            <name>A001C005_190617_K1TL.mov</name>
                            <pathurl>file://localhost/Volumes/PIGSTORE/Projects/rema_smartboat_0299_jun_2019/editorial/proxies/A001C005_190617_K1TL.mov</pathurl>
                            <rate>
                                <timebase>25</timebase>
                                <ntsc>FALSE</ntsc>
                            </rate>
                            <duration>4285</duration>
                            <timecode>
                                <rate>
                                    <timebase>25</timebase>
                                    <ntsc>FALSE</ntsc>
                                </rate>
                                <string>10:11:43:24</string>
                                <frame>917599</frame>
                                <displayformat>NDF</displayformat>
                            </timecode>
                            <media>
                                <video>
                                    <samplecharacteristics>
                                        <rate>
                                            <timebase>25</timebase>
                                            <ntsc>FALSE</ntsc>
                                        </rate>
                                        <width>1920</width>
                                        <height>1080</height>
                                        <anamorphic>FALSE</anamorphic>
                                        <pixelaspectratio>square</pixelaspectratio>
                                        <fielddominance>none</fielddominance>
                                    </samplecharacteristics>
                                </video>
                                <audio>
                                    <samplecharacteristics>
                                        <depth>16</depth>
                                        <samplerate>48000</samplerate>
                                    </samplecharacteristics>
                                    <channelcount>1</channelcount>
                                    <audiochannel>
                                        <sourcechannel>1</sourcechannel>
                                    </audiochannel>
                                </audio>
                            </media>
                        </file>
                        <filter/>
                        <labels>
                            <label2>VFX</label2>
                        </labels>
                    </clipitem>
                    <clipitem id="my-clip6">
                        <masterclipid>my-clip6</masterclipid>
                        <name>A001C007_190617_K1TL.mov</name>
                        <enabled>TRUE</enabled>
                        <duration>2950</duration>
                        <rate>
                            <timebase>25</timebase>
                            <ntsc>FALSE</ntsc>
                        </rate>
                        <start>460</start>
                        <end>497</end>
                        <in>2525</in>
                        <out>2562</out>
                        <file id="file-40">
                            <name>A001C007_190617_K1TL.mov</name>
                            <pathurl>file://localhost/Volumes/PIGSTORE/Projects/rema_smartboat_0299_jun_2019/editorial/proxies/A001C007_190617_K1TL.mov</pathurl>
                            <rate>
                                <timebase>25</timebase>
                                <ntsc>FALSE</ntsc>
                            </rate>
                            <duration>2950</duration>
                            <timecode>
                                <rate>
                                    <timebase>25</timebase>
                                    <ntsc>FALSE</ntsc>
                                </rate>
                                <string>10:26:22:16</string>
                                <frame>939566</frame>
                                <displayformat>NDF</displayformat>
                            </timecode>
                            <media>
                                <video>
                                    <samplecharacteristics>
                                        <rate>
                                            <timebase>25</timebase>
                                            <ntsc>FALSE</ntsc>
                                        </rate>
                                        <width>1920</width>
                                        <height>1080</height>
                                        <anamorphic>FALSE</anamorphic>
                                        <pixelaspectratio>square</pixelaspectratio>
                                        <fielddominance>none</fielddominance>
                                    </samplecharacteristics>
                                </video>
                                <audio>
                                    <samplecharacteristics>
                                        <depth>16</depth>
                                        <samplerate>48000</samplerate>
                                    </samplecharacteristics>
                                    <channelcount>1</channelcount>
                                    <audiochannel>
                                        <sourcechannel>1</sourcechannel>
                                    </audiochannel>
                                </audio>
                            </media>
                        </file>
                        <filter/>
                        <labels>
                            <label2>VFX</label2>
                        </labels>
                    </clipitem>
                    <clipitem id="my-clip7">
                        <masterclipid>my-clip7</masterclipid>
                        <name>A001C007_190617_K1TL.mov</name>
                        <enabled>TRUE</enabled>
                        <duration>2950</duration>
                        <rate>
                            <timebase>25</timebase>
                            <ntsc>FALSE</ntsc>
                        </rate>
                        <start>522</start>
                        <end>559</end>
                        <in>2525</in>
                        <out>2562</out>
                        <file id="file-40">
                            <name>A001C007_190617_K1TL.mov</name>
                            <pathurl>file://localhost/Volumes/PIGSTORE/Projects/rema_smartboat_0299_jun_2019/editorial/proxies/A001C007_190617_K1TL.mov</pathurl>
                            <rate>
                                <timebase>25</timebase>
                                <ntsc>FALSE</ntsc>
                            </rate>
                            <duration>2950</duration>
                            <timecode>
                                <rate>
                                    <timebase>25</timebase>
                                    <ntsc>FALSE</ntsc>
                                </rate>
                                <string>10:26:22:16</string>
                                <frame>939566</frame>
                                <displayformat>NDF</displayformat>
                            </timecode>
                            <media>
                                <video>
                                    <samplecharacteristics>
                                        <rate>
                                            <timebase>25</timebase>
                                            <ntsc>FALSE</ntsc>
                                        </rate>
                                        <width>1920</width>
                                        <height>1080</height>
                                        <anamorphic>FALSE</anamorphic>
                                        <pixelaspectratio>square</pixelaspectratio>
                                        <fielddominance>none</fielddominance>
                                    </samplecharacteristics>
                                </video>
                                <audio>
                                    <samplecharacteristics>
                                        <depth>16</depth>
                                        <samplerate>48000</samplerate>
                                    </samplecharacteristics>
                                    <channelcount>1</channelcount>
                                    <audiochannel>
                                        <sourcechannel>1</sourcechannel>
                                    </audiochannel>
                                </audio>
                            </media>
                        </file>
                        <filter/>
                        <labels>
                            <label2>VFX</label2>
                        </labels>
                    </clipitem>
                    <clipitem id="my-clip8">
                        <masterclipid>my-clip8</masterclipid>
                        <name>B001C003_190617_K136.mov</name>
                        <enabled>TRUE</enabled>
                        <duration>1598</duration>
                        <rate>
                            <timebase>25</timebase>
                            <ntsc>FALSE</ntsc>
                        </rate>
                        <start>584</start>
                        <end>623</end>
                        <in>1329</in>
                        <out>1368</out>
                        <file id="file-41">
                            <name>B001C003_190617_K136.mov</name>
                            <pathurl>file://localhost/Volumes/PIGSTORE/Projects/rema_smartboat_0299_jun_2019/editorial/proxies/B001C003_190617_K136.mov</pathurl>
                            <rate>
                                <timebase>25</timebase>
                                <ntsc>FALSE</ntsc>
                            </rate>
                            <duration>1598</duration>
                            <timecode>
                                <rate>
                                    <timebase>25</timebase>
                                    <ntsc>FALSE</ntsc>
                                </rate>
                                <string>13:03:21:00</string>
                                <frame>1175025</frame>
                                <displayformat>NDF</displayformat>
                            </timecode>
                            <media>
                                <video>
                                    <samplecharacteristics>
                                        <rate>
                                            <timebase>25</timebase>
                                            <ntsc>FALSE</ntsc>
                                        </rate>
                                        <width>1920</width>
                                        <height>1080</height>
                                        <anamorphic>FALSE</anamorphic>
                                        <pixelaspectratio>square</pixelaspectratio>
                                        <fielddominance>none</fielddominance>
                                    </samplecharacteristics>
                                </video>
                                <audio>
                                    <samplecharacteristics>
                                        <depth>16</depth>
                                        <samplerate>48000</samplerate>
                                    </samplecharacteristics>
                                    <channelcount>1</channelcount>
                                    <audiochannel>
                                        <sourcechannel>1</sourcechannel>
                                    </audiochannel>
                                </audio>
                            </media>
                        </file>
                        <filter/>
                        <labels>
                            <label2>VFX</label2>
                        </labels>
                    </clipitem>
                    <clipitem id="my-clip9">
                        <masterclipid>my-clip9</masterclipid>
                        <name>B001C003_190617_K136.mov</name>
                        <enabled>TRUE</enabled>
                        <duration>1598</duration>
                        <rate>
                            <timebase>25</timebase>
                            <ntsc>FALSE</ntsc>
                        </rate>
                        <start>648</start>
                        <end>687</end>
                        <in>1329</in>
                        <out>1368</out>
                        <file id="file-41">
                            <name>B001C003_190617_K136.mov</name>
                            <pathurl>file://localhost/Volumes/PIGSTORE/Projects/rema_smartboat_0299_jun_2019/editorial/proxies/B001C003_190617_K136.mov</pathurl>
                            <rate>
                                <timebase>25</timebase>
                                <ntsc>FALSE</ntsc>
                            </rate>
                            <duration>1598</duration>
                            <timecode>
                                <rate>
                                    <timebase>25</timebase>
                                    <ntsc>FALSE</ntsc>
                                </rate>
                                <string>13:03:21:00</string>
                                <frame>1175025</frame>
                                <displayformat>NDF</displayformat>
                            </timecode>
                            <media>
                                <video>
                                    <samplecharacteristics>
                                        <rate>
                                            <timebase>25</timebase>
                                            <ntsc>FALSE</ntsc>
                                        </rate>
                                        <width>1920</width>
                                        <height>1080</height>
                                        <anamorphic>FALSE</anamorphic>
                                        <pixelaspectratio>square</pixelaspectratio>
                                        <fielddominance>none</fielddominance>
                                    </samplecharacteristics>
                                </video>
                                <audio>
                                    <samplecharacteristics>
                                        <depth>16</depth>
                                        <samplerate>48000</samplerate>
                                    </samplecharacteristics>
                                    <channelcount>1</channelcount>
                                    <audiochannel>
                                        <sourcechannel>1</sourcechannel>
                                    </audiochannel>
                                </audio>
                            </media>
                        </file>
                        <filter/>
                        <labels>
                            <label2>VFX</label2>
                        </labels>
                    </clipitem>
                    <clipitem id="my-clip10">
                        <masterclipid>my-clip10</masterclipid>
                        <name>B002C010_190618_K136.mov</name>
                        <enabled>TRUE</enabled>
                        <duration>82</duration>
                        <rate>
                            <timebase>25</timebase>
                            <ntsc>FALSE</ntsc>
                        </rate>
                        <start>712</start>
                        <end>719</end>
                        <in>33</in>
                        <out>40</out>
                        <file id="file-42">
                            <name>B002C010_190618_K136.mov</name>
                            <pathurl>file://localhost/Volumes/PIGSTORE/Projects/rema_smartboat_0299_jun_2019/editorial/proxies/B002C010_190618_K136.mov</pathurl>
                            <rate>
                                <timebase>25</timebase>
                                <ntsc>FALSE</ntsc>
                            </rate>
                            <duration>825</duration>
                            <timecode>
                                <rate>
                                    <timebase>25</timebase>
                                    <ntsc>FALSE</ntsc>
                                </rate>
                                <string>11:23:37:05</string>
                                <frame>1025430</frame>
                                <displayformat>NDF</displayformat>
                            </timecode>
                            <media>
                                <video>
                                    <samplecharacteristics>
                                        <rate>
                                            <timebase>25</timebase>
                                            <ntsc>FALSE</ntsc>
                                        </rate>
                                        <width>1920</width>
                                        <height>1080</height>
                                        <anamorphic>FALSE</anamorphic>
                                        <pixelaspectratio>square</pixelaspectratio>
                                        <fielddominance>none</fielddominance>
                                    </samplecharacteristics>
                                </video>
                                <audio>
                                    <samplecharacteristics>
                                        <depth>16</depth>
                                        <samplerate>48000</samplerate>
                                    </samplecharacteristics>
                                    <channelcount>1</channelcount>
                                    <audiochannel>
                                        <sourcechannel>1</sourcechannel>
                                    </audiochannel>
                                </audio>
                            </media>
                        </file>
                        <filter/>
                        <labels>
                            <label2>VFX</label2>
                        </labels>
                    </clipitem>
                    <clipitem id="my-clip11">
                        <masterclipid>my-clip11</masterclipid>
                        <name>B002C010_190618_K136.mov</name>
                        <enabled>TRUE</enabled>
                        <duration>82</duration>
                        <rate>
                            <timebase>25</timebase>
                            <ntsc>FALSE</ntsc>
                        </rate>
                        <start>744</start>
                        <end>751</end>
                        <in>33</in>
                        <out>40</out>
                        <file id="file-42">
                            <name>B002C010_190618_K136.mov</name>
                            <pathurl>file://localhost/Volumes/PIGSTORE/Projects/rema_smartboat_0299_jun_2019/editorial/proxies/B002C010_190618_K136.mov</pathurl>
                            <rate>
                                <timebase>25</timebase>
                                <ntsc>FALSE</ntsc>
                            </rate>
                            <duration>825</duration>
                            <timecode>
                                <rate>
                                    <timebase>25</timebase>
                                    <ntsc>FALSE</ntsc>
                                </rate>
                                <string>11:23:37:05</string>
                                <frame>1025430</frame>
                                <displayformat>NDF</displayformat>
                            </timecode>
                            <media>
                                <video>
                                    <samplecharacteristics>
                                        <rate>
                                            <timebase>25</timebase>
                                            <ntsc>FALSE</ntsc>
                                        </rate>
                                        <width>1920</width>
                                        <height>1080</height>
                                        <anamorphic>FALSE</anamorphic>
                                        <pixelaspectratio>square</pixelaspectratio>
                                        <fielddominance>none</fielddominance>
                                    </samplecharacteristics>
                                </video>
                                <audio>
                                    <samplecharacteristics>
                                        <depth>16</depth>
                                        <samplerate>48000</samplerate>
                                    </samplecharacteristics>
                                    <channelcount>1</channelcount>
                                    <audiochannel>
                                        <sourcechannel>1</sourcechannel>
                                    </audiochannel>
                                </audio>
                            </media>
                        </file>
                        <filter/>
                        <labels>
                            <label2>VFX</label2>
                        </labels>
                    </clipitem>
                    <clipitem id="my-clip12">
                        <masterclipid>my-clip12</masterclipid>
                        <name>B003C001_190618_K136.mov</name>
                        <enabled>TRUE</enabled>
                        <duration>2164</duration>
                        <rate>
                            <timebase>25</timebase>
                            <ntsc>FALSE</ntsc>
                        </rate>
                        <start>776</start>
                        <end>795</end>
                        <in>570</in>
                        <out>589</out>
                        <file id="file-43">
                            <name>B003C001_190618_K136.mov</name>
                            <pathurl>file://localhost/Volumes/PIGSTORE/Projects/rema_smartboat_0299_jun_2019/editorial/proxies/B003C001_190618_K136.mov</pathurl>
                            <rate>
                                <timebase>25</timebase>
                                <ntsc>FALSE</ntsc>
                            </rate>
                            <duration>2164</duration>
                            <timecode>
                                <rate>
                                    <timebase>25</timebase>
                                    <ntsc>FALSE</ntsc>
                                </rate>
                                <string>14:06:03:19</string>
                                <frame>1269094</frame>
                                <displayformat>NDF</displayformat>
                            </timecode>
                            <media>
                                <video>
                                    <samplecharacteristics>
                                        <rate>
                                            <timebase>25</timebase>
                                            <ntsc>FALSE</ntsc>
                                        </rate>
                                        <width>1920</width>
                                        <height>1080</height>
                                        <anamorphic>FALSE</anamorphic>
                                        <pixelaspectratio>square</pixelaspectratio>
                                        <fielddominance>none</fielddominance>
                                    </samplecharacteristics>
                                </video>
                                <audio>
                                    <samplecharacteristics>
                                        <depth>16</depth>
                                        <samplerate>48000</samplerate>
                                    </samplecharacteristics>
                                    <channelcount>1</channelcount>
                                    <audiochannel>
                                        <sourcechannel>1</sourcechannel>
                                    </audiochannel>
                                </audio>
                            </media>
                        </file>
                        <filter/>
                        <labels>
                            <label2>VFX</label2>
                        </labels>
                    </clipitem>
                    <clipitem id="my-clip13">
                        <masterclipid>my-clip13</masterclipid>
                        <name>B003C001_190618_K136.mov</name>
                        <enabled>TRUE</enabled>
                        <duration>2164</duration>
                        <rate>
                            <timebase>25</timebase>
                            <ntsc>FALSE</ntsc>
                        </rate>
                        <start>820</start>
                        <end>839</end>
                        <in>570</in>
                        <out>589</out>
                        <file id="file-43">
                            <name>B003C001_190618_K136.mov</name>
                            <pathurl>file://localhost/Volumes/PIGSTORE/Projects/rema_smartboat_0299_jun_2019/editorial/proxies/B003C001_190618_K136.mov</pathurl>
                            <rate>
                                <timebase>25</timebase>
                                <ntsc>FALSE</ntsc>
                            </rate>
                            <duration>2164</duration>
                            <timecode>
                                <rate>
                                    <timebase>25</timebase>
                                    <ntsc>FALSE</ntsc>
                                </rate>
                                <string>14:06:03:19</string>
                                <frame>1269094</frame>
                                <displayformat>NDF</displayformat>
                            </timecode>
                            <media>
                                <video>
                                    <samplecharacteristics>
                                        <rate>
                                            <timebase>25</timebase>
                                            <ntsc>FALSE</ntsc>
                                        </rate>
                                        <width>1920</width>
                                        <height>1080</height>
                                        <anamorphic>FALSE</anamorphic>
                                        <pixelaspectratio>square</pixelaspectratio>
                                        <fielddominance>none</fielddominance>
                                    </samplecharacteristics>
                                </video>
                                <audio>
                                    <samplecharacteristics>
                                        <depth>16</depth>
                                        <samplerate>48000</samplerate>
                                    </samplecharacteristics>
                                    <channelcount>1</channelcount>
                                    <audiochannel>
                                        <sourcechannel>1</sourcechannel>
                                    </audiochannel>
                                </audio>
                            </media>
                        </file>
                        <filter/>
                        <labels>
                            <label2>VFX</label2>
                        </labels>
                    </clipitem>
                    <clipitem id="my-clip14">
                        <masterclipid>my-clip14</masterclipid>
                        <name>A003C007_190617_K1TL.mov</name>
                        <enabled>TRUE</enabled>
                        <duration>1492</duration>
                        <rate>
                            <timebase>25</timebase>
                            <ntsc>FALSE</ntsc>
                        </rate>
                        <start>864</start>
                        <end>898</end>
                        <in>1155</in>
                        <out>1189</out>
                        <file id="file-44">
                            <name>A003C007_190617_K1TL.mov</name>
                            <pathurl>file://localhost/Volumes/PIGSTORE/Projects/rema_smartboat_0299_jun_2019/editorial/proxies/A003C007_190617_K1TL.mov</pathurl>
                            <rate>
                                <timebase>25</timebase>
                                <ntsc>FALSE</ntsc>
                            </rate>
                            <duration>1492</duration>
                            <timecode>
                                <rate>
                                    <timebase>25</timebase>
                                    <ntsc>FALSE</ntsc>
                                </rate>
                                <string>15:59:20:07</string>
                                <frame>1439007</frame>
                                <displayformat>NDF</displayformat>
                            </timecode>
                            <media>
                                <video>
                                    <samplecharacteristics>
                                        <rate>
                                            <timebase>25</timebase>
                                            <ntsc>FALSE</ntsc>
                                        </rate>
                                        <width>1920</width>
                                        <height>1080</height>
                                        <anamorphic>FALSE</anamorphic>
                                        <pixelaspectratio>square</pixelaspectratio>
                                        <fielddominance>none</fielddominance>
                                    </samplecharacteristics>
                                </video>
                                <audio>
                                    <samplecharacteristics>
                                        <depth>16</depth>
                                        <samplerate>48000</samplerate>
                                    </samplecharacteristics>
                                    <channelcount>1</channelcount>
                                    <audiochannel>
                                        <sourcechannel>1</sourcechannel>
                                    </audiochannel>
                                </audio>
                            </media>
                        </file>
                        <filter/>
                        <labels>
                            <label2>VFX</label2>
                        </labels>
                    </clipitem>
                    <clipitem id="my-clip15">
                        <masterclipid>my-clip15</masterclipid>
                        <name>A003C007_190617_K1TL.mov</name>
                        <enabled>TRUE</enabled>
                        <duration>1492</duration>
                        <rate>
                            <timebase>25</timebase>
                            <ntsc>FALSE</ntsc>
                        </rate>
                        <start>923</start>
                        <end>957</end>
                        <in>1155</in>
                        <out>1189</out>
                        <file id="file-44">
                            <name>A003C007_190617_K1TL.mov</name>
                            <pathurl>file://localhost/Volumes/PIGSTORE/Projects/rema_smartboat_0299_jun_2019/editorial/proxies/A003C007_190617_K1TL.mov</pathurl>
                            <rate>
                                <timebase>25</timebase>
                                <ntsc>FALSE</ntsc>
                            </rate>
                            <duration>1492</duration>
                            <timecode>
                                <rate>
                                    <timebase>25</timebase>
                                    <ntsc>FALSE</ntsc>
                                </rate>
                                <string>15:59:20:07</string>
                                <frame>1439007</frame>
                                <displayformat>NDF</displayformat>
                            </timecode>
                            <media>
                                <video>
                                    <samplecharacteristics>
                                        <rate>
                                            <timebase>25</timebase>
                                            <ntsc>FALSE</ntsc>
                                        </rate>
                                        <width>1920</width>
                                        <height>1080</height>
                                        <anamorphic>FALSE</anamorphic>
                                        <pixelaspectratio>square</pixelaspectratio>
                                        <fielddominance>none</fielddominance>
                                    </samplecharacteristics>
                                </video>
                                <audio>
                                    <samplecharacteristics>
                                        <depth>16</depth>
                                        <samplerate>48000</samplerate>
                                    </samplecharacteristics>
                                    <channelcount>1</channelcount>
                                    <audiochannel>
                                        <sourcechannel>1</sourcechannel>
                                    </audiochannel>
                                </audio>
                            </media>
                        </file>
                        <filter/>
                        <labels>
                            <label2>VFX</label2>
                        </labels>
                    </clipitem>
                    <clipitem id="my-clip16">
                        <masterclipid>my-clip16</masterclipid>
                        <name>B002C030_190618_K136.mov</name>
                        <enabled>TRUE</enabled>
                        <duration>173</duration>
                        <rate>
                            <timebase>25</timebase>
                            <ntsc>FALSE</ntsc>
                        </rate>
                        <start>982</start>
                        <end>1021</end>
                        <in>59</in>
                        <out>98</out>
                        <file id="file-45">
                            <name>B002C030_190618_K136.mov</name>
                            <pathurl>file://localhost/Volumes/PIGSTORE/Projects/rema_smartboat_0299_jun_2019/editorial/proxies/B002C030_190618_K136.mov</pathurl>
                            <rate>
                                <timebase>25</timebase>
                                <ntsc>FALSE</ntsc>
                            </rate>
                            <duration>695</duration>
                            <timecode>
                                <rate>
                                    <timebase>25</timebase>
                                    <ntsc>FALSE</ntsc>
                                </rate>
                                <string>12:46:11:22</string>
                                <frame>1149297</frame>
                                <displayformat>NDF</displayformat>
                            </timecode>
                            <media>
                                <video>
                                    <samplecharacteristics>
                                        <rate>
                                            <timebase>25</timebase>
                                            <ntsc>FALSE</ntsc>
                                        </rate>
                                        <width>1920</width>
                                        <height>1080</height>
                                        <anamorphic>FALSE</anamorphic>
                                        <pixelaspectratio>square</pixelaspectratio>
                                        <fielddominance>none</fielddominance>
                                    </samplecharacteristics>
                                </video>
                                <audio>
                                    <samplecharacteristics>
                                        <depth>16</depth>
                                        <samplerate>48000</samplerate>
                                    </samplecharacteristics>
                                    <channelcount>1</channelcount>
                                    <audiochannel>
                                        <sourcechannel>1</sourcechannel>
                                    </audiochannel>
                                </audio>
                            </media>
                        </file>
                        <filter/>
                        <labels>
                            <label2>VFX</label2>
                        </labels>
                    </clipitem>
                    <clipitem id="my-clip17">
                        <masterclipid>my-clip17</masterclipid>
                        <name>B002C030_190618_K136.mov</name>
                        <enabled>TRUE</enabled>
                        <duration>173</duration>
                        <rate>
                            <timebase>25</timebase>
                            <ntsc>FALSE</ntsc>
                        </rate>
                        <start>1046</start>
                        <end>1085</end>
                        <in>59</in>
                        <out>98</out>
                        <file id="file-45">
                            <name>B002C030_190618_K136.mov</name>
                            <pathurl>file://localhost/Volumes/PIGSTORE/Projects/rema_smartboat_0299_jun_2019/editorial/proxies/B002C030_190618_K136.mov</pathurl>
                            <rate>
                                <timebase>25</timebase>
                                <ntsc>FALSE</ntsc>
                            </rate>
                            <duration>695</duration>
                            <timecode>
                                <rate>
                                    <timebase>25</timebase>
                                    <ntsc>FALSE</ntsc>
                                </rate>
                                <string>12:46:11:22</string>
                                <frame>1149297</frame>
                                <displayformat>NDF</displayformat>
                            </timecode>
                            <media>
                                <video>
                                    <samplecharacteristics>
                                        <rate>
                                            <timebase>25</timebase>
                                            <ntsc>FALSE</ntsc>
                                        </rate>
                                        <width>1920</width>
                                        <height>1080</height>
                                        <anamorphic>FALSE</anamorphic>
                                        <pixelaspectratio>square</pixelaspectratio>
                                        <fielddominance>none</fielddominance>
                                    </samplecharacteristics>
                                </video>
                                <audio>
                                    <samplecharacteristics>
                                        <depth>16</depth>
                                        <samplerate>48000</samplerate>
                                    </samplecharacteristics>
                                    <channelcount>1</channelcount>
                                    <audiochannel>
                                        <sourcechannel>1</sourcechannel>
                                    </audiochannel>
                                </audio>
                            </media>
                        </file>
                        <filter/>
                        <labels>
                            <label2>VFX</label2>
                        </labels>
                    </clipitem>
                    <clipitem id="my-clip18">
                        <masterclipid>my-clip18</masterclipid>
                        <name>B002C030_190618_K136.mov</name>
                        <enabled>TRUE</enabled>
                        <duration>173</duration>
                        <rate>
                            <timebase>25</timebase>
                            <ntsc>FALSE</ntsc>
                        </rate>
                        <start>1110</start>
                        <end>1149</end>
                        <in>59</in>
                        <out>98</out>
                        <file id="file-45">
                            <name>B002C030_190618_K136.mov</name>
                            <pathurl>file://localhost/Volumes/PIGSTORE/Projects/rema_smartboat_0299_jun_2019/editorial/proxies/B002C030_190618_K136.mov</pathurl>
                            <rate>
                                <timebase>25</timebase>
                                <ntsc>FALSE</ntsc>
                            </rate>
                            <duration>695</duration>
                            <timecode>
                                <rate>
                                    <timebase>25</timebase>
                                    <ntsc>FALSE</ntsc>
                                </rate>
                                <string>12:46:11:22</string>
                                <frame>1149297</frame>
                                <displayformat>NDF</displayformat>
                            </timecode>
                            <media>
                                <video>
                                    <samplecharacteristics>
                                        <rate>
                                            <timebase>25</timebase>
                                            <ntsc>FALSE</ntsc>
                                        </rate>
                                        <width>1920</width>
                                        <height>1080</height>
                                        <anamorphic>FALSE</anamorphic>
                                        <pixelaspectratio>square</pixelaspectratio>
                                        <fielddominance>none</fielddominance>
                                    </samplecharacteristics>
                                </video>
                                <audio>
                                    <samplecharacteristics>
                                        <depth>16</depth>
                                        <samplerate>48000</samplerate>
                                    </samplecharacteristics>
                                    <channelcount>1</channelcount>
                                    <audiochannel>
                                        <sourcechannel>1</sourcechannel>
                                    </audiochannel>
                                </audio>
                            </media>
                        </file>
                        <filter/>
                        <labels>
                            <label2>VFX</label2>
                        </labels>
                    </clipitem>
                    <clipitem id="my-clip19">
                        <masterclipid>my-clip19</masterclipid>
                        <name>B002C030_190618_K136.mov</name>
                        <enabled>TRUE</enabled>
                        <duration>173</duration>
                        <rate>
                            <timebase>25</timebase>
                            <ntsc>FALSE</ntsc>
                        </rate>
                        <start>1174</start>
                        <end>1213</end>
                        <in>59</in>
                        <out>98</out>
                        <file id="file-45">
                            <name>B002C030_190618_K136.mov</name>
                            <pathurl>file://localhost/Volumes/PIGSTORE/Projects/rema_smartboat_0299_jun_2019/editorial/proxies/B002C030_190618_K136.mov</pathurl>
                            <rate>
                                <timebase>25</timebase>
                                <ntsc>FALSE</ntsc>
                            </rate>
                            <duration>695</duration>
                            <timecode>
                                <rate>
                                    <timebase>25</timebase>
                                    <ntsc>FALSE</ntsc>
                                </rate>
                                <string>12:46:11:22</string>
                                <frame>1149297</frame>
                                <displayformat>NDF</displayformat>
                            </timecode>
                            <media>
                                <video>
                                    <samplecharacteristics>
                                        <rate>
                                            <timebase>25</timebase>
                                            <ntsc>FALSE</ntsc>
                                        </rate>
                                        <width>1920</width>
                                        <height>1080</height>
                                        <anamorphic>FALSE</anamorphic>
                                        <pixelaspectratio>square</pixelaspectratio>
                                        <fielddominance>none</fielddominance>
                                    </samplecharacteristics>
                                </video>
                                <audio>
                                    <samplecharacteristics>
                                        <depth>16</depth>
                                        <samplerate>48000</samplerate>
                                    </samplecharacteristics>
                                    <channelcount>1</channelcount>
                                    <audiochannel>
                                        <sourcechannel>1</sourcechannel>
                                    </audiochannel>
                                </audio>
                            </media>
                        </file>
                        <filter/>
                        <labels>
                            <label2>VFX</label2>
                        </labels>
                    </clipitem>
                    <clipitem id="my-clip20">
                        <masterclipid>my-clip20</masterclipid>
                        <name>A001C010_190628_K136.mov</name>
                        <enabled>TRUE</enabled>
                        <duration>7449</duration>
                        <rate>
                            <timebase>25</timebase>
                            <ntsc>FALSE</ntsc>
                        </rate>
                        <start>1238</start>
                        <end>1262</end>
                        <in>3238</in>
                        <out>3262</out>
                        <file id="file-46">
                            <name>A001C010_190628_K136.mov</name>
                            <pathurl>file://localhost/Volumes/PIGSTORE/Projects/rema_smartboat_0299_jun_2019/editorial/proxies/A001C010_190628_K136.mov</pathurl>
                            <rate>
                                <timebase>25</timebase>
                                <ntsc>FALSE</ntsc>
                            </rate>
                            <duration>7449</duration>
                            <timecode>
                                <rate>
                                    <timebase>25</timebase>
                                    <ntsc>FALSE</ntsc>
                                </rate>
                                <string>04:46:44:19</string>
                                <frame>430119</frame>
                                <displayformat>NDF</displayformat>
                            </timecode>
                            <media>
                                <video>
                                    <samplecharacteristics>
                                        <rate>
                                            <timebase>25</timebase>
                                            <ntsc>FALSE</ntsc>
                                        </rate>
                                        <width>1920</width>
                                        <height>1080</height>
                                        <anamorphic>FALSE</anamorphic>
                                        <pixelaspectratio>square</pixelaspectratio>
                                        <fielddominance>none</fielddominance>
                                    </samplecharacteristics>
                                </video>
                            </media>
                        </file>
                        <filter/>
                        <labels>
                            <label2>VFX</label2>
                        </labels>
                    </clipitem>
                    <clipitem id="my-clip21">
                        <masterclipid>my-clip21</masterclipid>
                        <name>A001C010_190628_K136.mov</name>
                        <enabled>TRUE</enabled>
                        <duration>7449</duration>
                        <rate>
                            <timebase>25</timebase>
                            <ntsc>FALSE</ntsc>
                        </rate>
                        <start>1287</start>
                        <end>1311</end>
                        <in>3238</in>
                        <out>3262</out>
                        <file id="file-46">
                            <name>A001C010_190628_K136.mov</name>
                            <pathurl>file://localhost/Volumes/PIGSTORE/Projects/rema_smartboat_0299_jun_2019/editorial/proxies/A001C010_190628_K136.mov</pathurl>
                            <rate>
                                <timebase>25</timebase>
                                <ntsc>FALSE</ntsc>
                            </rate>
                            <duration>7449</duration>
                            <timecode>
                                <rate>
                                    <timebase>25</timebase>
                                    <ntsc>FALSE</ntsc>
                                </rate>
                                <string>04:46:44:19</string>
                                <frame>430119</frame>
                                <displayformat>NDF</displayformat>
                            </timecode>
                            <media>
                                <video>
                                    <samplecharacteristics>
                                        <rate>
                                            <timebase>25</timebase>
                                            <ntsc>FALSE</ntsc>
                                        </rate>
                                        <width>1920</width>
                                        <height>1080</height>
                                        <anamorphic>FALSE</anamorphic>
                                        <pixelaspectratio>square</pixelaspectratio>
                                        <fielddominance>none</fielddominance>
                                    </samplecharacteristics>
                                </video>
                            </media>
                        </file>
                        <filter/>
                        <labels>
                            <label2>VFX</label2>
                        </labels>
                    </clipitem>
                    <clipitem id="my-clip22">
                        <masterclipid>my-clip22</masterclipid>
                        <name>A002C001_190617_K1TL.mov</name>
                        <enabled>TRUE</enabled>
                        <duration>1119</duration>
                        <rate>
                            <timebase>25</timebase>
                            <ntsc>FALSE</ntsc>
                        </rate>
                        <start>1336</start>
                        <end>1407</end>
                        <in>613</in>
                        <out>684</out>
                        <file id="file-47">
                            <name>A002C001_190617_K1TL.mov</name>
                            <pathurl>file://localhost/Volumes/PIGSTORE/Projects/rema_smartboat_0299_jun_2019/editorial/proxies/A002C001_190617_K1TL.mov</pathurl>
                            <rate>
                                <timebase>25</timebase>
                                <ntsc>FALSE</ntsc>
                            </rate>
                            <duration>1119</duration>
                            <timecode>
                                <rate>
                                    <timebase>25</timebase>
                                    <ntsc>FALSE</ntsc>
                                </rate>
                                <string>13:44:59:22</string>
                                <frame>1237497</frame>
                                <displayformat>NDF</displayformat>
                            </timecode>
                            <media>
                                <video>
                                    <samplecharacteristics>
                                        <rate>
                                            <timebase>25</timebase>
                                            <ntsc>FALSE</ntsc>
                                        </rate>
                                        <width>1920</width>
                                        <height>1080</height>
                                        <anamorphic>FALSE</anamorphic>
                                        <pixelaspectratio>square</pixelaspectratio>
                                        <fielddominance>none</fielddominance>
                                    </samplecharacteristics>
                                </video>
                                <audio>
                                    <samplecharacteristics>
                                        <depth>16</depth>
                                        <samplerate>48000</samplerate>
                                    </samplecharacteristics>
                                    <channelcount>1</channelcount>
                                    <audiochannel>
                                        <sourcechannel>1</sourcechannel>
                                    </audiochannel>
                                </audio>
                            </media>
                        </file>
                        <filter/>
                        <labels>
                            <label2>VFX</label2>
                        </labels>
                    </clipitem>
                    <clipitem id="my-clip23">
                        <masterclipid>my-clip23</masterclipid>
                        <name>A002C001_190617_K1TL.mov</name>
                        <enabled>TRUE</enabled>
                        <duration>1119</duration>
                        <rate>
                            <timebase>25</timebase>
                            <ntsc>FALSE</ntsc>
                        </rate>
                        <start>1432</start>
                        <end>1503</end>
                        <in>613</in>
                        <out>684</out>
                        <file id="file-47">
                            <name>A002C001_190617_K1TL.mov</name>
                            <pathurl>file://localhost/Volumes/PIGSTORE/Projects/rema_smartboat_0299_jun_2019/editorial/proxies/A002C001_190617_K1TL.mov</pathurl>
                            <rate>
                                <timebase>25</timebase>
                                <ntsc>FALSE</ntsc>
                            </rate>
                            <duration>1119</duration>
                            <timecode>
                                <rate>
                                    <timebase>25</timebase>
                                    <ntsc>FALSE</ntsc>
                                </rate>
                                <string>13:44:59:22</string>
                                <frame>1237497</frame>
                                <displayformat>NDF</displayformat>
                            </timecode>
                            <media>
                                <video>
                                    <samplecharacteristics>
                                        <rate>
                                            <timebase>25</timebase>
                                            <ntsc>FALSE</ntsc>
                                        </rate>
                                        <width>1920</width>
                                        <height>1080</height>
                                        <anamorphic>FALSE</anamorphic>
                                        <pixelaspectratio>square</pixelaspectratio>
                                        <fielddominance>none</fielddominance>
                                    </samplecharacteristics>
                                </video>
                                <audio>
                                    <samplecharacteristics>
                                        <depth>16</depth>
                                        <samplerate>48000</samplerate>
                                    </samplecharacteristics>
                                    <channelcount>1</channelcount>
                                    <audiochannel>
                                        <sourcechannel>1</sourcechannel>
                                    </audiochannel>
                                </audio>
                            </media>
                        </file>
                        <filter/>
                        <labels>
                            <label2>VFX</label2>
                        </labels>
                    </clipitem>
                    <clipitem id="my-clip24">
                        <masterclipid>my-clip24</masterclipid>
                        <name>A002C001_190617_K1TL.mov</name>
                        <enabled>TRUE</enabled>
                        <duration>1119</duration>
                        <rate>
                            <timebase>25</timebase>
                            <ntsc>FALSE</ntsc>
                        </rate>
                        <start>1528</start>
                        <end>1599</end>
                        <in>613</in>
                        <out>684</out>
                        <file id="file-47">
                            <name>A002C001_190617_K1TL.mov</name>
                            <pathurl>file://localhost/Volumes/PIGSTORE/Projects/rema_smartboat_0299_jun_2019/editorial/proxies/A002C001_190617_K1TL.mov</pathurl>
                            <rate>
                                <timebase>25</timebase>
                                <ntsc>FALSE</ntsc>
                            </rate>
                            <duration>1119</duration>
                            <timecode>
                                <rate>
                                    <timebase>25</timebase>
                                    <ntsc>FALSE</ntsc>
                                </rate>
                                <string>13:44:59:22</string>
                                <frame>1237497</frame>
                                <displayformat>NDF</displayformat>
                            </timecode>
                            <media>
                                <video>
                                    <samplecharacteristics>
                                        <rate>
                                            <timebase>25</timebase>
                                            <ntsc>FALSE</ntsc>
                                        </rate>
                                        <width>1920</width>
                                        <height>1080</height>
                                        <anamorphic>FALSE</anamorphic>
                                        <pixelaspectratio>square</pixelaspectratio>
                                        <fielddominance>none</fielddominance>
                                    </samplecharacteristics>
                                </video>
                                <audio>
                                    <samplecharacteristics>
                                        <depth>16</depth>
                                        <samplerate>48000</samplerate>
                                    </samplecharacteristics>
                                    <channelcount>1</channelcount>
                                    <audiochannel>
                                        <sourcechannel>1</sourcechannel>
                                    </audiochannel>
                                </audio>
                            </media>
                        </file>
                        <filter/>
                        <labels>
                            <label2>VFX</label2>
                        </labels>
                    </clipitem>
                    <clipitem id="my-clip25">
                        <masterclipid>my-clip25</masterclipid>
                        <name>A003C003_190617_K1TL.mov</name>
                        <enabled>TRUE</enabled>
                        <duration>3053</duration>
                        <rate>
                            <timebase>25</timebase>
                            <ntsc>FALSE</ntsc>
                        </rate>
                        <start>1624</start>
                        <end>1682</end>
                        <in>2455</in>
                        <out>2513</out>
                        <file id="file-48">
                            <name>A003C003_190617_K1TL.mov</name>
                            <pathurl>file://localhost/Volumes/PIGSTORE/Projects/rema_smartboat_0299_jun_2019/editorial/proxies/A003C003_190617_K1TL.mov</pathurl>
                            <rate>
                                <timebase>25</timebase>
                                <ntsc>FALSE</ntsc>
                            </rate>
                            <duration>3053</duration>
                            <timecode>
                                <rate>
                                    <timebase>25</timebase>
                                    <ntsc>FALSE</ntsc>
                                </rate>
                                <string>15:41:21:02</string>
                                <frame>1412027</frame>
                                <displayformat>NDF</displayformat>
                            </timecode>
                            <media>
                                <video>
                                    <samplecharacteristics>
                                        <rate>
                                            <timebase>25</timebase>
                                            <ntsc>FALSE</ntsc>
                                        </rate>
                                        <width>1920</width>
                                        <height>1080</height>
                                        <anamorphic>FALSE</anamorphic>
                                        <pixelaspectratio>square</pixelaspectratio>
                                        <fielddominance>none</fielddominance>
                                    </samplecharacteristics>
                                </video>
                                <audio>
                                    <samplecharacteristics>
                                        <depth>16</depth>
                                        <samplerate>48000</samplerate>
                                    </samplecharacteristics>
                                    <channelcount>1</channelcount>
                                    <audiochannel>
                                        <sourcechannel>1</sourcechannel>
                                    </audiochannel>
                                </audio>
                            </media>
                        </file>
                        <filter/>
                        <labels>
                            <label2>VFX</label2>
                        </labels>
                    </clipitem>
                    <clipitem id="my-clip26">
                        <masterclipid>my-clip26</masterclipid>
                        <name>A003C003_190617_K1TL.mov</name>
                        <enabled>TRUE</enabled>
                        <duration>3053</duration>
                        <rate>
                            <timebase>25</timebase>
                            <ntsc>FALSE</ntsc>
                        </rate>
                        <start>1707</start>
                        <end>1765</end>
                        <in>2455</in>
                        <out>2513</out>
                        <file id="file-48">
                            <name>A003C003_190617_K1TL.mov</name>
                            <pathurl>file://localhost/Volumes/PIGSTORE/Projects/rema_smartboat_0299_jun_2019/editorial/proxies/A003C003_190617_K1TL.mov</pathurl>
                            <rate>
                                <timebase>25</timebase>
                                <ntsc>FALSE</ntsc>
                            </rate>
                            <duration>3053</duration>
                            <timecode>
                                <rate>
                                    <timebase>25</timebase>
                                    <ntsc>FALSE</ntsc>
                                </rate>
                                <string>15:41:21:02</string>
                                <frame>1412027</frame>
                                <displayformat>NDF</displayformat>
                            </timecode>
                            <media>
                                <video>
                                    <samplecharacteristics>
                                        <rate>
                                            <timebase>25</timebase>
                                            <ntsc>FALSE</ntsc>
                                        </rate>
                                        <width>1920</width>
                                        <height>1080</height>
                                        <anamorphic>FALSE</anamorphic>
                                        <pixelaspectratio>square</pixelaspectratio>
                                        <fielddominance>none</fielddominance>
                                    </samplecharacteristics>
                                </video>
                                <audio>
                                    <samplecharacteristics>
                                        <depth>16</depth>
                                        <samplerate>48000</samplerate>
                                    </samplecharacteristics>
                                    <channelcount>1</channelcount>
                                    <audiochannel>
                                        <sourcechannel>1</sourcechannel>
                                    </audiochannel>
                                </audio>
                            </media>
                        </file>
                        <filter/>
                        <labels>
                            <label2>VFX</label2>
                        </labels>
                    </clipitem>
                    <clipitem id="my-clip27">
                        <masterclipid>my-clip27</masterclipid>
                        <name>B001C009_190617_K136.mov</name>
                        <enabled>TRUE</enabled>
                        <duration>1217</duration>
                        <rate>
                            <timebase>25</timebase>
                            <ntsc>FALSE</ntsc>
                        </rate>
                        <start>1790</start>
                        <end>1839</end>
                        <in>370</in>
                        <out>419</out>
                        <file id="file-49">
                            <name>B001C009_190617_K136.mov</name>
                            <pathurl>file://localhost/Volumes/PIGSTORE/Projects/rema_smartboat_0299_jun_2019/editorial/proxies/B001C009_190617_K136.mov</pathurl>
                            <rate>
                                <timebase>25</timebase>
                                <ntsc>FALSE</ntsc>
                            </rate>
                            <duration>1217</duration>
                            <timecode>
                                <rate>
                                    <timebase>25</timebase>
                                    <ntsc>FALSE</ntsc>
                                </rate>
                                <string>17:49:25:23</string>
                                <frame>1604148</frame>
                                <displayformat>NDF</displayformat>
                            </timecode>
                            <media>
                                <video>
                                    <samplecharacteristics>
                                        <rate>
                                            <timebase>25</timebase>
                                            <ntsc>FALSE</ntsc>
                                        </rate>
                                        <width>1920</width>
                                        <height>1080</height>
                                        <anamorphic>FALSE</anamorphic>
                                        <pixelaspectratio>square</pixelaspectratio>
                                        <fielddominance>none</fielddominance>
                                    </samplecharacteristics>
                                </video>
                                <audio>
                                    <samplecharacteristics>
                                        <depth>16</depth>
                                        <samplerate>48000</samplerate>
                                    </samplecharacteristics>
                                    <channelcount>1</channelcount>
                                    <audiochannel>
                                        <sourcechannel>1</sourcechannel>
                                    </audiochannel>
                                </audio>
                            </media>
                        </file>
                        <filter/>
                        <labels>
                            <label2>VFX</label2>
                        </labels>
                    </clipitem>
                    <clipitem id="my-clip28">
                        <masterclipid>my-clip28</masterclipid>
                        <name>B001C009_190617_K136.mov</name>
                        <enabled>TRUE</enabled>
                        <duration>1217</duration>
                        <rate>
                            <timebase>25</timebase>
                            <ntsc>FALSE</ntsc>
                        </rate>
                        <start>1864</start>
                        <end>1913</end>
                        <in>370</in>
                        <out>419</out>
                        <file id="file-49">
                            <name>B001C009_190617_K136.mov</name>
                            <pathurl>file://localhost/Volumes/PIGSTORE/Projects/rema_smartboat_0299_jun_2019/editorial/proxies/B001C009_190617_K136.mov</pathurl>
                            <rate>
                                <timebase>25</timebase>
                                <ntsc>FALSE</ntsc>
                            </rate>
                            <duration>1217</duration>
                            <timecode>
                                <rate>
                                    <timebase>25</timebase>
                                    <ntsc>FALSE</ntsc>
                                </rate>
                                <string>17:49:25:23</string>
                                <frame>1604148</frame>
                                <displayformat>NDF</displayformat>
                            </timecode>
                            <media>
                                <video>
                                    <samplecharacteristics>
                                        <rate>
                                            <timebase>25</timebase>
                                            <ntsc>FALSE</ntsc>
                                        </rate>
                                        <width>1920</width>
                                        <height>1080</height>
                                        <anamorphic>FALSE</anamorphic>
                                        <pixelaspectratio>square</pixelaspectratio>
                                        <fielddominance>none</fielddominance>
                                    </samplecharacteristics>
                                </video>
                                <audio>
                                    <samplecharacteristics>
                                        <depth>16</depth>
                                        <samplerate>48000</samplerate>
                                    </samplecharacteristics>
                                    <channelcount>1</channelcount>
                                    <audiochannel>
                                        <sourcechannel>1</sourcechannel>
                                    </audiochannel>
                                </audio>
                            </media>
                        </file>
                        <filter/>
                        <labels>
                            <label2>VFX</label2>
                        </labels>
                    </clipitem>
                    <clipitem id="my-clip29">
                        <masterclipid>my-clip29</masterclipid>
                        <name>B003C017_190618_K136.mov</name>
                        <enabled>TRUE</enabled>
                        <duration>1688</duration>
                        <rate>
                            <timebase>25</timebase>
                            <ntsc>FALSE</ntsc>
                        </rate>
                        <start>1938</start>
                        <end>1967</end>
                        <in>228</in>
                        <out>257</out>
                        <file id="file-50">
                            <name>B003C017_190618_K136.mov</name>
                            <pathurl>file://localhost/Volumes/PIGSTORE/Projects/rema_smartboat_0299_jun_2019/editorial/proxies/B003C017_190618_K136.mov</pathurl>
                            <rate>
                                <timebase>25</timebase>
                                <ntsc>FALSE</ntsc>
                            </rate>
                            <duration>1688</duration>
                            <timecode>
                                <rate>
                                    <timebase>25</timebase>
                                    <ntsc>FALSE</ntsc>
                                </rate>
                                <string>02:18:42:13</string>
                                <frame>208063</frame>
                                <displayformat>NDF</displayformat>
                            </timecode>
                            <media>
                                <video>
                                    <samplecharacteristics>
                                        <rate>
                                            <timebase>25</timebase>
                                            <ntsc>FALSE</ntsc>
                                        </rate>
                                        <width>1920</width>
                                        <height>1080</height>
                                        <anamorphic>FALSE</anamorphic>
                                        <pixelaspectratio>square</pixelaspectratio>
                                        <fielddominance>none</fielddominance>
                                    </samplecharacteristics>
                                </video>
                                <audio>
                                    <samplecharacteristics>
                                        <depth>16</depth>
                                        <samplerate>48000</samplerate>
                                    </samplecharacteristics>
                                    <channelcount>1</channelcount>
                                    <audiochannel>
                                        <sourcechannel>1</sourcechannel>
                                    </audiochannel>
                                </audio>
                                <audio>
                                    <samplecharacteristics>
                                        <depth>16</depth>
                                        <samplerate>48000</samplerate>
                                    </samplecharacteristics>
                                    <channelcount>1</channelcount>
                                    <audiochannel>
                                        <sourcechannel>2</sourcechannel>
                                    </audiochannel>
                                </audio>
                                <audio>
                                    <samplecharacteristics>
                                        <depth>16</depth>
                                        <samplerate>48000</samplerate>
                                    </samplecharacteristics>
                                    <channelcount>1</channelcount>
                                    <audiochannel>
                                        <sourcechannel>3</sourcechannel>
                                    </audiochannel>
                                </audio>
                                <audio>
                                    <samplecharacteristics>
                                        <depth>16</depth>
                                        <samplerate>48000</samplerate>
                                    </samplecharacteristics>
                                    <channelcount>1</channelcount>
                                    <audiochannel>
                                        <sourcechannel>4</sourcechannel>
                                    </audiochannel>
                                </audio>
                                <audio>
                                    <samplecharacteristics>
                                        <depth>16</depth>
                                        <samplerate>48000</samplerate>
                                    </samplecharacteristics>
                                    <channelcount>1</channelcount>
                                    <audiochannel>
                                        <sourcechannel>5</sourcechannel>
                                    </audiochannel>
                                </audio>
                            </media>
                        </file>
                        <filter/>
                        <labels>
                            <label2>VFX</label2>
                        </labels>
                    </clipitem>
                    <clipitem id="my-clip30">
                        <masterclipid>my-clip30</masterclipid>
                        <name>B003C017_190618_K136.mov</name>
                        <enabled>TRUE</enabled>
                        <duration>1688</duration>
                        <rate>
                            <timebase>25</timebase>
                            <ntsc>FALSE</ntsc>
                        </rate>
                        <start>1992</start>
                        <end>2021</end>
                        <in>228</in>
                        <out>257</out>
                        <file id="file-50">
                            <name>B003C017_190618_K136.mov</name>
                            <pathurl>file://localhost/Volumes/PIGSTORE/Projects/rema_smartboat_0299_jun_2019/editorial/proxies/B003C017_190618_K136.mov</pathurl>
                            <rate>
                                <timebase>25</timebase>
                                <ntsc>FALSE</ntsc>
                            </rate>
                            <duration>1688</duration>
                            <timecode>
                                <rate>
                                    <timebase>25</timebase>
                                    <ntsc>FALSE</ntsc>
                                </rate>
                                <string>02:18:42:13</string>
                                <frame>208063</frame>
                                <displayformat>NDF</displayformat>
                            </timecode>
                            <media>
                                <video>
                                    <samplecharacteristics>
                                        <rate>
                                            <timebase>25</timebase>
                                            <ntsc>FALSE</ntsc>
                                        </rate>
                                        <width>1920</width>
                                        <height>1080</height>
                                        <anamorphic>FALSE</anamorphic>
                                        <pixelaspectratio>square</pixelaspectratio>
                                        <fielddominance>none</fielddominance>
                                    </samplecharacteristics>
                                </video>
                                <audio>
                                    <samplecharacteristics>
                                        <depth>16</depth>
                                        <samplerate>48000</samplerate>
                                    </samplecharacteristics>
                                    <channelcount>1</channelcount>
                                    <audiochannel>
                                        <sourcechannel>1</sourcechannel>
                                    </audiochannel>
                                </audio>
                                <audio>
                                    <samplecharacteristics>
                                        <depth>16</depth>
                                        <samplerate>48000</samplerate>
                                    </samplecharacteristics>
                                    <channelcount>1</channelcount>
                                    <audiochannel>
                                        <sourcechannel>2</sourcechannel>
                                    </audiochannel>
                                </audio>
                                <audio>
                                    <samplecharacteristics>
                                        <depth>16</depth>
                                        <samplerate>48000</samplerate>
                                    </samplecharacteristics>
                                    <channelcount>1</channelcount>
                                    <audiochannel>
                                        <sourcechannel>3</sourcechannel>
                                    </audiochannel>
                                </audio>
                                <audio>
                                    <samplecharacteristics>
                                        <depth>16</depth>
                                        <samplerate>48000</samplerate>
                                    </samplecharacteristics>
                                    <channelcount>1</channelcount>
                                    <audiochannel>
                                        <sourcechannel>4</sourcechannel>
                                    </audiochannel>
                                </audio>
                                <audio>
                                    <samplecharacteristics>
                                        <depth>16</depth>
                                        <samplerate>48000</samplerate>
                                    </samplecharacteristics>
                                    <channelcount>1</channelcount>
                                    <audiochannel>
                                        <sourcechannel>5</sourcechannel>
                                    </audiochannel>
                                </audio>
                            </media>
                        </file>
                        <filter/>
                        <labels>
                            <label2>VFX</label2>
                        </labels>
                    </clipitem>
                    <clipitem id="my-clip31">
                        <masterclipid>my-clip31</masterclipid>
                        <name>A006C019_190619_K1TL.mov</name>
                        <enabled>TRUE</enabled>
                        <duration>628</duration>
                        <rate>
                            <timebase>25</timebase>
                            <ntsc>FALSE</ntsc>
                        </rate>
                        <start>2046</start>
                        <end>2074</end>
                        <in>151</in>
                        <out>179</out>
                        <file id="file-51">
                            <name>A006C019_190619_K1TL.mov</name>
                            <pathurl>file://localhost/Volumes/PIGSTORE/Projects/rema_smartboat_0299_jun_2019/editorial/proxies/A006C019_190619_K1TL.mov</pathurl>
                            <rate>
                                <timebase>25</timebase>
                                <ntsc>FALSE</ntsc>
                            </rate>
                            <duration>628</duration>
                            <timecode>
                                <rate>
                                    <timebase>25</timebase>
                                    <ntsc>FALSE</ntsc>
                                </rate>
                                <string>11:19:46:24</string>
                                <frame>1019674</frame>
                                <displayformat>NDF</displayformat>
                            </timecode>
                            <media>
                                <video>
                                    <samplecharacteristics>
                                        <rate>
                                            <timebase>25</timebase>
                                            <ntsc>FALSE</ntsc>
                                        </rate>
                                        <width>1920</width>
                                        <height>1080</height>
                                        <anamorphic>FALSE</anamorphic>
                                        <pixelaspectratio>square</pixelaspectratio>
                                        <fielddominance>none</fielddominance>
                                    </samplecharacteristics>
                                </video>
                                <audio>
                                    <samplecharacteristics>
                                        <depth>16</depth>
                                        <samplerate>48000</samplerate>
                                    </samplecharacteristics>
                                    <channelcount>1</channelcount>
                                    <audiochannel>
                                        <sourcechannel>1</sourcechannel>
                                    </audiochannel>
                                </audio>
                                <audio>
                                    <samplecharacteristics>
                                        <depth>16</depth>
                                        <samplerate>48000</samplerate>
                                    </samplecharacteristics>
                                    <channelcount>1</channelcount>
                                    <audiochannel>
                                        <sourcechannel>2</sourcechannel>
                                    </audiochannel>
                                </audio>
                                <audio>
                                    <samplecharacteristics>
                                        <depth>16</depth>
                                        <samplerate>48000</samplerate>
                                    </samplecharacteristics>
                                    <channelcount>1</channelcount>
                                    <audiochannel>
                                        <sourcechannel>3</sourcechannel>
                                    </audiochannel>
                                </audio>
                                <audio>
                                    <samplecharacteristics>
                                        <depth>16</depth>
                                        <samplerate>48000</samplerate>
                                    </samplecharacteristics>
                                    <channelcount>1</channelcount>
                                    <audiochannel>
                                        <sourcechannel>4</sourcechannel>
                                    </audiochannel>
                                </audio>
                            </media>
                        </file>
                        <filter/>
                        <labels>
                            <label2>VFX</label2>
                        </labels>
                    </clipitem>
                    <clipitem id="my-clip32">
                        <masterclipid>my-clip32</masterclipid>
                        <name>A006C019_190619_K1TL.mov</name>
                        <enabled>TRUE</enabled>
                        <duration>628</duration>
                        <rate>
                            <timebase>25</timebase>
                            <ntsc>FALSE</ntsc>
                        </rate>
                        <start>2099</start>
                        <end>2127</end>
                        <in>151</in>
                        <out>179</out>
                        <file id="file-51">
                            <name>A006C019_190619_K1TL.mov</name>
                            <pathurl>file://localhost/Volumes/PIGSTORE/Projects/rema_smartboat_0299_jun_2019/editorial/proxies/A006C019_190619_K1TL.mov</pathurl>
                            <rate>
                                <timebase>25</timebase>
                                <ntsc>FALSE</ntsc>
                            </rate>
                            <duration>628</duration>
                            <timecode>
                                <rate>
                                    <timebase>25</timebase>
                                    <ntsc>FALSE</ntsc>
                                </rate>
                                <string>11:19:46:24</string>
                                <frame>1019674</frame>
                                <displayformat>NDF</displayformat>
                            </timecode>
                            <media>
                                <video>
                                    <samplecharacteristics>
                                        <rate>
                                            <timebase>25</timebase>
                                            <ntsc>FALSE</ntsc>
                                        </rate>
                                        <width>1920</width>
                                        <height>1080</height>
                                        <anamorphic>FALSE</anamorphic>
                                        <pixelaspectratio>square</pixelaspectratio>
                                        <fielddominance>none</fielddominance>
                                    </samplecharacteristics>
                                </video>
                                <audio>
                                    <samplecharacteristics>
                                        <depth>16</depth>
                                        <samplerate>48000</samplerate>
                                    </samplecharacteristics>
                                    <channelcount>1</channelcount>
                                    <audiochannel>
                                        <sourcechannel>1</sourcechannel>
                                    </audiochannel>
                                </audio>
                                <audio>
                                    <samplecharacteristics>
                                        <depth>16</depth>
                                        <samplerate>48000</samplerate>
                                    </samplecharacteristics>
                                    <channelcount>1</channelcount>
                                    <audiochannel>
                                        <sourcechannel>2</sourcechannel>
                                    </audiochannel>
                                </audio>
                                <audio>
                                    <samplecharacteristics>
                                        <depth>16</depth>
                                        <samplerate>48000</samplerate>
                                    </samplecharacteristics>
                                    <channelcount>1</channelcount>
                                    <audiochannel>
                                        <sourcechannel>3</sourcechannel>
                                    </audiochannel>
                                </audio>
                                <audio>
                                    <samplecharacteristics>
                                        <depth>16</depth>
                                        <samplerate>48000</samplerate>
                                    </samplecharacteristics>
                                    <channelcount>1</channelcount>
                                    <audiochannel>
                                        <sourcechannel>4</sourcechannel>
                                    </audiochannel>
                                </audio>
                            </media>
                        </file>
                        <filter/>
                        <labels>
                            <label2>VFX</label2>
                        </labels>
                    </clipitem>
                    <clipitem id="my-clip33">
                        <masterclipid>my-clip33</masterclipid>
                        <name>A006C009_190619_K1TL.mov</name>
                        <enabled>TRUE</enabled>
                        <duration>2052</duration>
                        <rate>
                            <timebase>25</timebase>
                            <ntsc>FALSE</ntsc>
                        </rate>
                        <start>2152</start>
                        <end>2173</end>
                        <in>1801</in>
                        <out>1822</out>
                        <file id="file-52">
                            <name>A006C009_190619_K1TL.mov</name>
                            <pathurl>file://localhost/Volumes/PIGSTORE/Projects/rema_smartboat_0299_jun_2019/editorial/proxies/A006C009_190619_K1TL.mov</pathurl>
                            <rate>
                                <timebase>25</timebase>
                                <ntsc>FALSE</ntsc>
                            </rate>
                            <duration>2052</duration>
                            <timecode>
                                <rate>
                                    <timebase>25</timebase>
                                    <ntsc>FALSE</ntsc>
                                </rate>
                                <string>10:28:25:10</string>
                                <frame>942635</frame>
                                <displayformat>NDF</displayformat>
                            </timecode>
                            <media>
                                <video>
                                    <samplecharacteristics>
                                        <rate>
                                            <timebase>25</timebase>
                                            <ntsc>FALSE</ntsc>
                                        </rate>
                                        <width>1920</width>
                                        <height>1080</height>
                                        <anamorphic>FALSE</anamorphic>
                                        <pixelaspectratio>square</pixelaspectratio>
                                        <fielddominance>none</fielddominance>
                                    </samplecharacteristics>
                                </video>
                                <audio>
                                    <samplecharacteristics>
                                        <depth>16</depth>
                                        <samplerate>48000</samplerate>
                                    </samplecharacteristics>
                                    <channelcount>1</channelcount>
                                    <audiochannel>
                                        <sourcechannel>1</sourcechannel>
                                    </audiochannel>
                                </audio>
                                <audio>
                                    <samplecharacteristics>
                                        <depth>16</depth>
                                        <samplerate>48000</samplerate>
                                    </samplecharacteristics>
                                    <channelcount>1</channelcount>
                                    <audiochannel>
                                        <sourcechannel>2</sourcechannel>
                                    </audiochannel>
                                </audio>
                                <audio>
                                    <samplecharacteristics>
                                        <depth>16</depth>
                                        <samplerate>48000</samplerate>
                                    </samplecharacteristics>
                                    <channelcount>1</channelcount>
                                    <audiochannel>
                                        <sourcechannel>3</sourcechannel>
                                    </audiochannel>
                                </audio>
                                <audio>
                                    <samplecharacteristics>
                                        <depth>16</depth>
                                        <samplerate>48000</samplerate>
                                    </samplecharacteristics>
                                    <channelcount>1</channelcount>
                                    <audiochannel>
                                        <sourcechannel>4</sourcechannel>
                                    </audiochannel>
                                </audio>
                            </media>
                        </file>
                        <filter/>
                        <labels>
                            <label2>VFX</label2>
                        </labels>
                    </clipitem>
                    <clipitem id="my-clip34">
                        <masterclipid>my-clip34</masterclipid>
                        <name>A006C009_190619_K1TL.mov</name>
                        <enabled>TRUE</enabled>
                        <duration>2052</duration>
                        <rate>
                            <timebase>25</timebase>
                            <ntsc>FALSE</ntsc>
                        </rate>
                        <start>2198</start>
                        <end>2219</end>
                        <in>1801</in>
                        <out>1822</out>
                        <file id="file-52">
                            <name>A006C009_190619_K1TL.mov</name>
                            <pathurl>file://localhost/Volumes/PIGSTORE/Projects/rema_smartboat_0299_jun_2019/editorial/proxies/A006C009_190619_K1TL.mov</pathurl>
                            <rate>
                                <timebase>25</timebase>
                                <ntsc>FALSE</ntsc>
                            </rate>
                            <duration>2052</duration>
                            <timecode>
                                <rate>
                                    <timebase>25</timebase>
                                    <ntsc>FALSE</ntsc>
                                </rate>
                                <string>10:28:25:10</string>
                                <frame>942635</frame>
                                <displayformat>NDF</displayformat>
                            </timecode>
                            <media>
                                <video>
                                    <samplecharacteristics>
                                        <rate>
                                            <timebase>25</timebase>
                                            <ntsc>FALSE</ntsc>
                                        </rate>
                                        <width>1920</width>
                                        <height>1080</height>
                                        <anamorphic>FALSE</anamorphic>
                                        <pixelaspectratio>square</pixelaspectratio>
                                        <fielddominance>none</fielddominance>
                                    </samplecharacteristics>
                                </video>
                                <audio>
                                    <samplecharacteristics>
                                        <depth>16</depth>
                                        <samplerate>48000</samplerate>
                                    </samplecharacteristics>
                                    <channelcount>1</channelcount>
                                    <audiochannel>
                                        <sourcechannel>1</sourcechannel>
                                    </audiochannel>
                                </audio>
                                <audio>
                                    <samplecharacteristics>
                                        <depth>16</depth>
                                        <samplerate>48000</samplerate>
                                    </samplecharacteristics>
                                    <channelcount>1</channelcount>
                                    <audiochannel>
                                        <sourcechannel>2</sourcechannel>
                                    </audiochannel>
                                </audio>
                                <audio>
                                    <samplecharacteristics>
                                        <depth>16</depth>
                                        <samplerate>48000</samplerate>
                                    </samplecharacteristics>
                                    <channelcount>1</channelcount>
                                    <audiochannel>
                                        <sourcechannel>3</sourcechannel>
                                    </audiochannel>
                                </audio>
                                <audio>
                                    <samplecharacteristics>
                                        <depth>16</depth>
                                        <samplerate>48000</samplerate>
                                    </samplecharacteristics>
                                    <channelcount>1</channelcount>
                                    <audiochannel>
                                        <sourcechannel>4</sourcechannel>
                                    </audiochannel>
                                </audio>
                            </media>
                        </file>
                        <filter/>
                        <labels>
                            <label2>VFX</label2>
                        </labels>
                    </clipitem>
                    <clipitem id="my-clip35">
                        <masterclipid>my-clip35</masterclipid>
                        <name>A006C011_190619_K1TL.mov</name>
                        <enabled>TRUE</enabled>
                        <duration>621</duration>
                        <rate>
                            <timebase>25</timebase>
                            <ntsc>FALSE</ntsc>
                        </rate>
                        <start>2244</start>
                        <end>2262</end>
                        <in>407</in>
                        <out>425</out>
                        <file id="file-53">
                            <name>A006C011_190619_K1TL.mov</name>
                            <pathurl>file://localhost/Volumes/PIGSTORE/Projects/rema_smartboat_0299_jun_2019/editorial/proxies/A006C011_190619_K1TL.mov</pathurl>
                            <rate>
                                <timebase>25</timebase>
                                <ntsc>FALSE</ntsc>
                            </rate>
                            <duration>621</duration>
                            <timecode>
                                <rate>
                                    <timebase>25</timebase>
                                    <ntsc>FALSE</ntsc>
                                </rate>
                                <string>10:38:13:06</string>
                                <frame>957331</frame>
                                <displayformat>NDF</displayformat>
                            </timecode>
                            <media>
                                <video>
                                    <samplecharacteristics>
                                        <rate>
                                            <timebase>25</timebase>
                                            <ntsc>FALSE</ntsc>
                                        </rate>
                                        <width>1920</width>
                                        <height>1080</height>
                                        <anamorphic>FALSE</anamorphic>
                                        <pixelaspectratio>square</pixelaspectratio>
                                        <fielddominance>none</fielddominance>
                                    </samplecharacteristics>
                                </video>
                                <audio>
                                    <samplecharacteristics>
                                        <depth>16</depth>
                                        <samplerate>48000</samplerate>
                                    </samplecharacteristics>
                                    <channelcount>1</channelcount>
                                    <audiochannel>
                                        <sourcechannel>1</sourcechannel>
                                    </audiochannel>
                                </audio>
                                <audio>
                                    <samplecharacteristics>
                                        <depth>16</depth>
                                        <samplerate>48000</samplerate>
                                    </samplecharacteristics>
                                    <channelcount>1</channelcount>
                                    <audiochannel>
                                        <sourcechannel>2</sourcechannel>
                                    </audiochannel>
                                </audio>
                                <audio>
                                    <samplecharacteristics>
                                        <depth>16</depth>
                                        <samplerate>48000</samplerate>
                                    </samplecharacteristics>
                                    <channelcount>1</channelcount>
                                    <audiochannel>
                                        <sourcechannel>3</sourcechannel>
                                    </audiochannel>
                                </audio>
                                <audio>
                                    <samplecharacteristics>
                                        <depth>16</depth>
                                        <samplerate>48000</samplerate>
                                    </samplecharacteristics>
                                    <channelcount>1</channelcount>
                                    <audiochannel>
                                        <sourcechannel>4</sourcechannel>
                                    </audiochannel>
                                </audio>
                            </media>
                        </file>
                        <filter/>
                        <labels>
                            <label2>VFX</label2>
                        </labels>
                    </clipitem>
                    <clipitem id="my-clip36">
                        <masterclipid>my-clip36</masterclipid>
                        <name>A006C011_190619_K1TL.mov</name>
                        <enabled>TRUE</enabled>
                        <duration>621</duration>
                        <rate>
                            <timebase>25</timebase>
                            <ntsc>FALSE</ntsc>
                        </rate>
                        <start>2287</start>
                        <end>2305</end>
                        <in>407</in>
                        <out>425</out>
                        <file id="file-53">
                            <name>A006C011_190619_K1TL.mov</name>
                            <pathurl>file://localhost/Volumes/PIGSTORE/Projects/rema_smartboat_0299_jun_2019/editorial/proxies/A006C011_190619_K1TL.mov</pathurl>
                            <rate>
                                <timebase>25</timebase>
                                <ntsc>FALSE</ntsc>
                            </rate>
                            <duration>621</duration>
                            <timecode>
                                <rate>
                                    <timebase>25</timebase>
                                    <ntsc>FALSE</ntsc>
                                </rate>
                                <string>10:38:13:06</string>
                                <frame>957331</frame>
                                <displayformat>NDF</displayformat>
                            </timecode>
                            <media>
                                <video>
                                    <samplecharacteristics>
                                        <rate>
                                            <timebase>25</timebase>
                                            <ntsc>FALSE</ntsc>
                                        </rate>
                                        <width>1920</width>
                                        <height>1080</height>
                                        <anamorphic>FALSE</anamorphic>
                                        <pixelaspectratio>square</pixelaspectratio>
                                        <fielddominance>none</fielddominance>
                                    </samplecharacteristics>
                                </video>
                                <audio>
                                    <samplecharacteristics>
                                        <depth>16</depth>
                                        <samplerate>48000</samplerate>
                                    </samplecharacteristics>
                                    <channelcount>1</channelcount>
                                    <audiochannel>
                                        <sourcechannel>1</sourcechannel>
                                    </audiochannel>
                                </audio>
                                <audio>
                                    <samplecharacteristics>
                                        <depth>16</depth>
                                        <samplerate>48000</samplerate>
                                    </samplecharacteristics>
                                    <channelcount>1</channelcount>
                                    <audiochannel>
                                        <sourcechannel>2</sourcechannel>
                                    </audiochannel>
                                </audio>
                                <audio>
                                    <samplecharacteristics>
                                        <depth>16</depth>
                                        <samplerate>48000</samplerate>
                                    </samplecharacteristics>
                                    <channelcount>1</channelcount>
                                    <audiochannel>
                                        <sourcechannel>3</sourcechannel>
                                    </audiochannel>
                                </audio>
                                <audio>
                                    <samplecharacteristics>
                                        <depth>16</depth>
                                        <samplerate>48000</samplerate>
                                    </samplecharacteristics>
                                    <channelcount>1</channelcount>
                                    <audiochannel>
                                        <sourcechannel>4</sourcechannel>
                                    </audiochannel>
                                </audio>
                            </media>
                        </file>
                        <filter/>
                        <labels>
                            <label2>VFX</label2>
                        </labels>
                    </clipitem>
                    <clipitem id="my-clip37">
                        <masterclipid>my-clip37</masterclipid>
                        <name>B001C035_190617_K136.mov</name>
                        <enabled>TRUE</enabled>
                        <duration>1487</duration>
                        <rate>
                            <timebase>25</timebase>
                            <ntsc>FALSE</ntsc>
                        </rate>
                        <start>2330</start>
                        <end>2380</end>
                        <in>888</in>
                        <out>938</out>
                        <file id="file-54">
                            <name>B001C035_190617_K136.mov</name>
                            <pathurl>file://localhost/Volumes/PIGSTORE/Projects/rema_smartboat_0299_jun_2019/editorial/proxies/B001C035_190617_K136.mov</pathurl>
                            <rate>
                                <timebase>25</timebase>
                                <ntsc>FALSE</ntsc>
                            </rate>
                            <duration>1487</duration>
                            <timecode>
                                <rate>
                                    <timebase>25</timebase>
                                    <ntsc>FALSE</ntsc>
                                </rate>
                                <string>20:07:48:11</string>
                                <frame>1811711</frame>
                                <displayformat>NDF</displayformat>
                            </timecode>
                            <media>
                                <video>
                                    <samplecharacteristics>
                                        <rate>
                                            <timebase>25</timebase>
                                            <ntsc>FALSE</ntsc>
                                        </rate>
                                        <width>1920</width>
                                        <height>1080</height>
                                        <anamorphic>FALSE</anamorphic>
                                        <pixelaspectratio>square</pixelaspectratio>
                                        <fielddominance>none</fielddominance>
                                    </samplecharacteristics>
                                </video>
                                <audio>
                                    <samplecharacteristics>
                                        <depth>16</depth>
                                        <samplerate>48000</samplerate>
                                    </samplecharacteristics>
                                    <channelcount>1</channelcount>
                                    <audiochannel>
                                        <sourcechannel>1</sourcechannel>
                                    </audiochannel>
                                </audio>
                            </media>
                        </file>
                        <filter/>
                        <labels>
                            <label2>VFX</label2>
                        </labels>
                    </clipitem>
                    <clipitem id="my-clip38">
                        <masterclipid>my-clip38</masterclipid>
                        <name>B001C035_190617_K136.mov</name>
                        <enabled>TRUE</enabled>
                        <duration>1487</duration>
                        <rate>
                            <timebase>25</timebase>
                            <ntsc>FALSE</ntsc>
                        </rate>
                        <start>2405</start>
                        <end>2455</end>
                        <in>888</in>
                        <out>938</out>
                        <file id="file-54">
                            <name>B001C035_190617_K136.mov</name>
                            <pathurl>file://localhost/Volumes/PIGSTORE/Projects/rema_smartboat_0299_jun_2019/editorial/proxies/B001C035_190617_K136.mov</pathurl>
                            <rate>
                                <timebase>25</timebase>
                                <ntsc>FALSE</ntsc>
                            </rate>
                            <duration>1487</duration>
                            <timecode>
                                <rate>
                                    <timebase>25</timebase>
                                    <ntsc>FALSE</ntsc>
                                </rate>
                                <string>20:07:48:11</string>
                                <frame>1811711</frame>
                                <displayformat>NDF</displayformat>
                            </timecode>
                            <media>
                                <video>
                                    <samplecharacteristics>
                                        <rate>
                                            <timebase>25</timebase>
                                            <ntsc>FALSE</ntsc>
                                        </rate>
                                        <width>1920</width>
                                        <height>1080</height>
                                        <anamorphic>FALSE</anamorphic>
                                        <pixelaspectratio>square</pixelaspectratio>
                                        <fielddominance>none</fielddominance>
                                    </samplecharacteristics>
                                </video>
                                <audio>
                                    <samplecharacteristics>
                                        <depth>16</depth>
                                        <samplerate>48000</samplerate>
                                    </samplecharacteristics>
                                    <channelcount>1</channelcount>
                                    <audiochannel>
                                        <sourcechannel>1</sourcechannel>
                                    </audiochannel>
                                </audio>
                            </media>
                        </file>
                        <filter/>
                        <labels>
                            <label2>VFX</label2>
                        </labels>
                    </clipitem>
                    <clipitem id="my-clip39">
                        <masterclipid>my-clip39</masterclipid>
                        <name>B001C014_190617_K136.mov</name>
                        <enabled>TRUE</enabled>
                        <duration>2339</duration>
                        <rate>
                            <timebase>25</timebase>
                            <ntsc>FALSE</ntsc>
                        </rate>
                        <start>2480</start>
                        <end>2539</end>
                        <in>1811</in>
                        <out>1870</out>
                        <file id="file-55">
                            <name>B001C014_190617_K136.mov</name>
                            <pathurl>file://localhost/Volumes/PIGSTORE/Projects/rema_smartboat_0299_jun_2019/editorial/proxies/B001C014_190617_K136.mov</pathurl>
                            <rate>
                                <timebase>25</timebase>
                                <ntsc>FALSE</ntsc>
                            </rate>
                            <duration>2339</duration>
                            <timecode>
                                <rate>
                                    <timebase>25</timebase>
                                    <ntsc>FALSE</ntsc>
                                </rate>
                                <string>18:01:38:15</string>
                                <frame>1622465</frame>
                                <displayformat>NDF</displayformat>
                            </timecode>
                            <media>
                                <video>
                                    <samplecharacteristics>
                                        <rate>
                                            <timebase>25</timebase>
                                            <ntsc>FALSE</ntsc>
                                        </rate>
                                        <width>1920</width>
                                        <height>1080</height>
                                        <anamorphic>FALSE</anamorphic>
                                        <pixelaspectratio>square</pixelaspectratio>
                                        <fielddominance>none</fielddominance>
                                    </samplecharacteristics>
                                </video>
                                <audio>
                                    <samplecharacteristics>
                                        <depth>16</depth>
                                        <samplerate>48000</samplerate>
                                    </samplecharacteristics>
                                    <channelcount>1</channelcount>
                                    <audiochannel>
                                        <sourcechannel>1</sourcechannel>
                                    </audiochannel>
                                </audio>
                            </media>
                        </file>
                        <filter/>
                        <labels>
                            <label2>VFX</label2>
                        </labels>
                    </clipitem>
                    <clipitem id="my-clip40">
                        <masterclipid>my-clip40</masterclipid>
                        <name>B001C014_190617_K136.mov</name>
                        <enabled>TRUE</enabled>
                        <duration>2339</duration>
                        <rate>
                            <timebase>25</timebase>
                            <ntsc>FALSE</ntsc>
                        </rate>
                        <start>2564</start>
                        <end>2623</end>
                        <in>1811</in>
                        <out>1870</out>
                        <file id="file-55">
                            <name>B001C014_190617_K136.mov</name>
                            <pathurl>file://localhost/Volumes/PIGSTORE/Projects/rema_smartboat_0299_jun_2019/editorial/proxies/B001C014_190617_K136.mov</pathurl>
                            <rate>
                                <timebase>25</timebase>
                                <ntsc>FALSE</ntsc>
                            </rate>
                            <duration>2339</duration>
                            <timecode>
                                <rate>
                                    <timebase>25</timebase>
                                    <ntsc>FALSE</ntsc>
                                </rate>
                                <string>18:01:38:15</string>
                                <frame>1622465</frame>
                                <displayformat>NDF</displayformat>
                            </timecode>
                            <media>
                                <video>
                                    <samplecharacteristics>
                                        <rate>
                                            <timebase>25</timebase>
                                            <ntsc>FALSE</ntsc>
                                        </rate>
                                        <width>1920</width>
                                        <height>1080</height>
                                        <anamorphic>FALSE</anamorphic>
                                        <pixelaspectratio>square</pixelaspectratio>
                                        <fielddominance>none</fielddominance>
                                    </samplecharacteristics>
                                </video>
                                <audio>
                                    <samplecharacteristics>
                                        <depth>16</depth>
                                        <samplerate>48000</samplerate>
                                    </samplecharacteristics>
                                    <channelcount>1</channelcount>
                                    <audiochannel>
                                        <sourcechannel>1</sourcechannel>
                                    </audiochannel>
                                </audio>
                            </media>
                        </file>
                        <filter/>
                        <labels>
                            <label2>VFX</label2>
                        </labels>
                    </clipitem>
                    <clipitem id="my-clip41">
                        <masterclipid>my-clip41</masterclipid>
                        <name>B001C014_190617_K136.mov</name>
                        <enabled>TRUE</enabled>
                        <duration>2339</duration>
                        <rate>
                            <timebase>25</timebase>
                            <ntsc>FALSE</ntsc>
                        </rate>
                        <start>2648</start>
                        <end>2707</end>
                        <in>1811</in>
                        <out>1870</out>
                        <file id="file-55">
                            <name>B001C014_190617_K136.mov</name>
                            <pathurl>file://localhost/Volumes/PIGSTORE/Projects/rema_smartboat_0299_jun_2019/editorial/proxies/B001C014_190617_K136.mov</pathurl>
                            <rate>
                                <timebase>25</timebase>
                                <ntsc>FALSE</ntsc>
                            </rate>
                            <duration>2339</duration>
                            <timecode>
                                <rate>
                                    <timebase>25</timebase>
                                    <ntsc>FALSE</ntsc>
                                </rate>
                                <string>18:01:38:15</string>
                                <frame>1622465</frame>
                                <displayformat>NDF</displayformat>
                            </timecode>
                            <media>
                                <video>
                                    <samplecharacteristics>
                                        <rate>
                                            <timebase>25</timebase>
                                            <ntsc>FALSE</ntsc>
                                        </rate>
                                        <width>1920</width>
                                        <height>1080</height>
                                        <anamorphic>FALSE</anamorphic>
                                        <pixelaspectratio>square</pixelaspectratio>
                                        <fielddominance>none</fielddominance>
                                    </samplecharacteristics>
                                </video>
                                <audio>
                                    <samplecharacteristics>
                                        <depth>16</depth>
                                        <samplerate>48000</samplerate>
                                    </samplecharacteristics>
                                    <channelcount>1</channelcount>
                                    <audiochannel>
                                        <sourcechannel>1</sourcechannel>
                                    </audiochannel>
                                </audio>
                            </media>
                        </file>
                        <filter/>
                        <labels>
                            <label2>VFX</label2>
                        </labels>
                    </clipitem>
                    <clipitem id="my-clip42">
                        <masterclipid>my-clip42</masterclipid>
                        <name>B001C039_190617_K136.mov</name>
                        <enabled>TRUE</enabled>
                        <duration>1600</duration>
                        <rate>
                            <timebase>25</timebase>
                            <ntsc>FALSE</ntsc>
                        </rate>
                        <start>2732</start>
                        <end>2815</end>
                        <in>928</in>
                        <out>1011</out>
                        <file id="file-56">
                            <name>B001C039_190617_K136.mov</name>
                            <pathurl>file://localhost/Volumes/PIGSTORE/Projects/rema_smartboat_0299_jun_2019/editorial/proxies/B001C039_190617_K136.mov</pathurl>
                            <rate>
                                <timebase>25</timebase>
                                <ntsc>FALSE</ntsc>
                            </rate>
                            <duration>1600</duration>
                            <timecode>
                                <rate>
                                    <timebase>25</timebase>
                                    <ntsc>FALSE</ntsc>
                                </rate>
                                <string>20:17:33:24</string>
                                <frame>1826349</frame>
                                <displayformat>NDF</displayformat>
                            </timecode>
                            <media>
                                <video>
                                    <samplecharacteristics>
                                        <rate>
                                            <timebase>25</timebase>
                                            <ntsc>FALSE</ntsc>
                                        </rate>
                                        <width>1920</width>
                                        <height>1080</height>
                                        <anamorphic>FALSE</anamorphic>
                                        <pixelaspectratio>square</pixelaspectratio>
                                        <fielddominance>none</fielddominance>
                                    </samplecharacteristics>
                                </video>
                                <audio>
                                    <samplecharacteristics>
                                        <depth>16</depth>
                                        <samplerate>48000</samplerate>
                                    </samplecharacteristics>
                                    <channelcount>1</channelcount>
                                    <audiochannel>
                                        <sourcechannel>1</sourcechannel>
                                    </audiochannel>
                                </audio>
                            </media>
                        </file>
                        <filter/>
                        <labels>
                            <label2>VFX</label2>
                        </labels>
                    </clipitem>
                    <clipitem id="my-clip43">
                        <masterclipid>my-clip43</masterclipid>
                        <name>B001C039_190617_K136.mov</name>
                        <enabled>TRUE</enabled>
                        <duration>1600</duration>
                        <rate>
                            <timebase>25</timebase>
                            <ntsc>FALSE</ntsc>
                        </rate>
                        <start>2840</start>
                        <end>2923</end>
                        <in>928</in>
                        <out>1011</out>
                        <file id="file-56">
                            <name>B001C039_190617_K136.mov</name>
                            <pathurl>file://localhost/Volumes/PIGSTORE/Projects/rema_smartboat_0299_jun_2019/editorial/proxies/B001C039_190617_K136.mov</pathurl>
                            <rate>
                                <timebase>25</timebase>
                                <ntsc>FALSE</ntsc>
                            </rate>
                            <duration>1600</duration>
                            <timecode>
                                <rate>
                                    <timebase>25</timebase>
                                    <ntsc>FALSE</ntsc>
                                </rate>
                                <string>20:17:33:24</string>
                                <frame>1826349</frame>
                                <displayformat>NDF</displayformat>
                            </timecode>
                            <media>
                                <video>
                                    <samplecharacteristics>
                                        <rate>
                                            <timebase>25</timebase>
                                            <ntsc>FALSE</ntsc>
                                        </rate>
                                        <width>1920</width>
                                        <height>1080</height>
                                        <anamorphic>FALSE</anamorphic>
                                        <pixelaspectratio>square</pixelaspectratio>
                                        <fielddominance>none</fielddominance>
                                    </samplecharacteristics>
                                </video>
                                <audio>
                                    <samplecharacteristics>
                                        <depth>16</depth>
                                        <samplerate>48000</samplerate>
                                    </samplecharacteristics>
                                    <channelcount>1</channelcount>
                                    <audiochannel>
                                        <sourcechannel>1</sourcechannel>
                                    </audiochannel>
                                </audio>
                            </media>
                        </file>
                        <filter/>
                        <labels>
                            <label2>VFX</label2>
                        </labels>
                    </clipitem>
                    <clipitem id="my-clip44">
                        <masterclipid>my-clip44</masterclipid>
                        <name>B001C042_190617_K136.mov</name>
                        <enabled>TRUE</enabled>
                        <duration>1658</duration>
                        <rate>
                            <timebase>25</timebase>
                            <ntsc>FALSE</ntsc>
                        </rate>
                        <start>2948</start>
                        <end>3069</end>
                        <in>703</in>
                        <out>824</out>
                        <file id="file-57">
                            <name>B001C042_190617_K136.mov</name>
                            <pathurl>file://localhost/Volumes/PIGSTORE/Projects/rema_smartboat_0299_jun_2019/editorial/proxies/B001C042_190617_K136.mov</pathurl>
                            <rate>
                                <timebase>25</timebase>
                                <ntsc>FALSE</ntsc>
                            </rate>
                            <duration>1658</duration>
                            <timecode>
                                <rate>
                                    <timebase>25</timebase>
                                    <ntsc>FALSE</ntsc>
                                </rate>
                                <string>20:31:03:20</string>
                                <frame>1846595</frame>
                                <displayformat>NDF</displayformat>
                            </timecode>
                            <media>
                                <video>
                                    <samplecharacteristics>
                                        <rate>
                                            <timebase>25</timebase>
                                            <ntsc>FALSE</ntsc>
                                        </rate>
                                        <width>1920</width>
                                        <height>1080</height>
                                        <anamorphic>FALSE</anamorphic>
                                        <pixelaspectratio>square</pixelaspectratio>
                                        <fielddominance>none</fielddominance>
                                    </samplecharacteristics>
                                </video>
                                <audio>
                                    <samplecharacteristics>
                                        <depth>16</depth>
                                        <samplerate>48000</samplerate>
                                    </samplecharacteristics>
                                    <channelcount>1</channelcount>
                                    <audiochannel>
                                        <sourcechannel>1</sourcechannel>
                                    </audiochannel>
                                </audio>
                            </media>
                        </file>
                        <filter/>
                        <labels>
                            <label2>VFX</label2>
                        </labels>
                    </clipitem>
                    <clipitem id="my-clip45">
                        <masterclipid>my-clip45</masterclipid>
                        <name>B001C042_190617_K136.mov</name>
                        <enabled>TRUE</enabled>
                        <duration>1658</duration>
                        <rate>
                            <timebase>25</timebase>
                            <ntsc>FALSE</ntsc>
                        </rate>
                        <start>3094</start>
                        <end>3215</end>
                        <in>703</in>
                        <out>824</out>
                        <file id="file-57">
                            <name>B001C042_190617_K136.mov</name>
                            <pathurl>file://localhost/Volumes/PIGSTORE/Projects/rema_smartboat_0299_jun_2019/editorial/proxies/B001C042_190617_K136.mov</pathurl>
                            <rate>
                                <timebase>25</timebase>
                                <ntsc>FALSE</ntsc>
                            </rate>
                            <duration>1658</duration>
                            <timecode>
                                <rate>
                                    <timebase>25</timebase>
                                    <ntsc>FALSE</ntsc>
                                </rate>
                                <string>20:31:03:20</string>
                                <frame>1846595</frame>
                                <displayformat>NDF</displayformat>
                            </timecode>
                            <media>
                                <video>
                                    <samplecharacteristics>
                                        <rate>
                                            <timebase>25</timebase>
                                            <ntsc>FALSE</ntsc>
                                        </rate>
                                        <width>1920</width>
                                        <height>1080</height>
                                        <anamorphic>FALSE</anamorphic>
                                        <pixelaspectratio>square</pixelaspectratio>
                                        <fielddominance>none</fielddominance>
                                    </samplecharacteristics>
                                </video>
                                <audio>
                                    <samplecharacteristics>
                                        <depth>16</depth>
                                        <samplerate>48000</samplerate>
                                    </samplecharacteristics>
                                    <channelcount>1</channelcount>
                                    <audiochannel>
                                        <sourcechannel>1</sourcechannel>
                                    </audiochannel>
                                </audio>
                            </media>
                        </file>
                        <filter/>
                        <labels>
                            <label2>VFX</label2>
                        </labels>
                    </clipitem>
                    <clipitem id="my-clip46">
                        <masterclipid>my-clip46</masterclipid>
                        <name>A001C001_190628_K136.mov</name>
                        <enabled>TRUE</enabled>
                        <duration>7910</duration>
                        <rate>
                            <timebase>25</timebase>
                            <ntsc>FALSE</ntsc>
                        </rate>
                        <start>3240</start>
                        <end>3289</end>
                        <in>2547</in>
                        <out>2596</out>
                        <file id="file-58">
                            <name>A001C001_190628_K136.mov</name>
                            <pathurl>file://localhost/Volumes/PIGSTORE/Projects/rema_smartboat_0299_jun_2019/editorial/proxies/A001C001_190628_K136.mov</pathurl>
                            <rate>
                                <timebase>25</timebase>
                                <ntsc>FALSE</ntsc>
                            </rate>
                            <duration>7910</duration>
                            <timecode>
                                <rate>
                                    <timebase>25</timebase>
                                    <ntsc>FALSE</ntsc>
                                </rate>
                                <string>03:13:51:01</string>
                                <frame>290776</frame>
                                <displayformat>NDF</displayformat>
                            </timecode>
                            <media>
                                <video>
                                    <samplecharacteristics>
                                        <rate>
                                            <timebase>25</timebase>
                                            <ntsc>FALSE</ntsc>
                                        </rate>
                                        <width>1920</width>
                                        <height>1080</height>
                                        <anamorphic>FALSE</anamorphic>
                                        <pixelaspectratio>square</pixelaspectratio>
                                        <fielddominance>none</fielddominance>
                                    </samplecharacteristics>
                                </video>
                            </media>
                        </file>
                        <filter/>
                        <labels>
                            <label2>VFX</label2>
                        </labels>
                    </clipitem>
                    <clipitem id="my-clip47">
                        <masterclipid>my-clip47</masterclipid>
                        <name>A001C001_190628_K136.mov</name>
                        <enabled>TRUE</enabled>
                        <duration>7910</duration>
                        <rate>
                            <timebase>25</timebase>
                            <ntsc>FALSE</ntsc>
                        </rate>
                        <start>3314</start>
                        <end>3363</end>
                        <in>2547</in>
                        <out>2596</out>
                        <file id="file-58">
                            <name>A001C001_190628_K136.mov</name>
                            <pathurl>file://localhost/Volumes/PIGSTORE/Projects/rema_smartboat_0299_jun_2019/editorial/proxies/A001C001_190628_K136.mov</pathurl>
                            <rate>
                                <timebase>25</timebase>
                                <ntsc>FALSE</ntsc>
                            </rate>
                            <duration>7910</duration>
                            <timecode>
                                <rate>
                                    <timebase>25</timebase>
                                    <ntsc>FALSE</ntsc>
                                </rate>
                                <string>03:13:51:01</string>
                                <frame>290776</frame>
                                <displayformat>NDF</displayformat>
                            </timecode>
                            <media>
                                <video>
                                    <samplecharacteristics>
                                        <rate>
                                            <timebase>25</timebase>
                                            <ntsc>FALSE</ntsc>
                                        </rate>
                                        <width>1920</width>
                                        <height>1080</height>
                                        <anamorphic>FALSE</anamorphic>
                                        <pixelaspectratio>square</pixelaspectratio>
                                        <fielddominance>none</fielddominance>
                                    </samplecharacteristics>
                                </video>
                            </media>
                        </file>
                        <filter/>
                        <labels>
                            <label2>VFX</label2>
                        </labels>
                    </clipitem>
                    <clipitem id="my-clip48">
                        <masterclipid>my-clip48</masterclipid>
                        <name>118357680_main_xl.mp4</name>
                        <enabled>TRUE</enabled>
                        <duration>250</duration>
                        <rate>
                            <timebase>25</timebase>
                            <ntsc>FALSE</ntsc>
                        </rate>
                        <start>3388</start>
                        <end>3416</end>
                        <in>88</in>
                        <out>116</out>
                        <file id="file-59">
                            <name>118357680_main_xl.mp4</name>
                            <pathurl>file://localhost/Volumes/PIGSTORE/Projects/rema_smartboat_0299_jun_2019/editorial/project/premiere/BEN/ASSETS/STOCK/temp/118357680_main_xl.mp4</pathurl>
                            <rate>
                                <timebase>25</timebase>
                                <ntsc>FALSE</ntsc>
                            </rate>
                            <duration>250</duration>
                            <timecode>
                                <rate>
                                    <timebase>25</timebase>
                                    <ntsc>FALSE</ntsc>
                                </rate>
                                <string>00:00:00:00</string>
                                <frame>0</frame>
                                <displayformat>NDF</displayformat>
                            </timecode>
                            <media>
                                <video>
                                    <samplecharacteristics>
                                        <rate>
                                            <timebase>25</timebase>
                                            <ntsc>FALSE</ntsc>
                                        </rate>
                                        <width>640</width>
                                        <height>360</height>
                                        <anamorphic>FALSE</anamorphic>
                                        <pixelaspectratio>square</pixelaspectratio>
                                        <fielddominance>none</fielddominance>
                                    </samplecharacteristics>
                                </video>
                            </media>
                        </file>
                        <filter/>
                        <labels>
                            <label2>VFX</label2>
                        </labels>
                    </clipitem>
                    <clipitem id="my-clip49">
                        <masterclipid>my-clip49</masterclipid>
                        <name>118357680_main_xl.mp4</name>
                        <enabled>TRUE</enabled>
                        <duration>250</duration>
                        <rate>
                            <timebase>25</timebase>
                            <ntsc>FALSE</ntsc>
                        </rate>
                        <start>3441</start>
                        <end>3469</end>
                        <in>88</in>
                        <out>116</out>
                        <file id="file-59">
                            <name>118357680_main_xl.mp4</name>
                            <pathurl>file://localhost/Volumes/PIGSTORE/Projects/rema_smartboat_0299_jun_2019/editorial/project/premiere/BEN/ASSETS/STOCK/temp/118357680_main_xl.mp4</pathurl>
                            <rate>
                                <timebase>25</timebase>
                                <ntsc>FALSE</ntsc>
                            </rate>
                            <duration>250</duration>
                            <timecode>
                                <rate>
                                    <timebase>25</timebase>
                                    <ntsc>FALSE</ntsc>
                                </rate>
                                <string>00:00:00:00</string>
                                <frame>0</frame>
                                <displayformat>NDF</displayformat>
                            </timecode>
                            <media>
                                <video>
                                    <samplecharacteristics>
                                        <rate>
                                            <timebase>25</timebase>
                                            <ntsc>FALSE</ntsc>
                                        </rate>
                                        <width>640</width>
                                        <height>360</height>
                                        <anamorphic>FALSE</anamorphic>
                                        <pixelaspectratio>square</pixelaspectratio>
                                        <fielddominance>none</fielddominance>
                                    </samplecharacteristics>
                                </video>
                            </media>
                        </file>
                        <filter/>
                        <labels>
                            <label2>VFX</label2>
                        </labels>
                    </clipitem>
                    <clipitem id="my-clip50">
                        <masterclipid>my-clip50</masterclipid>
                        <name>092451167_main_xl.mp4</name>
                        <enabled>TRUE</enabled>
                        <duration>1038</duration>
                        <rate>
                            <timebase>25</timebase>
                            <ntsc>FALSE</ntsc>
                        </rate>
                        <start>3494</start>
                        <end>3514</end>
                        <in>215</in>
                        <out>235</out>
                        <file id="file-60">
                            <name>092451167_main_xl.mp4</name>
                            <pathurl>file://localhost/Volumes/PIGSTORE/Projects/rema_smartboat_0299_jun_2019/editorial/project/premiere/BEN/ASSETS/STOCK/temp/092451167_main_xl.mp4</pathurl>
                            <rate>
                                <timebase>25</timebase>
                                <ntsc>FALSE</ntsc>
                            </rate>
                            <duration>1038</duration>
                            <timecode>
                                <rate>
                                    <timebase>25</timebase>
                                    <ntsc>FALSE</ntsc>
                                </rate>
                                <string>00:00:00:00</string>
                                <frame>0</frame>
                                <displayformat>NDF</displayformat>
                            </timecode>
                            <media>
                                <video>
                                    <samplecharacteristics>
                                        <rate>
                                            <timebase>25</timebase>
                                            <ntsc>FALSE</ntsc>
                                        </rate>
                                        <width>640</width>
                                        <height>360</height>
                                        <anamorphic>FALSE</anamorphic>
                                        <pixelaspectratio>square</pixelaspectratio>
                                        <fielddominance>none</fielddominance>
                                    </samplecharacteristics>
                                </video>
                            </media>
                        </file>
                        <filter/>
                        <labels>
                            <label2>VFX</label2>
                        </labels>
                    </clipitem>
                    <clipitem id="my-clip51">
                        <masterclipid>my-clip51</masterclipid>
                        <name>092451167_main_xl.mp4</name>
                        <enabled>TRUE</enabled>
                        <duration>1038</duration>
                        <rate>
                            <timebase>25</timebase>
                            <ntsc>FALSE</ntsc>
                        </rate>
                        <start>3539</start>
                        <end>3559</end>
                        <in>215</in>
                        <out>235</out>
                        <file id="file-60">
                            <name>092451167_main_xl.mp4</name>
                            <pathurl>file://localhost/Volumes/PIGSTORE/Projects/rema_smartboat_0299_jun_2019/editorial/project/premiere/BEN/ASSETS/STOCK/temp/092451167_main_xl.mp4</pathurl>
                            <rate>
                                <timebase>25</timebase>
                                <ntsc>FALSE</ntsc>
                            </rate>
                            <duration>1038</duration>
                            <timecode>
                                <rate>
                                    <timebase>25</timebase>
                                    <ntsc>FALSE</ntsc>
                                </rate>
                                <string>00:00:00:00</string>
                                <frame>0</frame>
                                <displayformat>NDF</displayformat>
                            </timecode>
                            <media>
                                <video>
                                    <samplecharacteristics>
                                        <rate>
                                            <timebase>25</timebase>
                                            <ntsc>FALSE</ntsc>
                                        </rate>
                                        <width>640</width>
                                        <height>360</height>
                                        <anamorphic>FALSE</anamorphic>
                                        <pixelaspectratio>square</pixelaspectratio>
                                        <fielddominance>none</fielddominance>
                                    </samplecharacteristics>
                                </video>
                            </media>
                        </file>
                        <filter/>
                        <labels>
                            <label2>VFX</label2>
                        </labels>
                    </clipitem>
                    <clipitem id="my-clip52">
                        <masterclipid>my-clip52</masterclipid>
                        <name>B003C004_190618_K136.mov</name>
                        <enabled>TRUE</enabled>
                        <duration>591</duration>
                        <rate>
                            <timebase>25</timebase>
                            <ntsc>FALSE</ntsc>
                        </rate>
                        <start>3584</start>
                        <end>3591</end>
                        <in>157</in>
                        <out>164</out>
                        <file id="file-61">
                            <name>B003C004_190618_K136.mov</name>
                            <pathurl>file://localhost/Volumes/PIGSTORE/Projects/rema_smartboat_0299_jun_2019/editorial/proxies/B003C004_190618_K136.mov</pathurl>
                            <rate>
                                <timebase>25</timebase>
                                <ntsc>FALSE</ntsc>
                            </rate>
                            <duration>591</duration>
                            <timecode>
                                <rate>
                                    <timebase>25</timebase>
                                    <ntsc>FALSE</ntsc>
                                </rate>
                                <string>14:08:42:04</string>
                                <frame>1273054</frame>
                                <displayformat>NDF</displayformat>
                            </timecode>
                            <media>
                                <video>
                                    <samplecharacteristics>
                                        <rate>
                                            <timebase>25</timebase>
                                            <ntsc>FALSE</ntsc>
                                        </rate>
                                        <width>1920</width>
                                        <height>1080</height>
                                        <anamorphic>FALSE</anamorphic>
                                        <pixelaspectratio>square</pixelaspectratio>
                                        <fielddominance>none</fielddominance>
                                    </samplecharacteristics>
                                </video>
                                <audio>
                                    <samplecharacteristics>
                                        <depth>16</depth>
                                        <samplerate>48000</samplerate>
                                    </samplecharacteristics>
                                    <channelcount>1</channelcount>
                                    <audiochannel>
                                        <sourcechannel>1</sourcechannel>
                                    </audiochannel>
                                </audio>
                            </media>
                        </file>
                        <filter/>
                        <labels>
                            <label2>VFX</label2>
                        </labels>
                    </clipitem>
                    <clipitem id="my-clip53">
                        <masterclipid>my-clip53</masterclipid>
                        <name>B003C004_190618_K136.mov</name>
                        <enabled>TRUE</enabled>
                        <duration>591</duration>
                        <rate>
                            <timebase>25</timebase>
                            <ntsc>FALSE</ntsc>
                        </rate>
                        <start>3616</start>
                        <end>3623</end>
                        <in>157</in>
                        <out>164</out>
                        <file id="file-61">
                            <name>B003C004_190618_K136.mov</name>
                            <pathurl>file://localhost/Volumes/PIGSTORE/Projects/rema_smartboat_0299_jun_2019/editorial/proxies/B003C004_190618_K136.mov</pathurl>
                            <rate>
                                <timebase>25</timebase>
                                <ntsc>FALSE</ntsc>
                            </rate>
                            <duration>591</duration>
                            <timecode>
                                <rate>
                                    <timebase>25</timebase>
                                    <ntsc>FALSE</ntsc>
                                </rate>
                                <string>14:08:42:04</string>
                                <frame>1273054</frame>
                                <displayformat>NDF</displayformat>
                            </timecode>
                            <media>
                                <video>
                                    <samplecharacteristics>
                                        <rate>
                                            <timebase>25</timebase>
                                            <ntsc>FALSE</ntsc>
                                        </rate>
                                        <width>1920</width>
                                        <height>1080</height>
                                        <anamorphic>FALSE</anamorphic>
                                        <pixelaspectratio>square</pixelaspectratio>
                                        <fielddominance>none</fielddominance>
                                    </samplecharacteristics>
                                </video>
                                <audio>
                                    <samplecharacteristics>
                                        <depth>16</depth>
                                        <samplerate>48000</samplerate>
                                    </samplecharacteristics>
                                    <channelcount>1</channelcount>
                                    <audiochannel>
                                        <sourcechannel>1</sourcechannel>
                                    </audiochannel>
                                </audio>
                            </media>
                        </file>
                        <filter/>
                        <labels>
                            <label2>VFX</label2>
                        </labels>
                    </clipitem>
                    <enabled>TRUE</enabled>
                    <locked>FALSE</locked>
                </track>
            </video>
            <audio>
                <numOutputChannels>2</numOutputChannels>
                <format>
                    <samplecharacteristics>
                        <depth>16</depth>
                        <samplerate>48000</samplerate>
                    </samplecharacteristics>
                </format>
                <outputs>
                    <group>
                        <index>1</index>
                        <numchannels>1</numchannels>
                        <downmix>0</downmix>
                        <channel>
                            <index>1</index>
                        </channel>
                    </group>
                    <group>
                        <index>2</index>
                        <numchannels>1</numchannels>
                        <downmix>0</downmix>
                        <channel>
                            <index>2</index>
                        </channel>
                    </group>
                </outputs>
                <track TL.SQTrackAudioKeyframeStyle="0" TL.SQTrackShy="0" TL.SQTrackExpandedHeight="15" TL.SQTrackExpanded="0" MZ.TrackTargeted="1" PannerCurrentValue="0.5" PannerIsInverted="true" PannerStartKeyframe="-91445760000000000,0.5,0,0,0,0,0,0" PannerName="Balance" currentExplodedTrackIndex="0" totalExplodedTrackCount="2" premiereTrackType="Stereo">
                    <enabled>TRUE</enabled>
                    <locked>FALSE</locked>
                    <outputchannelindex>1</outputchannelindex>
                </track>
                <track TL.SQTrackAudioKeyframeStyle="0" TL.SQTrackShy="0" TL.SQTrackExpandedHeight="15" TL.SQTrackExpanded="0" MZ.TrackTargeted="1" PannerCurrentValue="0.5" PannerIsInverted="true" PannerStartKeyframe="-91445760000000000,0.5,0,0,0,0,0,0" PannerName="Balance" currentExplodedTrackIndex="1" totalExplodedTrackCount="2" premiereTrackType="Stereo">
                    <enabled>TRUE</enabled>
                    <locked>FALSE</locked>
                    <outputchannelindex>2</outputchannelindex>
                </track>
            </audio>
        </media>
        <timecode>
            <rate>
                <timebase>25</timebase>
                <ntsc>FALSE</ntsc>
            </rate>
            <string>00:00:00:00</string>
            <frame>0</frame>
            <displayformat>NDF</displayformat>
        </timecode>
        <marker>
            <comment/>
            <name/>
            <in>1693</in>
            <out>-1</out>
        </marker>
        <marker>
            <comment/>
            <name/>
            <in>1282</in>
            <out>-1</out>
        </marker>
        <marker>
            <comment/>
            <name/>
            <in>447</in>
            <out>-1</out>
        </marker>
        <marker>
            <comment/>
            <name/>
            <in>2292</in>
            <out>-1</out>
        </marker>
        <labels>
            <label2>Forest</label2>
        </labels>
        <logginginfo>
            <description/>
            <scene/>
            <shottake/>
            <lognote/>
            <good/>
            <originalvideofilename/>
            <originalaudiofilename/>
        </logginginfo>
        <filter>
            <effect/>
        </filter>
    </sequence>
</xmeml>