<?xml version="1.0" encoding="UTF-8"?>
<!DOCTYPE xmeml>
<xmeml version="4">
    <sequence id="Test_twoFiles" TL.SQAudioVisibleBase="0" TL.SQVideoVisibleBase="0" TL.SQVisibleBaseTime="4688689668533" TL.SQAVDividerPosition="0.518388807774" TL.SQHideShyTracks="0" TL.SQHeaderWidth="236" Monitor.ProgramZoomOut="16511040000000" Monitor.ProgramZoomIn="0" TL.SQTimePerPixel="0.015492098377796014" AM.TrackVScrollPosition="0" AM.TrackScrollPosition="0" MZ.EditLine="10516262400000" MZ.Sequence.PreviewFrameSizeHeight="1080" MZ.Sequence.PreviewFrameSizeWidth="1920" MZ.Sequence.AudioTimeDisplayFormat="200" MZ.Sequence.PreviewRenderingClassID="1297106761" MZ.Sequence.PreviewRenderingPresetCodec="1297107278" MZ.Sequence.PreviewRenderingPresetPath="EncoderPresets/SequencePreview/cc7991f5-c236-4db1-957e-2c71f924e81c/I-Frame Only MPEG.epr" MZ.Sequence.PreviewUseMaxRenderQuality="false" MZ.Sequence.PreviewUseMaxBitDepth="false" MZ.Sequence.EditingModeGUID="cc7991f5-c236-4db1-957e-2c71f924e81c" MZ.Sequence.VideoTimeDisplayFormat="101" MZ.WorkOutPoint="12274053120000" MZ.WorkInPoint="4694215680000" explodedTracks="true">
        <uuid>51ef83b5-aaaa-4ab1-8265-b34e8a6e7f11</uuid>
        <duration>3951</duration>
        <rate>
            <timebase>25</timebase>
            <ntsc>FALSE</ntsc>
        </rate>
        <name>Test_twoFiles</name>
        <media>
            <video>
                <format>
                    <samplecharacteristics>
                        <rate>
                            <timebase>25</timebase>
                            <ntsc>FALSE</ntsc>
                        </rate>
                        <codec>
                            <name>Apple ProRes 422</name>
                            <appspecificdata>
                                <appname>Final Cut Pro</appname>
                                <appmanufacturer>Apple Inc.</appmanufacturer>
                                <appversion>7.0</appversion>
                                <data>
                                    <qtcodec>
                                        <codecname>Apple ProRes 422</codecname>
                                        <codectypename>Apple ProRes 422</codectypename>
                                        <codectypecode>apcn</codectypecode>
                                        <codecvendorcode>appl</codecvendorcode>
                                        <spatialquality>1024</spatialquality>
                                        <temporalquality>0</temporalquality>
                                        <keyframerate>0</keyframerate>
                                        <datarate>0</datarate>
                                    </qtcodec>
                                </data>
                            </appspecificdata>
                        </codec>
                        <width>1920</width>
                        <height>1080</height>
                        <anamorphic>FALSE</anamorphic>
                        <pixelaspectratio>square</pixelaspectratio>
                        <fielddominance>none</fielddominance>
                        <colordepth>24</colordepth>
                    </samplecharacteristics>
                </format>
                <track TL.SQTrackShy="0" TL.SQTrackExpandedHeight="25" TL.SQTrackExpanded="0" MZ.TrackTargeted="1">
                    <clipitem id="clip_000">
                        <masterclipid>clip_000</masterclipid>
                        <name>A001C002_190617_K1TL.mov</name>
                        <enabled>TRUE</enabled>
                        <duration>1336</duration>
                        <rate>
                            <timebase>25</timebase>
                            <ntsc>FALSE</ntsc>
                        </rate>
                        <start>0</start>
                        <end>64</end>
                        <in>1072</in>
                        <out>1136</out>
                        <file id="file-37">
                            <name>A001C002_190617_K1TL.mov</name>
                            <pathurl>file://localhost/Volumes/PIGSTORE/Projects/rema_smartboat_0299_jun_2019/editorial/proxies/A001C002_190617_K1TL.mov</pathurl>
                            <rate>
                                <timebase>25</timebase>
                                <ntsc>FALSE</ntsc>
                            </rate>
                            <duration>1336</duration>
                            <timecode>
                                <rate>
                                    <timebase>25</timebase>
                                    <ntsc>FALSE</ntsc>
                                </rate>
                                <string>09:16:47:02</string>
                                <frame>835177</frame>
                                <displayformat>NDF</displayformat>
                            </timecode>
                            <media>
                                <video>
                                    <samplecharacteristics>
                                        <rate>
                                            <timebase>25</timebase>
                                            <ntsc>FALSE</ntsc>
                                        </rate>
                                        <width>1920</width>
                                        <height>1080</height>
                                        <anamorphic>FALSE</anamorphic>
                                        <pixelaspectratio>square</pixelaspectratio>
                                        <fielddominance>none</fielddominance>
                                    </samplecharacteristics>
                                </video>
                                <audio>
                                    <samplecharacteristics>
                                        <depth>16</depth>
                                        <samplerate>48000</samplerate>
                                    </samplecharacteristics>
                                    <channelcount>1</channelcount>
                                    <audiochannel>
                                        <sourcechannel>1</sourcechannel>
                                    </audiochannel>
                                </audio>
                            </media>
                        </file>
                        <filter/>
                        <labels>
                            <label2>VFX</label2>
                        </labels>
                    </clipitem>
                    <clipitem id="clip_001">
                        <masterclipid>clip_001</masterclipid>
                        <name>A001C014_190617_K1TL.mov</name>
                        <enabled>TRUE</enabled>
                        <duration>766</duration>
                        <rate>
                            <timebase>25</timebase>
                            <ntsc>FALSE</ntsc>
                        </rate>
                        <start>89</start>
                        <end>113</end>
                        <in>318</in>
                        <out>342</out>
                        <file id="file-38">
                            <name>A001C014_190617_K1TL.mov</name>
                            <pathurl>file://localhost/Volumes/PIGSTORE/Projects/rema_smartboat_0299_jun_2019/editorial/proxies/A001C014_190617_K1TL.mov</pathurl>
                            <rate>
                                <timebase>25</timebase>
                                <ntsc>FALSE</ntsc>
                            </rate>
                            <duration>766</duration>
                            <timecode>
                                <rate>
                                    <timebase>25</timebase>
                                    <ntsc>FALSE</ntsc>
                                </rate>
                                <string>11:25:53:16</string>
                                <frame>1028841</frame>
                                <displayformat>NDF</displayformat>
                            </timecode>
                            <media>
                                <video>
                                    <samplecharacteristics>
                                        <rate>
                                            <timebase>25</timebase>
                                            <ntsc>FALSE</ntsc>
                                        </rate>
                                        <width>1920</width>
                                        <height>1080</height>
                                        <anamorphic>FALSE</anamorphic>
                                        <pixelaspectratio>square</pixelaspectratio>
                                        <fielddominance>none</fielddominance>
                                    </samplecharacteristics>
                                </video>
                                <audio>
                                    <samplecharacteristics>
                                        <depth>16</depth>
                                        <samplerate>48000</samplerate>
                                    </samplecharacteristics>
                                    <channelcount>1</channelcount>
                                    <audiochannel>
                                        <sourcechannel>1</sourcechannel>
                                    </audiochannel>
                                </audio>
                            </media>
                        </file>
                        <filter/>
                        <labels>
                            <label2>VFX</label2>
                        </labels>
                    </clipitem>
                    <clipitem id="clip_002">
                        <masterclipid>clip_002</masterclipid>
                        <name>A001C005_190617_K1TL.mov</name>
                        <enabled>TRUE</enabled>
                        <duration>4285</duration>
                        <rate>
                            <timebase>25</timebase>
                            <ntsc>FALSE</ntsc>
                        </rate>
                        <start>138</start>
                        <end>205</end>
                        <in>832</in>
                        <out>899</out>
                        <file id="file-39">
                            <name>A001C005_190617_K1TL.mov</name>
                            <pathurl>file://localhost/Volumes/PIGSTORE/Projects/rema_smartboat_0299_jun_2019/editorial/proxies/A001C005_190617_K1TL.mov</pathurl>
                            <rate>
                                <timebase>25</timebase>
                                <ntsc>FALSE</ntsc>
                            </rate>
                            <duration>4285</duration>
                            <timecode>
                                <rate>
                                    <timebase>25</timebase>
                                    <ntsc>FALSE</ntsc>
                                </rate>
                                <string>10:11:43:24</string>
                                <frame>917599</frame>
                                <displayformat>NDF</displayformat>
                            </timecode>
                            <media>
                                <video>
                                    <samplecharacteristics>
                                        <rate>
                                            <timebase>25</timebase>
                                            <ntsc>FALSE</ntsc>
                                        </rate>
                                        <width>1920</width>
                                        <height>1080</height>
                                        <anamorphic>FALSE</anamorphic>
                                        <pixelaspectratio>square</pixelaspectratio>
                                        <fielddominance>none</fielddominance>
                                    </samplecharacteristics>
                                </video>
                                <audio>
                                    <samplecharacteristics>
                                        <depth>16</depth>
                                        <samplerate>48000</samplerate>
                                    </samplecharacteristics>
                                    <channelcount>1</channelcount>
                                    <audiochannel>
                                        <sourcechannel>1</sourcechannel>
                                    </audiochannel>
                                </audio>
                            </media>
                        </file>
                        <filter/>
                        <labels>
                            <label2>VFX</label2>
                        </labels>
                    </clipitem>
                    <clipitem id="clip_003">
                        <masterclipid>clip_003</masterclipid>
                        <name>A001C007_190617_K1TL.mov</name>
                        <enabled>TRUE</enabled>
                        <duration>2950</duration>
                        <rate>
                            <timebase>25</timebase>
                            <ntsc>FALSE</ntsc>
                        </rate>
                        <start>230</start>
                        <end>267</end>
                        <in>2525</in>
                        <out>2562</out>
                        <file id="file-40">
                            <name>A001C007_190617_K1TL.mov</name>
                            <pathurl>file://localhost/Volumes/PIGSTORE/Projects/rema_smartboat_0299_jun_2019/editorial/proxies/A001C007_190617_K1TL.mov</pathurl>
                            <rate>
                                <timebase>25</timebase>
                                <ntsc>FALSE</ntsc>
                            </rate>
                            <duration>2950</duration>
                            <timecode>
                                <rate>
                                    <timebase>25</timebase>
                                    <ntsc>FALSE</ntsc>
                                </rate>
                                <string>10:26:22:16</string>
                                <frame>939566</frame>
                                <displayformat>NDF</displayformat>
                            </timecode>
                            <media>
                                <video>
                                    <samplecharacteristics>
                                        <rate>
                                            <timebase>25</timebase>
                                            <ntsc>FALSE</ntsc>
                                        </rate>
                                        <width>1920</width>
                                        <height>1080</height>
                                        <anamorphic>FALSE</anamorphic>
                                        <pixelaspectratio>square</pixelaspectratio>
                                        <fielddominance>none</fielddominance>
                                    </samplecharacteristics>
                                </video>
                                <audio>
                                    <samplecharacteristics>
                                        <depth>16</depth>
                                        <samplerate>48000</samplerate>
                                    </samplecharacteristics>
                                    <channelcount>1</channelcount>
                                    <audiochannel>
                                        <sourcechannel>1</sourcechannel>
                                    </audiochannel>
                                </audio>
                            </media>
                        </file>
                        <filter/>
                        <labels>
                            <label2>VFX</label2>
                        </labels>
                    </clipitem>
                    <clipitem id="clip_004">
                        <masterclipid>clip_004</masterclipid>
                        <name>B001C003_190617_K136.mov</name>
                        <enabled>TRUE</enabled>
                        <duration>1598</duration>
                        <rate>
                            <timebase>25</timebase>
                            <ntsc>FALSE</ntsc>
                        </rate>
                        <start>292</start>
                        <end>331</end>
                        <in>1329</in>
                        <out>1368</out>
                        <file id="file-41">
                            <name>B001C003_190617_K136.mov</name>
                            <pathurl>file://localhost/Volumes/PIGSTORE/Projects/rema_smartboat_0299_jun_2019/editorial/proxies/B001C003_190617_K136.mov</pathurl>
                            <rate>
                                <timebase>25</timebase>
                                <ntsc>FALSE</ntsc>
                            </rate>
                            <duration>1598</duration>
                            <timecode>
                                <rate>
                                    <timebase>25</timebase>
                                    <ntsc>FALSE</ntsc>
                                </rate>
                                <string>13:03:21:00</string>
                                <frame>1175025</frame>
                                <displayformat>NDF</displayformat>
                            </timecode>
                            <media>
                                <video>
                                    <samplecharacteristics>
                                        <rate>
                                            <timebase>25</timebase>
                                            <ntsc>FALSE</ntsc>
                                        </rate>
                                        <width>1920</width>
                                        <height>1080</height>
                                        <anamorphic>FALSE</anamorphic>
                                        <pixelaspectratio>square</pixelaspectratio>
                                        <fielddominance>none</fielddominance>
                                    </samplecharacteristics>
                                </video>
                                <audio>
                                    <samplecharacteristics>
                                        <depth>16</depth>
                                        <samplerate>48000</samplerate>
                                    </samplecharacteristics>
                                    <channelcount>1</channelcount>
                                    <audiochannel>
                                        <sourcechannel>1</sourcechannel>
                                    </audiochannel>
                                </audio>
                            </media>
                        </file>
                        <filter/>
                        <labels>
                            <label2>VFX</label2>
                        </labels>
                    </clipitem>
                    <clipitem id="clip_005">
                        <masterclipid>clip_005</masterclipid>
                        <name>B002C010_190618_K136.mov</name>
                        <enabled>TRUE</enabled>
                        <duration>82</duration>
                        <rate>
                            <timebase>25</timebase>
                            <ntsc>FALSE</ntsc>
                        </rate>
                        <start>356</start>
                        <end>363</end>
                        <in>33</in>
                        <out>40</out>
                        <file id="file-42">
                            <name>B002C010_190618_K136.mov</name>
                            <pathurl>file://localhost/Volumes/PIGSTORE/Projects/rema_smartboat_0299_jun_2019/editorial/proxies/B002C010_190618_K136.mov</pathurl>
                            <rate>
                                <timebase>25</timebase>
                                <ntsc>FALSE</ntsc>
                            </rate>
                            <duration>825</duration>
                            <timecode>
                                <rate>
                                    <timebase>25</timebase>
                                    <ntsc>FALSE</ntsc>
                                </rate>
                                <string>11:23:37:05</string>
                                <frame>1025430</frame>
                                <displayformat>NDF</displayformat>
                            </timecode>
                            <media>
                                <video>
                                    <samplecharacteristics>
                                        <rate>
                                            <timebase>25</timebase>
                                            <ntsc>FALSE</ntsc>
                                        </rate>
                                        <width>1920</width>
                                        <height>1080</height>
                                        <anamorphic>FALSE</anamorphic>
                                        <pixelaspectratio>square</pixelaspectratio>
                                        <fielddominance>none</fielddominance>
                                    </samplecharacteristics>
                                </video>
                                <audio>
                                    <samplecharacteristics>
                                        <depth>16</depth>
                                        <samplerate>48000</samplerate>
                                    </samplecharacteristics>
                                    <channelcount>1</channelcount>
                                    <audiochannel>
                                        <sourcechannel>1</sourcechannel>
                                    </audiochannel>
                                </audio>
                            </media>
                        </file>
                        <filter/>
                        <labels>
                            <label2>VFX</label2>
                        </labels>
                    </clipitem>
                    <clipitem id="clip_006">
                        <masterclipid>clip_006</masterclipid>
                        <name>B002C010_190618_K136.mov</name>
                        <enabled>TRUE</enabled>
                        <duration>82</duration>
                        <rate>
                            <timebase>25</timebase>
                            <ntsc>FALSE</ntsc>
                        </rate>
                        <start>388</start>
                        <end>409</end>
                        <in>207</in>
                        <out>228</out>
                        <file id="file-42">
                            <name>B002C010_190618_K136.mov</name>
                            <pathurl>file://localhost/Volumes/PIGSTORE/Projects/rema_smartboat_0299_jun_2019/editorial/proxies/B002C010_190618_K136.mov</pathurl>
                            <rate>
                                <timebase>25</timebase>
                                <ntsc>FALSE</ntsc>
                            </rate>
                            <duration>825</duration>
                            <timecode>
                                <rate>
                                    <timebase>25</timebase>
                                    <ntsc>FALSE</ntsc>
                                </rate>
                                <string>11:23:37:05</string>
                                <frame>1025430</frame>
                                <displayformat>NDF</displayformat>
                            </timecode>
                            <media>
                                <video>
                                    <samplecharacteristics>
                                        <rate>
                                            <timebase>25</timebase>
                                            <ntsc>FALSE</ntsc>
                                        </rate>
                                        <width>1920</width>
                                        <height>1080</height>
                                        <anamorphic>FALSE</anamorphic>
                                        <pixelaspectratio>square</pixelaspectratio>
                                        <fielddominance>none</fielddominance>
                                    </samplecharacteristics>
                                </video>
                                <audio>
                                    <samplecharacteristics>
                                        <depth>16</depth>
                                        <samplerate>48000</samplerate>
                                    </samplecharacteristics>
                                    <channelcount>1</channelcount>
                                    <audiochannel>
                                        <sourcechannel>1</sourcechannel>
                                    </audiochannel>
                                </audio>
                            </media>
                        </file>
                        <filter/>
                        <labels>
                            <label2>VFX</label2>
                        </labels>
                    </clipitem>
                    <clipitem id="clip_007">
                        <masterclipid>clip_007</masterclipid>
                        <name>B003C001_190618_K136.mov</name>
                        <enabled>TRUE</enabled>
                        <duration>2164</duration>
                        <rate>
                            <timebase>25</timebase>
                            <ntsc>FALSE</ntsc>
                        </rate>
                        <start>434</start>
                        <end>453</end>
                        <in>570</in>
                        <out>589</out>
                        <file id="file-43">
                            <name>B003C001_190618_K136.mov</name>
                            <pathurl>file://localhost/Volumes/PIGSTORE/Projects/rema_smartboat_0299_jun_2019/editorial/proxies/B003C001_190618_K136.mov</pathurl>
                            <rate>
                                <timebase>25</timebase>
                                <ntsc>FALSE</ntsc>
                            </rate>
                            <duration>2164</duration>
                            <timecode>
                                <rate>
                                    <timebase>25</timebase>
                                    <ntsc>FALSE</ntsc>
                                </rate>
                                <string>14:06:03:19</string>
                                <frame>1269094</frame>
                                <displayformat>NDF</displayformat>
                            </timecode>
                            <media>
                                <video>
                                    <samplecharacteristics>
                                        <rate>
                                            <timebase>25</timebase>
                                            <ntsc>FALSE</ntsc>
                                        </rate>
                                        <width>1920</width>
                                        <height>1080</height>
                                        <anamorphic>FALSE</anamorphic>
                                        <pixelaspectratio>square</pixelaspectratio>
                                        <fielddominance>none</fielddominance>
                                    </samplecharacteristics>
                                </video>
                                <audio>
                                    <samplecharacteristics>
                                        <depth>16</depth>
                                        <samplerate>48000</samplerate>
                                    </samplecharacteristics>
                                    <channelcount>1</channelcount>
                                    <audiochannel>
                                        <sourcechannel>1</sourcechannel>
                                    </audiochannel>
                                </audio>
                            </media>
                        </file>
                        <filter/>
                        <labels>
                            <label2>VFX</label2>
                        </labels>
                    </clipitem>
                    <clipitem id="clip_008">
                        <masterclipid>clip_008</masterclipid>
                        <name>B003C001_190618_K136.mov</name>
                        <enabled>TRUE</enabled>
                        <duration>2164</duration>
                        <rate>
                            <timebase>25</timebase>
                            <ntsc>FALSE</ntsc>
                        </rate>
                        <start>478</start>
                        <end>496</end>
                        <in>654</in>
                        <out>672</out>
                        <file id="file-43">
                            <name>B003C001_190618_K136.mov</name>
                            <pathurl>file://localhost/Volumes/PIGSTORE/Projects/rema_smartboat_0299_jun_2019/editorial/proxies/B003C001_190618_K136.mov</pathurl>
                            <rate>
                                <timebase>25</timebase>
                                <ntsc>FALSE</ntsc>
                            </rate>
                            <duration>2164</duration>
                            <timecode>
                                <rate>
                                    <timebase>25</timebase>
                                    <ntsc>FALSE</ntsc>
                                </rate>
                                <string>14:06:03:19</string>
                                <frame>1269094</frame>
                                <displayformat>NDF</displayformat>
                            </timecode>
                            <media>
                                <video>
                                    <samplecharacteristics>
                                        <rate>
                                            <timebase>25</timebase>
                                            <ntsc>FALSE</ntsc>
                                        </rate>
                                        <width>1920</width>
                                        <height>1080</height>
                                        <anamorphic>FALSE</anamorphic>
                                        <pixelaspectratio>square</pixelaspectratio>
                                        <fielddominance>none</fielddominance>
                                    </samplecharacteristics>
                                </video>
                                <audio>
                                    <samplecharacteristics>
                                        <depth>16</depth>
                                        <samplerate>48000</samplerate>
                                    </samplecharacteristics>
                                    <channelcount>1</channelcount>
                                    <audiochannel>
                                        <sourcechannel>1</sourcechannel>
                                    </audiochannel>
                                </audio>
                            </media>
                        </file>
                        <filter/>
                        <labels>
                            <label2>VFX</label2>
                        </labels>
                    </clipitem>
                    <clipitem id="clip_009">
                        <masterclipid>clip_009</masterclipid>
                        <name>B003C001_190618_K136.mov</name>
                        <enabled>TRUE</enabled>
                        <duration>2164</duration>
                        <rate>
                            <timebase>25</timebase>
                            <ntsc>FALSE</ntsc>
                        </rate>
                        <start>521</start>
                        <end>538</end>
                        <in>654</in>
                        <out>671</out>
                        <file id="file-43">
                            <name>B003C001_190618_K136.mov</name>
                            <pathurl>file://localhost/Volumes/PIGSTORE/Projects/rema_smartboat_0299_jun_2019/editorial/proxies/B003C001_190618_K136.mov</pathurl>
                            <rate>
                                <timebase>25</timebase>
                                <ntsc>FALSE</ntsc>
                            </rate>
                            <duration>2164</duration>
                            <timecode>
                                <rate>
                                    <timebase>25</timebase>
                                    <ntsc>FALSE</ntsc>
                                </rate>
                                <string>14:06:03:19</string>
                                <frame>1269094</frame>
                                <displayformat>NDF</displayformat>
                            </timecode>
                            <media>
                                <video>
                                    <samplecharacteristics>
                                        <rate>
                                            <timebase>25</timebase>
                                            <ntsc>FALSE</ntsc>
                                        </rate>
                                        <width>1920</width>
                                        <height>1080</height>
                                        <anamorphic>FALSE</anamorphic>
                                        <pixelaspectratio>square</pixelaspectratio>
                                        <fielddominance>none</fielddominance>
                                    </samplecharacteristics>
                                </video>
                                <audio>
                                    <samplecharacteristics>
                                        <depth>16</depth>
                                        <samplerate>48000</samplerate>
                                    </samplecharacteristics>
                                    <channelcount>1</channelcount>
                                    <audiochannel>
                                        <sourcechannel>1</sourcechannel>
                                    </audiochannel>
                                </audio>
                            </media>
                        </file>
                        <filter/>
                        <labels>
                            <label2>VFX</label2>
                        </labels>
                    </clipitem>
                    <clipitem id="clip_010">
                        <masterclipid>clip_010</masterclipid>
                        <name>A003C007_190617_K1TL.mov</name>
                        <enabled>TRUE</enabled>
                        <duration>1492</duration>
                        <rate>
                            <timebase>25</timebase>
                            <ntsc>FALSE</ntsc>
                        </rate>
                        <start>563</start>
                        <end>597</end>
                        <in>1155</in>
                        <out>1189</out>
                        <file id="file-44">
                            <name>A003C007_190617_K1TL.mov</name>
                            <pathurl>file://localhost/Volumes/PIGSTORE/Projects/rema_smartboat_0299_jun_2019/editorial/proxies/A003C007_190617_K1TL.mov</pathurl>
                            <rate>
                                <timebase>25</timebase>
                                <ntsc>FALSE</ntsc>
                            </rate>
                            <duration>1492</duration>
                            <timecode>
                                <rate>
                                    <timebase>25</timebase>
                                    <ntsc>FALSE</ntsc>
                                </rate>
                                <string>15:59:20:07</string>
                                <frame>1439007</frame>
                                <displayformat>NDF</displayformat>
                            </timecode>
                            <media>
                                <video>
                                    <samplecharacteristics>
                                        <rate>
                                            <timebase>25</timebase>
                                            <ntsc>FALSE</ntsc>
                                        </rate>
                                        <width>1920</width>
                                        <height>1080</height>
                                        <anamorphic>FALSE</anamorphic>
                                        <pixelaspectratio>square</pixelaspectratio>
                                        <fielddominance>none</fielddominance>
                                    </samplecharacteristics>
                                </video>
                                <audio>
                                    <samplecharacteristics>
                                        <depth>16</depth>
                                        <samplerate>48000</samplerate>
                                    </samplecharacteristics>
                                    <channelcount>1</channelcount>
                                    <audiochannel>
                                        <sourcechannel>1</sourcechannel>
                                    </audiochannel>
                                </audio>
                            </media>
                        </file>
                        <filter/>
                        <labels>
                            <label2>VFX</label2>
                        </labels>
                    </clipitem>
                    <clipitem id="clip_011">
                        <masterclipid>clip_011</masterclipid>
                        <name>A003C007_190617_K1TL.mov</name>
                        <enabled>TRUE</enabled>
                        <duration>1492</duration>
                        <rate>
                            <timebase>25</timebase>
                            <ntsc>FALSE</ntsc>
                        </rate>
                        <start>622</start>
                        <end>676</end>
                        <in>1235</in>
                        <out>1289</out>
                        <file id="file-44">
                            <name>A003C007_190617_K1TL.mov</name>
                            <pathurl>file://localhost/Volumes/PIGSTORE/Projects/rema_smartboat_0299_jun_2019/editorial/proxies/A003C007_190617_K1TL.mov</pathurl>
                            <rate>
                                <timebase>25</timebase>
                                <ntsc>FALSE</ntsc>
                            </rate>
                            <duration>1492</duration>
                            <timecode>
                                <rate>
                                    <timebase>25</timebase>
                                    <ntsc>FALSE</ntsc>
                                </rate>
                                <string>15:59:20:07</string>
                                <frame>1439007</frame>
                                <displayformat>NDF</displayformat>
                            </timecode>
                            <media>
                                <video>
                                    <samplecharacteristics>
                                        <rate>
                                            <timebase>25</timebase>
                                            <ntsc>FALSE</ntsc>
                                        </rate>
                                        <width>1920</width>
                                        <height>1080</height>
                                        <anamorphic>FALSE</anamorphic>
                                        <pixelaspectratio>square</pixelaspectratio>
                                        <fielddominance>none</fielddominance>
                                    </samplecharacteristics>
                                </video>
                                <audio>
                                    <samplecharacteristics>
                                        <depth>16</depth>
                                        <samplerate>48000</samplerate>
                                    </samplecharacteristics>
                                    <channelcount>1</channelcount>
                                    <audiochannel>
                                        <sourcechannel>1</sourcechannel>
                                    </audiochannel>
                                </audio>
                            </media>
                        </file>
                        <filter/>
                        <labels>
                            <label2>VFX</label2>
                        </labels>
                    </clipitem>
                    <clipitem id="clip_012">
                        <masterclipid>clip_012</masterclipid>
                        <name>B002C030_190618_K136.mov</name>
                        <enabled>TRUE</enabled>
                        <duration>173</duration>
                        <rate>
                            <timebase>25</timebase>
                            <ntsc>FALSE</ntsc>
                        </rate>
                        <start>701</start>
                        <end>725</end>
                        <in>59</in>
                        <out>83</out>
                        <file id="file-45">
                            <name>B002C030_190618_K136.mov</name>
                            <pathurl>file://localhost/Volumes/PIGSTORE/Projects/rema_smartboat_0299_jun_2019/editorial/proxies/B002C030_190618_K136.mov</pathurl>
                            <rate>
                                <timebase>25</timebase>
                                <ntsc>FALSE</ntsc>
                            </rate>
                            <duration>695</duration>
                            <timecode>
                                <rate>
                                    <timebase>25</timebase>
                                    <ntsc>FALSE</ntsc>
                                </rate>
                                <string>12:46:11:22</string>
                                <frame>1149297</frame>
                                <displayformat>NDF</displayformat>
                            </timecode>
                            <media>
                                <video>
                                    <samplecharacteristics>
                                        <rate>
                                            <timebase>25</timebase>
                                            <ntsc>FALSE</ntsc>
                                        </rate>
                                        <width>1920</width>
                                        <height>1080</height>
                                        <anamorphic>FALSE</anamorphic>
                                        <pixelaspectratio>square</pixelaspectratio>
                                        <fielddominance>none</fielddominance>
                                    </samplecharacteristics>
                                </video>
                                <audio>
                                    <samplecharacteristics>
                                        <depth>16</depth>
                                        <samplerate>48000</samplerate>
                                    </samplecharacteristics>
                                    <channelcount>1</channelcount>
                                    <audiochannel>
                                        <sourcechannel>1</sourcechannel>
                                    </audiochannel>
                                </audio>
                            </media>
                        </file>
                        <filter/>
                        <labels>
                            <label2>VFX</label2>
                        </labels>
                    </clipitem>
                    <clipitem id="clip_013">
                        <masterclipid>clip_013</masterclipid>
                        <name>B002C030_190618_K136.mov</name>
                        <enabled>TRUE</enabled>
                        <duration>173</duration>
                        <rate>
                            <timebase>25</timebase>
                            <ntsc>FALSE</ntsc>
                        </rate>
                        <start>750</start>
                        <end>762</end>
                        <in>86</in>
                        <out>98</out>
                        <file id="file-45">
                            <name>B002C030_190618_K136.mov</name>
                            <pathurl>file://localhost/Volumes/PIGSTORE/Projects/rema_smartboat_0299_jun_2019/editorial/proxies/B002C030_190618_K136.mov</pathurl>
                            <rate>
                                <timebase>25</timebase>
                                <ntsc>FALSE</ntsc>
                            </rate>
                            <duration>695</duration>
                            <timecode>
                                <rate>
                                    <timebase>25</timebase>
                                    <ntsc>FALSE</ntsc>
                                </rate>
                                <string>12:46:11:22</string>
                                <frame>1149297</frame>
                                <displayformat>NDF</displayformat>
                            </timecode>
                            <media>
                                <video>
                                    <samplecharacteristics>
                                        <rate>
                                            <timebase>25</timebase>
                                            <ntsc>FALSE</ntsc>
                                        </rate>
                                        <width>1920</width>
                                        <height>1080</height>
                                        <anamorphic>FALSE</anamorphic>
                                        <pixelaspectratio>square</pixelaspectratio>
                                        <fielddominance>none</fielddominance>
                                    </samplecharacteristics>
                                </video>
                                <audio>
                                    <samplecharacteristics>
                                        <depth>16</depth>
                                        <samplerate>48000</samplerate>
                                    </samplecharacteristics>
                                    <channelcount>1</channelcount>
                                    <audiochannel>
                                        <sourcechannel>1</sourcechannel>
                                    </audiochannel>
                                </audio>
                            </media>
                        </file>
                        <filter/>
                        <labels>
                            <label2>VFX</label2>
                        </labels>
                    </clipitem>
                    <clipitem id="clip_014">
                        <masterclipid>clip_014</masterclipid>
                        <name>B002C030_190618_K136.mov</name>
                        <enabled>TRUE</enabled>
                        <duration>173</duration>
                        <rate>
                            <timebase>25</timebase>
                            <ntsc>FALSE</ntsc>
                        </rate>
                        <start>787</start>
                        <end>802</end>
                        <in>327</in>
                        <out>342</out>
                        <file id="file-45">
                            <name>B002C030_190618_K136.mov</name>
                            <pathurl>file://localhost/Volumes/PIGSTORE/Projects/rema_smartboat_0299_jun_2019/editorial/proxies/B002C030_190618_K136.mov</pathurl>
                            <rate>
                                <timebase>25</timebase>
                                <ntsc>FALSE</ntsc>
                            </rate>
                            <duration>695</duration>
                            <timecode>
                                <rate>
                                    <timebase>25</timebase>
                                    <ntsc>FALSE</ntsc>
                                </rate>
                                <string>12:46:11:22</string>
                                <frame>1149297</frame>
                                <displayformat>NDF</displayformat>
                            </timecode>
                            <media>
                                <video>
                                    <samplecharacteristics>
                                        <rate>
                                            <timebase>25</timebase>
                                            <ntsc>FALSE</ntsc>
                                        </rate>
                                        <width>1920</width>
                                        <height>1080</height>
                                        <anamorphic>FALSE</anamorphic>
                                        <pixelaspectratio>square</pixelaspectratio>
                                        <fielddominance>none</fielddominance>
                                    </samplecharacteristics>
                                </video>
                                <audio>
                                    <samplecharacteristics>
                                        <depth>16</depth>
                                        <samplerate>48000</samplerate>
                                    </samplecharacteristics>
                                    <channelcount>1</channelcount>
                                    <audiochannel>
                                        <sourcechannel>1</sourcechannel>
                                    </audiochannel>
                                </audio>
                            </media>
                        </file>
                        <filter/>
                        <labels>
                            <label2>VFX</label2>
                        </labels>
                    </clipitem>
                    <clipitem id="clip_015">
                        <masterclipid>clip_015</masterclipid>
                        <name>A001C010_190628_K136.mov</name>
                        <enabled>TRUE</enabled>
                        <duration>7449</duration>
                        <rate>
                            <timebase>25</timebase>
                            <ntsc>FALSE</ntsc>
                        </rate>
                        <start>827</start>
                        <end>851</end>
                        <in>3238</in>
                        <out>3262</out>
                        <file id="file-46">
                            <name>A001C010_190628_K136.mov</name>
                            <pathurl>file://localhost/Volumes/PIGSTORE/Projects/rema_smartboat_0299_jun_2019/editorial/proxies/A001C010_190628_K136.mov</pathurl>
                            <rate>
                                <timebase>25</timebase>
                                <ntsc>FALSE</ntsc>
                            </rate>
                            <duration>7449</duration>
                            <timecode>
                                <rate>
                                    <timebase>25</timebase>
                                    <ntsc>FALSE</ntsc>
                                </rate>
                                <string>04:46:44:19</string>
                                <frame>430119</frame>
                                <displayformat>NDF</displayformat>
                            </timecode>
                            <media>
                                <video>
                                    <samplecharacteristics>
                                        <rate>
                                            <timebase>25</timebase>
                                            <ntsc>FALSE</ntsc>
                                        </rate>
                                        <width>1920</width>
                                        <height>1080</height>
                                        <anamorphic>FALSE</anamorphic>
                                        <pixelaspectratio>square</pixelaspectratio>
                                        <fielddominance>none</fielddominance>
                                    </samplecharacteristics>
                                </video>
                            </media>
                        </file>
                        <filter/>
                        <labels>
                            <label2>VFX</label2>
                        </labels>
                    </clipitem>
                    <clipitem id="clip_016">
                        <masterclipid>clip_016</masterclipid>
                        <name>A001C010_190628_K136.mov</name>
                        <enabled>TRUE</enabled>
                        <duration>7449</duration>
                        <rate>
                            <timebase>25</timebase>
                            <ntsc>FALSE</ntsc>
                        </rate>
                        <start>876</start>
                        <end>900</end>
                        <in>3300</in>
                        <out>3324</out>
                        <file id="file-46">
                            <name>A001C010_190628_K136.mov</name>
                            <pathurl>file://localhost/Volumes/PIGSTORE/Projects/rema_smartboat_0299_jun_2019/editorial/proxies/A001C010_190628_K136.mov</pathurl>
                            <rate>
                                <timebase>25</timebase>
                                <ntsc>FALSE</ntsc>
                            </rate>
                            <duration>7449</duration>
                            <timecode>
                                <rate>
                                    <timebase>25</timebase>
                                    <ntsc>FALSE</ntsc>
                                </rate>
                                <string>04:46:44:19</string>
                                <frame>430119</frame>
                                <displayformat>NDF</displayformat>
                            </timecode>
                            <media>
                                <video>
                                    <samplecharacteristics>
                                        <rate>
                                            <timebase>25</timebase>
                                            <ntsc>FALSE</ntsc>
                                        </rate>
                                        <width>1920</width>
                                        <height>1080</height>
                                        <anamorphic>FALSE</anamorphic>
                                        <pixelaspectratio>square</pixelaspectratio>
                                        <fielddominance>none</fielddominance>
                                    </samplecharacteristics>
                                </video>
                            </media>
                        </file>
                        <filter/>
                        <labels>
                            <label2>VFX</label2>
                        </labels>
                    </clipitem>
                    <clipitem id="clip_017">
                        <masterclipid>clip_017</masterclipid>
                        <name>A001C010_190628_K136.mov</name>
                        <enabled>TRUE</enabled>
                        <duration>7449</duration>
                        <rate>
                            <timebase>25</timebase>
                            <ntsc>FALSE</ntsc>
                        </rate>
                        <start>925</start>
                        <end>954</end>
                        <in>4399</in>
                        <out>4428</out>
                        <file id="file-46">
                            <name>A001C010_190628_K136.mov</name>
                            <pathurl>file://localhost/Volumes/PIGSTORE/Projects/rema_smartboat_0299_jun_2019/editorial/proxies/A001C010_190628_K136.mov</pathurl>
                            <rate>
                                <timebase>25</timebase>
                                <ntsc>FALSE</ntsc>
                            </rate>
                            <duration>7449</duration>
                            <timecode>
                                <rate>
                                    <timebase>25</timebase>
                                    <ntsc>FALSE</ntsc>
                                </rate>
                                <string>04:46:44:19</string>
                                <frame>430119</frame>
                                <displayformat>NDF</displayformat>
                            </timecode>
                            <media>
                                <video>
                                    <samplecharacteristics>
                                        <rate>
                                            <timebase>25</timebase>
                                            <ntsc>FALSE</ntsc>
                                        </rate>
                                        <width>1920</width>
                                        <height>1080</height>
                                        <anamorphic>FALSE</anamorphic>
                                        <pixelaspectratio>square</pixelaspectratio>
                                        <fielddominance>none</fielddominance>
                                    </samplecharacteristics>
                                </video>
                            </media>
                        </file>
                        <filter/>
                        <labels>
                            <label2>VFX</label2>
                        </labels>
                    </clipitem>
                    <clipitem id="clip_018">
                        <masterclipid>clip_018</masterclipid>
                        <name>A002C001_190617_K1TL.mov</name>
                        <enabled>TRUE</enabled>
                        <duration>1119</duration>
                        <rate>
                            <timebase>25</timebase>
                            <ntsc>FALSE</ntsc>
                        </rate>
                        <start>979</start>
                        <end>1026</end>
                        <in>613</in>
                        <out>660</out>
                        <file id="file-47">
                            <name>A002C001_190617_K1TL.mov</name>
                            <pathurl>file://localhost/Volumes/PIGSTORE/Projects/rema_smartboat_0299_jun_2019/editorial/proxies/A002C001_190617_K1TL.mov</pathurl>
                            <rate>
                                <timebase>25</timebase>
                                <ntsc>FALSE</ntsc>
                            </rate>
                            <duration>1119</duration>
                            <timecode>
                                <rate>
                                    <timebase>25</timebase>
                                    <ntsc>FALSE</ntsc>
                                </rate>
                                <string>13:44:59:22</string>
                                <frame>1237497</frame>
                                <displayformat>NDF</displayformat>
                            </timecode>
                            <media>
                                <video>
                                    <samplecharacteristics>
                                        <rate>
                                            <timebase>25</timebase>
                                            <ntsc>FALSE</ntsc>
                                        </rate>
                                        <width>1920</width>
                                        <height>1080</height>
                                        <anamorphic>FALSE</anamorphic>
                                        <pixelaspectratio>square</pixelaspectratio>
                                        <fielddominance>none</fielddominance>
                                    </samplecharacteristics>
                                </video>
                                <audio>
                                    <samplecharacteristics>
                                        <depth>16</depth>
                                        <samplerate>48000</samplerate>
                                    </samplecharacteristics>
                                    <channelcount>1</channelcount>
                                    <audiochannel>
                                        <sourcechannel>1</sourcechannel>
                                    </audiochannel>
                                </audio>
                            </media>
                        </file>
                        <filter/>
                        <labels>
                            <label2>VFX</label2>
                        </labels>
                    </clipitem>
                    <clipitem id="clip_019">
                        <masterclipid>clip_019</masterclipid>
                        <name>A003C003_190617_K1TL.mov</name>
                        <enabled>TRUE</enabled>
                        <duration>3053</duration>
                        <rate>
                            <timebase>25</timebase>
                            <ntsc>FALSE</ntsc>
                        </rate>
                        <start>1051</start>
                        <end>1109</end>
                        <in>2455</in>
                        <out>2513</out>
                        <file id="file-48">
                            <name>A003C003_190617_K1TL.mov</name>
                            <pathurl>file://localhost/Volumes/PIGSTORE/Projects/rema_smartboat_0299_jun_2019/editorial/proxies/A003C003_190617_K1TL.mov</pathurl>
                            <rate>
                                <timebase>25</timebase>
                                <ntsc>FALSE</ntsc>
                            </rate>
                            <duration>3053</duration>
                            <timecode>
                                <rate>
                                    <timebase>25</timebase>
                                    <ntsc>FALSE</ntsc>
                                </rate>
                                <string>15:41:21:02</string>
                                <frame>1412027</frame>
                                <displayformat>NDF</displayformat>
                            </timecode>
                            <media>
                                <video>
                                    <samplecharacteristics>
                                        <rate>
                                            <timebase>25</timebase>
                                            <ntsc>FALSE</ntsc>
                                        </rate>
                                        <width>1920</width>
                                        <height>1080</height>
                                        <anamorphic>FALSE</anamorphic>
                                        <pixelaspectratio>square</pixelaspectratio>
                                        <fielddominance>none</fielddominance>
                                    </samplecharacteristics>
                                </video>
                                <audio>
                                    <samplecharacteristics>
                                        <depth>16</depth>
                                        <samplerate>48000</samplerate>
                                    </samplecharacteristics>
                                    <channelcount>1</channelcount>
                                    <audiochannel>
                                        <sourcechannel>1</sourcechannel>
                                    </audiochannel>
                                </audio>
                            </media>
                        </file>
                        <filter/>
                        <labels>
                            <label2>VFX</label2>
                        </labels>
                    </clipitem>
                    <clipitem id="clip_020">
                        <masterclipid>clip_020</masterclipid>
                        <name>B001C009_190617_K136.mov</name>
                        <enabled>TRUE</enabled>
                        <duration>1217</duration>
                        <rate>
                            <timebase>25</timebase>
                            <ntsc>FALSE</ntsc>
                        </rate>
                        <start>1134</start>
                        <end>1183</end>
                        <in>370</in>
                        <out>419</out>
                        <file id="file-49">
                            <name>B001C009_190617_K136.mov</name>
                            <pathurl>file://localhost/Volumes/PIGSTORE/Projects/rema_smartboat_0299_jun_2019/editorial/proxies/B001C009_190617_K136.mov</pathurl>
                            <rate>
                                <timebase>25</timebase>
                                <ntsc>FALSE</ntsc>
                            </rate>
                            <duration>1217</duration>
                            <timecode>
                                <rate>
                                    <timebase>25</timebase>
                                    <ntsc>FALSE</ntsc>
                                </rate>
                                <string>17:49:25:23</string>
                                <frame>1604148</frame>
                                <displayformat>NDF</displayformat>
                            </timecode>
                            <media>
                                <video>
                                    <samplecharacteristics>
                                        <rate>
                                            <timebase>25</timebase>
                                            <ntsc>FALSE</ntsc>
                                        </rate>
                                        <width>1920</width>
                                        <height>1080</height>
                                        <anamorphic>FALSE</anamorphic>
                                        <pixelaspectratio>square</pixelaspectratio>
                                        <fielddominance>none</fielddominance>
                                    </samplecharacteristics>
                                </video>
                                <audio>
                                    <samplecharacteristics>
                                        <depth>16</depth>
                                        <samplerate>48000</samplerate>
                                    </samplecharacteristics>
                                    <channelcount>1</channelcount>
                                    <audiochannel>
                                        <sourcechannel>1</sourcechannel>
                                    </audiochannel>
                                </audio>
                            </media>
                        </file>
                        <filter/>
                        <labels>
                            <label2>VFX</label2>
                        </labels>
                    </clipitem>
                    <clipitem id="clip_021">
                        <masterclipid>clip_021</masterclipid>
                        <name>B003C017_190618_K136.mov</name>
                        <enabled>TRUE</enabled>
                        <duration>1688</duration>
                        <rate>
                            <timebase>25</timebase>
                            <ntsc>FALSE</ntsc>
                        </rate>
                        <start>1208</start>
                        <end>1237</end>
                        <in>228</in>
                        <out>257</out>
                        <file id="file-50">
                            <name>B003C017_190618_K136.mov</name>
                            <pathurl>file://localhost/Volumes/PIGSTORE/Projects/rema_smartboat_0299_jun_2019/editorial/proxies/B003C017_190618_K136.mov</pathurl>
                            <rate>
                                <timebase>25</timebase>
                                <ntsc>FALSE</ntsc>
                            </rate>
                            <duration>1688</duration>
                            <timecode>
                                <rate>
                                    <timebase>25</timebase>
                                    <ntsc>FALSE</ntsc>
                                </rate>
                                <string>02:18:42:13</string>
                                <frame>208063</frame>
                                <displayformat>NDF</displayformat>
                            </timecode>
                            <media>
                                <video>
                                    <samplecharacteristics>
                                        <rate>
                                            <timebase>25</timebase>
                                            <ntsc>FALSE</ntsc>
                                        </rate>
                                        <width>1920</width>
                                        <height>1080</height>
                                        <anamorphic>FALSE</anamorphic>
                                        <pixelaspectratio>square</pixelaspectratio>
                                        <fielddominance>none</fielddominance>
                                    </samplecharacteristics>
                                </video>
                                <audio>
                                    <samplecharacteristics>
                                        <depth>16</depth>
                                        <samplerate>48000</samplerate>
                                    </samplecharacteristics>
                                    <channelcount>1</channelcount>
                                    <audiochannel>
                                        <sourcechannel>1</sourcechannel>
                                    </audiochannel>
                                </audio>
                                <audio>
                                    <samplecharacteristics>
                                        <depth>16</depth>
                                        <samplerate>48000</samplerate>
                                    </samplecharacteristics>
                                    <channelcount>1</channelcount>
                                    <audiochannel>
                                        <sourcechannel>2</sourcechannel>
                                    </audiochannel>
                                </audio>
                                <audio>
                                    <samplecharacteristics>
                                        <depth>16</depth>
                                        <samplerate>48000</samplerate>
                                    </samplecharacteristics>
                                    <channelcount>1</channelcount>
                                    <audiochannel>
                                        <sourcechannel>3</sourcechannel>
                                    </audiochannel>
                                </audio>
                                <audio>
                                    <samplecharacteristics>
                                        <depth>16</depth>
                                        <samplerate>48000</samplerate>
                                    </samplecharacteristics>
                                    <channelcount>1</channelcount>
                                    <audiochannel>
                                        <sourcechannel>4</sourcechannel>
                                    </audiochannel>
                                </audio>
                                <audio>
                                    <samplecharacteristics>
                                        <depth>16</depth>
                                        <samplerate>48000</samplerate>
                                    </samplecharacteristics>
                                    <channelcount>1</channelcount>
                                    <audiochannel>
                                        <sourcechannel>5</sourcechannel>
                                    </audiochannel>
                                </audio>
                            </media>
                        </file>
                        <filter/>
                        <labels>
                            <label2>VFX</label2>
                        </labels>
                    </clipitem>
                    <clipitem id="clip_022">
                        <masterclipid>clip_022</masterclipid>
                        <name>B003C017_190618_K136.mov</name>
                        <enabled>TRUE</enabled>
                        <duration>1688</duration>
                        <rate>
                            <timebase>25</timebase>
                            <ntsc>FALSE</ntsc>
                        </rate>
                        <start>1262</start>
                        <end>1300</end>
                        <in>522</in>
                        <out>560</out>
                        <file id="file-50">
                            <name>B003C017_190618_K136.mov</name>
                            <pathurl>file://localhost/Volumes/PIGSTORE/Projects/rema_smartboat_0299_jun_2019/editorial/proxies/B003C017_190618_K136.mov</pathurl>
                            <rate>
                                <timebase>25</timebase>
                                <ntsc>FALSE</ntsc>
                            </rate>
                            <duration>1688</duration>
                            <timecode>
                                <rate>
                                    <timebase>25</timebase>
                                    <ntsc>FALSE</ntsc>
                                </rate>
                                <string>02:18:42:13</string>
                                <frame>208063</frame>
                                <displayformat>NDF</displayformat>
                            </timecode>
                            <media>
                                <video>
                                    <samplecharacteristics>
                                        <rate>
                                            <timebase>25</timebase>
                                            <ntsc>FALSE</ntsc>
                                        </rate>
                                        <width>1920</width>
                                        <height>1080</height>
                                        <anamorphic>FALSE</anamorphic>
                                        <pixelaspectratio>square</pixelaspectratio>
                                        <fielddominance>none</fielddominance>
                                    </samplecharacteristics>
                                </video>
                                <audio>
                                    <samplecharacteristics>
                                        <depth>16</depth>
                                        <samplerate>48000</samplerate>
                                    </samplecharacteristics>
                                    <channelcount>1</channelcount>
                                    <audiochannel>
                                        <sourcechannel>1</sourcechannel>
                                    </audiochannel>
                                </audio>
                                <audio>
                                    <samplecharacteristics>
                                        <depth>16</depth>
                                        <samplerate>48000</samplerate>
                                    </samplecharacteristics>
                                    <channelcount>1</channelcount>
                                    <audiochannel>
                                        <sourcechannel>2</sourcechannel>
                                    </audiochannel>
                                </audio>
                                <audio>
                                    <samplecharacteristics>
                                        <depth>16</depth>
                                        <samplerate>48000</samplerate>
                                    </samplecharacteristics>
                                    <channelcount>1</channelcount>
                                    <audiochannel>
                                        <sourcechannel>3</sourcechannel>
                                    </audiochannel>
                                </audio>
                                <audio>
                                    <samplecharacteristics>
                                        <depth>16</depth>
                                        <samplerate>48000</samplerate>
                                    </samplecharacteristics>
                                    <channelcount>1</channelcount>
                                    <audiochannel>
                                        <sourcechannel>4</sourcechannel>
                                    </audiochannel>
                                </audio>
                                <audio>
                                    <samplecharacteristics>
                                        <depth>16</depth>
                                        <samplerate>48000</samplerate>
                                    </samplecharacteristics>
                                    <channelcount>1</channelcount>
                                    <audiochannel>
                                        <sourcechannel>5</sourcechannel>
                                    </audiochannel>
                                </audio>
                            </media>
                        </file>
                        <filter/>
                        <labels>
                            <label2>VFX</label2>
                        </labels>
                    </clipitem>
                    <clipitem id="clip_023">
                        <masterclipid>clip_023</masterclipid>
                        <name>B003C017_190618_K136.mov</name>
                        <enabled>TRUE</enabled>
                        <duration>1688</duration>
                        <rate>
                            <timebase>25</timebase>
                            <ntsc>FALSE</ntsc>
                        </rate>
                        <start>1325</start>
                        <end>1369</end>
                        <in>704</in>
                        <out>748</out>
                        <file id="file-50">
                            <name>B003C017_190618_K136.mov</name>
                            <pathurl>file://localhost/Volumes/PIGSTORE/Projects/rema_smartboat_0299_jun_2019/editorial/proxies/B003C017_190618_K136.mov</pathurl>
                            <rate>
                                <timebase>25</timebase>
                                <ntsc>FALSE</ntsc>
                            </rate>
                            <duration>1688</duration>
                            <timecode>
                                <rate>
                                    <timebase>25</timebase>
                                    <ntsc>FALSE</ntsc>
                                </rate>
                                <string>02:18:42:13</string>
                                <frame>208063</frame>
                                <displayformat>NDF</displayformat>
                            </timecode>
                            <media>
                                <video>
                                    <samplecharacteristics>
                                        <rate>
                                            <timebase>25</timebase>
                                            <ntsc>FALSE</ntsc>
                                        </rate>
                                        <width>1920</width>
                                        <height>1080</height>
                                        <anamorphic>FALSE</anamorphic>
                                        <pixelaspectratio>square</pixelaspectratio>
                                        <fielddominance>none</fielddominance>
                                    </samplecharacteristics>
                                </video>
                                <audio>
                                    <samplecharacteristics>
                                        <depth>16</depth>
                                        <samplerate>48000</samplerate>
                                    </samplecharacteristics>
                                    <channelcount>1</channelcount>
                                    <audiochannel>
                                        <sourcechannel>1</sourcechannel>
                                    </audiochannel>
                                </audio>
                                <audio>
                                    <samplecharacteristics>
                                        <depth>16</depth>
                                        <samplerate>48000</samplerate>
                                    </samplecharacteristics>
                                    <channelcount>1</channelcount>
                                    <audiochannel>
                                        <sourcechannel>2</sourcechannel>
                                    </audiochannel>
                                </audio>
                                <audio>
                                    <samplecharacteristics>
                                        <depth>16</depth>
                                        <samplerate>48000</samplerate>
                                    </samplecharacteristics>
                                    <channelcount>1</channelcount>
                                    <audiochannel>
                                        <sourcechannel>3</sourcechannel>
                                    </audiochannel>
                                </audio>
                                <audio>
                                    <samplecharacteristics>
                                        <depth>16</depth>
                                        <samplerate>48000</samplerate>
                                    </samplecharacteristics>
                                    <channelcount>1</channelcount>
                                    <audiochannel>
                                        <sourcechannel>4</sourcechannel>
                                    </audiochannel>
                                </audio>
                                <audio>
                                    <samplecharacteristics>
                                        <depth>16</depth>
                                        <samplerate>48000</samplerate>
                                    </samplecharacteristics>
                                    <channelcount>1</channelcount>
                                    <audiochannel>
                                        <sourcechannel>5</sourcechannel>
                                    </audiochannel>
                                </audio>
                            </media>
                        </file>
                        <filter/>
                        <labels>
                            <label2>VFX</label2>
                        </labels>
                    </clipitem>
                    <clipitem id="clip_024">
                        <masterclipid>clip_024</masterclipid>
                        <name>B003C017_190618_K136.mov</name>
                        <enabled>TRUE</enabled>
                        <duration>1688</duration>
                        <rate>
                            <timebase>25</timebase>
                            <ntsc>FALSE</ntsc>
                        </rate>
                        <start>1394</start>
                        <end>1429</end>
                        <in>580</in>
                        <out>615</out>
                        <file id="file-50">
                            <name>B003C017_190618_K136.mov</name>
                            <pathurl>file://localhost/Volumes/PIGSTORE/Projects/rema_smartboat_0299_jun_2019/editorial/proxies/B003C017_190618_K136.mov</pathurl>
                            <rate>
                                <timebase>25</timebase>
                                <ntsc>FALSE</ntsc>
                            </rate>
                            <duration>1688</duration>
                            <timecode>
                                <rate>
                                    <timebase>25</timebase>
                                    <ntsc>FALSE</ntsc>
                                </rate>
                                <string>02:18:42:13</string>
                                <frame>208063</frame>
                                <displayformat>NDF</displayformat>
                            </timecode>
                            <media>
                                <video>
                                    <samplecharacteristics>
                                        <rate>
                                            <timebase>25</timebase>
                                            <ntsc>FALSE</ntsc>
                                        </rate>
                                        <width>1920</width>
                                        <height>1080</height>
                                        <anamorphic>FALSE</anamorphic>
                                        <pixelaspectratio>square</pixelaspectratio>
                                        <fielddominance>none</fielddominance>
                                    </samplecharacteristics>
                                </video>
                                <audio>
                                    <samplecharacteristics>
                                        <depth>16</depth>
                                        <samplerate>48000</samplerate>
                                    </samplecharacteristics>
                                    <channelcount>1</channelcount>
                                    <audiochannel>
                                        <sourcechannel>1</sourcechannel>
                                    </audiochannel>
                                </audio>
                                <audio>
                                    <samplecharacteristics>
                                        <depth>16</depth>
                                        <samplerate>48000</samplerate>
                                    </samplecharacteristics>
                                    <channelcount>1</channelcount>
                                    <audiochannel>
                                        <sourcechannel>2</sourcechannel>
                                    </audiochannel>
                                </audio>
                                <audio>
                                    <samplecharacteristics>
                                        <depth>16</depth>
                                        <samplerate>48000</samplerate>
                                    </samplecharacteristics>
                                    <channelcount>1</channelcount>
                                    <audiochannel>
                                        <sourcechannel>3</sourcechannel>
                                    </audiochannel>
                                </audio>
                                <audio>
                                    <samplecharacteristics>
                                        <depth>16</depth>
                                        <samplerate>48000</samplerate>
                                    </samplecharacteristics>
                                    <channelcount>1</channelcount>
                                    <audiochannel>
                                        <sourcechannel>4</sourcechannel>
                                    </audiochannel>
                                </audio>
                                <audio>
                                    <samplecharacteristics>
                                        <depth>16</depth>
                                        <samplerate>48000</samplerate>
                                    </samplecharacteristics>
                                    <channelcount>1</channelcount>
                                    <audiochannel>
                                        <sourcechannel>5</sourcechannel>
                                    </audiochannel>
                                </audio>
                            </media>
                        </file>
                        <filter/>
                        <labels>
                            <label2>VFX</label2>
                        </labels>
                    </clipitem>
                    <clipitem id="clip_025">
                        <masterclipid>clip_025</masterclipid>
                        <name>B003C017_190618_K136.mov</name>
                        <enabled>TRUE</enabled>
                        <duration>1688</duration>
                        <rate>
                            <timebase>25</timebase>
                            <ntsc>FALSE</ntsc>
                        </rate>
                        <start>1454</start>
                        <end>1505</end>
                        <in>1513</in>
                        <out>1564</out>
                        <file id="file-50">
                            <name>B003C017_190618_K136.mov</name>
                            <pathurl>file://localhost/Volumes/PIGSTORE/Projects/rema_smartboat_0299_jun_2019/editorial/proxies/B003C017_190618_K136.mov</pathurl>
                            <rate>
                                <timebase>25</timebase>
                                <ntsc>FALSE</ntsc>
                            </rate>
                            <duration>1688</duration>
                            <timecode>
                                <rate>
                                    <timebase>25</timebase>
                                    <ntsc>FALSE</ntsc>
                                </rate>
                                <string>02:18:42:13</string>
                                <frame>208063</frame>
                                <displayformat>NDF</displayformat>
                            </timecode>
                            <media>
                                <video>
                                    <samplecharacteristics>
                                        <rate>
                                            <timebase>25</timebase>
                                            <ntsc>FALSE</ntsc>
                                        </rate>
                                        <width>1920</width>
                                        <height>1080</height>
                                        <anamorphic>FALSE</anamorphic>
                                        <pixelaspectratio>square</pixelaspectratio>
                                        <fielddominance>none</fielddominance>
                                    </samplecharacteristics>
                                </video>
                                <audio>
                                    <samplecharacteristics>
                                        <depth>16</depth>
                                        <samplerate>48000</samplerate>
                                    </samplecharacteristics>
                                    <channelcount>1</channelcount>
                                    <audiochannel>
                                        <sourcechannel>1</sourcechannel>
                                    </audiochannel>
                                </audio>
                                <audio>
                                    <samplecharacteristics>
                                        <depth>16</depth>
                                        <samplerate>48000</samplerate>
                                    </samplecharacteristics>
                                    <channelcount>1</channelcount>
                                    <audiochannel>
                                        <sourcechannel>2</sourcechannel>
                                    </audiochannel>
                                </audio>
                                <audio>
                                    <samplecharacteristics>
                                        <depth>16</depth>
                                        <samplerate>48000</samplerate>
                                    </samplecharacteristics>
                                    <channelcount>1</channelcount>
                                    <audiochannel>
                                        <sourcechannel>3</sourcechannel>
                                    </audiochannel>
                                </audio>
                                <audio>
                                    <samplecharacteristics>
                                        <depth>16</depth>
                                        <samplerate>48000</samplerate>
                                    </samplecharacteristics>
                                    <channelcount>1</channelcount>
                                    <audiochannel>
                                        <sourcechannel>4</sourcechannel>
                                    </audiochannel>
                                </audio>
                                <audio>
                                    <samplecharacteristics>
                                        <depth>16</depth>
                                        <samplerate>48000</samplerate>
                                    </samplecharacteristics>
                                    <channelcount>1</channelcount>
                                    <audiochannel>
                                        <sourcechannel>5</sourcechannel>
                                    </audiochannel>
                                </audio>
                            </media>
                        </file>
                        <filter/>
                        <labels>
                            <label2>VFX</label2>
                        </labels>
                    </clipitem>
                    <clipitem id="clip_026">
                        <masterclipid>clip_026</masterclipid>
                        <name>B003C017_190618_K136.mov</name>
                        <enabled>TRUE</enabled>
                        <duration>1688</duration>
                        <rate>
                            <timebase>25</timebase>
                            <ntsc>FALSE</ntsc>
                        </rate>
                        <start>1530</start>
                        <end>1565</end>
                        <in>1513</in>
                        <out>1548</out>
                        <file id="file-50">
                            <name>B003C017_190618_K136.mov</name>
                            <pathurl>file://localhost/Volumes/PIGSTORE/Projects/rema_smartboat_0299_jun_2019/editorial/proxies/B003C017_190618_K136.mov</pathurl>
                            <rate>
                                <timebase>25</timebase>
                                <ntsc>FALSE</ntsc>
                            </rate>
                            <duration>1688</duration>
                            <timecode>
                                <rate>
                                    <timebase>25</timebase>
                                    <ntsc>FALSE</ntsc>
                                </rate>
                                <string>02:18:42:13</string>
                                <frame>208063</frame>
                                <displayformat>NDF</displayformat>
                            </timecode>
                            <media>
                                <video>
                                    <samplecharacteristics>
                                        <rate>
                                            <timebase>25</timebase>
                                            <ntsc>FALSE</ntsc>
                                        </rate>
                                        <width>1920</width>
                                        <height>1080</height>
                                        <anamorphic>FALSE</anamorphic>
                                        <pixelaspectratio>square</pixelaspectratio>
                                        <fielddominance>none</fielddominance>
                                    </samplecharacteristics>
                                </video>
                                <audio>
                                    <samplecharacteristics>
                                        <depth>16</depth>
                                        <samplerate>48000</samplerate>
                                    </samplecharacteristics>
                                    <channelcount>1</channelcount>
                                    <audiochannel>
                                        <sourcechannel>1</sourcechannel>
                                    </audiochannel>
                                </audio>
                                <audio>
                                    <samplecharacteristics>
                                        <depth>16</depth>
                                        <samplerate>48000</samplerate>
                                    </samplecharacteristics>
                                    <channelcount>1</channelcount>
                                    <audiochannel>
                                        <sourcechannel>2</sourcechannel>
                                    </audiochannel>
                                </audio>
                                <audio>
                                    <samplecharacteristics>
                                        <depth>16</depth>
                                        <samplerate>48000</samplerate>
                                    </samplecharacteristics>
                                    <channelcount>1</channelcount>
                                    <audiochannel>
                                        <sourcechannel>3</sourcechannel>
                                    </audiochannel>
                                </audio>
                                <audio>
                                    <samplecharacteristics>
                                        <depth>16</depth>
                                        <samplerate>48000</samplerate>
                                    </samplecharacteristics>
                                    <channelcount>1</channelcount>
                                    <audiochannel>
                                        <sourcechannel>4</sourcechannel>
                                    </audiochannel>
                                </audio>
                                <audio>
                                    <samplecharacteristics>
                                        <depth>16</depth>
                                        <samplerate>48000</samplerate>
                                    </samplecharacteristics>
                                    <channelcount>1</channelcount>
                                    <audiochannel>
                                        <sourcechannel>5</sourcechannel>
                                    </audiochannel>
                                </audio>
                            </media>
                        </file>
                        <filter/>
                        <labels>
                            <label2>VFX</label2>
                        </labels>
                    </clipitem>
                    <clipitem id="clip_027">
                        <masterclipid>clip_027</masterclipid>
                        <name>A006C019_190619_K1TL.mov</name>
                        <enabled>TRUE</enabled>
                        <duration>628</duration>
                        <rate>
                            <timebase>25</timebase>
                            <ntsc>FALSE</ntsc>
                        </rate>
                        <start>1590</start>
                        <end>1618</end>
                        <in>151</in>
                        <out>179</out>
                        <file id="file-51">
                            <name>A006C019_190619_K1TL.mov</name>
                            <pathurl>file://localhost/Volumes/PIGSTORE/Projects/rema_smartboat_0299_jun_2019/editorial/proxies/A006C019_190619_K1TL.mov</pathurl>
                            <rate>
                                <timebase>25</timebase>
                                <ntsc>FALSE</ntsc>
                            </rate>
                            <duration>628</duration>
                            <timecode>
                                <rate>
                                    <timebase>25</timebase>
                                    <ntsc>FALSE</ntsc>
                                </rate>
                                <string>11:19:46:24</string>
                                <frame>1019674</frame>
                                <displayformat>NDF</displayformat>
                            </timecode>
                            <media>
                                <video>
                                    <samplecharacteristics>
                                        <rate>
                                            <timebase>25</timebase>
                                            <ntsc>FALSE</ntsc>
                                        </rate>
                                        <width>1920</width>
                                        <height>1080</height>
                                        <anamorphic>FALSE</anamorphic>
                                        <pixelaspectratio>square</pixelaspectratio>
                                        <fielddominance>none</fielddominance>
                                    </samplecharacteristics>
                                </video>
                                <audio>
                                    <samplecharacteristics>
                                        <depth>16</depth>
                                        <samplerate>48000</samplerate>
                                    </samplecharacteristics>
                                    <channelcount>1</channelcount>
                                    <audiochannel>
                                        <sourcechannel>1</sourcechannel>
                                    </audiochannel>
                                </audio>
                                <audio>
                                    <samplecharacteristics>
                                        <depth>16</depth>
                                        <samplerate>48000</samplerate>
                                    </samplecharacteristics>
                                    <channelcount>1</channelcount>
                                    <audiochannel>
                                        <sourcechannel>2</sourcechannel>
                                    </audiochannel>
                                </audio>
                                <audio>
                                    <samplecharacteristics>
                                        <depth>16</depth>
                                        <samplerate>48000</samplerate>
                                    </samplecharacteristics>
                                    <channelcount>1</channelcount>
                                    <audiochannel>
                                        <sourcechannel>3</sourcechannel>
                                    </audiochannel>
                                </audio>
                                <audio>
                                    <samplecharacteristics>
                                        <depth>16</depth>
                                        <samplerate>48000</samplerate>
                                    </samplecharacteristics>
                                    <channelcount>1</channelcount>
                                    <audiochannel>
                                        <sourcechannel>4</sourcechannel>
                                    </audiochannel>
                                </audio>
                            </media>
                        </file>
                        <filter/>
                        <labels>
                            <label2>VFX</label2>
                        </labels>
                    </clipitem>
                    <clipitem id="clip_028">
                        <masterclipid>clip_028</masterclipid>
                        <name>A006C009_190619_K1TL.mov</name>
                        <enabled>TRUE</enabled>
                        <duration>2052</duration>
                        <rate>
                            <timebase>25</timebase>
                            <ntsc>FALSE</ntsc>
                        </rate>
                        <start>1643</start>
                        <end>1664</end>
                        <in>1801</in>
                        <out>1822</out>
                        <file id="file-52">
                            <name>A006C009_190619_K1TL.mov</name>
                            <pathurl>file://localhost/Volumes/PIGSTORE/Projects/rema_smartboat_0299_jun_2019/editorial/proxies/A006C009_190619_K1TL.mov</pathurl>
                            <rate>
                                <timebase>25</timebase>
                                <ntsc>FALSE</ntsc>
                            </rate>
                            <duration>2052</duration>
                            <timecode>
                                <rate>
                                    <timebase>25</timebase>
                                    <ntsc>FALSE</ntsc>
                                </rate>
                                <string>10:28:25:10</string>
                                <frame>942635</frame>
                                <displayformat>NDF</displayformat>
                            </timecode>
                            <media>
                                <video>
                                    <samplecharacteristics>
                                        <rate>
                                            <timebase>25</timebase>
                                            <ntsc>FALSE</ntsc>
                                        </rate>
                                        <width>1920</width>
                                        <height>1080</height>
                                        <anamorphic>FALSE</anamorphic>
                                        <pixelaspectratio>square</pixelaspectratio>
                                        <fielddominance>none</fielddominance>
                                    </samplecharacteristics>
                                </video>
                                <audio>
                                    <samplecharacteristics>
                                        <depth>16</depth>
                                        <samplerate>48000</samplerate>
                                    </samplecharacteristics>
                                    <channelcount>1</channelcount>
                                    <audiochannel>
                                        <sourcechannel>1</sourcechannel>
                                    </audiochannel>
                                </audio>
                                <audio>
                                    <samplecharacteristics>
                                        <depth>16</depth>
                                        <samplerate>48000</samplerate>
                                    </samplecharacteristics>
                                    <channelcount>1</channelcount>
                                    <audiochannel>
                                        <sourcechannel>2</sourcechannel>
                                    </audiochannel>
                                </audio>
                                <audio>
                                    <samplecharacteristics>
                                        <depth>16</depth>
                                        <samplerate>48000</samplerate>
                                    </samplecharacteristics>
                                    <channelcount>1</channelcount>
                                    <audiochannel>
                                        <sourcechannel>3</sourcechannel>
                                    </audiochannel>
                                </audio>
                                <audio>
                                    <samplecharacteristics>
                                        <depth>16</depth>
                                        <samplerate>48000</samplerate>
                                    </samplecharacteristics>
                                    <channelcount>1</channelcount>
                                    <audiochannel>
                                        <sourcechannel>4</sourcechannel>
                                    </audiochannel>
                                </audio>
                            </media>
                        </file>
                        <filter/>
                        <labels>
                            <label2>VFX</label2>
                        </labels>
                    </clipitem>
                    <clipitem id="clip_029">
                        <masterclipid>clip_029</masterclipid>
                        <name>A006C011_190619_K1TL.mov</name>
                        <enabled>TRUE</enabled>
                        <duration>621</duration>
                        <rate>
                            <timebase>25</timebase>
                            <ntsc>FALSE</ntsc>
                        </rate>
                        <start>1689</start>
                        <end>1707</end>
                        <in>407</in>
                        <out>425</out>
                        <file id="file-53">
                            <name>A006C011_190619_K1TL.mov</name>
                            <pathurl>file://localhost/Volumes/PIGSTORE/Projects/rema_smartboat_0299_jun_2019/editorial/proxies/A006C011_190619_K1TL.mov</pathurl>
                            <rate>
                                <timebase>25</timebase>
                                <ntsc>FALSE</ntsc>
                            </rate>
                            <duration>621</duration>
                            <timecode>
                                <rate>
                                    <timebase>25</timebase>
                                    <ntsc>FALSE</ntsc>
                                </rate>
                                <string>10:38:13:06</string>
                                <frame>957331</frame>
                                <displayformat>NDF</displayformat>
                            </timecode>
                            <media>
                                <video>
                                    <samplecharacteristics>
                                        <rate>
                                            <timebase>25</timebase>
                                            <ntsc>FALSE</ntsc>
                                        </rate>
                                        <width>1920</width>
                                        <height>1080</height>
                                        <anamorphic>FALSE</anamorphic>
                                        <pixelaspectratio>square</pixelaspectratio>
                                        <fielddominance>none</fielddominance>
                                    </samplecharacteristics>
                                </video>
                                <audio>
                                    <samplecharacteristics>
                                        <depth>16</depth>
                                        <samplerate>48000</samplerate>
                                    </samplecharacteristics>
                                    <channelcount>1</channelcount>
                                    <audiochannel>
                                        <sourcechannel>1</sourcechannel>
                                    </audiochannel>
                                </audio>
                                <audio>
                                    <samplecharacteristics>
                                        <depth>16</depth>
                                        <samplerate>48000</samplerate>
                                    </samplecharacteristics>
                                    <channelcount>1</channelcount>
                                    <audiochannel>
                                        <sourcechannel>2</sourcechannel>
                                    </audiochannel>
                                </audio>
                                <audio>
                                    <samplecharacteristics>
                                        <depth>16</depth>
                                        <samplerate>48000</samplerate>
                                    </samplecharacteristics>
                                    <channelcount>1</channelcount>
                                    <audiochannel>
                                        <sourcechannel>3</sourcechannel>
                                    </audiochannel>
                                </audio>
                                <audio>
                                    <samplecharacteristics>
                                        <depth>16</depth>
                                        <samplerate>48000</samplerate>
                                    </samplecharacteristics>
                                    <channelcount>1</channelcount>
                                    <audiochannel>
                                        <sourcechannel>4</sourcechannel>
                                    </audiochannel>
                                </audio>
                            </media>
                        </file>
                        <filter/>
                        <labels>
                            <label2>VFX</label2>
                        </labels>
                    </clipitem>
                    <clipitem id="clip_030">
                        <masterclipid>clip_030</masterclipid>
                        <name>B001C035_190617_K136.mov</name>
                        <enabled>TRUE</enabled>
                        <duration>1487</duration>
                        <rate>
                            <timebase>25</timebase>
                            <ntsc>FALSE</ntsc>
                        </rate>
                        <start>1732</start>
                        <end>1782</end>
                        <in>888</in>
                        <out>938</out>
                        <file id="file-54">
                            <name>B001C035_190617_K136.mov</name>
                            <pathurl>file://localhost/Volumes/PIGSTORE/Projects/rema_smartboat_0299_jun_2019/editorial/proxies/B001C035_190617_K136.mov</pathurl>
                            <rate>
                                <timebase>25</timebase>
                                <ntsc>FALSE</ntsc>
                            </rate>
                            <duration>1487</duration>
                            <timecode>
                                <rate>
                                    <timebase>25</timebase>
                                    <ntsc>FALSE</ntsc>
                                </rate>
                                <string>20:07:48:11</string>
                                <frame>1811711</frame>
                                <displayformat>NDF</displayformat>
                            </timecode>
                            <media>
                                <video>
                                    <samplecharacteristics>
                                        <rate>
                                            <timebase>25</timebase>
                                            <ntsc>FALSE</ntsc>
                                        </rate>
                                        <width>1920</width>
                                        <height>1080</height>
                                        <anamorphic>FALSE</anamorphic>
                                        <pixelaspectratio>square</pixelaspectratio>
                                        <fielddominance>none</fielddominance>
                                    </samplecharacteristics>
                                </video>
                                <audio>
                                    <samplecharacteristics>
                                        <depth>16</depth>
                                        <samplerate>48000</samplerate>
                                    </samplecharacteristics>
                                    <channelcount>1</channelcount>
                                    <audiochannel>
                                        <sourcechannel>1</sourcechannel>
                                    </audiochannel>
                                </audio>
                            </media>
                        </file>
                        <filter/>
                        <labels>
                            <label2>VFX</label2>
                        </labels>
                    </clipitem>
                    <clipitem id="clip_031">
                        <masterclipid>clip_031</masterclipid>
                        <name>B001C014_190617_K136.mov</name>
                        <enabled>TRUE</enabled>
                        <duration>2339</duration>
                        <rate>
                            <timebase>25</timebase>
                            <ntsc>FALSE</ntsc>
                        </rate>
                        <start>1807</start>
                        <end>1866</end>
                        <in>1811</in>
                        <out>1870</out>
                        <file id="file-55">
                            <name>B001C014_190617_K136.mov</name>
                            <pathurl>file://localhost/Volumes/PIGSTORE/Projects/rema_smartboat_0299_jun_2019/editorial/proxies/B001C014_190617_K136.mov</pathurl>
                            <rate>
                                <timebase>25</timebase>
                                <ntsc>FALSE</ntsc>
                            </rate>
                            <duration>2339</duration>
                            <timecode>
                                <rate>
                                    <timebase>25</timebase>
                                    <ntsc>FALSE</ntsc>
                                </rate>
                                <string>18:01:38:15</string>
                                <frame>1622465</frame>
                                <displayformat>NDF</displayformat>
                            </timecode>
                            <media>
                                <video>
                                    <samplecharacteristics>
                                        <rate>
                                            <timebase>25</timebase>
                                            <ntsc>FALSE</ntsc>
                                        </rate>
                                        <width>1920</width>
                                        <height>1080</height>
                                        <anamorphic>FALSE</anamorphic>
                                        <pixelaspectratio>square</pixelaspectratio>
                                        <fielddominance>none</fielddominance>
                                    </samplecharacteristics>
                                </video>
                                <audio>
                                    <samplecharacteristics>
                                        <depth>16</depth>
                                        <samplerate>48000</samplerate>
                                    </samplecharacteristics>
                                    <channelcount>1</channelcount>
                                    <audiochannel>
                                        <sourcechannel>1</sourcechannel>
                                    </audiochannel>
                                </audio>
                            </media>
                        </file>
                        <filter/>
                        <labels>
                            <label2>VFX</label2>
                        </labels>
                    </clipitem>
                    <clipitem id="clip_032">
                        <masterclipid>clip_032</masterclipid>
                        <name>B001C039_190617_K136.mov</name>
                        <enabled>TRUE</enabled>
                        <duration>1600</duration>
                        <rate>
                            <timebase>25</timebase>
                            <ntsc>FALSE</ntsc>
                        </rate>
                        <start>1891</start>
                        <end>1974</end>
                        <in>928</in>
                        <out>1011</out>
                        <file id="file-56">
                            <name>B001C039_190617_K136.mov</name>
                            <pathurl>file://localhost/Volumes/PIGSTORE/Projects/rema_smartboat_0299_jun_2019/editorial/proxies/B001C039_190617_K136.mov</pathurl>
                            <rate>
                                <timebase>25</timebase>
                                <ntsc>FALSE</ntsc>
                            </rate>
                            <duration>1600</duration>
                            <timecode>
                                <rate>
                                    <timebase>25</timebase>
                                    <ntsc>FALSE</ntsc>
                                </rate>
                                <string>20:17:33:24</string>
                                <frame>1826349</frame>
                                <displayformat>NDF</displayformat>
                            </timecode>
                            <media>
                                <video>
                                    <samplecharacteristics>
                                        <rate>
                                            <timebase>25</timebase>
                                            <ntsc>FALSE</ntsc>
                                        </rate>
                                        <width>1920</width>
                                        <height>1080</height>
                                        <anamorphic>FALSE</anamorphic>
                                        <pixelaspectratio>square</pixelaspectratio>
                                        <fielddominance>none</fielddominance>
                                    </samplecharacteristics>
                                </video>
                                <audio>
                                    <samplecharacteristics>
                                        <depth>16</depth>
                                        <samplerate>48000</samplerate>
                                    </samplecharacteristics>
                                    <channelcount>1</channelcount>
                                    <audiochannel>
                                        <sourcechannel>1</sourcechannel>
                                    </audiochannel>
                                </audio>
                            </media>
                        </file>
                        <filter/>
                        <labels>
                            <label2>VFX</label2>
                        </labels>
                    </clipitem>
                    <clipitem id="clip_033">
                        <masterclipid>clip_033</masterclipid>
                        <name>B001C042_190617_K136.mov</name>
                        <enabled>TRUE</enabled>
                        <duration>1658</duration>
                        <rate>
                            <timebase>25</timebase>
                            <ntsc>FALSE</ntsc>
                        </rate>
                        <start>1999</start>
                        <end>2120</end>
                        <in>703</in>
                        <out>824</out>
                        <file id="file-57">
                            <name>B001C042_190617_K136.mov</name>
                            <pathurl>file://localhost/Volumes/PIGSTORE/Projects/rema_smartboat_0299_jun_2019/editorial/proxies/B001C042_190617_K136.mov</pathurl>
                            <rate>
                                <timebase>25</timebase>
                                <ntsc>FALSE</ntsc>
                            </rate>
                            <duration>1658</duration>
                            <timecode>
                                <rate>
                                    <timebase>25</timebase>
                                    <ntsc>FALSE</ntsc>
                                </rate>
                                <string>20:31:03:20</string>
                                <frame>1846595</frame>
                                <displayformat>NDF</displayformat>
                            </timecode>
                            <media>
                                <video>
                                    <samplecharacteristics>
                                        <rate>
                                            <timebase>25</timebase>
                                            <ntsc>FALSE</ntsc>
                                        </rate>
                                        <width>1920</width>
                                        <height>1080</height>
                                        <anamorphic>FALSE</anamorphic>
                                        <pixelaspectratio>square</pixelaspectratio>
                                        <fielddominance>none</fielddominance>
                                    </samplecharacteristics>
                                </video>
                                <audio>
                                    <samplecharacteristics>
                                        <depth>16</depth>
                                        <samplerate>48000</samplerate>
                                    </samplecharacteristics>
                                    <channelcount>1</channelcount>
                                    <audiochannel>
                                        <sourcechannel>1</sourcechannel>
                                    </audiochannel>
                                </audio>
                            </media>
                        </file>
                        <filter/>
                        <labels>
                            <label2>VFX</label2>
                        </labels>
                    </clipitem>
                    <clipitem id="clip_034">
                        <masterclipid>clip_034</masterclipid>
                        <name>A001C001_190628_K136.mov</name>
                        <enabled>TRUE</enabled>
                        <duration>7910</duration>
                        <rate>
                            <timebase>25</timebase>
                            <ntsc>FALSE</ntsc>
                        </rate>
                        <start>2145</start>
                        <end>2194</end>
                        <in>2547</in>
                        <out>2596</out>
                        <file id="file-58">
                            <name>A001C001_190628_K136.mov</name>
                            <pathurl>file://localhost/Volumes/PIGSTORE/Projects/rema_smartboat_0299_jun_2019/editorial/proxies/A001C001_190628_K136.mov</pathurl>
                            <rate>
                                <timebase>25</timebase>
                                <ntsc>FALSE</ntsc>
                            </rate>
                            <duration>7910</duration>
                            <timecode>
                                <rate>
                                    <timebase>25</timebase>
                                    <ntsc>FALSE</ntsc>
                                </rate>
                                <string>03:13:51:01</string>
                                <frame>290776</frame>
                                <displayformat>NDF</displayformat>
                            </timecode>
                            <media>
                                <video>
                                    <samplecharacteristics>
                                        <rate>
                                            <timebase>25</timebase>
                                            <ntsc>FALSE</ntsc>
                                        </rate>
                                        <width>1920</width>
                                        <height>1080</height>
                                        <anamorphic>FALSE</anamorphic>
                                        <pixelaspectratio>square</pixelaspectratio>
                                        <fielddominance>none</fielddominance>
                                    </samplecharacteristics>
                                </video>
                            </media>
                        </file>
                        <filter/>
                        <labels>
                            <label2>VFX</label2>
                        </labels>
                    </clipitem>
                    <clipitem id="clip_035">
                        <masterclipid>clip_035</masterclipid>
                        <name>A001C001_190628_K136.mov</name>
                        <enabled>TRUE</enabled>
                        <duration>7910</duration>
                        <rate>
                            <timebase>25</timebase>
                            <ntsc>FALSE</ntsc>
                        </rate>
                        <start>2219</start>
                        <end>2290</end>
                        <in>4283</in>
                        <out>4354</out>
                        <file id="file-58">
                            <name>A001C001_190628_K136.mov</name>
                            <pathurl>file://localhost/Volumes/PIGSTORE/Projects/rema_smartboat_0299_jun_2019/editorial/proxies/A001C001_190628_K136.mov</pathurl>
                            <rate>
                                <timebase>25</timebase>
                                <ntsc>FALSE</ntsc>
                            </rate>
                            <duration>7910</duration>
                            <timecode>
                                <rate>
                                    <timebase>25</timebase>
                                    <ntsc>FALSE</ntsc>
                                </rate>
                                <string>03:13:51:01</string>
                                <frame>290776</frame>
                                <displayformat>NDF</displayformat>
                            </timecode>
                            <media>
                                <video>
                                    <samplecharacteristics>
                                        <rate>
                                            <timebase>25</timebase>
                                            <ntsc>FALSE</ntsc>
                                        </rate>
                                        <width>1920</width>
                                        <height>1080</height>
                                        <anamorphic>FALSE</anamorphic>
                                        <pixelaspectratio>square</pixelaspectratio>
                                        <fielddominance>none</fielddominance>
                                    </samplecharacteristics>
                                </video>
                            </media>
                        </file>
                        <filter/>
                        <labels>
                            <label2>VFX</label2>
                        </labels>
                    </clipitem>
                    <clipitem id="clip_036">
                        <masterclipid>clip_036</masterclipid>
                        <name>A001C001_190628_K136.mov</name>
                        <enabled>TRUE</enabled>
                        <duration>7910</duration>
                        <rate>
                            <timebase>25</timebase>
                            <ntsc>FALSE</ntsc>
                        </rate>
                        <start>2315</start>
                        <end>2372</end>
                        <in>3440</in>
                        <out>3497</out>
                        <file id="file-58">
                            <name>A001C001_190628_K136.mov</name>
                            <pathurl>file://localhost/Volumes/PIGSTORE/Projects/rema_smartboat_0299_jun_2019/editorial/proxies/A001C001_190628_K136.mov</pathurl>
                            <rate>
                                <timebase>25</timebase>
                                <ntsc>FALSE</ntsc>
                            </rate>
                            <duration>7910</duration>
                            <timecode>
                                <rate>
                                    <timebase>25</timebase>
                                    <ntsc>FALSE</ntsc>
                                </rate>
                                <string>03:13:51:01</string>
                                <frame>290776</frame>
                                <displayformat>NDF</displayformat>
                            </timecode>
                            <media>
                                <video>
                                    <samplecharacteristics>
                                        <rate>
                                            <timebase>25</timebase>
                                            <ntsc>FALSE</ntsc>
                                        </rate>
                                        <width>1920</width>
                                        <height>1080</height>
                                        <anamorphic>FALSE</anamorphic>
                                        <pixelaspectratio>square</pixelaspectratio>
                                        <fielddominance>none</fielddominance>
                                    </samplecharacteristics>
                                </video>
                            </media>
                        </file>
                        <filter/>
                        <labels>
                            <label2>VFX</label2>
                        </labels>
                    </clipitem>
                    <clipitem id="clip_037">
                        <masterclipid>clip_037</masterclipid>
                        <name>A001C001_190628_K136.mov</name>
                        <enabled>TRUE</enabled>
                        <duration>7910</duration>
                        <rate>
                            <timebase>25</timebase>
                            <ntsc>FALSE</ntsc>
                        </rate>
                        <start>2397</start>
                        <end>2446</end>
                        <in>3071</in>
                        <out>3120</out>
                        <file id="file-58">
                            <name>A001C001_190628_K136.mov</name>
                            <pathurl>file://localhost/Volumes/PIGSTORE/Projects/rema_smartboat_0299_jun_2019/editorial/proxies/A001C001_190628_K136.mov</pathurl>
                            <rate>
                                <timebase>25</timebase>
                                <ntsc>FALSE</ntsc>
                            </rate>
                            <duration>7910</duration>
                            <timecode>
                                <rate>
                                    <timebase>25</timebase>
                                    <ntsc>FALSE</ntsc>
                                </rate>
                                <string>03:13:51:01</string>
                                <frame>290776</frame>
                                <displayformat>NDF</displayformat>
                            </timecode>
                            <media>
                                <video>
                                    <samplecharacteristics>
                                        <rate>
                                            <timebase>25</timebase>
                                            <ntsc>FALSE</ntsc>
                                        </rate>
                                        <width>1920</width>
                                        <height>1080</height>
                                        <anamorphic>FALSE</anamorphic>
                                        <pixelaspectratio>square</pixelaspectratio>
                                        <fielddominance>none</fielddominance>
                                    </samplecharacteristics>
                                </video>
                            </media>
                        </file>
                        <filter/>
                        <labels>
                            <label2>VFX</label2>
                        </labels>
                    </clipitem>
                    <clipitem id="clip_038">
                        <masterclipid>clip_038</masterclipid>
                        <name>A001C001_190628_K136.mov</name>
                        <enabled>TRUE</enabled>
                        <duration>7910</duration>
                        <rate>
                            <timebase>25</timebase>
                            <ntsc>FALSE</ntsc>
                        </rate>
                        <start>2471</start>
                        <end>2530</end>
                        <in>7492</in>
                        <out>7551</out>
                        <file id="file-58">
                            <name>A001C001_190628_K136.mov</name>
                            <pathurl>file://localhost/Volumes/PIGSTORE/Projects/rema_smartboat_0299_jun_2019/editorial/proxies/A001C001_190628_K136.mov</pathurl>
                            <rate>
                                <timebase>25</timebase>
                                <ntsc>FALSE</ntsc>
                            </rate>
                            <duration>7910</duration>
                            <timecode>
                                <rate>
                                    <timebase>25</timebase>
                                    <ntsc>FALSE</ntsc>
                                </rate>
                                <string>03:13:51:01</string>
                                <frame>290776</frame>
                                <displayformat>NDF</displayformat>
                            </timecode>
                            <media>
                                <video>
                                    <samplecharacteristics>
                                        <rate>
                                            <timebase>25</timebase>
                                            <ntsc>FALSE</ntsc>
                                        </rate>
                                        <width>1920</width>
                                        <height>1080</height>
                                        <anamorphic>FALSE</anamorphic>
                                        <pixelaspectratio>square</pixelaspectratio>
                                        <fielddominance>none</fielddominance>
                                    </samplecharacteristics>
                                </video>
                            </media>
                        </file>
                        <filter/>
                        <labels>
                            <label2>VFX</label2>
                        </labels>
                    </clipitem>
                    <clipitem id="clip_039">
                        <masterclipid>clip_039</masterclipid>
                        <name>A001C001_190628_K136.mov</name>
                        <enabled>TRUE</enabled>
                        <duration>7910</duration>
                        <rate>
                            <timebase>25</timebase>
                            <ntsc>FALSE</ntsc>
                        </rate>
                        <start>2555</start>
                        <end>2592</end>
                        <in>3991</in>
                        <out>4028</out>
                        <file id="file-58">
                            <name>A001C001_190628_K136.mov</name>
                            <pathurl>file://localhost/Volumes/PIGSTORE/Projects/rema_smartboat_0299_jun_2019/editorial/proxies/A001C001_190628_K136.mov</pathurl>
                            <rate>
                                <timebase>25</timebase>
                                <ntsc>FALSE</ntsc>
                            </rate>
                            <duration>7910</duration>
                            <timecode>
                                <rate>
                                    <timebase>25</timebase>
                                    <ntsc>FALSE</ntsc>
                                </rate>
                                <string>03:13:51:01</string>
                                <frame>290776</frame>
                                <displayformat>NDF</displayformat>
                            </timecode>
                            <media>
                                <video>
                                    <samplecharacteristics>
                                        <rate>
                                            <timebase>25</timebase>
                                            <ntsc>FALSE</ntsc>
                                        </rate>
                                        <width>1920</width>
                                        <height>1080</height>
                                        <anamorphic>FALSE</anamorphic>
                                        <pixelaspectratio>square</pixelaspectratio>
                                        <fielddominance>none</fielddominance>
                                    </samplecharacteristics>
                                </video>
                            </media>
                        </file>
                        <filter/>
                        <labels>
                            <label2>VFX</label2>
                        </labels>
                    </clipitem>
                    <clipitem id="clip_040">
                        <masterclipid>clip_040</masterclipid>
                        <name>A001C001_190628_K136.mov</name>
                        <enabled>TRUE</enabled>
                        <duration>7910</duration>
                        <rate>
                            <timebase>25</timebase>
                            <ntsc>FALSE</ntsc>
                        </rate>
                        <start>2617</start>
                        <end>2666</end>
                        <in>4365</in>
                        <out>4414</out>
                        <file id="file-58">
                            <name>A001C001_190628_K136.mov</name>
                            <pathurl>file://localhost/Volumes/PIGSTORE/Projects/rema_smartboat_0299_jun_2019/editorial/proxies/A001C001_190628_K136.mov</pathurl>
                            <rate>
                                <timebase>25</timebase>
                                <ntsc>FALSE</ntsc>
                            </rate>
                            <duration>7910</duration>
                            <timecode>
                                <rate>
                                    <timebase>25</timebase>
                                    <ntsc>FALSE</ntsc>
                                </rate>
                                <string>03:13:51:01</string>
                                <frame>290776</frame>
                                <displayformat>NDF</displayformat>
                            </timecode>
                            <media>
                                <video>
                                    <samplecharacteristics>
                                        <rate>
                                            <timebase>25</timebase>
                                            <ntsc>FALSE</ntsc>
                                        </rate>
                                        <width>1920</width>
                                        <height>1080</height>
                                        <anamorphic>FALSE</anamorphic>
                                        <pixelaspectratio>square</pixelaspectratio>
                                        <fielddominance>none</fielddominance>
                                    </samplecharacteristics>
                                </video>
                            </media>
                        </file>
                        <filter/>
                        <labels>
                            <label2>VFX</label2>
                        </labels>
                    </clipitem>
                    <clipitem id="clip_041">
                        <masterclipid>clip_041</masterclipid>
                        <name>A001C001_190628_K136.mov</name>
                        <enabled>TRUE</enabled>
                        <duration>7910</duration>
                        <rate>
                            <timebase>25</timebase>
                            <ntsc>FALSE</ntsc>
                        </rate>
                        <start>2691</start>
                        <end>2741</end>
                        <in>4940</in>
                        <out>4990</out>
                        <file id="file-58">
                            <name>A001C001_190628_K136.mov</name>
                            <pathurl>file://localhost/Volumes/PIGSTORE/Projects/rema_smartboat_0299_jun_2019/editorial/proxies/A001C001_190628_K136.mov</pathurl>
                            <rate>
                                <timebase>25</timebase>
                                <ntsc>FALSE</ntsc>
                            </rate>
                            <duration>7910</duration>
                            <timecode>
                                <rate>
                                    <timebase>25</timebase>
                                    <ntsc>FALSE</ntsc>
                                </rate>
                                <string>03:13:51:01</string>
                                <frame>290776</frame>
                                <displayformat>NDF</displayformat>
                            </timecode>
                            <media>
                                <video>
                                    <samplecharacteristics>
                                        <rate>
                                            <timebase>25</timebase>
                                            <ntsc>FALSE</ntsc>
                                        </rate>
                                        <width>1920</width>
                                        <height>1080</height>
                                        <anamorphic>FALSE</anamorphic>
                                        <pixelaspectratio>square</pixelaspectratio>
                                        <fielddominance>none</fielddominance>
                                    </samplecharacteristics>
                                </video>
                            </media>
                        </file>
                        <filter/>
                        <labels>
                            <label2>VFX</label2>
                        </labels>
                    </clipitem>
                    <clipitem id="clip_042">
                        <masterclipid>clip_042</masterclipid>
                        <name>A001C001_190628_K136.mov</name>
                        <enabled>TRUE</enabled>
                        <duration>7910</duration>
                        <rate>
                            <timebase>25</timebase>
                            <ntsc>FALSE</ntsc>
                        </rate>
                        <start>2766</start>
                        <end>2816</end>
                        <in>4669</in>
                        <out>4719</out>
                        <file id="file-58">
                            <name>A001C001_190628_K136.mov</name>
                            <pathurl>file://localhost/Volumes/PIGSTORE/Projects/rema_smartboat_0299_jun_2019/editorial/proxies/A001C001_190628_K136.mov</pathurl>
                            <rate>
                                <timebase>25</timebase>
                                <ntsc>FALSE</ntsc>
                            </rate>
                            <duration>7910</duration>
                            <timecode>
                                <rate>
                                    <timebase>25</timebase>
                                    <ntsc>FALSE</ntsc>
                                </rate>
                                <string>03:13:51:01</string>
                                <frame>290776</frame>
                                <displayformat>NDF</displayformat>
                            </timecode>
                            <media>
                                <video>
                                    <samplecharacteristics>
                                        <rate>
                                            <timebase>25</timebase>
                                            <ntsc>FALSE</ntsc>
                                        </rate>
                                        <width>1920</width>
                                        <height>1080</height>
                                        <anamorphic>FALSE</anamorphic>
                                        <pixelaspectratio>square</pixelaspectratio>
                                        <fielddominance>none</fielddominance>
                                    </samplecharacteristics>
                                </video>
                            </media>
                        </file>
                        <filter/>
                        <labels>
                            <label2>VFX</label2>
                        </labels>
                    </clipitem>
                    <clipitem id="clip_043">
                        <masterclipid>clip_043</masterclipid>
                        <name>A001C001_190628_K136.mov</name>
                        <enabled>TRUE</enabled>
                        <duration>7910</duration>
                        <rate>
                            <timebase>25</timebase>
                            <ntsc>FALSE</ntsc>
                        </rate>
                        <start>2841</start>
                        <end>2900</end>
                        <in>7627</in>
                        <out>7686</out>
                        <file id="file-58">
                            <name>A001C001_190628_K136.mov</name>
                            <pathurl>file://localhost/Volumes/PIGSTORE/Projects/rema_smartboat_0299_jun_2019/editorial/proxies/A001C001_190628_K136.mov</pathurl>
                            <rate>
                                <timebase>25</timebase>
                                <ntsc>FALSE</ntsc>
                            </rate>
                            <duration>7910</duration>
                            <timecode>
                                <rate>
                                    <timebase>25</timebase>
                                    <ntsc>FALSE</ntsc>
                                </rate>
                                <string>03:13:51:01</string>
                                <frame>290776</frame>
                                <displayformat>NDF</displayformat>
                            </timecode>
                            <media>
                                <video>
                                    <samplecharacteristics>
                                        <rate>
                                            <timebase>25</timebase>
                                            <ntsc>FALSE</ntsc>
                                        </rate>
                                        <width>1920</width>
                                        <height>1080</height>
                                        <anamorphic>FALSE</anamorphic>
                                        <pixelaspectratio>square</pixelaspectratio>
                                        <fielddominance>none</fielddominance>
                                    </samplecharacteristics>
                                </video>
                            </media>
                        </file>
                        <filter/>
                        <labels>
                            <label2>VFX</label2>
                        </labels>
                    </clipitem>
                    <clipitem id="clip_044">
                        <masterclipid>clip_044</masterclipid>
                        <name>118357680_main_xl.mp4</name>
                        <enabled>TRUE</enabled>
                        <duration>250</duration>
                        <rate>
                            <timebase>25</timebase>
                            <ntsc>FALSE</ntsc>
                        </rate>
                        <start>2925</start>
                        <end>2953</end>
                        <in>88</in>
                        <out>116</out>
                        <file id="file-59">
                            <name>118357680_main_xl.mp4</name>
                            <pathurl>file://localhost/Volumes/PIGSTORE/Projects/rema_smartboat_0299_jun_2019/editorial/project/premiere/BEN/ASSETS/STOCK/temp/118357680_main_xl.mp4</pathurl>
                            <rate>
                                <timebase>25</timebase>
                                <ntsc>FALSE</ntsc>
                            </rate>
                            <duration>250</duration>
                            <timecode>
                                <rate>
                                    <timebase>25</timebase>
                                    <ntsc>FALSE</ntsc>
                                </rate>
                                <string>00:00:00:00</string>
                                <frame>0</frame>
                                <displayformat>NDF</displayformat>
                            </timecode>
                            <media>
                                <video>
                                    <samplecharacteristics>
                                        <rate>
                                            <timebase>25</timebase>
                                            <ntsc>FALSE</ntsc>
                                        </rate>
                                        <width>640</width>
                                        <height>360</height>
                                        <anamorphic>FALSE</anamorphic>
                                        <pixelaspectratio>square</pixelaspectratio>
                                        <fielddominance>none</fielddominance>
                                    </samplecharacteristics>
                                </video>
                            </media>
                        </file>
                        <filter/>
                        <labels>
                            <label2>VFX</label2>
                        </labels>
                    </clipitem>
                    <clipitem id="clip_045">
                        <masterclipid>clip_045</masterclipid>
                        <name>092451167_main_xl.mp4</name>
                        <enabled>TRUE</enabled>
                        <duration>1038</duration>
                        <rate>
                            <timebase>25</timebase>
                            <ntsc>FALSE</ntsc>
                        </rate>
                        <start>2978</start>
                        <end>2998</end>
                        <in>215</in>
                        <out>235</out>
                        <file id="file-60">
                            <name>092451167_main_xl.mp4</name>
                            <pathurl>file://localhost/Volumes/PIGSTORE/Projects/rema_smartboat_0299_jun_2019/editorial/project/premiere/BEN/ASSETS/STOCK/temp/092451167_main_xl.mp4</pathurl>
                            <rate>
                                <timebase>25</timebase>
                                <ntsc>FALSE</ntsc>
                            </rate>
                            <duration>1038</duration>
                            <timecode>
                                <rate>
                                    <timebase>25</timebase>
                                    <ntsc>FALSE</ntsc>
                                </rate>
                                <string>00:00:00:00</string>
                                <frame>0</frame>
                                <displayformat>NDF</displayformat>
                            </timecode>
                            <media>
                                <video>
                                    <samplecharacteristics>
                                        <rate>
                                            <timebase>25</timebase>
                                            <ntsc>FALSE</ntsc>
                                        </rate>
                                        <width>640</width>
                                        <height>360</height>
                                        <anamorphic>FALSE</anamorphic>
                                        <pixelaspectratio>square</pixelaspectratio>
                                        <fielddominance>none</fielddominance>
                                    </samplecharacteristics>
                                </video>
                            </media>
                        </file>
                        <filter/>
                        <labels>
                            <label2>VFX</label2>
                        </labels>
                    </clipitem>
                    <clipitem id="clip_046">
                        <masterclipid>clip_046</masterclipid>
                        <name>B003C004_190618_K136.mov</name>
                        <enabled>TRUE</enabled>
                        <duration>591</duration>
                        <rate>
                            <timebase>25</timebase>
                            <ntsc>FALSE</ntsc>
                        </rate>
                        <start>3023</start>
                        <end>3030</end>
                        <in>157</in>
                        <out>164</out>
                        <file id="file-61">
                            <name>B003C004_190618_K136.mov</name>
                            <pathurl>file://localhost/Volumes/PIGSTORE/Projects/rema_smartboat_0299_jun_2019/editorial/proxies/B003C004_190618_K136.mov</pathurl>
                            <rate>
                                <timebase>25</timebase>
                                <ntsc>FALSE</ntsc>
                            </rate>
                            <duration>591</duration>
                            <timecode>
                                <rate>
                                    <timebase>25</timebase>
                                    <ntsc>FALSE</ntsc>
                                </rate>
                                <string>14:08:42:04</string>
                                <frame>1273054</frame>
                                <displayformat>NDF</displayformat>
                            </timecode>
                            <media>
                                <video>
                                    <samplecharacteristics>
                                        <rate>
                                            <timebase>25</timebase>
                                            <ntsc>FALSE</ntsc>
                                        </rate>
                                        <width>1920</width>
                                        <height>1080</height>
                                        <anamorphic>FALSE</anamorphic>
                                        <pixelaspectratio>square</pixelaspectratio>
                                        <fielddominance>none</fielddominance>
                                    </samplecharacteristics>
                                </video>
                                <audio>
                                    <samplecharacteristics>
                                        <depth>16</depth>
                                        <samplerate>48000</samplerate>
                                    </samplecharacteristics>
                                    <channelcount>1</channelcount>
                                    <audiochannel>
                                        <sourcechannel>1</sourcechannel>
                                    </audiochannel>
                                </audio>
                            </media>
                        </file>
                        <filter/>
                        <labels>
                            <label2>VFX</label2>
                        </labels>
                    </clipitem>
                    <clipitem id="clip_047">
                        <masterclipid>clip_047</masterclipid>
                        <name>B003C004_190618_K136.mov</name>
                        <enabled>TRUE</enabled>
                        <duration>591</duration>
                        <rate>
                            <timebase>25</timebase>
                            <ntsc>FALSE</ntsc>
                        </rate>
                        <start>3055</start>
                        <end>3060</end>
                        <in>514</in>
                        <out>519</out>
                        <file id="file-61">
                            <name>B003C004_190618_K136.mov</name>
                            <pathurl>file://localhost/Volumes/PIGSTORE/Projects/rema_smartboat_0299_jun_2019/editorial/proxies/B003C004_190618_K136.mov</pathurl>
                            <rate>
                                <timebase>25</timebase>
                                <ntsc>FALSE</ntsc>
                            </rate>
                            <duration>591</duration>
                            <timecode>
                                <rate>
                                    <timebase>25</timebase>
                                    <ntsc>FALSE</ntsc>
                                </rate>
                                <string>14:08:42:04</string>
                                <frame>1273054</frame>
                                <displayformat>NDF</displayformat>
                            </timecode>
                            <media>
                                <video>
                                    <samplecharacteristics>
                                        <rate>
                                            <timebase>25</timebase>
                                            <ntsc>FALSE</ntsc>
                                        </rate>
                                        <width>1920</width>
                                        <height>1080</height>
                                        <anamorphic>FALSE</anamorphic>
                                        <pixelaspectratio>square</pixelaspectratio>
                                        <fielddominance>none</fielddominance>
                                    </samplecharacteristics>
                                </video>
                                <audio>
                                    <samplecharacteristics>
                                        <depth>16</depth>
                                        <samplerate>48000</samplerate>
                                    </samplecharacteristics>
                                    <channelcount>1</channelcount>
                                    <audiochannel>
                                        <sourcechannel>1</sourcechannel>
                                    </audiochannel>
                                </audio>
                            </media>
                        </file>
                        <filter/>
                        <labels>
                            <label2>VFX</label2>
                        </labels>
                    </clipitem>
                    <clipitem id="clip_048">
                        <masterclipid>clip_048</masterclipid>
                        <name>SHRIMP_NEST</name>
                        <enabled>TRUE</enabled>
                        <duration>143</duration>
                        <rate>
                            <timebase>25</timebase>
                            <ntsc>FALSE</ntsc>
                        </rate>
                        <start>3085</start>
                        <end>3104</end>
                        <in>13</in>
                        <out>32</out>
                        <filter/>
                        <labels>
                            <label2>VFX</label2>
                        </labels>
                    </clipitem>
                    <clipitem id="clip_049">
                        <masterclipid>clip_049</masterclipid>
                        <name>A005C002_190618_K1TL.mov</name>
                        <enabled>TRUE</enabled>
                        <duration>5272</duration>
                        <rate>
                            <timebase>25</timebase>
                            <ntsc>FALSE</ntsc>
                        </rate>
                        <start>3129</start>
                        <end>3232</end>
                        <in>2414</in>
                        <out>2517</out>
                        <file id="file-1">
                            <name>A005C002_190618_K1TL.mov</name>
                            <pathurl>file://localhost/Volumes/PIGSTORE/Projects/rema_smartboat_0299_jun_2019/editorial/proxies/A005C002_190618_K1TL.mov</pathurl>
                            <rate>
                                <timebase>25</timebase>
                                <ntsc>FALSE</ntsc>
                            </rate>
                            <duration>5272</duration>
                            <timecode>
                                <rate>
                                    <timebase>25</timebase>
                                    <ntsc>FALSE</ntsc>
                                </rate>
                                <string>01:06:08:21</string>
                                <frame>99221</frame>
                                <displayformat>NDF</displayformat>
                            </timecode>
                            <media>
                                <video>
                                    <samplecharacteristics>
                                        <rate>
                                            <timebase>25</timebase>
                                            <ntsc>FALSE</ntsc>
                                        </rate>
                                        <width>1920</width>
                                        <height>1080</height>
                                        <anamorphic>FALSE</anamorphic>
                                        <pixelaspectratio>square</pixelaspectratio>
                                        <fielddominance>none</fielddominance>
                                    </samplecharacteristics>
                                </video>
                                <audio>
                                    <samplecharacteristics>
                                        <depth>16</depth>
                                        <samplerate>48000</samplerate>
                                    </samplecharacteristics>
                                    <channelcount>1</channelcount>
                                    <audiochannel>
                                        <sourcechannel>1</sourcechannel>
                                    </audiochannel>
                                </audio>
                                <audio>
                                    <samplecharacteristics>
                                        <depth>16</depth>
                                        <samplerate>48000</samplerate>
                                    </samplecharacteristics>
                                    <channelcount>1</channelcount>
                                    <audiochannel>
                                        <sourcechannel>2</sourcechannel>
                                    </audiochannel>
                                </audio>
                                <audio>
                                    <samplecharacteristics>
                                        <depth>16</depth>
                                        <samplerate>48000</samplerate>
                                    </samplecharacteristics>
                                    <channelcount>1</channelcount>
                                    <audiochannel>
                                        <sourcechannel>3</sourcechannel>
                                    </audiochannel>
                                </audio>
                                <audio>
                                    <samplecharacteristics>
                                        <depth>16</depth>
                                        <samplerate>48000</samplerate>
                                    </samplecharacteristics>
                                    <channelcount>1</channelcount>
                                    <audiochannel>
                                        <sourcechannel>4</sourcechannel>
                                    </audiochannel>
                                </audio>
                                <audio>
                                    <samplecharacteristics>
                                        <depth>16</depth>
                                        <samplerate>48000</samplerate>
                                    </samplecharacteristics>
                                    <channelcount>1</channelcount>
                                    <audiochannel>
                                        <sourcechannel>5</sourcechannel>
                                    </audiochannel>
                                </audio>
                            </media>
                        </file>
                        <filter/>
                        <labels>
                            <label2>VFX</label2>
                        </labels>
                    </clipitem>
                    <clipitem id="clip_050">
                        <masterclipid>clip_050</masterclipid>
                        <name>B001C029_190617_K136.mov</name>
                        <enabled>TRUE</enabled>
                        <duration>2582</duration>
                        <rate>
                            <timebase>25</timebase>
                            <ntsc>FALSE</ntsc>
                        </rate>
                        <start>3257</start>
                        <end>3286</end>
                        <in>819</in>
                        <out>848</out>
                        <file id="file-2">
                            <name>B001C029_190617_K136.mov</name>
                            <pathurl>file://localhost/Volumes/PIGSTORE/Projects/rema_smartboat_0299_jun_2019/editorial/proxies/B001C029_190617_K136.mov</pathurl>
                            <rate>
                                <timebase>25</timebase>
                                <ntsc>FALSE</ntsc>
                            </rate>
                            <duration>2582</duration>
                            <timecode>
                                <rate>
                                    <timebase>25</timebase>
                                    <ntsc>FALSE</ntsc>
                                </rate>
                                <string>19:36:01:22</string>
                                <frame>1764047</frame>
                                <displayformat>NDF</displayformat>
                            </timecode>
                            <media>
                                <video>
                                    <samplecharacteristics>
                                        <rate>
                                            <timebase>25</timebase>
                                            <ntsc>FALSE</ntsc>
                                        </rate>
                                        <width>1920</width>
                                        <height>1080</height>
                                        <anamorphic>FALSE</anamorphic>
                                        <pixelaspectratio>square</pixelaspectratio>
                                        <fielddominance>none</fielddominance>
                                    </samplecharacteristics>
                                </video>
                                <audio>
                                    <samplecharacteristics>
                                        <depth>16</depth>
                                        <samplerate>48000</samplerate>
                                    </samplecharacteristics>
                                    <channelcount>1</channelcount>
                                    <audiochannel>
                                        <sourcechannel>1</sourcechannel>
                                    </audiochannel>
                                </audio>
                            </media>
                        </file>
                        <filter/>
                        <labels>
                            <label2>VFX</label2>
                        </labels>
                    </clipitem>
                    <clipitem id="clip_051">
                        <masterclipid>clip_051</masterclipid>
                        <name>B001C022_190617_K136.mov</name>
                        <enabled>TRUE</enabled>
                        <duration>1334</duration>
                        <rate>
                            <timebase>25</timebase>
                            <ntsc>FALSE</ntsc>
                        </rate>
                        <start>3311</start>
                        <end>3335</end>
                        <in>898</in>
                        <out>922</out>
                        <file id="file-3">
                            <name>B001C022_190617_K136.mov</name>
                            <pathurl>file://localhost/Volumes/PIGSTORE/Projects/rema_smartboat_0299_jun_2019/editorial/proxies/B001C022_190617_K136.mov</pathurl>
                            <rate>
                                <timebase>25</timebase>
                                <ntsc>FALSE</ntsc>
                            </rate>
                            <duration>1334</duration>
                            <timecode>
                                <rate>
                                    <timebase>25</timebase>
                                    <ntsc>FALSE</ntsc>
                                </rate>
                                <string>18:54:55:03</string>
                                <frame>1702378</frame>
                                <displayformat>NDF</displayformat>
                            </timecode>
                            <media>
                                <video>
                                    <samplecharacteristics>
                                        <rate>
                                            <timebase>25</timebase>
                                            <ntsc>FALSE</ntsc>
                                        </rate>
                                        <width>1920</width>
                                        <height>1080</height>
                                        <anamorphic>FALSE</anamorphic>
                                        <pixelaspectratio>square</pixelaspectratio>
                                        <fielddominance>none</fielddominance>
                                    </samplecharacteristics>
                                </video>
                                <audio>
                                    <samplecharacteristics>
                                        <depth>16</depth>
                                        <samplerate>48000</samplerate>
                                    </samplecharacteristics>
                                    <channelcount>1</channelcount>
                                    <audiochannel>
                                        <sourcechannel>1</sourcechannel>
                                    </audiochannel>
                                </audio>
                            </media>
                        </file>
                        <filter/>
                        <labels>
                            <label2>VFX</label2>
                        </labels>
                    </clipitem>
                    <clipitem id="clip_052">
                        <masterclipid>clip_052</masterclipid>
                        <name>A007C010_190619_K1TL.mov</name>
                        <enabled>TRUE</enabled>
                        <duration>725</duration>
                        <rate>
                            <timebase>25</timebase>
                            <ntsc>FALSE</ntsc>
                        </rate>
                        <start>3360</start>
                        <end>3384</end>
                        <in>510</in>
                        <out>534</out>
                        <file id="file-4">
                            <name>A007C010_190619_K1TL.mov</name>
                            <pathurl>file://localhost/Volumes/PIGSTORE/Projects/rema_smartboat_0299_jun_2019/editorial/proxies/A007C010_190619_K1TL.mov</pathurl>
                            <rate>
                                <timebase>25</timebase>
                                <ntsc>FALSE</ntsc>
                            </rate>
                            <duration>725</duration>
                            <timecode>
                                <rate>
                                    <timebase>25</timebase>
                                    <ntsc>FALSE</ntsc>
                                </rate>
                                <string>13:18:18:10</string>
                                <frame>1197460</frame>
                                <displayformat>NDF</displayformat>
                            </timecode>
                            <media>
                                <video>
                                    <samplecharacteristics>
                                        <rate>
                                            <timebase>25</timebase>
                                            <ntsc>FALSE</ntsc>
                                        </rate>
                                        <width>1920</width>
                                        <height>1080</height>
                                        <anamorphic>FALSE</anamorphic>
                                        <pixelaspectratio>square</pixelaspectratio>
                                        <fielddominance>none</fielddominance>
                                    </samplecharacteristics>
                                </video>
                                <audio>
                                    <samplecharacteristics>
                                        <depth>16</depth>
                                        <samplerate>48000</samplerate>
                                    </samplecharacteristics>
                                    <channelcount>1</channelcount>
                                    <audiochannel>
                                        <sourcechannel>1</sourcechannel>
                                    </audiochannel>
                                </audio>
                                <audio>
                                    <samplecharacteristics>
                                        <depth>16</depth>
                                        <samplerate>48000</samplerate>
                                    </samplecharacteristics>
                                    <channelcount>1</channelcount>
                                    <audiochannel>
                                        <sourcechannel>2</sourcechannel>
                                    </audiochannel>
                                </audio>
                                <audio>
                                    <samplecharacteristics>
                                        <depth>16</depth>
                                        <samplerate>48000</samplerate>
                                    </samplecharacteristics>
                                    <channelcount>1</channelcount>
                                    <audiochannel>
                                        <sourcechannel>3</sourcechannel>
                                    </audiochannel>
                                </audio>
                                <audio>
                                    <samplecharacteristics>
                                        <depth>16</depth>
                                        <samplerate>48000</samplerate>
                                    </samplecharacteristics>
                                    <channelcount>1</channelcount>
                                    <audiochannel>
                                        <sourcechannel>4</sourcechannel>
                                    </audiochannel>
                                </audio>
                                <audio>
                                    <samplecharacteristics>
                                        <depth>16</depth>
                                        <samplerate>48000</samplerate>
                                    </samplecharacteristics>
                                    <channelcount>1</channelcount>
                                    <audiochannel>
                                        <sourcechannel>5</sourcechannel>
                                    </audiochannel>
                                </audio>
                            </media>
                        </file>
                        <filter/>
                        <labels>
                            <label2>VFX</label2>
                        </labels>
                    </clipitem>
                    <clipitem id="clip_053">
                        <masterclipid>clip_053</masterclipid>
                        <name>B001C021_190617_K136.mov</name>
                        <enabled>TRUE</enabled>
                        <duration>1277</duration>
                        <rate>
                            <timebase>25</timebase>
                            <ntsc>FALSE</ntsc>
                        </rate>
                        <start>3409</start>
                        <end>3440</end>
                        <in>762</in>
                        <out>793</out>
                        <file id="file-5">
                            <name>B001C021_190617_K136.mov</name>
                            <pathurl>file://localhost/Volumes/PIGSTORE/Projects/rema_smartboat_0299_jun_2019/editorial/proxies/B001C021_190617_K136.mov</pathurl>
                            <rate>
                                <timebase>25</timebase>
                                <ntsc>FALSE</ntsc>
                            </rate>
                            <duration>1277</duration>
                            <timecode>
                                <rate>
                                    <timebase>25</timebase>
                                    <ntsc>FALSE</ntsc>
                                </rate>
                                <string>18:39:41:23</string>
                                <frame>1679548</frame>
                                <displayformat>NDF</displayformat>
                            </timecode>
                            <media>
                                <video>
                                    <samplecharacteristics>
                                        <rate>
                                            <timebase>25</timebase>
                                            <ntsc>FALSE</ntsc>
                                        </rate>
                                        <width>1920</width>
                                        <height>1080</height>
                                        <anamorphic>FALSE</anamorphic>
                                        <pixelaspectratio>square</pixelaspectratio>
                                        <fielddominance>none</fielddominance>
                                    </samplecharacteristics>
                                </video>
                                <audio>
                                    <samplecharacteristics>
                                        <depth>16</depth>
                                        <samplerate>48000</samplerate>
                                    </samplecharacteristics>
                                    <channelcount>1</channelcount>
                                    <audiochannel>
                                        <sourcechannel>1</sourcechannel>
                                    </audiochannel>
                                </audio>
                            </media>
                        </file>
                        <filter/>
                        <labels>
                            <label2>VFX</label2>
                        </labels>
                    </clipitem>
                    <clipitem id="clip_054">
                        <masterclipid>clip_054</masterclipid>
                        <name>B001C020_190617_K136.mov</name>
                        <enabled>TRUE</enabled>
                        <duration>1272</duration>
                        <rate>
                            <timebase>25</timebase>
                            <ntsc>FALSE</ntsc>
                        </rate>
                        <start>3465</start>
                        <end>3507</end>
                        <in>944</in>
                        <out>986</out>
                        <file id="file-6">
                            <name>B001C020_190617_K136.mov</name>
                            <pathurl>file://localhost/Volumes/PIGSTORE/Projects/rema_smartboat_0299_jun_2019/editorial/proxies/B001C020_190617_K136.mov</pathurl>
                            <rate>
                                <timebase>25</timebase>
                                <ntsc>FALSE</ntsc>
                            </rate>
                            <duration>1272</duration>
                            <timecode>
                                <rate>
                                    <timebase>25</timebase>
                                    <ntsc>FALSE</ntsc>
                                </rate>
                                <string>18:37:02:21</string>
                                <frame>1675571</frame>
                                <displayformat>NDF</displayformat>
                            </timecode>
                            <media>
                                <video>
                                    <samplecharacteristics>
                                        <rate>
                                            <timebase>25</timebase>
                                            <ntsc>FALSE</ntsc>
                                        </rate>
                                        <width>1920</width>
                                        <height>1080</height>
                                        <anamorphic>FALSE</anamorphic>
                                        <pixelaspectratio>square</pixelaspectratio>
                                        <fielddominance>none</fielddominance>
                                    </samplecharacteristics>
                                </video>
                                <audio>
                                    <samplecharacteristics>
                                        <depth>16</depth>
                                        <samplerate>48000</samplerate>
                                    </samplecharacteristics>
                                    <channelcount>1</channelcount>
                                    <audiochannel>
                                        <sourcechannel>1</sourcechannel>
                                    </audiochannel>
                                </audio>
                            </media>
                        </file>
                        <filter/>
                        <labels>
                            <label2>VFX</label2>
                        </labels>
                    </clipitem>
                    <clipitem id="clip_055">
                        <masterclipid>clip_055</masterclipid>
                        <name>A002C003_190617_K1TL.mov</name>
                        <enabled>TRUE</enabled>
                        <duration>1575</duration>
                        <rate>
                            <timebase>25</timebase>
                            <ntsc>FALSE</ntsc>
                        </rate>
                        <start>3532</start>
                        <end>3582</end>
                        <in>1317</in>
                        <out>1367</out>
                        <file id="file-23">
                            <name>A002C003_190617_K1TL.mov</name>
                            <pathurl>file://localhost/Volumes/PIGSTORE/Projects/rema_smartboat_0299_jun_2019/editorial/proxies/A002C003_190617_K1TL.mov</pathurl>
                            <rate>
                                <timebase>25</timebase>
                                <ntsc>FALSE</ntsc>
                            </rate>
                            <duration>1575</duration>
                            <timecode>
                                <rate>
                                    <timebase>25</timebase>
                                    <ntsc>FALSE</ntsc>
                                </rate>
                                <string>13:48:10:20</string>
                                <frame>1242270</frame>
                                <displayformat>NDF</displayformat>
                            </timecode>
                            <media>
                                <video>
                                    <samplecharacteristics>
                                        <rate>
                                            <timebase>25</timebase>
                                            <ntsc>FALSE</ntsc>
                                        </rate>
                                        <width>1920</width>
                                        <height>1080</height>
                                        <anamorphic>FALSE</anamorphic>
                                        <pixelaspectratio>square</pixelaspectratio>
                                        <fielddominance>none</fielddominance>
                                    </samplecharacteristics>
                                </video>
                                <audio>
                                    <samplecharacteristics>
                                        <depth>16</depth>
                                        <samplerate>48000</samplerate>
                                    </samplecharacteristics>
                                    <channelcount>1</channelcount>
                                    <audiochannel>
                                        <sourcechannel>1</sourcechannel>
                                    </audiochannel>
                                </audio>
                            </media>
                        </file>
                        <filter/>
                        <labels>
                            <label2>VFX</label2>
                        </labels>
                    </clipitem>
                    <clipitem id="clip_056">
                        <masterclipid>clip_056</masterclipid>
                        <name>B002C009_190618_K136.mov</name>
                        <enabled>TRUE</enabled>
                        <duration>1305</duration>
                        <rate>
                            <timebase>25</timebase>
                            <ntsc>FALSE</ntsc>
                        </rate>
                        <start>3607</start>
                        <end>3636</end>
                        <in>569</in>
                        <out>598</out>
                        <file id="file-25">
                            <name>B002C009_190618_K136.mov</name>
                            <pathurl>file://localhost/Volumes/PIGSTORE/Projects/rema_smartboat_0299_jun_2019/editorial/proxies/B002C009_190618_K136.mov</pathurl>
                            <rate>
                                <timebase>25</timebase>
                                <ntsc>FALSE</ntsc>
                            </rate>
                            <duration>1305</duration>
                            <timecode>
                                <rate>
                                    <timebase>25</timebase>
                                    <ntsc>FALSE</ntsc>
                                </rate>
                                <string>10:47:58:14</string>
                                <frame>971964</frame>
                                <displayformat>NDF</displayformat>
                            </timecode>
                            <media>
                                <video>
                                    <samplecharacteristics>
                                        <rate>
                                            <timebase>25</timebase>
                                            <ntsc>FALSE</ntsc>
                                        </rate>
                                        <width>1920</width>
                                        <height>1080</height>
                                        <anamorphic>FALSE</anamorphic>
                                        <pixelaspectratio>square</pixelaspectratio>
                                        <fielddominance>none</fielddominance>
                                    </samplecharacteristics>
                                </video>
                                <audio>
                                    <samplecharacteristics>
                                        <depth>16</depth>
                                        <samplerate>48000</samplerate>
                                    </samplecharacteristics>
                                    <channelcount>1</channelcount>
                                    <audiochannel>
                                        <sourcechannel>1</sourcechannel>
                                    </audiochannel>
                                </audio>
                            </media>
                        </file>
                        <filter/>
                        <labels>
                            <label2>VFX</label2>
                        </labels>
                    </clipitem>
                    <clipitem id="clip_057">
                        <masterclipid>clip_057</masterclipid>
                        <name>B002C009_190618_K136.mov</name>
                        <enabled>TRUE</enabled>
                        <duration>1305</duration>
                        <rate>
                            <timebase>25</timebase>
                            <ntsc>FALSE</ntsc>
                        </rate>
                        <start>3661</start>
                        <end>3688</end>
                        <in>634</in>
                        <out>661</out>
                        <file id="file-25">
                            <name>B002C009_190618_K136.mov</name>
                            <pathurl>file://localhost/Volumes/PIGSTORE/Projects/rema_smartboat_0299_jun_2019/editorial/proxies/B002C009_190618_K136.mov</pathurl>
                            <rate>
                                <timebase>25</timebase>
                                <ntsc>FALSE</ntsc>
                            </rate>
                            <duration>1305</duration>
                            <timecode>
                                <rate>
                                    <timebase>25</timebase>
                                    <ntsc>FALSE</ntsc>
                                </rate>
                                <string>10:47:58:14</string>
                                <frame>971964</frame>
                                <displayformat>NDF</displayformat>
                            </timecode>
                            <media>
                                <video>
                                    <samplecharacteristics>
                                        <rate>
                                            <timebase>25</timebase>
                                            <ntsc>FALSE</ntsc>
                                        </rate>
                                        <width>1920</width>
                                        <height>1080</height>
                                        <anamorphic>FALSE</anamorphic>
                                        <pixelaspectratio>square</pixelaspectratio>
                                        <fielddominance>none</fielddominance>
                                    </samplecharacteristics>
                                </video>
                                <audio>
                                    <samplecharacteristics>
                                        <depth>16</depth>
                                        <samplerate>48000</samplerate>
                                    </samplecharacteristics>
                                    <channelcount>1</channelcount>
                                    <audiochannel>
                                        <sourcechannel>1</sourcechannel>
                                    </audiochannel>
                                </audio>
                            </media>
                        </file>
                        <filter/>
                        <labels>
                            <label2>VFX</label2>
                        </labels>
                    </clipitem>
                    <clipitem id="clip_058">
                        <masterclipid>clip_058</masterclipid>
                        <name>B002C002_190618_K136.mov</name>
                        <enabled>TRUE</enabled>
                        <duration>1776</duration>
                        <rate>
                            <timebase>25</timebase>
                            <ntsc>FALSE</ntsc>
                        </rate>
                        <start>3713</start>
                        <end>3726</end>
                        <in>1627</in>
                        <out>1640</out>
                        <file id="file-26">
                            <name>B002C002_190618_K136.mov</name>
                            <pathurl>file://localhost/Volumes/PIGSTORE/Projects/rema_smartboat_0299_jun_2019/editorial/proxies/B002C002_190618_K136.mov</pathurl>
                            <rate>
                                <timebase>25</timebase>
                                <ntsc>FALSE</ntsc>
                            </rate>
                            <duration>1776</duration>
                            <timecode>
                                <rate>
                                    <timebase>25</timebase>
                                    <ntsc>FALSE</ntsc>
                                </rate>
                                <string>09:52:15:01</string>
                                <frame>888376</frame>
                                <displayformat>NDF</displayformat>
                            </timecode>
                            <media>
                                <video>
                                    <samplecharacteristics>
                                        <rate>
                                            <timebase>25</timebase>
                                            <ntsc>FALSE</ntsc>
                                        </rate>
                                        <width>1920</width>
                                        <height>1080</height>
                                        <anamorphic>FALSE</anamorphic>
                                        <pixelaspectratio>square</pixelaspectratio>
                                        <fielddominance>none</fielddominance>
                                    </samplecharacteristics>
                                </video>
                                <audio>
                                    <samplecharacteristics>
                                        <depth>16</depth>
                                        <samplerate>48000</samplerate>
                                    </samplecharacteristics>
                                    <channelcount>1</channelcount>
                                    <audiochannel>
                                        <sourcechannel>1</sourcechannel>
                                    </audiochannel>
                                </audio>
                            </media>
                        </file>
                        <filter/>
                        <labels>
                            <label2>VFX</label2>
                        </labels>
                    </clipitem>
                    <clipitem id="clip_059">
                        <masterclipid>clip_059</masterclipid>
                        <name>B002C004_190618_K136.mov</name>
                        <enabled>TRUE</enabled>
                        <duration>958</duration>
                        <rate>
                            <timebase>25</timebase>
                            <ntsc>FALSE</ntsc>
                        </rate>
                        <start>3751</start>
                        <end>3778</end>
                        <in>626</in>
                        <out>653</out>
                        <file id="file-27">
                            <name>B002C004_190618_K136.mov</name>
                            <pathurl>file://localhost/Volumes/PIGSTORE/Projects/rema_smartboat_0299_jun_2019/editorial/proxies/B002C004_190618_K136.mov</pathurl>
                            <rate>
                                <timebase>25</timebase>
                                <ntsc>FALSE</ntsc>
                            </rate>
                            <duration>958</duration>
                            <timecode>
                                <rate>
                                    <timebase>25</timebase>
                                    <ntsc>FALSE</ntsc>
                                </rate>
                                <string>10:17:38:05</string>
                                <frame>926455</frame>
                                <displayformat>NDF</displayformat>
                            </timecode>
                            <media>
                                <video>
                                    <samplecharacteristics>
                                        <rate>
                                            <timebase>25</timebase>
                                            <ntsc>FALSE</ntsc>
                                        </rate>
                                        <width>1920</width>
                                        <height>1080</height>
                                        <anamorphic>FALSE</anamorphic>
                                        <pixelaspectratio>square</pixelaspectratio>
                                        <fielddominance>none</fielddominance>
                                    </samplecharacteristics>
                                </video>
                                <audio>
                                    <samplecharacteristics>
                                        <depth>16</depth>
                                        <samplerate>48000</samplerate>
                                    </samplecharacteristics>
                                    <channelcount>1</channelcount>
                                    <audiochannel>
                                        <sourcechannel>1</sourcechannel>
                                    </audiochannel>
                                </audio>
                            </media>
                        </file>
                        <filter/>
                        <labels>
                            <label2>VFX</label2>
                        </labels>
                    </clipitem>
                    <clipitem id="clip_060">
                        <masterclipid>clip_060</masterclipid>
                        <name>REMA_SMARTBOAT_TEASER.mp4</name>
                        <enabled>TRUE</enabled>
                        <duration>684</duration>
                        <rate>
                            <timebase>25</timebase>
                            <ntsc>FALSE</ntsc>
                        </rate>
                        <start>3803</start>
                        <end>3827</end>
                        <in>137</in>
                        <out>161</out>
                        <file id="file-32">
                            <name>REMA_SMARTBOAT_TEASER.mp4</name>
                            <pathurl>file://localhost/Volumes/PIGSTORE/Projects/rema_smartboat_0299_jun_2019/editorial/project/premiere/BEN/ASSETS/VFX/REMA_SMARTBOAT_TEASER.mp4</pathurl>
                            <rate>
                                <timebase>25</timebase>
                                <ntsc>FALSE</ntsc>
                            </rate>
                            <duration>684</duration>
                            <timecode>
                                <rate>
                                    <timebase>25</timebase>
                                    <ntsc>FALSE</ntsc>
                                </rate>
                                <string>00:00:00:20</string>
                                <frame>20</frame>
                                <displayformat>NDF</displayformat>
                            </timecode>
                            <media>
                                <video>
                                    <samplecharacteristics>
                                        <rate>
                                            <timebase>25</timebase>
                                            <ntsc>FALSE</ntsc>
                                        </rate>
                                        <width>1920</width>
                                        <height>1080</height>
                                        <anamorphic>FALSE</anamorphic>
                                        <pixelaspectratio>square</pixelaspectratio>
                                        <fielddominance>none</fielddominance>
                                    </samplecharacteristics>
                                </video>
                                <audio>
                                    <samplecharacteristics>
                                        <depth>16</depth>
                                        <samplerate>48000</samplerate>
                                    </samplecharacteristics>
                                    <channelcount>2</channelcount>
                                </audio>
                            </media>
                        </file>
                        <filter/>
                        <labels>
                            <label2>VFX</label2>
                        </labels>
                    </clipitem>
                    <clipitem id="clip_061">
                        <masterclipid>clip_061</masterclipid>
                        <name>PRAWNS</name>
                        <enabled>TRUE</enabled>
                        <duration>75</duration>
                        <rate>
                            <timebase>25</timebase>
                            <ntsc>FALSE</ntsc>
                        </rate>
                        <start>3852</start>
                        <end>3875</end>
                        <in>8</in>
                        <out>31</out>
                        <filter/>
                        <labels>
                            <label2>VFX</label2>
                        </labels>
                    </clipitem>
                    <clipitem id="clip_062">
                        <masterclipid>clip_062</masterclipid>
                        <name>PRAWNS</name>
                        <enabled>TRUE</enabled>
                        <duration>75</duration>
                        <rate>
                            <timebase>25</timebase>
                            <ntsc>FALSE</ntsc>
                        </rate>
                        <start>3900</start>
                        <end>3911</end>
                        <in>35</in>
                        <out>46</out>
                        <filter/>
                        <labels>
                            <label2>VFX</label2>
                        </labels>
                    </clipitem>
                    <clipitem id="clip_063">
                        <masterclipid>clip_063</masterclipid>
                        <name>PRAWNS</name>
                        <enabled>TRUE</enabled>
                        <duration>75</duration>
                        <rate>
                            <timebase>25</timebase>
                            <ntsc>FALSE</ntsc>
                        </rate>
                        <start>3936</start>
                        <end>3951</end>
                        <in>123</in>
                        <out>138</out>
                        <filter/>
                        <labels>
                            <label2>VFX</label2>
                        </labels>
                    </clipitem>
                    <enabled>TRUE</enabled>
                    <locked>FALSE</locked>
                </track>
            </video>
            <audio>
                <numOutputChannels>2</numOutputChannels>
                <format>
                    <samplecharacteristics>
                        <depth>16</depth>
                        <samplerate>48000</samplerate>
                    </samplecharacteristics>
                </format>
                <outputs>
                    <group>
                        <index>1</index>
                        <numchannels>1</numchannels>
                        <downmix>0</downmix>
                        <channel>
                            <index>1</index>
                        </channel>
                    </group>
                    <group>
                        <index>2</index>
                        <numchannels>1</numchannels>
                        <downmix>0</downmix>
                        <channel>
                            <index>2</index>
                        </channel>
                    </group>
                </outputs>
                <track TL.SQTrackAudioKeyframeStyle="0" TL.SQTrackShy="0" TL.SQTrackExpandedHeight="15" TL.SQTrackExpanded="0" MZ.TrackTargeted="1" PannerCurrentValue="0.5" PannerIsInverted="true" PannerStartKeyframe="-91445760000000000,0.5,0,0,0,0,0,0" PannerName="Balance" currentExplodedTrackIndex="0" totalExplodedTrackCount="2" premiereTrackType="Stereo">
                    <enabled>TRUE</enabled>
                    <locked>FALSE</locked>
                    <outputchannelindex>1</outputchannelindex>
                </track>
                <track TL.SQTrackAudioKeyframeStyle="0" TL.SQTrackShy="0" TL.SQTrackExpandedHeight="15" TL.SQTrackExpanded="0" MZ.TrackTargeted="1" PannerCurrentValue="0.5" PannerIsInverted="true" PannerStartKeyframe="-91445760000000000,0.5,0,0,0,0,0,0" PannerName="Balance" currentExplodedTrackIndex="1" totalExplodedTrackCount="2" premiereTrackType="Stereo">
                    <enabled>TRUE</enabled>
                    <locked>FALSE</locked>
                    <outputchannelindex>2</outputchannelindex>
                </track>
            </audio>
        </media>
        <timecode>
            <rate>
                <timebase>25</timebase>
                <ntsc>FALSE</ntsc>
            </rate>
            <string>00:00:00:00</string>
            <frame>0</frame>
            <displayformat>NDF</displayformat>
        </timecode>
        <labels>
            <label2>Forest</label2>
        </labels>
        <logginginfo>
            <description/>
            <scene/>
            <shottake/>
            <lognote/>
            <good/>
            <originalvideofilename/>
            <originalaudiofilename/>
        </logginginfo>
        <filter>
            <effect/>
        </filter>
    </sequence>
</xmeml>