<?xml version="1.0" encoding="UTF-8"?>
<!DOCTYPE xmeml>
<xmeml version="4">
	<sequence id="sequence-7" TL.SQAudioVisibleBase="0" TL.SQVideoVisibleBase="0" TL.SQVisibleBaseTime="0" TL.SQAVDividerPosition="0.459161162376" TL.SQHideShyTracks="0" TL.SQHeaderWidth="236" Monitor.ProgramZoomOut="8890560000000" Monitor.ProgramZoomIn="0" TL.SQTimePerPixel="0.019069151958143554" AM.TrackVScrollPosition="0" AM.TrackScrollPosition="0" MZ.EditLine="6584094720000" MZ.Sequence.PreviewFrameSizeHeight="1080" MZ.Sequence.PreviewFrameSizeWidth="1920" MZ.Sequence.AudioTimeDisplayFormat="200" MZ.Sequence.PreviewRenderingClassID="1297106761" MZ.Sequence.PreviewRenderingPresetCodec="1297107278" MZ.Sequence.PreviewRenderingPresetPath="EncoderPresets/SequencePreview/cc7991f5-c236-4db1-957e-2c71f924e81c/I-Frame Only MPEG.epr" MZ.Sequence.PreviewUseMaxRenderQuality="false" MZ.Sequence.PreviewUseMaxBitDepth="false" MZ.Sequence.EditingModeGUID="cc7991f5-c236-4db1-957e-2c71f924e81c" MZ.Sequence.VideoTimeDisplayFormat="101" MZ.WorkOutPoint="7488391680000" MZ.WorkInPoint="3546063360000" explodedTracks="true">
		<uuid>6ab912ad-fe0b-4f21-8b24-b8aefa11d78f</uuid>
		<duration>875</duration>
		<rate>
			<timebase>25</timebase>
			<ntsc>FALSE</ntsc>
		</rate>
		<name>02a_REMA_SMARTBOAT_GRILL_BURGER_V3</name>
		<media>
			<video>
				<format>
					<samplecharacteristics>
						<rate>
							<timebase>25</timebase>
							<ntsc>FALSE</ntsc>
						</rate>
						<codec>
							<name>Apple ProRes 422</name>
							<appspecificdata>
								<appname>Final Cut Pro</appname>
								<appmanufacturer>Apple Inc.</appmanufacturer>
								<appversion>7.0</appversion>
								<data>
									<qtcodec>
										<codecname>Apple ProRes 422</codecname>
										<codectypename>Apple ProRes 422</codectypename>
										<codectypecode>apcn</codectypecode>
										<codecvendorcode>appl</codecvendorcode>
										<spatialquality>1024</spatialquality>
										<temporalquality>0</temporalquality>
										<keyframerate>0</keyframerate>
										<datarate>0</datarate>
									</qtcodec>
								</data>
							</appspecificdata>
						</codec>
						<width>1920</width>
						<height>1080</height>
						<anamorphic>FALSE</anamorphic>
						<pixelaspectratio>square</pixelaspectratio>
						<fielddominance>none</fielddominance>
						<colordepth>24</colordepth>
					</samplecharacteristics>
				</format>
				<track TL.SQTrackShy="0" TL.SQTrackExpandedHeight="25" TL.SQTrackExpanded="0" MZ.TrackTargeted="1">
					<clipitem id="clipitem-165">
						<masterclipid>masterclip-88</masterclipid>
						<name>B003C026_190618_K136.mov</name>
						<enabled>TRUE</enabled>
						<duration>2072</duration>
						<rate>
							<timebase>25</timebase>
							<ntsc>FALSE</ntsc>
						</rate>
						<start>0</start>
						<end>71</end>
						<in>443</in>
						<out>514</out>
						<pproTicksIn>4501163520000</pproTicksIn>
						<pproTicksOut>5222568960000</pproTicksOut>
						<alphatype>none</alphatype>
						<pixelaspectratio>square</pixelaspectratio>
						<anamorphic>FALSE</anamorphic>
						<file id="file-85">
							<name>B003C026_190618_K136.mov</name>
							<pathurl>file://localhost/Volumes/PIGSTORE/Projects/rema_smartboat_0299_jun_2019/editorial/proxies/B003C026_190618_K136.mov</pathurl>
							<rate>
								<timebase>25</timebase>
								<ntsc>FALSE</ntsc>
							</rate>
							<duration>2072</duration>
							<timecode>
								<rate>
									<timebase>25</timebase>
									<ntsc>FALSE</ntsc>
								</rate>
								<string>03:12:46:19</string>
								<frame>289169</frame>
								<displayformat>NDF</displayformat>
							</timecode>
							<media>
								<video>
									<samplecharacteristics>
										<rate>
											<timebase>25</timebase>
											<ntsc>FALSE</ntsc>
										</rate>
										<width>1920</width>
										<height>1080</height>
										<anamorphic>FALSE</anamorphic>
										<pixelaspectratio>square</pixelaspectratio>
										<fielddominance>none</fielddominance>
									</samplecharacteristics>
								</video>
								<audio>
									<samplecharacteristics>
										<depth>16</depth>
										<samplerate>48000</samplerate>
									</samplecharacteristics>
									<channelcount>1</channelcount>
									<audiochannel>
										<sourcechannel>1</sourcechannel>
									</audiochannel>
								</audio>
								<audio>
									<samplecharacteristics>
										<depth>16</depth>
										<samplerate>48000</samplerate>
									</samplecharacteristics>
									<channelcount>1</channelcount>
									<audiochannel>
										<sourcechannel>2</sourcechannel>
									</audiochannel>
								</audio>
								<audio>
									<samplecharacteristics>
										<depth>16</depth>
										<samplerate>48000</samplerate>
									</samplecharacteristics>
									<channelcount>1</channelcount>
									<audiochannel>
										<sourcechannel>3</sourcechannel>
									</audiochannel>
								</audio>
								<audio>
									<samplecharacteristics>
										<depth>16</depth>
										<samplerate>48000</samplerate>
									</samplecharacteristics>
									<channelcount>1</channelcount>
									<audiochannel>
										<sourcechannel>4</sourcechannel>
									</audiochannel>
								</audio>
								<audio>
									<samplecharacteristics>
										<depth>16</depth>
										<samplerate>48000</samplerate>
									</samplecharacteristics>
									<channelcount>1</channelcount>
									<audiochannel>
										<sourcechannel>5</sourcechannel>
									</audiochannel>
								</audio>
							</media>
						</file>
						<logginginfo>
							<description></description>
							<scene></scene>
							<shottake></shottake>
							<lognote></lognote>
							<good></good>
							<originalvideofilename></originalvideofilename>
							<originalaudiofilename></originalaudiofilename>
						</logginginfo>
						<colorinfo>
							<lut></lut>
							<lut1></lut1>
							<asc_sop></asc_sop>
							<asc_sat></asc_sat>
							<lut2></lut2>
						</colorinfo>
						<labels>
							<label2>Iris</label2>
						</labels>
					</clipitem>
					<clipitem id="clipitem-166">
						<masterclipid>masterclip-89</masterclipid>
						<name>B003C022_190618_K136.mov</name>
						<enabled>TRUE</enabled>
						<duration>2010</duration>
						<rate>
							<timebase>25</timebase>
							<ntsc>FALSE</ntsc>
						</rate>
						<start>71</start>
						<end>143</end>
						<in>1219</in>
						<out>1291</out>
						<pproTicksIn>12385820160000</pproTicksIn>
						<pproTicksOut>13117386240000</pproTicksOut>
						<alphatype>none</alphatype>
						<pixelaspectratio>square</pixelaspectratio>
						<anamorphic>FALSE</anamorphic>
						<file id="file-86">
							<name>B003C022_190618_K136.mov</name>
							<pathurl>file://localhost/Volumes/PIGSTORE/Projects/rema_smartboat_0299_jun_2019/editorial/proxies/B003C022_190618_K136.mov</pathurl>
							<rate>
								<timebase>25</timebase>
								<ntsc>FALSE</ntsc>
							</rate>
							<duration>2010</duration>
							<timecode>
								<rate>
									<timebase>25</timebase>
									<ntsc>FALSE</ntsc>
								</rate>
								<string>02:47:59:08</string>
								<frame>251983</frame>
								<displayformat>NDF</displayformat>
							</timecode>
							<media>
								<video>
									<samplecharacteristics>
										<rate>
											<timebase>25</timebase>
											<ntsc>FALSE</ntsc>
										</rate>
										<width>1920</width>
										<height>1080</height>
										<anamorphic>FALSE</anamorphic>
										<pixelaspectratio>square</pixelaspectratio>
										<fielddominance>none</fielddominance>
									</samplecharacteristics>
								</video>
								<audio>
									<samplecharacteristics>
										<depth>16</depth>
										<samplerate>48000</samplerate>
									</samplecharacteristics>
									<channelcount>1</channelcount>
									<audiochannel>
										<sourcechannel>1</sourcechannel>
									</audiochannel>
								</audio>
								<audio>
									<samplecharacteristics>
										<depth>16</depth>
										<samplerate>48000</samplerate>
									</samplecharacteristics>
									<channelcount>1</channelcount>
									<audiochannel>
										<sourcechannel>2</sourcechannel>
									</audiochannel>
								</audio>
								<audio>
									<samplecharacteristics>
										<depth>16</depth>
										<samplerate>48000</samplerate>
									</samplecharacteristics>
									<channelcount>1</channelcount>
									<audiochannel>
										<sourcechannel>3</sourcechannel>
									</audiochannel>
								</audio>
								<audio>
									<samplecharacteristics>
										<depth>16</depth>
										<samplerate>48000</samplerate>
									</samplecharacteristics>
									<channelcount>1</channelcount>
									<audiochannel>
										<sourcechannel>4</sourcechannel>
									</audiochannel>
								</audio>
								<audio>
									<samplecharacteristics>
										<depth>16</depth>
										<samplerate>48000</samplerate>
									</samplecharacteristics>
									<channelcount>1</channelcount>
									<audiochannel>
										<sourcechannel>5</sourcechannel>
									</audiochannel>
								</audio>
							</media>
						</file>
						<logginginfo>
							<description></description>
							<scene></scene>
							<shottake></shottake>
							<lognote></lognote>
							<good></good>
							<originalvideofilename></originalvideofilename>
							<originalaudiofilename></originalaudiofilename>
						</logginginfo>
						<colorinfo>
							<lut></lut>
							<lut1></lut1>
							<asc_sop></asc_sop>
							<asc_sat></asc_sat>
							<lut2></lut2>
						</colorinfo>
						<labels>
							<label2>Iris</label2>
						</labels>
					</clipitem>
					<clipitem id="clipitem-167">
						<masterclipid>masterclip-90</masterclipid>
						<name>B003C024_190618_K136.mov</name>
						<enabled>TRUE</enabled>
						<duration>1064</duration>
						<rate>
							<timebase>25</timebase>
							<ntsc>FALSE</ntsc>
						</rate>
						<start>143</start>
						<end>203</end>
						<in>865</in>
						<out>925</out>
						<pproTicksIn>8788953600000</pproTicksIn>
						<pproTicksOut>9398592000000</pproTicksOut>
						<alphatype>none</alphatype>
						<pixelaspectratio>square</pixelaspectratio>
						<anamorphic>FALSE</anamorphic>
						<file id="file-87">
							<name>B003C024_190618_K136.mov</name>
							<pathurl>file://localhost/Volumes/PIGSTORE/Projects/rema_smartboat_0299_jun_2019/editorial/proxies/B003C024_190618_K136.mov</pathurl>
							<rate>
								<timebase>25</timebase>
								<ntsc>FALSE</ntsc>
							</rate>
							<duration>1064</duration>
							<timecode>
								<rate>
									<timebase>25</timebase>
									<ntsc>FALSE</ntsc>
								</rate>
								<string>02:59:29:19</string>
								<frame>269244</frame>
								<displayformat>NDF</displayformat>
							</timecode>
							<media>
								<video>
									<samplecharacteristics>
										<rate>
											<timebase>25</timebase>
											<ntsc>FALSE</ntsc>
										</rate>
										<width>1920</width>
										<height>1080</height>
										<anamorphic>FALSE</anamorphic>
										<pixelaspectratio>square</pixelaspectratio>
										<fielddominance>none</fielddominance>
									</samplecharacteristics>
								</video>
								<audio>
									<samplecharacteristics>
										<depth>16</depth>
										<samplerate>48000</samplerate>
									</samplecharacteristics>
									<channelcount>1</channelcount>
									<audiochannel>
										<sourcechannel>1</sourcechannel>
									</audiochannel>
								</audio>
								<audio>
									<samplecharacteristics>
										<depth>16</depth>
										<samplerate>48000</samplerate>
									</samplecharacteristics>
									<channelcount>1</channelcount>
									<audiochannel>
										<sourcechannel>2</sourcechannel>
									</audiochannel>
								</audio>
								<audio>
									<samplecharacteristics>
										<depth>16</depth>
										<samplerate>48000</samplerate>
									</samplecharacteristics>
									<channelcount>1</channelcount>
									<audiochannel>
										<sourcechannel>3</sourcechannel>
									</audiochannel>
								</audio>
								<audio>
									<samplecharacteristics>
										<depth>16</depth>
										<samplerate>48000</samplerate>
									</samplecharacteristics>
									<channelcount>1</channelcount>
									<audiochannel>
										<sourcechannel>4</sourcechannel>
									</audiochannel>
								</audio>
								<audio>
									<samplecharacteristics>
										<depth>16</depth>
										<samplerate>48000</samplerate>
									</samplecharacteristics>
									<channelcount>1</channelcount>
									<audiochannel>
										<sourcechannel>5</sourcechannel>
									</audiochannel>
								</audio>
							</media>
						</file>
						<logginginfo>
							<description></description>
							<scene></scene>
							<shottake></shottake>
							<lognote></lognote>
							<good></good>
							<originalvideofilename></originalvideofilename>
							<originalaudiofilename></originalaudiofilename>
						</logginginfo>
						<colorinfo>
							<lut></lut>
							<lut1></lut1>
							<asc_sop></asc_sop>
							<asc_sat></asc_sat>
							<lut2></lut2>
						</colorinfo>
						<labels>
							<label2>Iris</label2>
						</labels>
					</clipitem>
					<clipitem id="clipitem-168">
						<masterclipid>masterclip-91</masterclipid>
						<name>B003C018_190618_K136.mov</name>
						<enabled>TRUE</enabled>
						<duration>1547</duration>
						<rate>
							<timebase>25</timebase>
							<ntsc>FALSE</ntsc>
						</rate>
						<start>203</start>
						<end>235</end>
						<in>864</in>
						<out>896</out>
						<pproTicksIn>8778792960000</pproTicksIn>
						<pproTicksOut>9103933440000</pproTicksOut>
						<alphatype>none</alphatype>
						<pixelaspectratio>square</pixelaspectratio>
						<anamorphic>FALSE</anamorphic>
						<file id="file-88">
							<name>B003C018_190618_K136.mov</name>
							<pathurl>file://localhost/Volumes/PIGSTORE/Projects/rema_smartboat_0299_jun_2019/editorial/proxies/B003C018_190618_K136.mov</pathurl>
							<rate>
								<timebase>25</timebase>
								<ntsc>FALSE</ntsc>
							</rate>
							<duration>1547</duration>
							<timecode>
								<rate>
									<timebase>25</timebase>
									<ntsc>FALSE</ntsc>
								</rate>
								<string>02:32:17:07</string>
								<frame>228432</frame>
								<displayformat>NDF</displayformat>
							</timecode>
							<media>
								<video>
									<samplecharacteristics>
										<rate>
											<timebase>25</timebase>
											<ntsc>FALSE</ntsc>
										</rate>
										<width>1920</width>
										<height>1080</height>
										<anamorphic>FALSE</anamorphic>
										<pixelaspectratio>square</pixelaspectratio>
										<fielddominance>none</fielddominance>
									</samplecharacteristics>
								</video>
								<audio>
									<samplecharacteristics>
										<depth>16</depth>
										<samplerate>48000</samplerate>
									</samplecharacteristics>
									<channelcount>1</channelcount>
									<audiochannel>
										<sourcechannel>1</sourcechannel>
									</audiochannel>
								</audio>
								<audio>
									<samplecharacteristics>
										<depth>16</depth>
										<samplerate>48000</samplerate>
									</samplecharacteristics>
									<channelcount>1</channelcount>
									<audiochannel>
										<sourcechannel>2</sourcechannel>
									</audiochannel>
								</audio>
								<audio>
									<samplecharacteristics>
										<depth>16</depth>
										<samplerate>48000</samplerate>
									</samplecharacteristics>
									<channelcount>1</channelcount>
									<audiochannel>
										<sourcechannel>3</sourcechannel>
									</audiochannel>
								</audio>
								<audio>
									<samplecharacteristics>
										<depth>16</depth>
										<samplerate>48000</samplerate>
									</samplecharacteristics>
									<channelcount>1</channelcount>
									<audiochannel>
										<sourcechannel>4</sourcechannel>
									</audiochannel>
								</audio>
								<audio>
									<samplecharacteristics>
										<depth>16</depth>
										<samplerate>48000</samplerate>
									</samplecharacteristics>
									<channelcount>1</channelcount>
									<audiochannel>
										<sourcechannel>5</sourcechannel>
									</audiochannel>
								</audio>
							</media>
						</file>
						<filter>
							<effect>
								<name>Basic Motion</name>
								<effectid>basic</effectid>
								<effectcategory>motion</effectcategory>
								<effecttype>motion</effecttype>
								<mediatype>video</mediatype>
								<pproBypass>false</pproBypass>
								<parameter authoringApp="PremierePro">
									<parameterid>scale</parameterid>
									<name>Scale</name>
									<valuemin>0</valuemin>
									<valuemax>1000</valuemax>
									<value>104.52</value>
								</parameter>
								<parameter authoringApp="PremierePro">
									<parameterid>rotation</parameterid>
									<name>Rotation</name>
									<valuemin>-8640</valuemin>
									<valuemax>8640</valuemax>
									<value>0</value>
								</parameter>
								<parameter authoringApp="PremierePro">
									<parameterid>center</parameterid>
									<name>Center</name>
									<value>
										<horiz>0</horiz>
										<vert>0</vert>
									</value>
								</parameter>
								<parameter authoringApp="PremierePro">
									<parameterid>centerOffset</parameterid>
									<name>Anchor Point</name>
									<value>
										<horiz>0</horiz>
										<vert>0</vert>
									</value>
								</parameter>
								<parameter authoringApp="PremierePro">
									<parameterid>antiflicker</parameterid>
									<name>Anti-flicker Filter</name>
									<valuemin>0.0</valuemin>
									<valuemax>1.0</valuemax>
									<value>0</value>
								</parameter>
							</effect>
						</filter>
						<logginginfo>
							<description></description>
							<scene></scene>
							<shottake></shottake>
							<lognote></lognote>
							<good></good>
							<originalvideofilename></originalvideofilename>
							<originalaudiofilename></originalaudiofilename>
						</logginginfo>
						<colorinfo>
							<lut></lut>
							<lut1></lut1>
							<asc_sop></asc_sop>
							<asc_sat></asc_sat>
							<lut2></lut2>
						</colorinfo>
						<labels>
							<label2>Iris</label2>
						</labels>
					</clipitem>
					<clipitem id="clipitem-169">
						<masterclipid>masterclip-92</masterclipid>
						<name>B003C025_190618_K136.mov</name>
						<enabled>TRUE</enabled>
						<duration>5215</duration>
						<rate>
							<timebase>25</timebase>
							<ntsc>FALSE</ntsc>
						</rate>
						<start>235</start>
						<end>272</end>
						<in>681</in>
						<out>718</out>
						<pproTicksIn>6919395840000</pproTicksIn>
						<pproTicksOut>7295339520000</pproTicksOut>
						<alphatype>none</alphatype>
						<pixelaspectratio>square</pixelaspectratio>
						<anamorphic>FALSE</anamorphic>
						<file id="file-89">
							<name>B003C025_190618_K136.mov</name>
							<pathurl>file://localhost/Volumes/PIGSTORE/Projects/rema_smartboat_0299_jun_2019/editorial/proxies/B003C025_190618_K136.mov</pathurl>
							<rate>
								<timebase>25</timebase>
								<ntsc>FALSE</ntsc>
							</rate>
							<duration>5215</duration>
							<timecode>
								<rate>
									<timebase>25</timebase>
									<ntsc>FALSE</ntsc>
								</rate>
								<string>03:03:44:13</string>
								<frame>275613</frame>
								<displayformat>NDF</displayformat>
							</timecode>
							<media>
								<video>
									<samplecharacteristics>
										<rate>
											<timebase>25</timebase>
											<ntsc>FALSE</ntsc>
										</rate>
										<width>1920</width>
										<height>1080</height>
										<anamorphic>FALSE</anamorphic>
										<pixelaspectratio>square</pixelaspectratio>
										<fielddominance>none</fielddominance>
									</samplecharacteristics>
								</video>
								<audio>
									<samplecharacteristics>
										<depth>16</depth>
										<samplerate>48000</samplerate>
									</samplecharacteristics>
									<channelcount>1</channelcount>
									<audiochannel>
										<sourcechannel>1</sourcechannel>
									</audiochannel>
								</audio>
								<audio>
									<samplecharacteristics>
										<depth>16</depth>
										<samplerate>48000</samplerate>
									</samplecharacteristics>
									<channelcount>1</channelcount>
									<audiochannel>
										<sourcechannel>2</sourcechannel>
									</audiochannel>
								</audio>
								<audio>
									<samplecharacteristics>
										<depth>16</depth>
										<samplerate>48000</samplerate>
									</samplecharacteristics>
									<channelcount>1</channelcount>
									<audiochannel>
										<sourcechannel>3</sourcechannel>
									</audiochannel>
								</audio>
								<audio>
									<samplecharacteristics>
										<depth>16</depth>
										<samplerate>48000</samplerate>
									</samplecharacteristics>
									<channelcount>1</channelcount>
									<audiochannel>
										<sourcechannel>4</sourcechannel>
									</audiochannel>
								</audio>
								<audio>
									<samplecharacteristics>
										<depth>16</depth>
										<samplerate>48000</samplerate>
									</samplecharacteristics>
									<channelcount>1</channelcount>
									<audiochannel>
										<sourcechannel>5</sourcechannel>
									</audiochannel>
								</audio>
							</media>
						</file>
						<logginginfo>
							<description></description>
							<scene></scene>
							<shottake></shottake>
							<lognote></lognote>
							<good></good>
							<originalvideofilename></originalvideofilename>
							<originalaudiofilename></originalaudiofilename>
						</logginginfo>
						<colorinfo>
							<lut></lut>
							<lut1></lut1>
							<asc_sop></asc_sop>
							<asc_sat></asc_sat>
							<lut2></lut2>
						</colorinfo>
						<labels>
							<label2>Iris</label2>
						</labels>
					</clipitem>
					<clipitem id="clipitem-170">
						<masterclipid>masterclip-93</masterclipid>
						<name>B004C004_190619_K136.mov</name>
						<enabled>TRUE</enabled>
						<duration>2936</duration>
						<rate>
							<timebase>25</timebase>
							<ntsc>FALSE</ntsc>
						</rate>
						<start>272</start>
						<end>296</end>
						<in>2172</in>
						<out>2196</out>
						<pproTicksIn>22068910080000</pproTicksIn>
						<pproTicksOut>22312765440000</pproTicksOut>
						<alphatype>none</alphatype>
						<pixelaspectratio>square</pixelaspectratio>
						<anamorphic>FALSE</anamorphic>
						<file id="file-90">
							<name>B004C004_190619_K136.mov</name>
							<pathurl>file://localhost/Volumes/PIGSTORE/Projects/rema_smartboat_0299_jun_2019/editorial/proxies/B004C004_190619_K136.mov</pathurl>
							<rate>
								<timebase>25</timebase>
								<ntsc>FALSE</ntsc>
							</rate>
							<duration>2936</duration>
							<timecode>
								<rate>
									<timebase>25</timebase>
									<ntsc>FALSE</ntsc>
								</rate>
								<string>09:27:05:18</string>
								<frame>850643</frame>
								<displayformat>NDF</displayformat>
							</timecode>
							<media>
								<video>
									<samplecharacteristics>
										<rate>
											<timebase>25</timebase>
											<ntsc>FALSE</ntsc>
										</rate>
										<width>1920</width>
										<height>1080</height>
										<anamorphic>FALSE</anamorphic>
										<pixelaspectratio>square</pixelaspectratio>
										<fielddominance>none</fielddominance>
									</samplecharacteristics>
								</video>
								<audio>
									<samplecharacteristics>
										<depth>16</depth>
										<samplerate>48000</samplerate>
									</samplecharacteristics>
									<channelcount>1</channelcount>
									<audiochannel>
										<sourcechannel>1</sourcechannel>
									</audiochannel>
								</audio>
								<audio>
									<samplecharacteristics>
										<depth>16</depth>
										<samplerate>48000</samplerate>
									</samplecharacteristics>
									<channelcount>1</channelcount>
									<audiochannel>
										<sourcechannel>2</sourcechannel>
									</audiochannel>
								</audio>
								<audio>
									<samplecharacteristics>
										<depth>16</depth>
										<samplerate>48000</samplerate>
									</samplecharacteristics>
									<channelcount>1</channelcount>
									<audiochannel>
										<sourcechannel>3</sourcechannel>
									</audiochannel>
								</audio>
								<audio>
									<samplecharacteristics>
										<depth>16</depth>
										<samplerate>48000</samplerate>
									</samplecharacteristics>
									<channelcount>1</channelcount>
									<audiochannel>
										<sourcechannel>4</sourcechannel>
									</audiochannel>
								</audio>
								<audio>
									<samplecharacteristics>
										<depth>16</depth>
										<samplerate>48000</samplerate>
									</samplecharacteristics>
									<channelcount>1</channelcount>
									<audiochannel>
										<sourcechannel>5</sourcechannel>
									</audiochannel>
								</audio>
							</media>
						</file>
						<logginginfo>
							<description></description>
							<scene></scene>
							<shottake></shottake>
							<lognote></lognote>
							<good></good>
							<originalvideofilename></originalvideofilename>
							<originalaudiofilename></originalaudiofilename>
						</logginginfo>
						<colorinfo>
							<lut></lut>
							<lut1></lut1>
							<asc_sop></asc_sop>
							<asc_sat></asc_sat>
							<lut2></lut2>
						</colorinfo>
						<labels>
							<label2>Iris</label2>
						</labels>
					</clipitem>
					<clipitem id="clipitem-171">
						<masterclipid>masterclip-92</masterclipid>
						<name>B003C025_190618_K136.mov</name>
						<enabled>TRUE</enabled>
						<duration>5215</duration>
						<rate>
							<timebase>25</timebase>
							<ntsc>FALSE</ntsc>
						</rate>
						<start>296</start>
						<end>330</end>
						<in>3151</in>
						<out>3185</out>
						<pproTicksIn>32016176640000</pproTicksIn>
						<pproTicksOut>32361638400000</pproTicksOut>
						<alphatype>none</alphatype>
						<file id="file-89"/>
						<logginginfo>
							<description></description>
							<scene></scene>
							<shottake></shottake>
							<lognote></lognote>
							<good></good>
							<originalvideofilename></originalvideofilename>
							<originalaudiofilename></originalaudiofilename>
						</logginginfo>
						<colorinfo>
							<lut></lut>
							<lut1></lut1>
							<asc_sop></asc_sop>
							<asc_sat></asc_sat>
							<lut2></lut2>
						</colorinfo>
						<labels>
							<label2>Iris</label2>
						</labels>
					</clipitem>
					<clipitem id="clipitem-172">
						<masterclipid>masterclip-89</masterclipid>
						<name>B003C022_190618_K136.mov</name>
						<enabled>TRUE</enabled>
						<duration>2010</duration>
						<rate>
							<timebase>25</timebase>
							<ntsc>FALSE</ntsc>
						</rate>
						<start>330</start>
						<end>411</end>
						<in>1614</in>
						<out>1695</out>
						<pproTicksIn>16399272960000</pproTicksIn>
						<pproTicksOut>17222284800000</pproTicksOut>
						<alphatype>none</alphatype>
						<file id="file-86"/>
						<logginginfo>
							<description></description>
							<scene></scene>
							<shottake></shottake>
							<lognote></lognote>
							<good></good>
							<originalvideofilename></originalvideofilename>
							<originalaudiofilename></originalaudiofilename>
						</logginginfo>
						<colorinfo>
							<lut></lut>
							<lut1></lut1>
							<asc_sop></asc_sop>
							<asc_sat></asc_sat>
							<lut2></lut2>
						</colorinfo>
						<labels>
							<label2>Iris</label2>
						</labels>
					</clipitem>
					<clipitem id="clipitem-173">
						<masterclipid>masterclip-89</masterclipid>
						<name>B003C022_190618_K136.mov</name>
						<enabled>TRUE</enabled>
						<duration>2010</duration>
						<rate>
							<timebase>25</timebase>
							<ntsc>FALSE</ntsc>
						</rate>
						<start>411</start>
						<end>422</end>
						<in>1695</in>
						<out>1706</out>
						<pproTicksIn>17222284800000</pproTicksIn>
						<pproTicksOut>17334051840000</pproTicksOut>
						<alphatype>none</alphatype>
						<file id="file-86"/>
						<logginginfo>
							<description></description>
							<scene></scene>
							<shottake></shottake>
							<lognote></lognote>
							<good></good>
							<originalvideofilename></originalvideofilename>
							<originalaudiofilename></originalaudiofilename>
						</logginginfo>
						<colorinfo>
							<lut></lut>
							<lut1></lut1>
							<asc_sop></asc_sop>
							<asc_sat></asc_sat>
							<lut2></lut2>
						</colorinfo>
						<labels>
							<label2>Iris</label2>
						</labels>
					</clipitem>
					<clipitem id="clipitem-174">
						<masterclipid>masterclip-94</masterclipid>
						<name>B003C023_190618_K136.mov</name>
						<enabled>TRUE</enabled>
						<duration>3741</duration>
						<rate>
							<timebase>25</timebase>
							<ntsc>FALSE</ntsc>
						</rate>
						<start>422</start>
						<end>456</end>
						<in>3585</in>
						<out>3619</out>
						<pproTicksIn>36425894400000</pproTicksIn>
						<pproTicksOut>36771356160000</pproTicksOut>
						<alphatype>none</alphatype>
						<pixelaspectratio>square</pixelaspectratio>
						<anamorphic>FALSE</anamorphic>
						<file id="file-91">
							<name>B003C023_190618_K136.mov</name>
							<pathurl>file://localhost/Volumes/PIGSTORE/Projects/rema_smartboat_0299_jun_2019/editorial/proxies/B003C023_190618_K136.mov</pathurl>
							<rate>
								<timebase>25</timebase>
								<ntsc>FALSE</ntsc>
							</rate>
							<duration>3741</duration>
							<timecode>
								<rate>
									<timebase>25</timebase>
									<ntsc>FALSE</ntsc>
								</rate>
								<string>02:56:24:11</string>
								<frame>264611</frame>
								<displayformat>NDF</displayformat>
							</timecode>
							<media>
								<video>
									<samplecharacteristics>
										<rate>
											<timebase>25</timebase>
											<ntsc>FALSE</ntsc>
										</rate>
										<width>1920</width>
										<height>1080</height>
										<anamorphic>FALSE</anamorphic>
										<pixelaspectratio>square</pixelaspectratio>
										<fielddominance>none</fielddominance>
									</samplecharacteristics>
								</video>
								<audio>
									<samplecharacteristics>
										<depth>16</depth>
										<samplerate>48000</samplerate>
									</samplecharacteristics>
									<channelcount>1</channelcount>
									<audiochannel>
										<sourcechannel>1</sourcechannel>
									</audiochannel>
								</audio>
								<audio>
									<samplecharacteristics>
										<depth>16</depth>
										<samplerate>48000</samplerate>
									</samplecharacteristics>
									<channelcount>1</channelcount>
									<audiochannel>
										<sourcechannel>2</sourcechannel>
									</audiochannel>
								</audio>
								<audio>
									<samplecharacteristics>
										<depth>16</depth>
										<samplerate>48000</samplerate>
									</samplecharacteristics>
									<channelcount>1</channelcount>
									<audiochannel>
										<sourcechannel>3</sourcechannel>
									</audiochannel>
								</audio>
								<audio>
									<samplecharacteristics>
										<depth>16</depth>
										<samplerate>48000</samplerate>
									</samplecharacteristics>
									<channelcount>1</channelcount>
									<audiochannel>
										<sourcechannel>4</sourcechannel>
									</audiochannel>
								</audio>
								<audio>
									<samplecharacteristics>
										<depth>16</depth>
										<samplerate>48000</samplerate>
									</samplecharacteristics>
									<channelcount>1</channelcount>
									<audiochannel>
										<sourcechannel>5</sourcechannel>
									</audiochannel>
								</audio>
							</media>
						</file>
						<logginginfo>
							<description></description>
							<scene></scene>
							<shottake></shottake>
							<lognote></lognote>
							<good></good>
							<originalvideofilename></originalvideofilename>
							<originalaudiofilename></originalaudiofilename>
						</logginginfo>
						<colorinfo>
							<lut></lut>
							<lut1></lut1>
							<asc_sop></asc_sop>
							<asc_sat></asc_sat>
							<lut2></lut2>
						</colorinfo>
						<labels>
							<label2>Iris</label2>
						</labels>
					</clipitem>
					<clipitem id="clipitem-175">
						<masterclipid>masterclip-95</masterclipid>
						<name>B004C005_190619_K136.mov</name>
						<enabled>TRUE</enabled>
						<duration>2376</duration>
						<rate>
							<timebase>25</timebase>
							<ntsc>FALSE</ntsc>
						</rate>
						<start>456</start>
						<end>488</end>
						<in>1948</in>
						<out>1980</out>
						<pproTicksIn>19792926720000</pproTicksIn>
						<pproTicksOut>20118067200000</pproTicksOut>
						<alphatype>none</alphatype>
						<pixelaspectratio>square</pixelaspectratio>
						<anamorphic>FALSE</anamorphic>
						<file id="file-92">
							<name>B004C005_190619_K136.mov</name>
							<pathurl>file://localhost/Volumes/PIGSTORE/Projects/rema_smartboat_0299_jun_2019/editorial/proxies/B004C005_190619_K136.mov</pathurl>
							<rate>
								<timebase>25</timebase>
								<ntsc>FALSE</ntsc>
							</rate>
							<duration>2376</duration>
							<timecode>
								<rate>
									<timebase>25</timebase>
									<ntsc>FALSE</ntsc>
								</rate>
								<string>09:39:41:14</string>
								<frame>869539</frame>
								<displayformat>NDF</displayformat>
							</timecode>
							<media>
								<video>
									<samplecharacteristics>
										<rate>
											<timebase>25</timebase>
											<ntsc>FALSE</ntsc>
										</rate>
										<width>1920</width>
										<height>1080</height>
										<anamorphic>FALSE</anamorphic>
										<pixelaspectratio>square</pixelaspectratio>
										<fielddominance>none</fielddominance>
									</samplecharacteristics>
								</video>
								<audio>
									<samplecharacteristics>
										<depth>16</depth>
										<samplerate>48000</samplerate>
									</samplecharacteristics>
									<channelcount>1</channelcount>
									<audiochannel>
										<sourcechannel>1</sourcechannel>
									</audiochannel>
								</audio>
								<audio>
									<samplecharacteristics>
										<depth>16</depth>
										<samplerate>48000</samplerate>
									</samplecharacteristics>
									<channelcount>1</channelcount>
									<audiochannel>
										<sourcechannel>2</sourcechannel>
									</audiochannel>
								</audio>
								<audio>
									<samplecharacteristics>
										<depth>16</depth>
										<samplerate>48000</samplerate>
									</samplecharacteristics>
									<channelcount>1</channelcount>
									<audiochannel>
										<sourcechannel>3</sourcechannel>
									</audiochannel>
								</audio>
								<audio>
									<samplecharacteristics>
										<depth>16</depth>
										<samplerate>48000</samplerate>
									</samplecharacteristics>
									<channelcount>1</channelcount>
									<audiochannel>
										<sourcechannel>4</sourcechannel>
									</audiochannel>
								</audio>
								<audio>
									<samplecharacteristics>
										<depth>16</depth>
										<samplerate>48000</samplerate>
									</samplecharacteristics>
									<channelcount>1</channelcount>
									<audiochannel>
										<sourcechannel>5</sourcechannel>
									</audiochannel>
								</audio>
							</media>
						</file>
						<logginginfo>
							<description></description>
							<scene></scene>
							<shottake></shottake>
							<lognote></lognote>
							<good></good>
							<originalvideofilename></originalvideofilename>
							<originalaudiofilename></originalaudiofilename>
						</logginginfo>
						<colorinfo>
							<lut></lut>
							<lut1></lut1>
							<asc_sop></asc_sop>
							<asc_sat></asc_sat>
							<lut2></lut2>
						</colorinfo>
						<labels>
							<label2>Iris</label2>
						</labels>
					</clipitem>
					<clipitem id="clipitem-176">
						<masterclipid>masterclip-96</masterclipid>
						<name>B007C006_190619_K136.mov</name>
						<enabled>TRUE</enabled>
						<duration>4126</duration>
						<rate>
							<timebase>25</timebase>
							<ntsc>FALSE</ntsc>
						</rate>
						<start>488</start>
						<end>529</end>
						<in>754</in>
						<out>795</out>
						<pproTicksIn>7661122560000</pproTicksIn>
						<pproTicksOut>8077708800000</pproTicksOut>
						<alphatype>none</alphatype>
						<pixelaspectratio>square</pixelaspectratio>
						<anamorphic>FALSE</anamorphic>
						<file id="file-93">
							<name>B007C006_190619_K136.mov</name>
							<pathurl>file://localhost/Volumes/PIGSTORE/Projects/rema_smartboat_0299_jun_2019/editorial/proxies/B007C006_190619_K136.mov</pathurl>
							<rate>
								<timebase>25</timebase>
								<ntsc>FALSE</ntsc>
							</rate>
							<duration>4126</duration>
							<timecode>
								<rate>
									<timebase>25</timebase>
									<ntsc>FALSE</ntsc>
								</rate>
								<string>16:16:14:05</string>
								<frame>1464355</frame>
								<displayformat>NDF</displayformat>
							</timecode>
							<media>
								<video>
									<samplecharacteristics>
										<rate>
											<timebase>25</timebase>
											<ntsc>FALSE</ntsc>
										</rate>
										<width>1920</width>
										<height>1080</height>
										<anamorphic>FALSE</anamorphic>
										<pixelaspectratio>square</pixelaspectratio>
										<fielddominance>none</fielddominance>
									</samplecharacteristics>
								</video>
								<audio>
									<samplecharacteristics>
										<depth>16</depth>
										<samplerate>48000</samplerate>
									</samplecharacteristics>
									<channelcount>1</channelcount>
									<audiochannel>
										<sourcechannel>1</sourcechannel>
									</audiochannel>
								</audio>
								<audio>
									<samplecharacteristics>
										<depth>16</depth>
										<samplerate>48000</samplerate>
									</samplecharacteristics>
									<channelcount>1</channelcount>
									<audiochannel>
										<sourcechannel>2</sourcechannel>
									</audiochannel>
								</audio>
								<audio>
									<samplecharacteristics>
										<depth>16</depth>
										<samplerate>48000</samplerate>
									</samplecharacteristics>
									<channelcount>1</channelcount>
									<audiochannel>
										<sourcechannel>3</sourcechannel>
									</audiochannel>
								</audio>
								<audio>
									<samplecharacteristics>
										<depth>16</depth>
										<samplerate>48000</samplerate>
									</samplecharacteristics>
									<channelcount>1</channelcount>
									<audiochannel>
										<sourcechannel>4</sourcechannel>
									</audiochannel>
								</audio>
								<audio>
									<samplecharacteristics>
										<depth>16</depth>
										<samplerate>48000</samplerate>
									</samplecharacteristics>
									<channelcount>1</channelcount>
									<audiochannel>
										<sourcechannel>5</sourcechannel>
									</audiochannel>
								</audio>
							</media>
						</file>
						<logginginfo>
							<description></description>
							<scene></scene>
							<shottake></shottake>
							<lognote></lognote>
							<good></good>
							<originalvideofilename></originalvideofilename>
							<originalaudiofilename></originalaudiofilename>
						</logginginfo>
						<colorinfo>
							<lut></lut>
							<lut1></lut1>
							<asc_sop></asc_sop>
							<asc_sat></asc_sat>
							<lut2></lut2>
						</colorinfo>
						<labels>
							<label2>Iris</label2>
						</labels>
					</clipitem>
					<clipitem id="clipitem-177">
						<masterclipid>masterclip-97</masterclipid>
						<name>B005C005_190619_K136.mov</name>
						<enabled>TRUE</enabled>
						<duration>1843</duration>
						<rate>
							<timebase>25</timebase>
							<ntsc>FALSE</ntsc>
						</rate>
						<start>529</start>
						<end>608</end>
						<in>512</in>
						<out>591</out>
						<pproTicksIn>5202247680000</pproTicksIn>
						<pproTicksOut>6004938240000</pproTicksOut>
						<alphatype>none</alphatype>
						<pixelaspectratio>square</pixelaspectratio>
						<anamorphic>FALSE</anamorphic>
						<file id="file-94">
							<name>B005C005_190619_K136.mov</name>
							<pathurl>file://localhost/Volumes/PIGSTORE/Projects/rema_smartboat_0299_jun_2019/editorial/proxies/B005C005_190619_K136.mov</pathurl>
							<rate>
								<timebase>25</timebase>
								<ntsc>FALSE</ntsc>
							</rate>
							<duration>1843</duration>
							<timecode>
								<rate>
									<timebase>25</timebase>
									<ntsc>FALSE</ntsc>
								</rate>
								<string>11:15:36:12</string>
								<frame>1013412</frame>
								<displayformat>NDF</displayformat>
							</timecode>
							<media>
								<video>
									<samplecharacteristics>
										<rate>
											<timebase>25</timebase>
											<ntsc>FALSE</ntsc>
										</rate>
										<width>1920</width>
										<height>1080</height>
										<anamorphic>FALSE</anamorphic>
										<pixelaspectratio>square</pixelaspectratio>
										<fielddominance>none</fielddominance>
									</samplecharacteristics>
								</video>
								<audio>
									<samplecharacteristics>
										<depth>16</depth>
										<samplerate>48000</samplerate>
									</samplecharacteristics>
									<channelcount>1</channelcount>
									<audiochannel>
										<sourcechannel>1</sourcechannel>
									</audiochannel>
								</audio>
								<audio>
									<samplecharacteristics>
										<depth>16</depth>
										<samplerate>48000</samplerate>
									</samplecharacteristics>
									<channelcount>1</channelcount>
									<audiochannel>
										<sourcechannel>2</sourcechannel>
									</audiochannel>
								</audio>
								<audio>
									<samplecharacteristics>
										<depth>16</depth>
										<samplerate>48000</samplerate>
									</samplecharacteristics>
									<channelcount>1</channelcount>
									<audiochannel>
										<sourcechannel>3</sourcechannel>
									</audiochannel>
								</audio>
								<audio>
									<samplecharacteristics>
										<depth>16</depth>
										<samplerate>48000</samplerate>
									</samplecharacteristics>
									<channelcount>1</channelcount>
									<audiochannel>
										<sourcechannel>4</sourcechannel>
									</audiochannel>
								</audio>
							</media>
						</file>
						<logginginfo>
							<description></description>
							<scene></scene>
							<shottake></shottake>
							<lognote></lognote>
							<good></good>
							<originalvideofilename></originalvideofilename>
							<originalaudiofilename></originalaudiofilename>
						</logginginfo>
						<colorinfo>
							<lut></lut>
							<lut1></lut1>
							<asc_sop></asc_sop>
							<asc_sat></asc_sat>
							<lut2></lut2>
						</colorinfo>
						<labels>
							<label2>Iris</label2>
						</labels>
					</clipitem>
					<clipitem id="clipitem-178">
						<masterclipid>masterclip-98</masterclipid>
						<name>B005C009_190619_K136.mov</name>
						<enabled>TRUE</enabled>
						<duration>6992</duration>
						<rate>
							<timebase>25</timebase>
							<ntsc>FALSE</ntsc>
						</rate>
						<start>608</start>
						<end>633</end>
						<in>6106</in>
						<out>6131</out>
						<pproTicksIn>62040867840000</pproTicksIn>
						<pproTicksOut>62294883840000</pproTicksOut>
						<alphatype>none</alphatype>
						<pixelaspectratio>square</pixelaspectratio>
						<anamorphic>FALSE</anamorphic>
						<file id="file-95">
							<name>B005C009_190619_K136.mov</name>
							<pathurl>file://localhost/Volumes/PIGSTORE/Projects/rema_smartboat_0299_jun_2019/editorial/proxies/B005C009_190619_K136.mov</pathurl>
							<rate>
								<timebase>25</timebase>
								<ntsc>FALSE</ntsc>
							</rate>
							<duration>6992</duration>
							<timecode>
								<rate>
									<timebase>25</timebase>
									<ntsc>FALSE</ntsc>
								</rate>
								<string>11:33:01:11</string>
								<frame>1039536</frame>
								<displayformat>NDF</displayformat>
							</timecode>
							<media>
								<video>
									<samplecharacteristics>
										<rate>
											<timebase>25</timebase>
											<ntsc>FALSE</ntsc>
										</rate>
										<width>1920</width>
										<height>1080</height>
										<anamorphic>FALSE</anamorphic>
										<pixelaspectratio>square</pixelaspectratio>
										<fielddominance>none</fielddominance>
									</samplecharacteristics>
								</video>
								<audio>
									<samplecharacteristics>
										<depth>16</depth>
										<samplerate>48000</samplerate>
									</samplecharacteristics>
									<channelcount>1</channelcount>
									<audiochannel>
										<sourcechannel>1</sourcechannel>
									</audiochannel>
								</audio>
								<audio>
									<samplecharacteristics>
										<depth>16</depth>
										<samplerate>48000</samplerate>
									</samplecharacteristics>
									<channelcount>1</channelcount>
									<audiochannel>
										<sourcechannel>2</sourcechannel>
									</audiochannel>
								</audio>
								<audio>
									<samplecharacteristics>
										<depth>16</depth>
										<samplerate>48000</samplerate>
									</samplecharacteristics>
									<channelcount>1</channelcount>
									<audiochannel>
										<sourcechannel>3</sourcechannel>
									</audiochannel>
								</audio>
								<audio>
									<samplecharacteristics>
										<depth>16</depth>
										<samplerate>48000</samplerate>
									</samplecharacteristics>
									<channelcount>1</channelcount>
									<audiochannel>
										<sourcechannel>4</sourcechannel>
									</audiochannel>
								</audio>
							</media>
						</file>
						<logginginfo>
							<description></description>
							<scene></scene>
							<shottake></shottake>
							<lognote></lognote>
							<good></good>
							<originalvideofilename></originalvideofilename>
							<originalaudiofilename></originalaudiofilename>
						</logginginfo>
						<colorinfo>
							<lut></lut>
							<lut1></lut1>
							<asc_sop></asc_sop>
							<asc_sat></asc_sat>
							<lut2></lut2>
						</colorinfo>
						<labels>
							<label2>Iris</label2>
						</labels>
					</clipitem>
					<clipitem id="clipitem-179">
						<masterclipid>masterclip-98</masterclipid>
						<name>B005C009_190619_K136.mov</name>
						<enabled>TRUE</enabled>
						<duration>6992</duration>
						<rate>
							<timebase>25</timebase>
							<ntsc>FALSE</ntsc>
						</rate>
						<start>633</start>
						<end>661</end>
						<in>2135</in>
						<out>2163</out>
						<pproTicksIn>21692966400000</pproTicksIn>
						<pproTicksOut>21977464320000</pproTicksOut>
						<alphatype>none</alphatype>
						<file id="file-95"/>
						<logginginfo>
							<description></description>
							<scene></scene>
							<shottake></shottake>
							<lognote></lognote>
							<good></good>
							<originalvideofilename></originalvideofilename>
							<originalaudiofilename></originalaudiofilename>
						</logginginfo>
						<colorinfo>
							<lut></lut>
							<lut1></lut1>
							<asc_sop></asc_sop>
							<asc_sat></asc_sat>
							<lut2></lut2>
						</colorinfo>
						<labels>
							<label2>Iris</label2>
						</labels>
					</clipitem>
					<clipitem id="clipitem-180">
						<masterclipid>masterclip-99</masterclipid>
						<name>B005C008_190619_K136.mov</name>
						<enabled>TRUE</enabled>
						<duration>5421</duration>
						<rate>
							<timebase>25</timebase>
							<ntsc>FALSE</ntsc>
						</rate>
						<start>661</start>
						<end>705</end>
						<in>3538</in>
						<out>3582</out>
						<pproTicksIn>35948344320000</pproTicksIn>
						<pproTicksOut>36395412480000</pproTicksOut>
						<alphatype>none</alphatype>
						<pixelaspectratio>square</pixelaspectratio>
						<anamorphic>FALSE</anamorphic>
						<file id="file-96">
							<name>B005C008_190619_K136.mov</name>
							<pathurl>file://localhost/Volumes/PIGSTORE/Projects/rema_smartboat_0299_jun_2019/editorial/proxies/B005C008_190619_K136.mov</pathurl>
							<rate>
								<timebase>25</timebase>
								<ntsc>FALSE</ntsc>
							</rate>
							<duration>5421</duration>
							<timecode>
								<rate>
									<timebase>25</timebase>
									<ntsc>FALSE</ntsc>
								</rate>
								<string>11:27:38:22</string>
								<frame>1031472</frame>
								<displayformat>NDF</displayformat>
							</timecode>
							<media>
								<video>
									<samplecharacteristics>
										<rate>
											<timebase>25</timebase>
											<ntsc>FALSE</ntsc>
										</rate>
										<width>1920</width>
										<height>1080</height>
										<anamorphic>FALSE</anamorphic>
										<pixelaspectratio>square</pixelaspectratio>
										<fielddominance>none</fielddominance>
									</samplecharacteristics>
								</video>
								<audio>
									<samplecharacteristics>
										<depth>16</depth>
										<samplerate>48000</samplerate>
									</samplecharacteristics>
									<channelcount>1</channelcount>
									<audiochannel>
										<sourcechannel>1</sourcechannel>
									</audiochannel>
								</audio>
								<audio>
									<samplecharacteristics>
										<depth>16</depth>
										<samplerate>48000</samplerate>
									</samplecharacteristics>
									<channelcount>1</channelcount>
									<audiochannel>
										<sourcechannel>2</sourcechannel>
									</audiochannel>
								</audio>
								<audio>
									<samplecharacteristics>
										<depth>16</depth>
										<samplerate>48000</samplerate>
									</samplecharacteristics>
									<channelcount>1</channelcount>
									<audiochannel>
										<sourcechannel>3</sourcechannel>
									</audiochannel>
								</audio>
								<audio>
									<samplecharacteristics>
										<depth>16</depth>
										<samplerate>48000</samplerate>
									</samplecharacteristics>
									<channelcount>1</channelcount>
									<audiochannel>
										<sourcechannel>4</sourcechannel>
									</audiochannel>
								</audio>
							</media>
						</file>
						<logginginfo>
							<description></description>
							<scene></scene>
							<shottake></shottake>
							<lognote></lognote>
							<good></good>
							<originalvideofilename></originalvideofilename>
							<originalaudiofilename></originalaudiofilename>
						</logginginfo>
						<colorinfo>
							<lut></lut>
							<lut1></lut1>
							<asc_sop></asc_sop>
							<asc_sat></asc_sat>
							<lut2></lut2>
						</colorinfo>
						<labels>
							<label2>Iris</label2>
						</labels>
					</clipitem>
					<clipitem id="clipitem-181">
						<masterclipid>masterclip-98</masterclipid>
						<name>B005C009_190619_K136.mov</name>
						<enabled>TRUE</enabled>
						<duration>6992</duration>
						<rate>
							<timebase>25</timebase>
							<ntsc>FALSE</ntsc>
						</rate>
						<start>705</start>
						<end>756</end>
						<in>803</in>
						<out>854</out>
						<pproTicksIn>8158993920000</pproTicksIn>
						<pproTicksOut>8677186560000</pproTicksOut>
						<alphatype>none</alphatype>
						<file id="file-95"/>
						<filter>
							<effect>
								<name>Basic Motion</name>
								<effectid>basic</effectid>
								<effectcategory>motion</effectcategory>
								<effecttype>motion</effecttype>
								<mediatype>video</mediatype>
								<pproBypass>false</pproBypass>
								<parameter authoringApp="PremierePro">
									<parameterid>scale</parameterid>
									<name>Scale</name>
									<valuemin>0</valuemin>
									<valuemax>1000</valuemax>
									<value>122.599</value>
								</parameter>
								<parameter authoringApp="PremierePro">
									<parameterid>rotation</parameterid>
									<name>Rotation</name>
									<valuemin>-8640</valuemin>
									<valuemax>8640</valuemax>
									<value>0</value>
								</parameter>
								<parameter authoringApp="PremierePro">
									<parameterid>center</parameterid>
									<name>Center</name>
									<value>
										<horiz>-0.0564972</horiz>
										<vert>0.0452261</vert>
									</value>
								</parameter>
								<parameter authoringApp="PremierePro">
									<parameterid>centerOffset</parameterid>
									<name>Anchor Point</name>
									<value>
										<horiz>0</horiz>
										<vert>0</vert>
									</value>
								</parameter>
								<parameter authoringApp="PremierePro">
									<parameterid>antiflicker</parameterid>
									<name>Anti-flicker Filter</name>
									<valuemin>0.0</valuemin>
									<valuemax>1.0</valuemax>
									<value>0</value>
								</parameter>
							</effect>
						</filter>
						<logginginfo>
							<description></description>
							<scene></scene>
							<shottake></shottake>
							<lognote></lognote>
							<good></good>
							<originalvideofilename></originalvideofilename>
							<originalaudiofilename></originalaudiofilename>
						</logginginfo>
						<colorinfo>
							<lut></lut>
							<lut1></lut1>
							<asc_sop></asc_sop>
							<asc_sat></asc_sat>
							<lut2></lut2>
						</colorinfo>
						<labels>
							<label2>Iris</label2>
						</labels>
					</clipitem>
					<clipitem id="clipitem-182">
						<masterclipid>masterclip-100</masterclipid>
						<name>B005C012_190619_K136.mov</name>
						<enabled>TRUE</enabled>
						<duration>4923</duration>
						<rate>
							<timebase>25</timebase>
							<ntsc>FALSE</ntsc>
						</rate>
						<start>756</start>
						<end>875</end>
						<in>773</in>
						<out>892</out>
						<pproTicksIn>7854174720000</pproTicksIn>
						<pproTicksOut>9063290880000</pproTicksOut>
						<alphatype>none</alphatype>
						<pixelaspectratio>square</pixelaspectratio>
						<anamorphic>FALSE</anamorphic>
						<file id="file-97">
							<name>B005C012_190619_K136.mov</name>
							<pathurl>file://localhost/Volumes/PIGSTORE/Projects/rema_smartboat_0299_jun_2019/editorial/proxies/B005C012_190619_K136.mov</pathurl>
							<rate>
								<timebase>25</timebase>
								<ntsc>FALSE</ntsc>
							</rate>
							<duration>4923</duration>
							<timecode>
								<rate>
									<timebase>25</timebase>
									<ntsc>FALSE</ntsc>
								</rate>
								<string>11:45:15:04</string>
								<frame>1057879</frame>
								<displayformat>NDF</displayformat>
							</timecode>
							<media>
								<video>
									<samplecharacteristics>
										<rate>
											<timebase>25</timebase>
											<ntsc>FALSE</ntsc>
										</rate>
										<width>1920</width>
										<height>1080</height>
										<anamorphic>FALSE</anamorphic>
										<pixelaspectratio>square</pixelaspectratio>
										<fielddominance>none</fielddominance>
									</samplecharacteristics>
								</video>
								<audio>
									<samplecharacteristics>
										<depth>16</depth>
										<samplerate>48000</samplerate>
									</samplecharacteristics>
									<channelcount>1</channelcount>
									<audiochannel>
										<sourcechannel>1</sourcechannel>
									</audiochannel>
								</audio>
								<audio>
									<samplecharacteristics>
										<depth>16</depth>
										<samplerate>48000</samplerate>
									</samplecharacteristics>
									<channelcount>1</channelcount>
									<audiochannel>
										<sourcechannel>2</sourcechannel>
									</audiochannel>
								</audio>
								<audio>
									<samplecharacteristics>
										<depth>16</depth>
										<samplerate>48000</samplerate>
									</samplecharacteristics>
									<channelcount>1</channelcount>
									<audiochannel>
										<sourcechannel>3</sourcechannel>
									</audiochannel>
								</audio>
								<audio>
									<samplecharacteristics>
										<depth>16</depth>
										<samplerate>48000</samplerate>
									</samplecharacteristics>
									<channelcount>1</channelcount>
									<audiochannel>
										<sourcechannel>4</sourcechannel>
									</audiochannel>
								</audio>
								<audio>
									<samplecharacteristics>
										<depth>16</depth>
										<samplerate>48000</samplerate>
									</samplecharacteristics>
									<channelcount>1</channelcount>
									<audiochannel>
										<sourcechannel>5</sourcechannel>
									</audiochannel>
								</audio>
							</media>
						</file>
						<filter>
							<effect>
								<name>Basic Motion</name>
								<effectid>basic</effectid>
								<effectcategory>motion</effectcategory>
								<effecttype>motion</effecttype>
								<mediatype>video</mediatype>
								<pproBypass>false</pproBypass>
								<parameter authoringApp="PremierePro">
									<parameterid>scale</parameterid>
									<name>Scale</name>
									<valuemin>0</valuemin>
									<valuemax>1000</valuemax>
									<value>127.01</value>
								</parameter>
								<parameter authoringApp="PremierePro">
									<parameterid>rotation</parameterid>
									<name>Rotation</name>
									<valuemin>-8640</valuemin>
									<valuemax>8640</valuemax>
									<value>0</value>
								</parameter>
								<parameter authoringApp="PremierePro">
									<parameterid>center</parameterid>
									<name>Center</name>
									<value>
										<horiz>-0.0159236</horiz>
										<vert>-0.128302</vert>
									</value>
								</parameter>
								<parameter authoringApp="PremierePro">
									<parameterid>centerOffset</parameterid>
									<name>Anchor Point</name>
									<value>
										<horiz>0</horiz>
										<vert>0</vert>
									</value>
								</parameter>
								<parameter authoringApp="PremierePro">
									<parameterid>antiflicker</parameterid>
									<name>Anti-flicker Filter</name>
									<valuemin>0.0</valuemin>
									<valuemax>1.0</valuemax>
									<value>0</value>
								</parameter>
							</effect>
						</filter>
						<logginginfo>
							<description></description>
							<scene></scene>
							<shottake></shottake>
							<lognote></lognote>
							<good></good>
							<originalvideofilename></originalvideofilename>
							<originalaudiofilename></originalaudiofilename>
						</logginginfo>
						<colorinfo>
							<lut></lut>
							<lut1></lut1>
							<asc_sop></asc_sop>
							<asc_sat></asc_sat>
							<lut2></lut2>
						</colorinfo>
						<labels>
							<label2>Iris</label2>
						</labels>
					</clipitem>
					<enabled>TRUE</enabled>
					<locked>FALSE</locked>
				</track>
				<track TL.SQTrackShy="0" TL.SQTrackExpandedHeight="25" TL.SQTrackExpanded="0" MZ.TrackTargeted="0">
					<clipitem id="clipitem-183">
						<masterclipid>masterclip-101</masterclipid>
						<name>B003C020_190618_K136.mov</name>
						<enabled>TRUE</enabled>
						<duration>1343</duration>
						<rate>
							<timebase>25</timebase>
							<ntsc>FALSE</ntsc>
						</rate>
						<start>393</start>
						<end>411</end>
						<in>1150</in>
						<out>1168</out>
						<pproTicksIn>11684736000000</pproTicksIn>
						<pproTicksOut>11867627520000</pproTicksOut>
						<alphatype>none</alphatype>
						<pixelaspectratio>square</pixelaspectratio>
						<anamorphic>FALSE</anamorphic>
						<file id="file-98">
							<name>B003C020_190618_K136.mov</name>
							<pathurl>file://localhost/Volumes/PIGSTORE/Projects/rema_smartboat_0299_jun_2019/editorial/proxies/B003C020_190618_K136.mov</pathurl>
							<rate>
								<timebase>25</timebase>
								<ntsc>FALSE</ntsc>
							</rate>
							<duration>1343</duration>
							<timecode>
								<rate>
									<timebase>25</timebase>
									<ntsc>FALSE</ntsc>
								</rate>
								<string>02:38:18:22</string>
								<frame>237472</frame>
								<displayformat>NDF</displayformat>
							</timecode>
							<media>
								<video>
									<samplecharacteristics>
										<rate>
											<timebase>25</timebase>
											<ntsc>FALSE</ntsc>
										</rate>
										<width>1920</width>
										<height>1080</height>
										<anamorphic>FALSE</anamorphic>
										<pixelaspectratio>square</pixelaspectratio>
										<fielddominance>none</fielddominance>
									</samplecharacteristics>
								</video>
								<audio>
									<samplecharacteristics>
										<depth>16</depth>
										<samplerate>48000</samplerate>
									</samplecharacteristics>
									<channelcount>1</channelcount>
									<audiochannel>
										<sourcechannel>1</sourcechannel>
									</audiochannel>
								</audio>
								<audio>
									<samplecharacteristics>
										<depth>16</depth>
										<samplerate>48000</samplerate>
									</samplecharacteristics>
									<channelcount>1</channelcount>
									<audiochannel>
										<sourcechannel>2</sourcechannel>
									</audiochannel>
								</audio>
								<audio>
									<samplecharacteristics>
										<depth>16</depth>
										<samplerate>48000</samplerate>
									</samplecharacteristics>
									<channelcount>1</channelcount>
									<audiochannel>
										<sourcechannel>3</sourcechannel>
									</audiochannel>
								</audio>
								<audio>
									<samplecharacteristics>
										<depth>16</depth>
										<samplerate>48000</samplerate>
									</samplecharacteristics>
									<channelcount>1</channelcount>
									<audiochannel>
										<sourcechannel>4</sourcechannel>
									</audiochannel>
								</audio>
								<audio>
									<samplecharacteristics>
										<depth>16</depth>
										<samplerate>48000</samplerate>
									</samplecharacteristics>
									<channelcount>1</channelcount>
									<audiochannel>
										<sourcechannel>5</sourcechannel>
									</audiochannel>
								</audio>
							</media>
						</file>
						<logginginfo>
							<description></description>
							<scene></scene>
							<shottake></shottake>
							<lognote></lognote>
							<good></good>
							<originalvideofilename></originalvideofilename>
							<originalaudiofilename></originalaudiofilename>
						</logginginfo>
						<colorinfo>
							<lut></lut>
							<lut1></lut1>
							<asc_sop></asc_sop>
							<asc_sat></asc_sat>
							<lut2></lut2>
						</colorinfo>
						<labels>
							<label2>Iris</label2>
						</labels>
					</clipitem>
					<clipitem id="clipitem-184">
						<masterclipid>masterclip-101</masterclipid>
						<name>B003C020_190618_K136.mov</name>
						<enabled>TRUE</enabled>
						<duration>1343</duration>
						<rate>
							<timebase>25</timebase>
							<ntsc>FALSE</ntsc>
						</rate>
						<start>411</start>
						<end>422</end>
						<in>1168</in>
						<out>1179</out>
						<pproTicksIn>11867627520000</pproTicksIn>
						<pproTicksOut>11979394560000</pproTicksOut>
						<alphatype>none</alphatype>
						<file id="file-98"/>
						<logginginfo>
							<description></description>
							<scene></scene>
							<shottake></shottake>
							<lognote></lognote>
							<good></good>
							<originalvideofilename></originalvideofilename>
							<originalaudiofilename></originalaudiofilename>
						</logginginfo>
						<colorinfo>
							<lut></lut>
							<lut1></lut1>
							<asc_sop></asc_sop>
							<asc_sat></asc_sat>
							<lut2></lut2>
						</colorinfo>
						<labels>
							<label2>Iris</label2>
						</labels>
					</clipitem>
					<enabled>TRUE</enabled>
					<locked>FALSE</locked>
				</track>
				<track TL.SQTrackShy="0" TL.SQTrackExpandedHeight="25" TL.SQTrackExpanded="0" MZ.TrackTargeted="0">
					<clipitem id="clipitem-185">
						<masterclipid>masterclip-102</masterclipid>
						<name>A001C009_190628_K136.mov</name>
						<enabled>TRUE</enabled>
						<duration>2675</duration>
						<rate>
							<timebase>25</timebase>
							<ntsc>FALSE</ntsc>
						</rate>
						<start>402</start>
						<end>422</end>
						<in>2281</in>
						<out>2301</out>
						<pproTicksIn>23176419840000</pproTicksIn>
						<pproTicksOut>23379632640000</pproTicksOut>
						<alphatype>none</alphatype>
						<pixelaspectratio>square</pixelaspectratio>
						<anamorphic>FALSE</anamorphic>
						<file id="file-99">
							<name>A001C009_190628_K136.mov</name>
							<pathurl>file://localhost/Volumes/PIGSTORE/Projects/rema_smartboat_0299_jun_2019/editorial/proxies/A001C009_190628_K136.mov</pathurl>
							<rate>
								<timebase>25</timebase>
								<ntsc>FALSE</ntsc>
							</rate>
							<duration>2675</duration>
							<timecode>
								<rate>
									<timebase>25</timebase>
									<ntsc>FALSE</ntsc>
								</rate>
								<string>04:43:35:15</string>
								<frame>425390</frame>
								<displayformat>NDF</displayformat>
							</timecode>
							<media>
								<video>
									<samplecharacteristics>
										<rate>
											<timebase>25</timebase>
											<ntsc>FALSE</ntsc>
										</rate>
										<width>1920</width>
										<height>1080</height>
										<anamorphic>FALSE</anamorphic>
										<pixelaspectratio>square</pixelaspectratio>
										<fielddominance>none</fielddominance>
									</samplecharacteristics>
								</video>
							</media>
						</file>
						<logginginfo>
							<description></description>
							<scene></scene>
							<shottake></shottake>
							<lognote></lognote>
							<good></good>
							<originalvideofilename></originalvideofilename>
							<originalaudiofilename></originalaudiofilename>
						</logginginfo>
						<colorinfo>
							<lut></lut>
							<lut1></lut1>
							<asc_sop></asc_sop>
							<asc_sat></asc_sat>
							<lut2></lut2>
						</colorinfo>
						<labels>
							<label2>Iris</label2>
						</labels>
					</clipitem>
					<enabled>TRUE</enabled>
					<locked>FALSE</locked>
				</track>
				<track TL.SQTrackShy="0" TL.SQTrackExpandedHeight="25" TL.SQTrackExpanded="0" MZ.TrackTargeted="0">
					<clipitem id="clipitem-186">
						<masterclipid>masterclip-103</masterclipid>
						<name>kisspng-hamburger-patty-breakfast-sausage-bread-steak-5b5e0fe29529e5.056011201532891106611.png</name>
						<enabled>TRUE</enabled>
						<duration>1080000</duration>
						<rate>
							<timebase>25</timebase>
							<ntsc>FALSE</ntsc>
						</rate>
						<start>402</start>
						<end>416</end>
						<in>90004</in>
						<out>90018</out>
						<pproTicksIn>914498242560000</pproTicksIn>
						<pproTicksOut>914640491520000</pproTicksOut>
						<alphatype>straight</alphatype>
						<pixelaspectratio>square</pixelaspectratio>
						<anamorphic>FALSE</anamorphic>
						<file id="file-100">
							<name>kisspng-hamburger-patty-breakfast-sausage-bread-steak-5b5e0fe29529e5.056011201532891106611.png</name>
							<pathurl>file://localhost/Volumes/PIGSTORE/Projects/rema_smartboat_0299_jun_2019/editorial/project/premiere/BEN/ASSETS/GFX/TEMP/kisspng-hamburger-patty-breakfast-sausage-bread-steak-5b5e0fe29529e5.056011201532891106611.png</pathurl>
							<rate>
								<timebase>30</timebase>
								<ntsc>TRUE</ntsc>
							</rate>
							<timecode>
								<rate>
									<timebase>30</timebase>
									<ntsc>TRUE</ntsc>
								</rate>
								<string>00;00;00;00</string>
								<frame>0</frame>
								<displayformat>DF</displayformat>
							</timecode>
							<media>
								<video>
									<samplecharacteristics>
										<rate>
											<timebase>30</timebase>
											<ntsc>TRUE</ntsc>
										</rate>
										<width>1000</width>
										<height>706</height>
										<anamorphic>FALSE</anamorphic>
										<pixelaspectratio>square</pixelaspectratio>
										<fielddominance>none</fielddominance>
									</samplecharacteristics>
								</video>
							</media>
						</file>
						<filter>
							<effect>
								<name>Basic Motion</name>
								<effectid>basic</effectid>
								<effectcategory>motion</effectcategory>
								<effecttype>motion</effecttype>
								<mediatype>video</mediatype>
								<pproBypass>false</pproBypass>
								<parameter authoringApp="PremierePro">
									<parameterid>scale</parameterid>
									<name>Scale</name>
									<valuemin>0</valuemin>
									<valuemax>1000</valuemax>
									<value>11.0508</value>
									<keyframe>
										<when>90010</when>
										<value>11.0508</value>
									</keyframe>
								</parameter>
								<parameter authoringApp="PremierePro">
									<parameterid>rotation</parameterid>
									<name>Rotation</name>
									<valuemin>-8640</valuemin>
									<valuemax>8640</valuemax>
									<value>0</value>
								</parameter>
								<parameter authoringApp="PremierePro">
									<parameterid>center</parameterid>
									<name>Center</name>
									<value>
										<horiz>-0.0325424</horiz>
										<vert>-0.0922459</vert>
									</value>
									<keyframe>
										<when>90004</when>
										<value>
											<horiz>0.18</horiz>
											<vert>0.82153</vert>
										</value>
									</keyframe>
									<keyframe>
										<when>90010</when>
										<value>
											<horiz>0.201376</horiz>
											<vert>-0.212716</vert>
										</value>
									</keyframe>
									<keyframe>
										<when>90011</when>
										<value>
											<horiz>0.36333</horiz>
											<vert>-0.257975</vert>
										</value>
									</keyframe>
									<keyframe>
										<when>90013</when>
										<value>
											<horiz>0.648879</horiz>
											<vert>-0.369613</vert>
										</value>
									</keyframe>
									<keyframe>
										<when>90016</when>
										<value>
											<horiz>1.06229</horiz>
											<vert>-0.5597</vert>
										</value>
									</keyframe>
									<keyframe>
										<when>90017</when>
										<value>
											<horiz>0.987119</horiz>
											<vert>-0.486718</vert>
										</value>
									</keyframe>
								</parameter>
								<parameter authoringApp="PremierePro">
									<parameterid>centerOffset</parameterid>
									<name>Anchor Point</name>
									<value>
										<horiz>0</horiz>
										<vert>0</vert>
									</value>
								</parameter>
								<parameter authoringApp="PremierePro">
									<parameterid>antiflicker</parameterid>
									<name>Anti-flicker Filter</name>
									<valuemin>0.0</valuemin>
									<valuemax>1.0</valuemax>
									<value>0</value>
								</parameter>
							</effect>
						</filter>
						<filter>
							<effect>
								<name>Opacity</name>
								<effectid>opacity</effectid>
								<effectcategory>motion</effectcategory>
								<effecttype>motion</effecttype>
								<mediatype>video</mediatype>
								<pproBypass>false</pproBypass>
								<parameter authoringApp="PremierePro">
									<parameterid>opacity</parameterid>
									<name>opacity</name>
									<valuemin>0</valuemin>
									<valuemax>100</valuemax>
									<value>98</value>
								</parameter>
							</effect>
						</filter>
						<filter>
							<effect>
								<name>Gaussian Blur</name>
								<effectid>Gaussian Blur</effectid>
								<effectcategory>Blur</effectcategory>
								<effecttype>motion</effecttype>
								<mediatype>video</mediatype>
								<pproBypass>false</pproBypass>
								<parameter authoringApp="PremierePro">
									<parameterid>radius</parameterid>
									<name>Radius</name>
									<valuemin>0</valuemin>
									<valuemax>100</valuemax>
									<value>50</value>
								</parameter>
							</effect>
						</filter>
						<filter>
							<effect>
								<name></name>
								<effectid>Lumetri</effectid>
								<effecttype>filter</effecttype>
								<mediatype>video</mediatype>
								<pproBypass>false</pproBypass>
								<parameter authoringApp="PremierePro">
									<parameterid>1</parameterid>
									<name>Blob</name>
									<hash>63866a15-9327-e4cb-ff31-c9ea0000000e</hash>
									<value>/v4=</value>
								</parameter>
								<parameter authoringApp="PremierePro">
									<parameterid>3</parameterid>
									<name> </name>
									<IsTimeVarying>false</IsTimeVarying>
									<ParameterControlType>4</ParameterControlType>
									<LowerBound>false</LowerBound>
									<UpperBound>true</UpperBound>
									<value>-91445760000000000,true,0,0,0,0,0,0</value>
								</parameter>
								<parameter authoringApp="PremierePro">
									<parameterid>4</parameterid>
									<name> </name>
									<hash>63866a15-9327-e4cb-ff31-c9ea0000000e</hash>
								</parameter>
								<parameter authoringApp="PremierePro">
									<parameterid>5</parameterid>
									<name>Input LUT</name>
									<IsTimeVarying>false</IsTimeVarying>
									<ParameterControlType>7</ParameterControlType>
									<LowerBound>0</LowerBound>
									<UpperBound>998</UpperBound>
									<value>-91445760000000000,0,0,0,0,0,0,0</value>
								</parameter>
								<parameter authoringApp="PremierePro">
									<parameterid>7</parameterid>
									<name>Temperature</name>
									<IsTimeVarying>false</IsTimeVarying>
									<ParameterControlType>8</ParameterControlType>
									<LowerBound>-300</LowerBound>
									<UpperBound>300</UpperBound>
									<LowerUIBound>-100</LowerUIBound>
									<UpperUIBound>100</UpperUIBound>
									<value>-91445760000000000,-22.16216278076171875,0,0,0,0,0,0</value>
								</parameter>
								<parameter authoringApp="PremierePro">
									<parameterid>8</parameterid>
									<name>Tint</name>
									<IsTimeVarying>false</IsTimeVarying>
									<ParameterControlType>8</ParameterControlType>
									<LowerBound>-300</LowerBound>
									<UpperBound>300</UpperBound>
									<LowerUIBound>-100</LowerUIBound>
									<UpperUIBound>100</UpperUIBound>
									<value>-91445760000000000,0.,0,0,0,0,0,0</value>
								</parameter>
								<parameter authoringApp="PremierePro">
									<parameterid>11</parameterid>
									<name>Exposure</name>
									<IsTimeVarying>false</IsTimeVarying>
									<ParameterControlType>8</ParameterControlType>
									<LowerBound>-7</LowerBound>
									<UpperBound>7</UpperBound>
									<LowerUIBound>-5</LowerUIBound>
									<UpperUIBound>5</UpperUIBound>
									<value>-91445760000000000,-1.432432651519775390625,0,0,0,0,0,0</value>
								</parameter>
								<parameter authoringApp="PremierePro">
									<parameterid>12</parameterid>
									<name>Contrast</name>
									<IsTimeVarying>false</IsTimeVarying>
									<ParameterControlType>8</ParameterControlType>
									<LowerBound>-150</LowerBound>
									<UpperBound>150</UpperBound>
									<LowerUIBound>-100</LowerUIBound>
									<UpperUIBound>100</UpperUIBound>
									<value>-91445760000000000,0.,0,0,0,0,0,0</value>
								</parameter>
								<parameter authoringApp="PremierePro">
									<parameterid>13</parameterid>
									<name>Highlights</name>
									<IsTimeVarying>false</IsTimeVarying>
									<ParameterControlType>8</ParameterControlType>
									<LowerBound>-150</LowerBound>
									<UpperBound>150</UpperBound>
									<LowerUIBound>-100</LowerUIBound>
									<UpperUIBound>100</UpperUIBound>
									<value>-91445760000000000,11.351348876953125,0,0,0,0,0,0</value>
								</parameter>
								<parameter authoringApp="PremierePro">
									<parameterid>14</parameterid>
									<name>Shadows</name>
									<IsTimeVarying>false</IsTimeVarying>
									<ParameterControlType>8</ParameterControlType>
									<LowerBound>-150</LowerBound>
									<UpperBound>150</UpperBound>
									<LowerUIBound>-100</LowerUIBound>
									<UpperUIBound>100</UpperUIBound>
									<value>-91445760000000000,-57.83783721923828125,0,0,0,0,0,0</value>
								</parameter>
								<parameter authoringApp="PremierePro">
									<parameterid>15</parameterid>
									<name>Whites</name>
									<IsTimeVarying>false</IsTimeVarying>
									<ParameterControlType>8</ParameterControlType>
									<LowerBound>-150</LowerBound>
									<UpperBound>150</UpperBound>
									<LowerUIBound>-100</LowerUIBound>
									<UpperUIBound>100</UpperUIBound>
									<value>-91445760000000000,0.,0,0,0,0,0,0</value>
								</parameter>
								<parameter authoringApp="PremierePro">
									<parameterid>16</parameterid>
									<name>Blacks</name>
									<IsTimeVarying>false</IsTimeVarying>
									<ParameterControlType>8</ParameterControlType>
									<LowerBound>-150</LowerBound>
									<UpperBound>150</UpperBound>
									<LowerUIBound>-100</LowerUIBound>
									<UpperUIBound>100</UpperUIBound>
									<value>-91445760000000000,0.,0,0,0,0,0,0</value>
								</parameter>
								<parameter authoringApp="PremierePro">
									<parameterid>20</parameterid>
									<name>Saturation</name>
									<IsTimeVarying>false</IsTimeVarying>
									<ParameterControlType>8</ParameterControlType>
									<LowerBound>0</LowerBound>
									<UpperBound>300</UpperBound>
									<UpperUIBound>200</UpperUIBound>
									<value>-91445760000000000,100.,0,0,0,0,0,0</value>
								</parameter>
								<parameter authoringApp="PremierePro">
									<parameterid>23</parameterid>
									<name> </name>
									<IsTimeVarying>false</IsTimeVarying>
									<ParameterControlType>4</ParameterControlType>
									<LowerBound>false</LowerBound>
									<UpperBound>true</UpperBound>
									<value>-91445760000000000,true,0,0,0,0,0,0</value>
								</parameter>
								<parameter authoringApp="PremierePro">
									<parameterid>24</parameterid>
									<name> </name>
									<hash>63866a15-9327-e4cb-ff31-c9ea0000000e</hash>
								</parameter>
								<parameter authoringApp="PremierePro">
									<parameterid>25</parameterid>
									<name>Look</name>
									<IsTimeVarying>false</IsTimeVarying>
									<ParameterControlType>7</ParameterControlType>
									<LowerBound>0</LowerBound>
									<UpperBound>998</UpperBound>
									<value>-91445760000000000,0,0,0,0,0,0,0</value>
								</parameter>
								<parameter authoringApp="PremierePro">
									<parameterid>26</parameterid>
									<name>Intensity</name>
									<IsTimeVarying>false</IsTimeVarying>
									<ParameterControlType>8</ParameterControlType>
									<LowerBound>0</LowerBound>
									<UpperBound>200</UpperBound>
									<value>-91445760000000000,100.,0,0,0,0,0,0</value>
								</parameter>
								<parameter authoringApp="PremierePro">
									<parameterid>28</parameterid>
									<name>Faded Film</name>
									<IsTimeVarying>false</IsTimeVarying>
									<ParameterControlType>8</ParameterControlType>
									<LowerBound>0</LowerBound>
									<UpperBound>150</UpperBound>
									<UpperUIBound>100</UpperUIBound>
									<value>-91445760000000000,0.,0,0,0,0,0,0</value>
								</parameter>
								<parameter authoringApp="PremierePro">
									<parameterid>29</parameterid>
									<name>Sharpen</name>
									<IsTimeVarying>false</IsTimeVarying>
									<ParameterControlType>8</ParameterControlType>
									<LowerBound>-100</LowerBound>
									<UpperBound>100</UpperBound>
									<value>-91445760000000000,0.,0,0,0,0,0,0</value>
								</parameter>
								<parameter authoringApp="PremierePro">
									<parameterid>30</parameterid>
									<name>Vibrance</name>
									<IsTimeVarying>false</IsTimeVarying>
									<ParameterControlType>8</ParameterControlType>
									<LowerBound>-100</LowerBound>
									<UpperBound>100</UpperBound>
									<value>-91445760000000000,0.,0,0,0,0,0,0</value>
								</parameter>
								<parameter authoringApp="PremierePro">
									<parameterid>31</parameterid>
									<name>Saturation</name>
									<IsTimeVarying>false</IsTimeVarying>
									<ParameterControlType>8</ParameterControlType>
									<LowerBound>0</LowerBound>
									<UpperBound>300</UpperBound>
									<UpperUIBound>200</UpperUIBound>
									<value>-91445760000000000,100.,0,0,0,0,0,0</value>
								</parameter>
								<parameter authoringApp="PremierePro">
									<parameterid>32</parameterid>
									<name></name>
									<hash>49d2fca5-ddd1-a393-0544-f6d80000002c</hash>
									<value>AAAAAAAAAAAAAAAAAAAAAAAAAAAAAAAAAAAAAAAAAAA=</value>
								</parameter>
								<parameter authoringApp="PremierePro">
									<parameterid>33</parameterid>
									<name>Tint Balance</name>
									<IsTimeVarying>false</IsTimeVarying>
									<ParameterControlType>8</ParameterControlType>
									<LowerBound>-150</LowerBound>
									<UpperBound>150</UpperBound>
									<LowerUIBound>-100</LowerUIBound>
									<UpperUIBound>100</UpperUIBound>
									<value>-91445760000000000,0.,0,0,0,0,0,0</value>
								</parameter>
								<parameter authoringApp="PremierePro">
									<parameterid>37</parameterid>
									<name> </name>
									<IsTimeVarying>false</IsTimeVarying>
									<ParameterControlType>4</ParameterControlType>
									<LowerBound>false</LowerBound>
									<UpperBound>true</UpperBound>
									<value>-91445760000000000,true,0,0,0,0,0,0</value>
								</parameter>
								<parameter authoringApp="PremierePro">
									<parameterid>39</parameterid>
									<name> </name>
									<hash>261f3840-e8cf-a8cd-fa5e-bac10000082c</hash>
									<value>AAAAAAIAAAAAAAAAAAAAAAAAAAAAAAAAAAAAAAAA8D8AAAAAAADwPwAAAAAAAAAAAAAAAAAAAAAAAAAAAAAAAAAAAAAAAAAAAAAAAAAAAAAAAAAAAAAAAAAAAAAAAAAAAAAAAAAAAAAAAAAAAAAAAAAAAAAAAAAAAAAAAAAAAAAAAAAAAAAAAAAAAAAAAAAAAAAAAAAAAAAAAAAAAAAAAAAAAAAAAAAAAAAAAAAAAAAAAAAAAAAAAAAAAAAAAAAAAAAAAAAAAAAAAAAAAAAAAAAAAAAAAAAAAAAAAAAAAAAAAAAAAAAAAAAAAAAAAAAAAAAAAAAAAAAAAAAAAAAAAAAAAAAAAAAAAAAAAAAAAAAAAAAAAAAAAAAAAAAAAAAAAAAAAAAAAAAAAAAAAAAAAAAAAAAAAAAAAAAAAAAAAAAAAAAAAAAAAAAAAAAAAAAAAAAAAAAAAAAAAAAAAAAAAAAAAAAAAAAAAAAAAAAAAAAAAAAAAAAAAAAAAAAAAAAAAAAAAAAAAAAAAAAAAAAAAAAAAAAAAAAAAAAAAAAAAAAAAAAAAAAAAAAAAAAAAAAAAAAAAAAAAAAAAAAAAAAAAAAAAAAAAAAAAAAAAAAAAAAAAAAAAAAAAAAAAAAAAAAAAAAAAAAAAAAAAAAAAAAAAAAAAAAAAAAAAAAAAAAAAAAAAAAAAAAAAAAAAAACAAAAAAAAAAAAAAAAAAAAAAAAAAAAAAAAAPA/AAAAAAAA8D8AAAAAAAAAAAAAAAAAAAAAAAAAAAAAAAAAAAAAAAAAAAAAAAAAAAAAAAAAAAAAAAAAAAAAAAAAAAAAAAAAAAAAAAAAAAAAAAAAAAAAAAAAAAAAAAAAAAAAAAAAAAAAAAAAAAAAAAAAAAAAAAAAAAAAAAAAAAAAAAAAAAAAAAAAAAAAAAAAAAAAAAAAAAAAAAAAAAAAAAAAAAAAAAAAAAAAAAAAAAAAAAAAAAAAAAAAAAAAAAAAAAAAAAAAAAAAAAAAAAAAAAAAAAAAAAAAAAAAAAAAAAAAAAAAAAAAAAAAAAAAAAAAAAAAAAAAAAAAAAAAAAAAAAAAAAAAAAAAAAAAAAAAAAAAAAAAAAAAAAAAAAAAAAAAAAAAAAAAAAAAAAAAAAAAAAAAAAAAAAAAAAAAAAAAAAAAAAAAAAAAAAAAAAAAAAAAAAAAAAAAAAAAAAAAAAAAAAAAAAAAAAAAAAAAAAAAAAAAAAAAAAAAAAAAAAAAAAAAAAAAAAAAAAAAAAAAAAAAAAAAAAAAAAAAAAAAAAAAAAAAAAAAAAAAAAAAAAAAAAAAAAAAAAAAAAAAAAAAAAAAAAAAAAAAAAAAAAAAAAAAAAAAAAAAAAAAAAAAAAAAAAAAAAAAAAAAAAAAAAAAAAAAAgAAAAAAAAAAAAAAAAAAAAAAAAAAAAAAAADwPwAAAAAAAPA/AAAAAAAAAAAAAAAAAAAAAAAAAAAAAAAAAAAAAAAAAAAAAAAAAAAAAAAAAAAAAAAAAAAAAAAAAAAAAAAAAAAAAAAAAAAAAAAAAAAAAAAAAAAAAAAAAAAAAAAAAAAAAAAAAAAAAAAAAAAAAAAAAAAAAAAAAAAAAAAAAAAAAAAAAAAAAAAAAAAAAAAAAAAAAAAAAAAAAAAAAAAAAAAAAAAAAAAAAAAAAAAAAAAAAAAAAAAAAAAAAAAAAAAAAAAAAAAAAAAAAAAAAAAAAAAAAAAAAAAAAAAAAAAAAAAAAAAAAAAAAAAAAAAAAAAAAAAAAAAAAAAAAAAAAAAAAAAAAAAAAAAAAAAAAAAAAAAAAAAAAAAAAAAAAAAAAAAAAAAAAAAAAAAAAAAAAAAAAAAAAAAAAAAAAAAAAAAAAAAAAAAAAAAAAAAAAAAAAAAAAAAAAAAAAAAAAAAAAAAAAAAAAAAAAAAAAAAAAAAAAAAAAAAAAAAAAAAAAAAAAAAAAAAAAAAAAAAAAAAAAAAAAAAAAAAAAAAAAAAAAAAAAAAAAAAAAAAAAAAAAAAAAAAAAAAAAAAAAAAAAAAAAAAAAAAAAAAAAAAAAAAAAAAAAAAAAAAAAAAAAAAAAAAAAAAAAAAAAAAAAAAAAAIAAAAAAAAAAAAAAAAAAAAAAAAAAAAAAAAA8D8AAAAAAADwPwAAAAAAAAAAAAAAAAAAAAAAAAAAAAAAAAAAAAAAAAAAAAAAAAAAAAAAAAAAAAAAAAAAAAAAAAAAAAAAAAAAAAAAAAAAAAAAAAAAAAAAAAAAAAAAAAAAAAAAAAAAAAAAAAAAAAAAAAAAAAAAAAAAAAAAAAAAAAAAAAAAAAAAAAAAAAAAAAAAAAAAAAAAAAAAAAAAAAAAAAAAAAAAAAAAAAAAAAAAAAAAAAAAAAAAAAAAAAAAAAAAAAAAAAAAAAAAAAAAAAAAAAAAAAAAAAAAAAAAAAAAAAAAAAAAAAAAAAAAAAAAAAAAAAAAAAAAAAAAAAAAAAAAAAAAAAAAAAAAAAAAAAAAAAAAAAAAAAAAAAAAAAAAAAAAAAAAAAAAAAAAAAAAAAAAAAAAAAAAAAAAAAAAAAAAAAAAAAAAAAAAAAAAAAAAAAAAAAAAAAAAAAAAAAAAAAAAAAAAAAAAAAAAAAAAAAAAAAAAAAAAAAAAAAAAAAAAAAAAAAAAAAAAAAAAAAAAAAAAAAAAAAAAAAAAAAAAAAAAAAAAAAAAAAAAAAAAAAAAAAAAAAAAAAAAAAAAAAAAAAAAAAAAAAAAAAAAAAAAAAAAAAAAAAAAAAAAAAAAAAAAAAAAAAAAAAAAAAAAAA==</value>
								</parameter>
								<parameter authoringApp="PremierePro">
									<parameterid>42</parameterid>
									<name>Hue vs Sat</name>
									<hash>f146cafe-eab3-19ed-0ee8-de0e00000214</hash>
									<value>AwAAAAAAAAAAAAAAAAAAAAAAAAAAAAAAAAAAAAAA8D8AAAAAAADwPwAAAAAAAAAAAAAAAAAAAAAAAAAAAAAAAAAAAAAAAAAAAAAAAAAAAAAAAAAAAAAAAAAAAAAAAAAAAAAAAAAAAAAAAAAAAAAAAAAAAAAAAAAAAAAAAAAAAAAAAAAAAAAAAAAAAAAAAAAAAAAAAAAAAAAAAAAAAAAAAAAAAAAAAAAAAAAAAAAAAAAAAAAAAAAAAAAAAAAAAAAAAAAAAAAAAAAAAAAAAAAAAAAAAAAAAAAAAAAAAAAAAAAAAAAAAAAAAAAAAAAAAAAAAAAAAAAAAAAAAAAAAAAAAAAAAAAAAAAAAAAAAAAAAAAAAAAAAAAAAAAAAAAAAAAAAAAAAAAAAAAAAAAAAAAAAAAAAAAAAAAAAAAAAAAAAAAAAAAAAAAAAAAAAAAAAAAAAAAAAAAAAAAAAAAAAAAAAAAAAAAAAAAAAAAAAAAAAAAAAAAAAAAAAAAAAAAAAAAAAAAAAAAAAAAAAAAAAAAAAAAAAAAAAAAAAAAAAAAAAAAAAAAAAAAAAAAAAAAAAAAAAAAAAAAAAAAAAAAAAAAAAAAAAAAAAAAAAAAAAAAAAAAAAAAAAAAAAAAAAAAAAAAAAAAAAAAAAAAAAAAAAAAAAAAAAAAAAAAAAAAAAAAAAAAAAAAAAAAAAA==</value>
								</parameter>
								<parameter authoringApp="PremierePro">
									<parameterid>46</parameterid>
									<name> </name>
									<IsTimeVarying>false</IsTimeVarying>
									<ParameterControlType>4</ParameterControlType>
									<LowerBound>false</LowerBound>
									<UpperBound>true</UpperBound>
									<value>-91445760000000000,true,0,0,0,0,0,0</value>
								</parameter>
								<parameter authoringApp="PremierePro">
									<parameterid>47</parameterid>
									<name> </name>
									<hash>0b5436c4-bae0-bb64-a2f6-c8c40000006c</hash>
									<value>AAAAAAAAAAAAAAAAAADgPwAAAAAAAAAAAAAAAAAAAAAAAAAAAADgPwAAAAAAAAAAAAAAAAAAAAAAAAAAAADgPwAAAAAAAAAAAAAAAAAAAAAAAAAAAADgPwAAAAAAAAAA</value>
								</parameter>
								<parameter authoringApp="PremierePro">
									<parameterid>50</parameterid>
									<name> </name>
									<IsTimeVarying>false</IsTimeVarying>
									<ParameterControlType>4</ParameterControlType>
									<LowerBound>false</LowerBound>
									<UpperBound>true</UpperBound>
									<value>-91445760000000000,true,0,0,0,0,0,0</value>
								</parameter>
								<parameter authoringApp="PremierePro">
									<parameterid>51</parameterid>
									<name>Amount</name>
									<IsTimeVarying>false</IsTimeVarying>
									<ParameterControlType>8</ParameterControlType>
									<LowerBound>-5</LowerBound>
									<UpperBound>5</UpperBound>
									<LowerUIBound>-3</LowerUIBound>
									<UpperUIBound>3</UpperUIBound>
									<value>-91445760000000000,0.,0,0,0,0,0,0</value>
								</parameter>
								<parameter authoringApp="PremierePro">
									<parameterid>52</parameterid>
									<name>Midpoint</name>
									<IsTimeVarying>false</IsTimeVarying>
									<ParameterControlType>8</ParameterControlType>
									<LowerBound>0</LowerBound>
									<UpperBound>100</UpperBound>
									<value>-91445760000000000,50.,0,0,0,0,0,0</value>
								</parameter>
								<parameter authoringApp="PremierePro">
									<parameterid>53</parameterid>
									<name>Roundness</name>
									<IsTimeVarying>false</IsTimeVarying>
									<ParameterControlType>8</ParameterControlType>
									<LowerBound>-100</LowerBound>
									<UpperBound>100</UpperBound>
									<value>-91445760000000000,0.,0,0,0,0,0,0</value>
								</parameter>
								<parameter authoringApp="PremierePro">
									<parameterid>54</parameterid>
									<name>Feather</name>
									<IsTimeVarying>false</IsTimeVarying>
									<ParameterControlType>8</ParameterControlType>
									<LowerBound>0</LowerBound>
									<UpperBound>100</UpperBound>
									<value>-91445760000000000,50.,0,0,0,0,0,0</value>
								</parameter>
							</effect>
						</filter>
						<logginginfo>
							<description></description>
							<scene></scene>
							<shottake></shottake>
							<lognote></lognote>
							<good></good>
							<originalvideofilename></originalvideofilename>
							<originalaudiofilename></originalaudiofilename>
						</logginginfo>
						<colorinfo>
							<lut></lut>
							<lut1></lut1>
							<asc_sop></asc_sop>
							<asc_sat></asc_sat>
							<lut2></lut2>
						</colorinfo>
						<labels>
							<label2>Lavender</label2>
						</labels>
					</clipitem>
					<enabled>TRUE</enabled>
					<locked>FALSE</locked>
				</track>
				<track TL.SQTrackShy="0" TL.SQTrackExpandedHeight="25" TL.SQTrackExpanded="0" MZ.TrackTargeted="0">
					<enabled>TRUE</enabled>
					<locked>FALSE</locked>
				</track>
				<track TL.SQTrackShy="0" TL.SQTrackExpandedHeight="25" TL.SQTrackExpanded="0" MZ.TrackTargeted="0">
					<enabled>TRUE</enabled>
					<locked>FALSE</locked>
				</track>
				<track TL.SQTrackShy="0" TL.SQTrackExpandedHeight="25" TL.SQTrackExpanded="0" MZ.TrackTargeted="0">
					<enabled>TRUE</enabled>
					<locked>FALSE</locked>
				</track>
				<track TL.SQTrackShy="0" TL.SQTrackExpandedHeight="25" TL.SQTrackExpanded="0" MZ.TrackTargeted="0">
					<enabled>TRUE</enabled>
					<locked>FALSE</locked>
				</track>
			</video>
			<audio>
				<numOutputChannels>2</numOutputChannels>
				<format>
					<samplecharacteristics>
						<depth>16</depth>
						<samplerate>48000</samplerate>
					</samplecharacteristics>
				</format>
				<outputs>
					<group>
						<index>1</index>
						<numchannels>1</numchannels>
						<downmix>0</downmix>
						<channel>
							<index>1</index>
						</channel>
					</group>
					<group>
						<index>2</index>
						<numchannels>1</numchannels>
						<downmix>0</downmix>
						<channel>
							<index>2</index>
						</channel>
					</group>
				</outputs>
				<track TL.SQTrackAudioKeyframeStyle="0" TL.SQTrackShy="0" TL.SQTrackExpandedHeight="15" TL.SQTrackExpanded="0" MZ.TrackTargeted="1" PannerCurrentValue="0.5" PannerIsInverted="true" PannerStartKeyframe="-91445760000000000,0.5,0,0,0,0,0,0" PannerName="Balance" currentExplodedTrackIndex="0" totalExplodedTrackCount="2" premiereTrackType="Stereo">
					<enabled>TRUE</enabled>
					<locked>FALSE</locked>
					<outputchannelindex>1</outputchannelindex>
				</track>
				<track TL.SQTrackAudioKeyframeStyle="0" TL.SQTrackShy="0" TL.SQTrackExpandedHeight="15" TL.SQTrackExpanded="0" MZ.TrackTargeted="1" PannerCurrentValue="0.5" PannerIsInverted="true" PannerStartKeyframe="-91445760000000000,0.5,0,0,0,0,0,0" PannerName="Balance" currentExplodedTrackIndex="1" totalExplodedTrackCount="2" premiereTrackType="Stereo">
					<enabled>TRUE</enabled>
					<locked>FALSE</locked>
					<outputchannelindex>2</outputchannelindex>
				</track>
				<track TL.SQTrackAudioKeyframeStyle="0" TL.SQTrackShy="0" TL.SQTrackExpandedHeight="15" TL.SQTrackExpanded="0" MZ.TrackTargeted="1" PannerCurrentValue="0.5" PannerIsInverted="true" PannerStartKeyframe="-91445760000000000,0.5,0,0,0,0,0,0" PannerName="Balance" currentExplodedTrackIndex="0" totalExplodedTrackCount="2" premiereTrackType="Stereo">
					<enabled>TRUE</enabled>
					<locked>FALSE</locked>
					<outputchannelindex>1</outputchannelindex>
				</track>
				<track TL.SQTrackAudioKeyframeStyle="0" TL.SQTrackShy="0" TL.SQTrackExpandedHeight="15" TL.SQTrackExpanded="0" MZ.TrackTargeted="1" PannerCurrentValue="0.5" PannerIsInverted="true" PannerStartKeyframe="-91445760000000000,0.5,0,0,0,0,0,0" PannerName="Balance" currentExplodedTrackIndex="1" totalExplodedTrackCount="2" premiereTrackType="Stereo">
					<enabled>TRUE</enabled>
					<locked>FALSE</locked>
					<outputchannelindex>2</outputchannelindex>
				</track>
				<track TL.SQTrackAudioKeyframeStyle="0" TL.SQTrackShy="0" TL.SQTrackExpandedHeight="15" TL.SQTrackExpanded="0" MZ.TrackTargeted="1" PannerCurrentValue="0.5" PannerIsInverted="true" PannerStartKeyframe="-91445760000000000,0.5,0,0,0,0,0,0" PannerName="Balance" currentExplodedTrackIndex="0" totalExplodedTrackCount="2" premiereTrackType="Stereo">
					<enabled>TRUE</enabled>
					<locked>FALSE</locked>
					<outputchannelindex>1</outputchannelindex>
				</track>
				<track TL.SQTrackAudioKeyframeStyle="0" TL.SQTrackShy="0" TL.SQTrackExpandedHeight="15" TL.SQTrackExpanded="0" MZ.TrackTargeted="1" PannerCurrentValue="0.5" PannerIsInverted="true" PannerStartKeyframe="-91445760000000000,0.5,0,0,0,0,0,0" PannerName="Balance" currentExplodedTrackIndex="1" totalExplodedTrackCount="2" premiereTrackType="Stereo">
					<enabled>TRUE</enabled>
					<locked>FALSE</locked>
					<outputchannelindex>2</outputchannelindex>
				</track>
				<track TL.SQTrackAudioKeyframeStyle="0" TL.SQTrackShy="0" TL.SQTrackExpandedHeight="15" TL.SQTrackExpanded="0" MZ.TrackTargeted="1" PannerCurrentValue="0.5" PannerIsInverted="true" PannerStartKeyframe="-91445760000000000,0.5,0,0,0,0,0,0" PannerName="Balance" currentExplodedTrackIndex="0" totalExplodedTrackCount="2" premiereTrackType="Stereo">
					<enabled>TRUE</enabled>
					<locked>FALSE</locked>
					<outputchannelindex>1</outputchannelindex>
				</track>
				<track TL.SQTrackAudioKeyframeStyle="0" TL.SQTrackShy="0" TL.SQTrackExpandedHeight="15" TL.SQTrackExpanded="0" MZ.TrackTargeted="1" PannerCurrentValue="0.5" PannerIsInverted="true" PannerStartKeyframe="-91445760000000000,0.5,0,0,0,0,0,0" PannerName="Balance" currentExplodedTrackIndex="1" totalExplodedTrackCount="2" premiereTrackType="Stereo">
					<enabled>TRUE</enabled>
					<locked>FALSE</locked>
					<outputchannelindex>2</outputchannelindex>
				</track>
				<track TL.SQTrackAudioKeyframeStyle="0" TL.SQTrackShy="0" TL.SQTrackExpandedHeight="15" TL.SQTrackExpanded="0" MZ.TrackTargeted="0" PannerCurrentValue="0.5" PannerIsInverted="true" PannerStartKeyframe="-91445760000000000,0.5,0,0,0,0,0,0" PannerName="Balance" currentExplodedTrackIndex="0" totalExplodedTrackCount="2" premiereTrackType="Stereo">
					<enabled>TRUE</enabled>
					<locked>FALSE</locked>
					<outputchannelindex>1</outputchannelindex>
				</track>
				<track TL.SQTrackAudioKeyframeStyle="0" TL.SQTrackShy="0" TL.SQTrackExpandedHeight="15" TL.SQTrackExpanded="0" MZ.TrackTargeted="0" PannerCurrentValue="0.5" PannerIsInverted="true" PannerStartKeyframe="-91445760000000000,0.5,0,0,0,0,0,0" PannerName="Balance" currentExplodedTrackIndex="1" totalExplodedTrackCount="2" premiereTrackType="Stereo">
					<enabled>TRUE</enabled>
					<locked>FALSE</locked>
					<outputchannelindex>2</outputchannelindex>
				</track>
				<track TL.SQTrackAudioKeyframeStyle="0" TL.SQTrackShy="0" TL.SQTrackExpandedHeight="15" TL.SQTrackExpanded="0" MZ.TrackTargeted="0" PannerCurrentValue="0.5" PannerIsInverted="true" PannerStartKeyframe="-91445760000000000,0.5,0,0,0,0,0,0" PannerName="Balance" currentExplodedTrackIndex="0" totalExplodedTrackCount="2" premiereTrackType="Stereo">
					<enabled>TRUE</enabled>
					<locked>FALSE</locked>
					<outputchannelindex>1</outputchannelindex>
				</track>
				<track TL.SQTrackAudioKeyframeStyle="0" TL.SQTrackShy="0" TL.SQTrackExpandedHeight="15" TL.SQTrackExpanded="0" MZ.TrackTargeted="0" PannerCurrentValue="0.5" PannerIsInverted="true" PannerStartKeyframe="-91445760000000000,0.5,0,0,0,0,0,0" PannerName="Balance" currentExplodedTrackIndex="1" totalExplodedTrackCount="2" premiereTrackType="Stereo">
					<enabled>TRUE</enabled>
					<locked>FALSE</locked>
					<outputchannelindex>2</outputchannelindex>
				</track>
				<track TL.SQTrackAudioKeyframeStyle="0" TL.SQTrackShy="0" TL.SQTrackExpandedHeight="15" TL.SQTrackExpanded="0" MZ.TrackTargeted="0" PannerCurrentValue="0.5" PannerIsInverted="true" PannerStartKeyframe="-91445760000000000,0.5,0,0,0,0,0,0" PannerName="Balance" currentExplodedTrackIndex="0" totalExplodedTrackCount="2" premiereTrackType="Stereo">
					<enabled>TRUE</enabled>
					<locked>FALSE</locked>
					<outputchannelindex>1</outputchannelindex>
				</track>
				<track TL.SQTrackAudioKeyframeStyle="0" TL.SQTrackShy="0" TL.SQTrackExpandedHeight="15" TL.SQTrackExpanded="0" MZ.TrackTargeted="0" PannerCurrentValue="0.5" PannerIsInverted="true" PannerStartKeyframe="-91445760000000000,0.5,0,0,0,0,0,0" PannerName="Balance" currentExplodedTrackIndex="1" totalExplodedTrackCount="2" premiereTrackType="Stereo">
					<enabled>TRUE</enabled>
					<locked>FALSE</locked>
					<outputchannelindex>2</outputchannelindex>
				</track>
				<track TL.SQTrackAudioKeyframeStyle="0" TL.SQTrackShy="0" TL.SQTrackExpandedHeight="15" TL.SQTrackExpanded="0" MZ.TrackTargeted="0" PannerCurrentValue="0.5" PannerIsInverted="true" PannerStartKeyframe="-91445760000000000,0.5,0,0,0,0,0,0" PannerName="Balance" currentExplodedTrackIndex="0" totalExplodedTrackCount="2" premiereTrackType="Stereo">
					<enabled>TRUE</enabled>
					<locked>FALSE</locked>
					<outputchannelindex>1</outputchannelindex>
				</track>
				<track TL.SQTrackAudioKeyframeStyle="0" TL.SQTrackShy="0" TL.SQTrackExpandedHeight="15" TL.SQTrackExpanded="0" MZ.TrackTargeted="0" PannerCurrentValue="0.5" PannerIsInverted="true" PannerStartKeyframe="-91445760000000000,0.5,0,0,0,0,0,0" PannerName="Balance" currentExplodedTrackIndex="1" totalExplodedTrackCount="2" premiereTrackType="Stereo">
					<enabled>TRUE</enabled>
					<locked>FALSE</locked>
					<outputchannelindex>2</outputchannelindex>
				</track>
				<track TL.SQTrackAudioKeyframeStyle="0" TL.SQTrackShy="0" TL.SQTrackExpandedHeight="15" TL.SQTrackExpanded="0" MZ.TrackTargeted="0" PannerCurrentValue="0.5" PannerIsInverted="true" PannerStartKeyframe="-91445760000000000,0.5,0,0,0,0,0,0" PannerName="Balance" currentExplodedTrackIndex="0" totalExplodedTrackCount="2" premiereTrackType="Stereo">
					<enabled>TRUE</enabled>
					<locked>FALSE</locked>
					<outputchannelindex>1</outputchannelindex>
				</track>
				<track TL.SQTrackAudioKeyframeStyle="0" TL.SQTrackShy="0" TL.SQTrackExpandedHeight="15" TL.SQTrackExpanded="0" MZ.TrackTargeted="0" PannerCurrentValue="0.5" PannerIsInverted="true" PannerStartKeyframe="-91445760000000000,0.5,0,0,0,0,0,0" PannerName="Balance" currentExplodedTrackIndex="1" totalExplodedTrackCount="2" premiereTrackType="Stereo">
					<enabled>TRUE</enabled>
					<locked>FALSE</locked>
					<outputchannelindex>2</outputchannelindex>
				</track>
				<track TL.SQTrackAudioKeyframeStyle="0" TL.SQTrackShy="0" TL.SQTrackExpandedHeight="15" TL.SQTrackExpanded="0" MZ.TrackTargeted="0" PannerCurrentValue="0.5" PannerIsInverted="true" PannerStartKeyframe="-91445760000000000,0.5,0,0,0,0,0,0" PannerName="Balance" currentExplodedTrackIndex="0" totalExplodedTrackCount="2" premiereTrackType="Stereo">
					<enabled>TRUE</enabled>
					<locked>FALSE</locked>
					<outputchannelindex>1</outputchannelindex>
				</track>
				<track TL.SQTrackAudioKeyframeStyle="0" TL.SQTrackShy="0" TL.SQTrackExpandedHeight="15" TL.SQTrackExpanded="0" MZ.TrackTargeted="0" PannerCurrentValue="0.5" PannerIsInverted="true" PannerStartKeyframe="-91445760000000000,0.5,0,0,0,0,0,0" PannerName="Balance" currentExplodedTrackIndex="1" totalExplodedTrackCount="2" premiereTrackType="Stereo">
					<enabled>TRUE</enabled>
					<locked>FALSE</locked>
					<outputchannelindex>2</outputchannelindex>
				</track>
				<track TL.SQTrackAudioKeyframeStyle="0" TL.SQTrackShy="0" TL.SQTrackExpandedHeight="15" TL.SQTrackExpanded="0" MZ.TrackTargeted="0" PannerCurrentValue="0.5" PannerIsInverted="true" PannerStartKeyframe="-91445760000000000,0.5,0,0,0,0,0,0" PannerName="Balance" currentExplodedTrackIndex="0" totalExplodedTrackCount="2" premiereTrackType="Stereo">
					<enabled>TRUE</enabled>
					<locked>FALSE</locked>
					<outputchannelindex>1</outputchannelindex>
				</track>
				<track TL.SQTrackAudioKeyframeStyle="0" TL.SQTrackShy="0" TL.SQTrackExpandedHeight="15" TL.SQTrackExpanded="0" MZ.TrackTargeted="0" PannerCurrentValue="0.5" PannerIsInverted="true" PannerStartKeyframe="-91445760000000000,0.5,0,0,0,0,0,0" PannerName="Balance" currentExplodedTrackIndex="1" totalExplodedTrackCount="2" premiereTrackType="Stereo">
					<enabled>TRUE</enabled>
					<locked>FALSE</locked>
					<outputchannelindex>2</outputchannelindex>
				</track>
				<track TL.SQTrackAudioKeyframeStyle="0" TL.SQTrackShy="0" TL.SQTrackExpandedHeight="15" TL.SQTrackExpanded="0" MZ.TrackTargeted="0" PannerCurrentValue="0.5" PannerIsInverted="true" PannerStartKeyframe="-91445760000000000,0.5,0,0,0,0,0,0" PannerName="Balance" currentExplodedTrackIndex="0" totalExplodedTrackCount="2" premiereTrackType="Stereo">
					<enabled>TRUE</enabled>
					<locked>FALSE</locked>
					<outputchannelindex>1</outputchannelindex>
				</track>
				<track TL.SQTrackAudioKeyframeStyle="0" TL.SQTrackShy="0" TL.SQTrackExpandedHeight="15" TL.SQTrackExpanded="0" MZ.TrackTargeted="0" PannerCurrentValue="0.5" PannerIsInverted="true" PannerStartKeyframe="-91445760000000000,0.5,0,0,0,0,0,0" PannerName="Balance" currentExplodedTrackIndex="1" totalExplodedTrackCount="2" premiereTrackType="Stereo">
					<enabled>TRUE</enabled>
					<locked>FALSE</locked>
					<outputchannelindex>2</outputchannelindex>
				</track>
				<track TL.SQTrackAudioKeyframeStyle="0" TL.SQTrackShy="0" TL.SQTrackExpandedHeight="15" TL.SQTrackExpanded="0" MZ.TrackTargeted="0" PannerCurrentValue="0.5" PannerIsInverted="true" PannerStartKeyframe="-91445760000000000,0.5,0,0,0,0,0,0" PannerName="Balance" currentExplodedTrackIndex="0" totalExplodedTrackCount="2" premiereTrackType="Stereo">
					<enabled>TRUE</enabled>
					<locked>FALSE</locked>
					<outputchannelindex>1</outputchannelindex>
				</track>
				<track TL.SQTrackAudioKeyframeStyle="0" TL.SQTrackShy="0" TL.SQTrackExpandedHeight="15" TL.SQTrackExpanded="0" MZ.TrackTargeted="0" PannerCurrentValue="0.5" PannerIsInverted="true" PannerStartKeyframe="-91445760000000000,0.5,0,0,0,0,0,0" PannerName="Balance" currentExplodedTrackIndex="1" totalExplodedTrackCount="2" premiereTrackType="Stereo">
					<enabled>TRUE</enabled>
					<locked>FALSE</locked>
					<outputchannelindex>2</outputchannelindex>
				</track>
				<track TL.SQTrackAudioKeyframeStyle="0" TL.SQTrackShy="0" TL.SQTrackExpandedHeight="15" TL.SQTrackExpanded="0" MZ.TrackTargeted="0" PannerCurrentValue="0.5" PannerIsInverted="true" PannerStartKeyframe="-91445760000000000,0.5,0,0,0,0,0,0" PannerName="Balance" currentExplodedTrackIndex="0" totalExplodedTrackCount="2" premiereTrackType="Stereo">
					<enabled>TRUE</enabled>
					<locked>FALSE</locked>
					<outputchannelindex>1</outputchannelindex>
				</track>
				<track TL.SQTrackAudioKeyframeStyle="0" TL.SQTrackShy="0" TL.SQTrackExpandedHeight="15" TL.SQTrackExpanded="0" MZ.TrackTargeted="0" PannerCurrentValue="0.5" PannerIsInverted="true" PannerStartKeyframe="-91445760000000000,0.5,0,0,0,0,0,0" PannerName="Balance" currentExplodedTrackIndex="1" totalExplodedTrackCount="2" premiereTrackType="Stereo">
					<enabled>TRUE</enabled>
					<locked>FALSE</locked>
					<outputchannelindex>2</outputchannelindex>
				</track>
				<track TL.SQTrackAudioKeyframeStyle="0" TL.SQTrackShy="0" TL.SQTrackExpandedHeight="25" TL.SQTrackExpanded="0" MZ.TrackTargeted="0" PannerCurrentValue="0.5" PannerIsInverted="true" PannerStartKeyframe="-91445760000000000,0.5,0,0,0,0,0,0" PannerName="Balance" currentExplodedTrackIndex="0" totalExplodedTrackCount="2" premiereTrackType="Stereo">
					<enabled>TRUE</enabled>
					<locked>FALSE</locked>
					<outputchannelindex>1</outputchannelindex>
				</track>
				<track TL.SQTrackAudioKeyframeStyle="0" TL.SQTrackShy="0" TL.SQTrackExpandedHeight="25" TL.SQTrackExpanded="0" MZ.TrackTargeted="0" PannerCurrentValue="0.5" PannerIsInverted="true" PannerStartKeyframe="-91445760000000000,0.5,0,0,0,0,0,0" PannerName="Balance" currentExplodedTrackIndex="1" totalExplodedTrackCount="2" premiereTrackType="Stereo">
					<enabled>TRUE</enabled>
					<locked>FALSE</locked>
					<outputchannelindex>2</outputchannelindex>
				</track>
				<track TL.SQTrackAudioKeyframeStyle="0" TL.SQTrackShy="0" TL.SQTrackExpandedHeight="25" TL.SQTrackExpanded="0" MZ.TrackTargeted="0" PannerCurrentValue="0.5" PannerIsInverted="true" PannerStartKeyframe="-91445760000000000,0.5,0,0,0,0,0,0" PannerName="Balance" currentExplodedTrackIndex="0" totalExplodedTrackCount="2" premiereTrackType="Stereo">
					<enabled>FALSE</enabled>
					<locked>FALSE</locked>
					<outputchannelindex>1</outputchannelindex>
				</track>
				<track TL.SQTrackAudioKeyframeStyle="0" TL.SQTrackShy="0" TL.SQTrackExpandedHeight="25" TL.SQTrackExpanded="0" MZ.TrackTargeted="0" PannerCurrentValue="0.5" PannerIsInverted="true" PannerStartKeyframe="-91445760000000000,0.5,0,0,0,0,0,0" PannerName="Balance" currentExplodedTrackIndex="1" totalExplodedTrackCount="2" premiereTrackType="Stereo">
					<enabled>FALSE</enabled>
					<locked>FALSE</locked>
					<outputchannelindex>2</outputchannelindex>
				</track>
				<track TL.SQTrackAudioKeyframeStyle="0" TL.SQTrackShy="0" TL.SQTrackExpandedHeight="25" TL.SQTrackExpanded="0" MZ.TrackTargeted="0" PannerCurrentValue="0.5" PannerIsInverted="true" PannerStartKeyframe="-91445760000000000,0.5,0,0,0,0,0,0" PannerName="Balance" currentExplodedTrackIndex="0" totalExplodedTrackCount="2" premiereTrackType="Stereo">
					<enabled>FALSE</enabled>
					<locked>FALSE</locked>
					<outputchannelindex>1</outputchannelindex>
				</track>
				<track TL.SQTrackAudioKeyframeStyle="0" TL.SQTrackShy="0" TL.SQTrackExpandedHeight="25" TL.SQTrackExpanded="0" MZ.TrackTargeted="0" PannerCurrentValue="0.5" PannerIsInverted="true" PannerStartKeyframe="-91445760000000000,0.5,0,0,0,0,0,0" PannerName="Balance" currentExplodedTrackIndex="1" totalExplodedTrackCount="2" premiereTrackType="Stereo">
					<enabled>FALSE</enabled>
					<locked>FALSE</locked>
					<outputchannelindex>2</outputchannelindex>
				</track>
				<track TL.SQTrackAudioKeyframeStyle="0" TL.SQTrackShy="0" TL.SQTrackExpandedHeight="25" TL.SQTrackExpanded="0" MZ.TrackTargeted="0" PannerCurrentValue="0.5" PannerIsInverted="true" PannerStartKeyframe="-91445760000000000,0.5,0,0,0,0,0,0" PannerName="Balance" currentExplodedTrackIndex="0" totalExplodedTrackCount="2" premiereTrackType="Stereo">
					<enabled>FALSE</enabled>
					<locked>FALSE</locked>
					<outputchannelindex>1</outputchannelindex>
				</track>
				<track TL.SQTrackAudioKeyframeStyle="0" TL.SQTrackShy="0" TL.SQTrackExpandedHeight="25" TL.SQTrackExpanded="0" MZ.TrackTargeted="0" PannerCurrentValue="0.5" PannerIsInverted="true" PannerStartKeyframe="-91445760000000000,0.5,0,0,0,0,0,0" PannerName="Balance" currentExplodedTrackIndex="1" totalExplodedTrackCount="2" premiereTrackType="Stereo">
					<enabled>FALSE</enabled>
					<locked>FALSE</locked>
					<outputchannelindex>2</outputchannelindex>
				</track>
				<track TL.SQTrackAudioKeyframeStyle="0" TL.SQTrackShy="0" TL.SQTrackExpandedHeight="25" TL.SQTrackExpanded="0" MZ.TrackTargeted="0" PannerCurrentValue="0.5" PannerIsInverted="true" PannerStartKeyframe="-91445760000000000,0.5,0,0,0,0,0,0" PannerName="Balance" currentExplodedTrackIndex="0" totalExplodedTrackCount="2" premiereTrackType="Stereo">
					<enabled>FALSE</enabled>
					<locked>FALSE</locked>
					<outputchannelindex>1</outputchannelindex>
				</track>
				<track TL.SQTrackAudioKeyframeStyle="0" TL.SQTrackShy="0" TL.SQTrackExpandedHeight="25" TL.SQTrackExpanded="0" MZ.TrackTargeted="0" PannerCurrentValue="0.5" PannerIsInverted="true" PannerStartKeyframe="-91445760000000000,0.5,0,0,0,0,0,0" PannerName="Balance" currentExplodedTrackIndex="1" totalExplodedTrackCount="2" premiereTrackType="Stereo">
					<enabled>FALSE</enabled>
					<locked>FALSE</locked>
					<outputchannelindex>2</outputchannelindex>
				</track>
				<track TL.SQTrackAudioKeyframeStyle="0" TL.SQTrackShy="0" TL.SQTrackExpandedHeight="25" TL.SQTrackExpanded="0" MZ.TrackTargeted="0" PannerCurrentValue="0.5" PannerIsInverted="true" PannerStartKeyframe="-91445760000000000,0.5,0,0,0,0,0,0" PannerName="Balance" currentExplodedTrackIndex="0" totalExplodedTrackCount="2" premiereTrackType="Stereo">
					<enabled>FALSE</enabled>
					<locked>FALSE</locked>
					<outputchannelindex>1</outputchannelindex>
				</track>
				<track TL.SQTrackAudioKeyframeStyle="0" TL.SQTrackShy="0" TL.SQTrackExpandedHeight="25" TL.SQTrackExpanded="0" MZ.TrackTargeted="0" PannerCurrentValue="0.5" PannerIsInverted="true" PannerStartKeyframe="-91445760000000000,0.5,0,0,0,0,0,0" PannerName="Balance" currentExplodedTrackIndex="1" totalExplodedTrackCount="2" premiereTrackType="Stereo">
					<enabled>FALSE</enabled>
					<locked>FALSE</locked>
					<outputchannelindex>2</outputchannelindex>
				</track>
			</audio>
		</media>
		<timecode>
			<rate>
				<timebase>25</timebase>
				<ntsc>FALSE</ntsc>
			</rate>
			<string>00:00:00:00</string>
			<frame>0</frame>
			<displayformat>NDF</displayformat>
		</timecode>
		<labels>
			<label2>Forest</label2>
		</labels>
		<logginginfo>
			<description></description>
			<scene></scene>
			<shottake></shottake>
			<lognote></lognote>
			<good></good>
			<originalvideofilename></originalvideofilename>
			<originalaudiofilename></originalaudiofilename>
		</logginginfo>
		<filter>
			<effect>
				<name>Audio Levels</name>
				<effectid>audiolevels</effectid>
				<effectcategory>audiolevels</effectcategory>
				<effecttype>audiolevels</effecttype>
				<mediatype>audio</mediatype>
				<parameter authoringApp="PremierePro">
					<parameterid>level</parameterid>
					<name>Level</name>
					<valuemin>0</valuemin>
					<valuemax>3.98109</valuemax>
					<value>1.29272</value>
				</parameter>
			</effect>
		</filter>
	</sequence>
</xmeml>
